%TF.GenerationSoftware,KiCad,Pcbnew,7.0.5*%
%TF.CreationDate,2023-06-11T19:33:45+08:00*%
%TF.ProjectId,DiveCAN Head,44697665-4341-44e2-9048-6561642e6b69,rev?*%
%TF.SameCoordinates,Original*%
%TF.FileFunction,Drillmap*%
%TF.FilePolarity,Positive*%
%FSLAX45Y45*%
G04 Gerber Fmt 4.5, Leading zero omitted, Abs format (unit mm)*
G04 Created by KiCad (PCBNEW 7.0.5) date 2023-06-11 19:33:45*
%MOMM*%
%LPD*%
G01*
G04 APERTURE LIST*
%ADD10C,0.100000*%
%ADD11C,0.200000*%
%ADD12C,0.020000*%
%ADD13C,0.035000*%
%ADD14C,0.050000*%
G04 APERTURE END LIST*
D10*
X10005000Y-9215000D02*
X12675000Y-9215000D01*
X12675000Y-11705000D01*
X10005000Y-11705000D01*
X10005000Y-9215000D01*
D11*
D12*
X10087500Y-9750000D02*
X10107500Y-9770000D01*
X10107500Y-9750000D02*
X10087500Y-9770000D01*
X10095000Y-11435000D02*
X10115000Y-11455000D01*
X10115000Y-11435000D02*
X10095000Y-11455000D01*
X10200000Y-9720000D02*
X10220000Y-9740000D01*
X10220000Y-9720000D02*
X10200000Y-9740000D01*
X10200000Y-9940000D02*
X10220000Y-9960000D01*
X10220000Y-9940000D02*
X10200000Y-9960000D01*
X10210000Y-10340000D02*
X10230000Y-10360000D01*
X10230000Y-10340000D02*
X10210000Y-10360000D01*
X10220000Y-10270000D02*
X10240000Y-10290000D01*
X10240000Y-10270000D02*
X10220000Y-10290000D01*
X10250000Y-9450000D02*
X10270000Y-9470000D01*
X10270000Y-9450000D02*
X10250000Y-9470000D01*
X10250000Y-10130000D02*
X10270000Y-10150000D01*
X10270000Y-10130000D02*
X10250000Y-10150000D01*
X10260000Y-10810000D02*
X10280000Y-10830000D01*
X10280000Y-10810000D02*
X10260000Y-10830000D01*
X10310000Y-11540000D02*
X10330000Y-11560000D01*
X10330000Y-11540000D02*
X10310000Y-11560000D01*
X10350000Y-11290000D02*
X10370000Y-11310000D01*
X10370000Y-11290000D02*
X10350000Y-11310000D01*
X10390000Y-10650000D02*
X10410000Y-10670000D01*
X10410000Y-10650000D02*
X10390000Y-10670000D01*
X10440000Y-9380000D02*
X10460000Y-9400000D01*
X10460000Y-9380000D02*
X10440000Y-9400000D01*
X10470000Y-10740000D02*
X10490000Y-10760000D01*
X10490000Y-10740000D02*
X10470000Y-10760000D01*
X10500000Y-10050000D02*
X10520000Y-10070000D01*
X10520000Y-10050000D02*
X10500000Y-10070000D01*
X10550000Y-9290000D02*
X10570000Y-9310000D01*
X10570000Y-9290000D02*
X10550000Y-9310000D01*
X10620000Y-9300000D02*
X10640000Y-9320000D01*
X10640000Y-9300000D02*
X10620000Y-9320000D01*
X10640000Y-10510000D02*
X10660000Y-10530000D01*
X10660000Y-10510000D02*
X10640000Y-10530000D01*
X10660000Y-9360000D02*
X10680000Y-9380000D01*
X10680000Y-9360000D02*
X10660000Y-9380000D01*
X10660000Y-9430000D02*
X10680000Y-9450000D01*
X10680000Y-9430000D02*
X10660000Y-9450000D01*
X10680000Y-10410000D02*
X10700000Y-10430000D01*
X10700000Y-10410000D02*
X10680000Y-10430000D01*
X10730000Y-11320000D02*
X10750000Y-11340000D01*
X10750000Y-11320000D02*
X10730000Y-11340000D01*
X10730000Y-11420000D02*
X10750000Y-11440000D01*
X10750000Y-11420000D02*
X10730000Y-11440000D01*
X10750000Y-10120000D02*
X10770000Y-10140000D01*
X10770000Y-10120000D02*
X10750000Y-10140000D01*
X10780000Y-11547500D02*
X10800000Y-11567500D01*
X10800000Y-11547500D02*
X10780000Y-11567500D01*
X10790000Y-10600000D02*
X10810000Y-10620000D01*
X10810000Y-10600000D02*
X10790000Y-10620000D01*
X10800000Y-10320000D02*
X10820000Y-10340000D01*
X10820000Y-10320000D02*
X10800000Y-10340000D01*
X10800000Y-11420000D02*
X10820000Y-11440000D01*
X10820000Y-11420000D02*
X10800000Y-11440000D01*
X10810000Y-9410000D02*
X10830000Y-9430000D01*
X10830000Y-9410000D02*
X10810000Y-9430000D01*
X10820000Y-10160000D02*
X10840000Y-10180000D01*
X10840000Y-10160000D02*
X10820000Y-10180000D01*
X10820000Y-10400000D02*
X10840000Y-10420000D01*
X10840000Y-10400000D02*
X10820000Y-10420000D01*
X10830000Y-9850000D02*
X10850000Y-9870000D01*
X10850000Y-9850000D02*
X10830000Y-9870000D01*
X10830000Y-10890000D02*
X10850000Y-10910000D01*
X10850000Y-10890000D02*
X10830000Y-10910000D01*
X10840000Y-10760000D02*
X10860000Y-10780000D01*
X10860000Y-10760000D02*
X10840000Y-10780000D01*
X10850000Y-11020000D02*
X10870000Y-11040000D01*
X10870000Y-11020000D02*
X10850000Y-11040000D01*
X10850761Y-11329239D02*
X10870761Y-11349239D01*
X10870761Y-11329239D02*
X10850761Y-11349239D01*
X10890000Y-9920000D02*
X10910000Y-9940000D01*
X10910000Y-9920000D02*
X10890000Y-9940000D01*
X10900000Y-11120000D02*
X10920000Y-11140000D01*
X10920000Y-11120000D02*
X10900000Y-11140000D01*
X10905000Y-11525000D02*
X10925000Y-11545000D01*
X10925000Y-11525000D02*
X10905000Y-11545000D01*
X10930000Y-11280000D02*
X10950000Y-11300000D01*
X10950000Y-11280000D02*
X10930000Y-11300000D01*
X10948650Y-10818650D02*
X10968650Y-10838650D01*
X10968650Y-10818650D02*
X10948650Y-10838650D01*
X10950000Y-10950000D02*
X10970000Y-10970000D01*
X10970000Y-10950000D02*
X10950000Y-10970000D01*
X10950000Y-11020000D02*
X10970000Y-11040000D01*
X10970000Y-11020000D02*
X10950000Y-11040000D01*
X10950000Y-11210000D02*
X10970000Y-11230000D01*
X10970000Y-11210000D02*
X10950000Y-11230000D01*
X10990000Y-9450000D02*
X11010000Y-9470000D01*
X11010000Y-9450000D02*
X10990000Y-9470000D01*
X10990000Y-9520000D02*
X11010000Y-9540000D01*
X11010000Y-9520000D02*
X10990000Y-9540000D01*
X10990000Y-9590000D02*
X11010000Y-9610000D01*
X11010000Y-9590000D02*
X10990000Y-9610000D01*
X10990000Y-11410000D02*
X11010000Y-11430000D01*
X11010000Y-11410000D02*
X10990000Y-11430000D01*
X11000000Y-10460000D02*
X11020000Y-10480000D01*
X11020000Y-10460000D02*
X11000000Y-10480000D01*
X11001522Y-11480000D02*
X11021522Y-11500000D01*
X11021522Y-11480000D02*
X11001522Y-11500000D01*
X11010000Y-9680000D02*
X11030000Y-9700000D01*
X11030000Y-9680000D02*
X11010000Y-9700000D01*
X11010000Y-9761350D02*
X11030000Y-9781350D01*
X11030000Y-9761350D02*
X11010000Y-9781350D01*
X11010000Y-10360000D02*
X11030000Y-10380000D01*
X11030000Y-10360000D02*
X11010000Y-10380000D01*
X11050000Y-11360000D02*
X11070000Y-11380000D01*
X11070000Y-11360000D02*
X11050000Y-11380000D01*
X11070000Y-11575000D02*
X11090000Y-11595000D01*
X11090000Y-11575000D02*
X11070000Y-11595000D01*
X11090000Y-10690000D02*
X11110000Y-10710000D01*
X11110000Y-10690000D02*
X11090000Y-10710000D01*
X11100000Y-9630000D02*
X11120000Y-9650000D01*
X11120000Y-9630000D02*
X11100000Y-9650000D01*
X11100000Y-9720000D02*
X11120000Y-9740000D01*
X11120000Y-9720000D02*
X11100000Y-9740000D01*
X11100000Y-10760000D02*
X11120000Y-10780000D01*
X11120000Y-10760000D02*
X11100000Y-10780000D01*
X11110000Y-9997500D02*
X11130000Y-10017500D01*
X11130000Y-9997500D02*
X11110000Y-10017500D01*
X11110000Y-11020000D02*
X11130000Y-11040000D01*
X11130000Y-11020000D02*
X11110000Y-11040000D01*
X11111350Y-11321350D02*
X11131350Y-11341350D01*
X11131350Y-11321350D02*
X11111350Y-11341350D01*
X11120000Y-10180000D02*
X11140000Y-10200000D01*
X11140000Y-10180000D02*
X11120000Y-10200000D01*
X11140000Y-10370000D02*
X11160000Y-10390000D01*
X11160000Y-10370000D02*
X11140000Y-10390000D01*
X11160000Y-9310000D02*
X11180000Y-9330000D01*
X11180000Y-9310000D02*
X11160000Y-9330000D01*
X11170000Y-10510000D02*
X11190000Y-10530000D01*
X11190000Y-10510000D02*
X11170000Y-10530000D01*
X11170000Y-11210000D02*
X11190000Y-11230000D01*
X11190000Y-11210000D02*
X11170000Y-11230000D01*
X11180000Y-9600000D02*
X11200000Y-9620000D01*
X11200000Y-9600000D02*
X11180000Y-9620000D01*
X11180000Y-11020000D02*
X11200000Y-11040000D01*
X11200000Y-11020000D02*
X11180000Y-11040000D01*
X11190000Y-11280000D02*
X11210000Y-11300000D01*
X11210000Y-11280000D02*
X11190000Y-11300000D01*
X11190000Y-11410000D02*
X11210000Y-11430000D01*
X11210000Y-11410000D02*
X11190000Y-11430000D01*
X11200000Y-9470000D02*
X11220000Y-9490000D01*
X11220000Y-9470000D02*
X11200000Y-9490000D01*
X11270000Y-9470000D02*
X11290000Y-9490000D01*
X11290000Y-9470000D02*
X11270000Y-9490000D01*
X11290000Y-10467500D02*
X11310000Y-10487500D01*
X11310000Y-10467500D02*
X11290000Y-10487500D01*
X11340000Y-9470000D02*
X11360000Y-9490000D01*
X11360000Y-9470000D02*
X11340000Y-9490000D01*
X11440000Y-9470000D02*
X11460000Y-9490000D01*
X11460000Y-9470000D02*
X11440000Y-9490000D01*
X11445000Y-9655000D02*
X11465000Y-9675000D01*
X11465000Y-9655000D02*
X11445000Y-9675000D01*
X11450000Y-9830000D02*
X11470000Y-9850000D01*
X11470000Y-9830000D02*
X11450000Y-9850000D01*
X11450000Y-10050000D02*
X11470000Y-10070000D01*
X11470000Y-10050000D02*
X11450000Y-10070000D01*
X11450000Y-10681900D02*
X11470000Y-10701900D01*
X11470000Y-10681900D02*
X11450000Y-10701900D01*
X11450000Y-11150000D02*
X11470000Y-11170000D01*
X11470000Y-11150000D02*
X11450000Y-11170000D01*
X11460000Y-10790000D02*
X11480000Y-10810000D01*
X11480000Y-10790000D02*
X11460000Y-10810000D01*
X11495000Y-10340000D02*
X11515000Y-10360000D01*
X11515000Y-10340000D02*
X11495000Y-10360000D01*
X11500000Y-11230000D02*
X11520000Y-11250000D01*
X11520000Y-11230000D02*
X11500000Y-11250000D01*
X11550000Y-9460000D02*
X11570000Y-9480000D01*
X11570000Y-9460000D02*
X11550000Y-9480000D01*
X11570000Y-11460000D02*
X11590000Y-11480000D01*
X11590000Y-11460000D02*
X11570000Y-11480000D01*
X11620000Y-11330000D02*
X11640000Y-11350000D01*
X11640000Y-11330000D02*
X11620000Y-11350000D01*
X11670000Y-10140000D02*
X11690000Y-10160000D01*
X11690000Y-10140000D02*
X11670000Y-10160000D01*
X11670000Y-11190000D02*
X11690000Y-11210000D01*
X11690000Y-11190000D02*
X11670000Y-11210000D01*
X11675000Y-10415000D02*
X11695000Y-10435000D01*
X11695000Y-10415000D02*
X11675000Y-10435000D01*
X11700000Y-10310000D02*
X11720000Y-10330000D01*
X11720000Y-10310000D02*
X11700000Y-10330000D01*
X11720000Y-9480000D02*
X11740000Y-9500000D01*
X11740000Y-9480000D02*
X11720000Y-9500000D01*
X11760000Y-10445000D02*
X11780000Y-10465000D01*
X11780000Y-10445000D02*
X11760000Y-10465000D01*
X11790000Y-11660000D02*
X11810000Y-11680000D01*
X11810000Y-11660000D02*
X11790000Y-11680000D01*
X11800000Y-10690000D02*
X11820000Y-10710000D01*
X11820000Y-10690000D02*
X11800000Y-10710000D01*
X11820000Y-10170000D02*
X11840000Y-10190000D01*
X11840000Y-10170000D02*
X11820000Y-10190000D01*
X11820000Y-10250000D02*
X11840000Y-10270000D01*
X11840000Y-10250000D02*
X11820000Y-10270000D01*
X11830000Y-11530000D02*
X11850000Y-11550000D01*
X11850000Y-11530000D02*
X11830000Y-11550000D01*
X11840000Y-9300000D02*
X11860000Y-9320000D01*
X11860000Y-9300000D02*
X11840000Y-9320000D01*
X11850000Y-9370000D02*
X11870000Y-9390000D01*
X11870000Y-9370000D02*
X11850000Y-9390000D01*
X11860000Y-11350000D02*
X11880000Y-11370000D01*
X11880000Y-11350000D02*
X11860000Y-11370000D01*
X11870000Y-10690000D02*
X11890000Y-10710000D01*
X11890000Y-10690000D02*
X11870000Y-10710000D01*
X11880000Y-10760000D02*
X11900000Y-10780000D01*
X11900000Y-10760000D02*
X11880000Y-10780000D01*
X11895000Y-11560000D02*
X11915000Y-11580000D01*
X11915000Y-11560000D02*
X11895000Y-11580000D01*
X11910000Y-9850000D02*
X11930000Y-9870000D01*
X11930000Y-9850000D02*
X11910000Y-9870000D01*
X11940000Y-10160000D02*
X11960000Y-10180000D01*
X11960000Y-10160000D02*
X11940000Y-10180000D01*
X11960000Y-10850000D02*
X11980000Y-10870000D01*
X11980000Y-10850000D02*
X11960000Y-10870000D01*
X12040000Y-9590000D02*
X12060000Y-9610000D01*
X12060000Y-9590000D02*
X12040000Y-9610000D01*
X12040000Y-11550000D02*
X12060000Y-11570000D01*
X12060000Y-11550000D02*
X12040000Y-11570000D01*
X12117500Y-11407500D02*
X12137500Y-11427500D01*
X12137500Y-11407500D02*
X12117500Y-11427500D01*
X12135000Y-10415000D02*
X12155000Y-10435000D01*
X12155000Y-10415000D02*
X12135000Y-10435000D01*
X12240000Y-11460000D02*
X12260000Y-11480000D01*
X12260000Y-11460000D02*
X12240000Y-11480000D01*
X12270000Y-11180000D02*
X12290000Y-11200000D01*
X12290000Y-11180000D02*
X12270000Y-11200000D01*
X12310000Y-9310000D02*
X12330000Y-9330000D01*
X12330000Y-9310000D02*
X12310000Y-9330000D01*
X12310000Y-11560000D02*
X12330000Y-11580000D01*
X12330000Y-11560000D02*
X12310000Y-11580000D01*
X12360000Y-9590000D02*
X12380000Y-9610000D01*
X12380000Y-9590000D02*
X12360000Y-9610000D01*
X12400000Y-11510000D02*
X12420000Y-11530000D01*
X12420000Y-11510000D02*
X12400000Y-11530000D01*
X12420000Y-9900000D02*
X12440000Y-9920000D01*
X12440000Y-9900000D02*
X12420000Y-9920000D01*
X12420000Y-10950000D02*
X12440000Y-10970000D01*
X12440000Y-10950000D02*
X12420000Y-10970000D01*
X12430000Y-9360000D02*
X12450000Y-9380000D01*
X12450000Y-9360000D02*
X12430000Y-9380000D01*
X12430000Y-11440000D02*
X12450000Y-11460000D01*
X12450000Y-11440000D02*
X12430000Y-11460000D01*
X12450000Y-9610000D02*
X12470000Y-9630000D01*
X12470000Y-9610000D02*
X12450000Y-9630000D01*
X12530000Y-9310000D02*
X12550000Y-9330000D01*
X12550000Y-9310000D02*
X12530000Y-9330000D01*
X12547500Y-11627500D02*
X12567500Y-11647500D01*
X12567500Y-11627500D02*
X12547500Y-11647500D01*
X12615000Y-10340000D02*
X12635000Y-10360000D01*
X12635000Y-10340000D02*
X12615000Y-10360000D01*
D13*
X11807500Y-11480000D02*
G75*
G03*
X11807500Y-11480000I-17500J0D01*
G01*
D14*
X10110000Y-9301000D02*
X10110000Y-9351000D01*
X10085000Y-9326000D02*
X10135000Y-9326000D01*
X10110000Y-9401000D02*
X10110000Y-9451000D01*
X10085000Y-9426000D02*
X10135000Y-9426000D01*
X10110000Y-9501000D02*
X10110000Y-9551000D01*
X10085000Y-9526000D02*
X10135000Y-9526000D01*
X10110000Y-9601000D02*
X10110000Y-9651000D01*
X10085000Y-9626000D02*
X10135000Y-9626000D01*
X10116750Y-9987500D02*
X10116750Y-10037500D01*
X10091750Y-10012500D02*
X10141750Y-10012500D01*
X10116750Y-10087500D02*
X10116750Y-10137500D01*
X10091750Y-10112500D02*
X10141750Y-10112500D01*
X10116750Y-10187500D02*
X10116750Y-10237500D01*
X10091750Y-10212500D02*
X10141750Y-10212500D01*
X10116750Y-10287500D02*
X10116750Y-10337500D01*
X10091750Y-10312500D02*
X10141750Y-10312500D01*
X10127000Y-10667500D02*
X10127000Y-10717500D01*
X10102000Y-10692500D02*
X10152000Y-10692500D01*
X10127000Y-10767500D02*
X10127000Y-10817500D01*
X10102000Y-10792500D02*
X10152000Y-10792500D01*
X10127000Y-10867500D02*
X10127000Y-10917500D01*
X10102000Y-10892500D02*
X10152000Y-10892500D01*
X10127000Y-10967500D02*
X10127000Y-11017500D01*
X10102000Y-10992500D02*
X10152000Y-10992500D01*
X10790000Y-9305000D02*
X10790000Y-9355000D01*
X10765000Y-9330000D02*
X10815000Y-9330000D01*
X10890000Y-9305000D02*
X10890000Y-9355000D01*
X10865000Y-9330000D02*
X10915000Y-9330000D01*
X11365500Y-9305000D02*
X11365500Y-9355000D01*
X11340500Y-9330000D02*
X11390500Y-9330000D01*
X11465500Y-9305000D02*
X11465500Y-9355000D01*
X11440500Y-9330000D02*
X11490500Y-9330000D01*
X11575000Y-10725000D02*
X11575000Y-10775000D01*
X11550000Y-10750000D02*
X11600000Y-10750000D01*
X11575000Y-10825000D02*
X11575000Y-10875000D01*
X11550000Y-10850000D02*
X11600000Y-10850000D01*
X11575000Y-10925000D02*
X11575000Y-10975000D01*
X11550000Y-10950000D02*
X11600000Y-10950000D01*
X11575000Y-11025000D02*
X11575000Y-11075000D01*
X11550000Y-11050000D02*
X11600000Y-11050000D01*
X11575000Y-11125000D02*
X11575000Y-11175000D01*
X11550000Y-11150000D02*
X11600000Y-11150000D01*
X11580000Y-9575000D02*
X11580000Y-9625000D01*
X11555000Y-9600000D02*
X11605000Y-9600000D01*
X11580000Y-9675000D02*
X11580000Y-9725000D01*
X11555000Y-9700000D02*
X11605000Y-9700000D01*
X11580000Y-9775000D02*
X11580000Y-9825000D01*
X11555000Y-9800000D02*
X11605000Y-9800000D01*
X11580000Y-9875000D02*
X11580000Y-9925000D01*
X11555000Y-9900000D02*
X11605000Y-9900000D01*
X11580000Y-9975000D02*
X11580000Y-10025000D01*
X11555000Y-10000000D02*
X11605000Y-10000000D01*
X11940000Y-9305000D02*
X11940000Y-9355000D01*
X11915000Y-9330000D02*
X11965000Y-9330000D01*
X12040000Y-9305000D02*
X12040000Y-9355000D01*
X12015000Y-9330000D02*
X12065000Y-9330000D01*
X12160000Y-10265000D02*
X12160000Y-10315000D01*
X12135000Y-10290000D02*
X12185000Y-10290000D01*
X12160000Y-10515000D02*
X12160000Y-10565000D01*
X12135000Y-10540000D02*
X12185000Y-10540000D01*
X12260000Y-10265000D02*
X12260000Y-10315000D01*
X12235000Y-10290000D02*
X12285000Y-10290000D01*
X12260000Y-10515000D02*
X12260000Y-10565000D01*
X12235000Y-10540000D02*
X12285000Y-10540000D01*
X12480000Y-10235000D02*
X12480000Y-10285000D01*
X12455000Y-10260000D02*
X12505000Y-10260000D01*
X12480000Y-10335000D02*
X12480000Y-10385000D01*
X12455000Y-10360000D02*
X12505000Y-10360000D01*
X12480000Y-10435000D02*
X12480000Y-10485000D01*
X12455000Y-10460000D02*
X12505000Y-10460000D01*
X12480000Y-10535000D02*
X12480000Y-10585000D01*
X12455000Y-10560000D02*
X12505000Y-10560000D01*
D11*
X10260777Y-12021484D02*
X10260777Y-11821484D01*
X10260777Y-11821484D02*
X10308396Y-11821484D01*
X10308396Y-11821484D02*
X10336967Y-11831008D01*
X10336967Y-11831008D02*
X10356015Y-11850055D01*
X10356015Y-11850055D02*
X10365539Y-11869103D01*
X10365539Y-11869103D02*
X10375063Y-11907198D01*
X10375063Y-11907198D02*
X10375063Y-11935769D01*
X10375063Y-11935769D02*
X10365539Y-11973865D01*
X10365539Y-11973865D02*
X10356015Y-11992912D01*
X10356015Y-11992912D02*
X10336967Y-12011960D01*
X10336967Y-12011960D02*
X10308396Y-12021484D01*
X10308396Y-12021484D02*
X10260777Y-12021484D01*
X10460777Y-12021484D02*
X10460777Y-11888150D01*
X10460777Y-11926246D02*
X10470301Y-11907198D01*
X10470301Y-11907198D02*
X10479824Y-11897674D01*
X10479824Y-11897674D02*
X10498872Y-11888150D01*
X10498872Y-11888150D02*
X10517920Y-11888150D01*
X10584586Y-12021484D02*
X10584586Y-11888150D01*
X10584586Y-11821484D02*
X10575063Y-11831008D01*
X10575063Y-11831008D02*
X10584586Y-11840531D01*
X10584586Y-11840531D02*
X10594110Y-11831008D01*
X10594110Y-11831008D02*
X10584586Y-11821484D01*
X10584586Y-11821484D02*
X10584586Y-11840531D01*
X10708396Y-12021484D02*
X10689348Y-12011960D01*
X10689348Y-12011960D02*
X10679824Y-11992912D01*
X10679824Y-11992912D02*
X10679824Y-11821484D01*
X10813158Y-12021484D02*
X10794110Y-12011960D01*
X10794110Y-12011960D02*
X10784586Y-11992912D01*
X10784586Y-11992912D02*
X10784586Y-11821484D01*
X11041729Y-12021484D02*
X11041729Y-11821484D01*
X11041729Y-11821484D02*
X11108396Y-11964341D01*
X11108396Y-11964341D02*
X11175063Y-11821484D01*
X11175063Y-11821484D02*
X11175063Y-12021484D01*
X11356015Y-12021484D02*
X11356015Y-11916722D01*
X11356015Y-11916722D02*
X11346491Y-11897674D01*
X11346491Y-11897674D02*
X11327443Y-11888150D01*
X11327443Y-11888150D02*
X11289348Y-11888150D01*
X11289348Y-11888150D02*
X11270301Y-11897674D01*
X11356015Y-12011960D02*
X11336967Y-12021484D01*
X11336967Y-12021484D02*
X11289348Y-12021484D01*
X11289348Y-12021484D02*
X11270301Y-12011960D01*
X11270301Y-12011960D02*
X11260777Y-11992912D01*
X11260777Y-11992912D02*
X11260777Y-11973865D01*
X11260777Y-11973865D02*
X11270301Y-11954817D01*
X11270301Y-11954817D02*
X11289348Y-11945293D01*
X11289348Y-11945293D02*
X11336967Y-11945293D01*
X11336967Y-11945293D02*
X11356015Y-11935769D01*
X11451253Y-11888150D02*
X11451253Y-12088150D01*
X11451253Y-11897674D02*
X11470301Y-11888150D01*
X11470301Y-11888150D02*
X11508396Y-11888150D01*
X11508396Y-11888150D02*
X11527443Y-11897674D01*
X11527443Y-11897674D02*
X11536967Y-11907198D01*
X11536967Y-11907198D02*
X11546491Y-11926246D01*
X11546491Y-11926246D02*
X11546491Y-11983388D01*
X11546491Y-11983388D02*
X11536967Y-12002436D01*
X11536967Y-12002436D02*
X11527443Y-12011960D01*
X11527443Y-12011960D02*
X11508396Y-12021484D01*
X11508396Y-12021484D02*
X11470301Y-12021484D01*
X11470301Y-12021484D02*
X11451253Y-12011960D01*
X11632205Y-12002436D02*
X11641729Y-12011960D01*
X11641729Y-12011960D02*
X11632205Y-12021484D01*
X11632205Y-12021484D02*
X11622682Y-12011960D01*
X11622682Y-12011960D02*
X11632205Y-12002436D01*
X11632205Y-12002436D02*
X11632205Y-12021484D01*
X11632205Y-11897674D02*
X11641729Y-11907198D01*
X11641729Y-11907198D02*
X11632205Y-11916722D01*
X11632205Y-11916722D02*
X11622682Y-11907198D01*
X11622682Y-11907198D02*
X11632205Y-11897674D01*
X11632205Y-11897674D02*
X11632205Y-11916722D01*
D12*
X9980000Y-12340000D02*
X10000000Y-12360000D01*
X10000000Y-12340000D02*
X9980000Y-12360000D01*
D11*
X10298872Y-12241484D02*
X10317920Y-12241484D01*
X10317920Y-12241484D02*
X10336967Y-12251008D01*
X10336967Y-12251008D02*
X10346491Y-12260531D01*
X10346491Y-12260531D02*
X10356015Y-12279579D01*
X10356015Y-12279579D02*
X10365539Y-12317674D01*
X10365539Y-12317674D02*
X10365539Y-12365293D01*
X10365539Y-12365293D02*
X10356015Y-12403388D01*
X10356015Y-12403388D02*
X10346491Y-12422436D01*
X10346491Y-12422436D02*
X10336967Y-12431960D01*
X10336967Y-12431960D02*
X10317920Y-12441484D01*
X10317920Y-12441484D02*
X10298872Y-12441484D01*
X10298872Y-12441484D02*
X10279824Y-12431960D01*
X10279824Y-12431960D02*
X10270301Y-12422436D01*
X10270301Y-12422436D02*
X10260777Y-12403388D01*
X10260777Y-12403388D02*
X10251253Y-12365293D01*
X10251253Y-12365293D02*
X10251253Y-12317674D01*
X10251253Y-12317674D02*
X10260777Y-12279579D01*
X10260777Y-12279579D02*
X10270301Y-12260531D01*
X10270301Y-12260531D02*
X10279824Y-12251008D01*
X10279824Y-12251008D02*
X10298872Y-12241484D01*
X10451253Y-12422436D02*
X10460777Y-12431960D01*
X10460777Y-12431960D02*
X10451253Y-12441484D01*
X10451253Y-12441484D02*
X10441729Y-12431960D01*
X10441729Y-12431960D02*
X10451253Y-12422436D01*
X10451253Y-12422436D02*
X10451253Y-12441484D01*
X10536967Y-12260531D02*
X10546491Y-12251008D01*
X10546491Y-12251008D02*
X10565539Y-12241484D01*
X10565539Y-12241484D02*
X10613158Y-12241484D01*
X10613158Y-12241484D02*
X10632205Y-12251008D01*
X10632205Y-12251008D02*
X10641729Y-12260531D01*
X10641729Y-12260531D02*
X10651253Y-12279579D01*
X10651253Y-12279579D02*
X10651253Y-12298627D01*
X10651253Y-12298627D02*
X10641729Y-12327198D01*
X10641729Y-12327198D02*
X10527444Y-12441484D01*
X10527444Y-12441484D02*
X10651253Y-12441484D01*
X10775063Y-12241484D02*
X10794110Y-12241484D01*
X10794110Y-12241484D02*
X10813158Y-12251008D01*
X10813158Y-12251008D02*
X10822682Y-12260531D01*
X10822682Y-12260531D02*
X10832205Y-12279579D01*
X10832205Y-12279579D02*
X10841729Y-12317674D01*
X10841729Y-12317674D02*
X10841729Y-12365293D01*
X10841729Y-12365293D02*
X10832205Y-12403388D01*
X10832205Y-12403388D02*
X10822682Y-12422436D01*
X10822682Y-12422436D02*
X10813158Y-12431960D01*
X10813158Y-12431960D02*
X10794110Y-12441484D01*
X10794110Y-12441484D02*
X10775063Y-12441484D01*
X10775063Y-12441484D02*
X10756015Y-12431960D01*
X10756015Y-12431960D02*
X10746491Y-12422436D01*
X10746491Y-12422436D02*
X10736967Y-12403388D01*
X10736967Y-12403388D02*
X10727444Y-12365293D01*
X10727444Y-12365293D02*
X10727444Y-12317674D01*
X10727444Y-12317674D02*
X10736967Y-12279579D01*
X10736967Y-12279579D02*
X10746491Y-12260531D01*
X10746491Y-12260531D02*
X10756015Y-12251008D01*
X10756015Y-12251008D02*
X10775063Y-12241484D01*
X10965539Y-12241484D02*
X10984586Y-12241484D01*
X10984586Y-12241484D02*
X11003634Y-12251008D01*
X11003634Y-12251008D02*
X11013158Y-12260531D01*
X11013158Y-12260531D02*
X11022682Y-12279579D01*
X11022682Y-12279579D02*
X11032205Y-12317674D01*
X11032205Y-12317674D02*
X11032205Y-12365293D01*
X11032205Y-12365293D02*
X11022682Y-12403388D01*
X11022682Y-12403388D02*
X11013158Y-12422436D01*
X11013158Y-12422436D02*
X11003634Y-12431960D01*
X11003634Y-12431960D02*
X10984586Y-12441484D01*
X10984586Y-12441484D02*
X10965539Y-12441484D01*
X10965539Y-12441484D02*
X10946491Y-12431960D01*
X10946491Y-12431960D02*
X10936967Y-12422436D01*
X10936967Y-12422436D02*
X10927444Y-12403388D01*
X10927444Y-12403388D02*
X10917920Y-12365293D01*
X10917920Y-12365293D02*
X10917920Y-12317674D01*
X10917920Y-12317674D02*
X10927444Y-12279579D01*
X10927444Y-12279579D02*
X10936967Y-12260531D01*
X10936967Y-12260531D02*
X10946491Y-12251008D01*
X10946491Y-12251008D02*
X10965539Y-12241484D01*
X11117920Y-12441484D02*
X11117920Y-12308150D01*
X11117920Y-12327198D02*
X11127444Y-12317674D01*
X11127444Y-12317674D02*
X11146491Y-12308150D01*
X11146491Y-12308150D02*
X11175063Y-12308150D01*
X11175063Y-12308150D02*
X11194110Y-12317674D01*
X11194110Y-12317674D02*
X11203634Y-12336722D01*
X11203634Y-12336722D02*
X11203634Y-12441484D01*
X11203634Y-12336722D02*
X11213158Y-12317674D01*
X11213158Y-12317674D02*
X11232205Y-12308150D01*
X11232205Y-12308150D02*
X11260777Y-12308150D01*
X11260777Y-12308150D02*
X11279824Y-12317674D01*
X11279824Y-12317674D02*
X11289348Y-12336722D01*
X11289348Y-12336722D02*
X11289348Y-12441484D01*
X11384586Y-12441484D02*
X11384586Y-12308150D01*
X11384586Y-12327198D02*
X11394110Y-12317674D01*
X11394110Y-12317674D02*
X11413158Y-12308150D01*
X11413158Y-12308150D02*
X11441729Y-12308150D01*
X11441729Y-12308150D02*
X11460777Y-12317674D01*
X11460777Y-12317674D02*
X11470301Y-12336722D01*
X11470301Y-12336722D02*
X11470301Y-12441484D01*
X11470301Y-12336722D02*
X11479824Y-12317674D01*
X11479824Y-12317674D02*
X11498872Y-12308150D01*
X11498872Y-12308150D02*
X11527443Y-12308150D01*
X11527443Y-12308150D02*
X11546491Y-12317674D01*
X11546491Y-12317674D02*
X11556015Y-12336722D01*
X11556015Y-12336722D02*
X11556015Y-12441484D01*
X11946491Y-12231960D02*
X11775063Y-12489103D01*
X12203634Y-12241484D02*
X12222682Y-12241484D01*
X12222682Y-12241484D02*
X12241729Y-12251008D01*
X12241729Y-12251008D02*
X12251253Y-12260531D01*
X12251253Y-12260531D02*
X12260777Y-12279579D01*
X12260777Y-12279579D02*
X12270301Y-12317674D01*
X12270301Y-12317674D02*
X12270301Y-12365293D01*
X12270301Y-12365293D02*
X12260777Y-12403388D01*
X12260777Y-12403388D02*
X12251253Y-12422436D01*
X12251253Y-12422436D02*
X12241729Y-12431960D01*
X12241729Y-12431960D02*
X12222682Y-12441484D01*
X12222682Y-12441484D02*
X12203634Y-12441484D01*
X12203634Y-12441484D02*
X12184586Y-12431960D01*
X12184586Y-12431960D02*
X12175063Y-12422436D01*
X12175063Y-12422436D02*
X12165539Y-12403388D01*
X12165539Y-12403388D02*
X12156015Y-12365293D01*
X12156015Y-12365293D02*
X12156015Y-12317674D01*
X12156015Y-12317674D02*
X12165539Y-12279579D01*
X12165539Y-12279579D02*
X12175063Y-12260531D01*
X12175063Y-12260531D02*
X12184586Y-12251008D01*
X12184586Y-12251008D02*
X12203634Y-12241484D01*
X12356015Y-12422436D02*
X12365539Y-12431960D01*
X12365539Y-12431960D02*
X12356015Y-12441484D01*
X12356015Y-12441484D02*
X12346491Y-12431960D01*
X12346491Y-12431960D02*
X12356015Y-12422436D01*
X12356015Y-12422436D02*
X12356015Y-12441484D01*
X12489348Y-12241484D02*
X12508396Y-12241484D01*
X12508396Y-12241484D02*
X12527444Y-12251008D01*
X12527444Y-12251008D02*
X12536967Y-12260531D01*
X12536967Y-12260531D02*
X12546491Y-12279579D01*
X12546491Y-12279579D02*
X12556015Y-12317674D01*
X12556015Y-12317674D02*
X12556015Y-12365293D01*
X12556015Y-12365293D02*
X12546491Y-12403388D01*
X12546491Y-12403388D02*
X12536967Y-12422436D01*
X12536967Y-12422436D02*
X12527444Y-12431960D01*
X12527444Y-12431960D02*
X12508396Y-12441484D01*
X12508396Y-12441484D02*
X12489348Y-12441484D01*
X12489348Y-12441484D02*
X12470301Y-12431960D01*
X12470301Y-12431960D02*
X12460777Y-12422436D01*
X12460777Y-12422436D02*
X12451253Y-12403388D01*
X12451253Y-12403388D02*
X12441729Y-12365293D01*
X12441729Y-12365293D02*
X12441729Y-12317674D01*
X12441729Y-12317674D02*
X12451253Y-12279579D01*
X12451253Y-12279579D02*
X12460777Y-12260531D01*
X12460777Y-12260531D02*
X12470301Y-12251008D01*
X12470301Y-12251008D02*
X12489348Y-12241484D01*
X12679825Y-12241484D02*
X12698872Y-12241484D01*
X12698872Y-12241484D02*
X12717920Y-12251008D01*
X12717920Y-12251008D02*
X12727444Y-12260531D01*
X12727444Y-12260531D02*
X12736967Y-12279579D01*
X12736967Y-12279579D02*
X12746491Y-12317674D01*
X12746491Y-12317674D02*
X12746491Y-12365293D01*
X12746491Y-12365293D02*
X12736967Y-12403388D01*
X12736967Y-12403388D02*
X12727444Y-12422436D01*
X12727444Y-12422436D02*
X12717920Y-12431960D01*
X12717920Y-12431960D02*
X12698872Y-12441484D01*
X12698872Y-12441484D02*
X12679825Y-12441484D01*
X12679825Y-12441484D02*
X12660777Y-12431960D01*
X12660777Y-12431960D02*
X12651253Y-12422436D01*
X12651253Y-12422436D02*
X12641729Y-12403388D01*
X12641729Y-12403388D02*
X12632206Y-12365293D01*
X12632206Y-12365293D02*
X12632206Y-12317674D01*
X12632206Y-12317674D02*
X12641729Y-12279579D01*
X12641729Y-12279579D02*
X12651253Y-12260531D01*
X12651253Y-12260531D02*
X12660777Y-12251008D01*
X12660777Y-12251008D02*
X12679825Y-12241484D01*
X12813158Y-12241484D02*
X12946491Y-12241484D01*
X12946491Y-12241484D02*
X12860777Y-12441484D01*
X13032206Y-12441484D02*
X13070301Y-12441484D01*
X13070301Y-12441484D02*
X13089348Y-12431960D01*
X13089348Y-12431960D02*
X13098872Y-12422436D01*
X13098872Y-12422436D02*
X13117920Y-12393865D01*
X13117920Y-12393865D02*
X13127444Y-12355769D01*
X13127444Y-12355769D02*
X13127444Y-12279579D01*
X13127444Y-12279579D02*
X13117920Y-12260531D01*
X13117920Y-12260531D02*
X13108396Y-12251008D01*
X13108396Y-12251008D02*
X13089348Y-12241484D01*
X13089348Y-12241484D02*
X13051253Y-12241484D01*
X13051253Y-12241484D02*
X13032206Y-12251008D01*
X13032206Y-12251008D02*
X13022682Y-12260531D01*
X13022682Y-12260531D02*
X13013158Y-12279579D01*
X13013158Y-12279579D02*
X13013158Y-12327198D01*
X13013158Y-12327198D02*
X13022682Y-12346246D01*
X13022682Y-12346246D02*
X13032206Y-12355769D01*
X13032206Y-12355769D02*
X13051253Y-12365293D01*
X13051253Y-12365293D02*
X13089348Y-12365293D01*
X13089348Y-12365293D02*
X13108396Y-12355769D01*
X13108396Y-12355769D02*
X13117920Y-12346246D01*
X13117920Y-12346246D02*
X13127444Y-12327198D01*
X13203634Y-12241484D02*
X13203634Y-12279579D01*
X13279825Y-12241484D02*
X13279825Y-12279579D01*
X13575063Y-12517674D02*
X13565539Y-12508150D01*
X13565539Y-12508150D02*
X13546491Y-12479579D01*
X13546491Y-12479579D02*
X13536968Y-12460531D01*
X13536968Y-12460531D02*
X13527444Y-12431960D01*
X13527444Y-12431960D02*
X13517920Y-12384341D01*
X13517920Y-12384341D02*
X13517920Y-12346246D01*
X13517920Y-12346246D02*
X13527444Y-12298627D01*
X13527444Y-12298627D02*
X13536968Y-12270055D01*
X13536968Y-12270055D02*
X13546491Y-12251008D01*
X13546491Y-12251008D02*
X13565539Y-12222436D01*
X13565539Y-12222436D02*
X13575063Y-12212912D01*
X13756015Y-12441484D02*
X13641729Y-12441484D01*
X13698872Y-12441484D02*
X13698872Y-12241484D01*
X13698872Y-12241484D02*
X13679825Y-12270055D01*
X13679825Y-12270055D02*
X13660777Y-12289103D01*
X13660777Y-12289103D02*
X13641729Y-12298627D01*
X13832206Y-12260531D02*
X13841729Y-12251008D01*
X13841729Y-12251008D02*
X13860777Y-12241484D01*
X13860777Y-12241484D02*
X13908396Y-12241484D01*
X13908396Y-12241484D02*
X13927444Y-12251008D01*
X13927444Y-12251008D02*
X13936968Y-12260531D01*
X13936968Y-12260531D02*
X13946491Y-12279579D01*
X13946491Y-12279579D02*
X13946491Y-12298627D01*
X13946491Y-12298627D02*
X13936968Y-12327198D01*
X13936968Y-12327198D02*
X13822682Y-12441484D01*
X13822682Y-12441484D02*
X13946491Y-12441484D01*
X14127444Y-12241484D02*
X14032206Y-12241484D01*
X14032206Y-12241484D02*
X14022682Y-12336722D01*
X14022682Y-12336722D02*
X14032206Y-12327198D01*
X14032206Y-12327198D02*
X14051253Y-12317674D01*
X14051253Y-12317674D02*
X14098872Y-12317674D01*
X14098872Y-12317674D02*
X14117920Y-12327198D01*
X14117920Y-12327198D02*
X14127444Y-12336722D01*
X14127444Y-12336722D02*
X14136968Y-12355769D01*
X14136968Y-12355769D02*
X14136968Y-12403388D01*
X14136968Y-12403388D02*
X14127444Y-12422436D01*
X14127444Y-12422436D02*
X14117920Y-12431960D01*
X14117920Y-12431960D02*
X14098872Y-12441484D01*
X14098872Y-12441484D02*
X14051253Y-12441484D01*
X14051253Y-12441484D02*
X14032206Y-12431960D01*
X14032206Y-12431960D02*
X14022682Y-12422436D01*
X14375063Y-12441484D02*
X14375063Y-12241484D01*
X14460777Y-12441484D02*
X14460777Y-12336722D01*
X14460777Y-12336722D02*
X14451253Y-12317674D01*
X14451253Y-12317674D02*
X14432206Y-12308150D01*
X14432206Y-12308150D02*
X14403634Y-12308150D01*
X14403634Y-12308150D02*
X14384587Y-12317674D01*
X14384587Y-12317674D02*
X14375063Y-12327198D01*
X14584587Y-12441484D02*
X14565539Y-12431960D01*
X14565539Y-12431960D02*
X14556015Y-12422436D01*
X14556015Y-12422436D02*
X14546491Y-12403388D01*
X14546491Y-12403388D02*
X14546491Y-12346246D01*
X14546491Y-12346246D02*
X14556015Y-12327198D01*
X14556015Y-12327198D02*
X14565539Y-12317674D01*
X14565539Y-12317674D02*
X14584587Y-12308150D01*
X14584587Y-12308150D02*
X14613158Y-12308150D01*
X14613158Y-12308150D02*
X14632206Y-12317674D01*
X14632206Y-12317674D02*
X14641730Y-12327198D01*
X14641730Y-12327198D02*
X14651253Y-12346246D01*
X14651253Y-12346246D02*
X14651253Y-12403388D01*
X14651253Y-12403388D02*
X14641730Y-12422436D01*
X14641730Y-12422436D02*
X14632206Y-12431960D01*
X14632206Y-12431960D02*
X14613158Y-12441484D01*
X14613158Y-12441484D02*
X14584587Y-12441484D01*
X14765539Y-12441484D02*
X14746491Y-12431960D01*
X14746491Y-12431960D02*
X14736968Y-12412912D01*
X14736968Y-12412912D02*
X14736968Y-12241484D01*
X14917920Y-12431960D02*
X14898872Y-12441484D01*
X14898872Y-12441484D02*
X14860777Y-12441484D01*
X14860777Y-12441484D02*
X14841730Y-12431960D01*
X14841730Y-12431960D02*
X14832206Y-12412912D01*
X14832206Y-12412912D02*
X14832206Y-12336722D01*
X14832206Y-12336722D02*
X14841730Y-12317674D01*
X14841730Y-12317674D02*
X14860777Y-12308150D01*
X14860777Y-12308150D02*
X14898872Y-12308150D01*
X14898872Y-12308150D02*
X14917920Y-12317674D01*
X14917920Y-12317674D02*
X14927444Y-12336722D01*
X14927444Y-12336722D02*
X14927444Y-12355769D01*
X14927444Y-12355769D02*
X14832206Y-12374817D01*
X15003634Y-12431960D02*
X15022682Y-12441484D01*
X15022682Y-12441484D02*
X15060777Y-12441484D01*
X15060777Y-12441484D02*
X15079825Y-12431960D01*
X15079825Y-12431960D02*
X15089349Y-12412912D01*
X15089349Y-12412912D02*
X15089349Y-12403388D01*
X15089349Y-12403388D02*
X15079825Y-12384341D01*
X15079825Y-12384341D02*
X15060777Y-12374817D01*
X15060777Y-12374817D02*
X15032206Y-12374817D01*
X15032206Y-12374817D02*
X15013158Y-12365293D01*
X15013158Y-12365293D02*
X15003634Y-12346246D01*
X15003634Y-12346246D02*
X15003634Y-12336722D01*
X15003634Y-12336722D02*
X15013158Y-12317674D01*
X15013158Y-12317674D02*
X15032206Y-12308150D01*
X15032206Y-12308150D02*
X15060777Y-12308150D01*
X15060777Y-12308150D02*
X15079825Y-12317674D01*
X15156015Y-12517674D02*
X15165539Y-12508150D01*
X15165539Y-12508150D02*
X15184587Y-12479579D01*
X15184587Y-12479579D02*
X15194111Y-12460531D01*
X15194111Y-12460531D02*
X15203634Y-12431960D01*
X15203634Y-12431960D02*
X15213158Y-12384341D01*
X15213158Y-12384341D02*
X15213158Y-12346246D01*
X15213158Y-12346246D02*
X15203634Y-12298627D01*
X15203634Y-12298627D02*
X15194111Y-12270055D01*
X15194111Y-12270055D02*
X15184587Y-12251008D01*
X15184587Y-12251008D02*
X15165539Y-12222436D01*
X15165539Y-12222436D02*
X15156015Y-12212912D01*
D13*
X10000000Y-12614000D02*
G75*
G03*
X10000000Y-12614000I-17500J0D01*
G01*
D11*
X10298872Y-12505484D02*
X10317920Y-12505484D01*
X10317920Y-12505484D02*
X10336967Y-12515008D01*
X10336967Y-12515008D02*
X10346491Y-12524531D01*
X10346491Y-12524531D02*
X10356015Y-12543579D01*
X10356015Y-12543579D02*
X10365539Y-12581674D01*
X10365539Y-12581674D02*
X10365539Y-12629293D01*
X10365539Y-12629293D02*
X10356015Y-12667388D01*
X10356015Y-12667388D02*
X10346491Y-12686436D01*
X10346491Y-12686436D02*
X10336967Y-12695960D01*
X10336967Y-12695960D02*
X10317920Y-12705484D01*
X10317920Y-12705484D02*
X10298872Y-12705484D01*
X10298872Y-12705484D02*
X10279824Y-12695960D01*
X10279824Y-12695960D02*
X10270301Y-12686436D01*
X10270301Y-12686436D02*
X10260777Y-12667388D01*
X10260777Y-12667388D02*
X10251253Y-12629293D01*
X10251253Y-12629293D02*
X10251253Y-12581674D01*
X10251253Y-12581674D02*
X10260777Y-12543579D01*
X10260777Y-12543579D02*
X10270301Y-12524531D01*
X10270301Y-12524531D02*
X10279824Y-12515008D01*
X10279824Y-12515008D02*
X10298872Y-12505484D01*
X10451253Y-12686436D02*
X10460777Y-12695960D01*
X10460777Y-12695960D02*
X10451253Y-12705484D01*
X10451253Y-12705484D02*
X10441729Y-12695960D01*
X10441729Y-12695960D02*
X10451253Y-12686436D01*
X10451253Y-12686436D02*
X10451253Y-12705484D01*
X10527444Y-12505484D02*
X10651253Y-12505484D01*
X10651253Y-12505484D02*
X10584586Y-12581674D01*
X10584586Y-12581674D02*
X10613158Y-12581674D01*
X10613158Y-12581674D02*
X10632205Y-12591198D01*
X10632205Y-12591198D02*
X10641729Y-12600722D01*
X10641729Y-12600722D02*
X10651253Y-12619769D01*
X10651253Y-12619769D02*
X10651253Y-12667388D01*
X10651253Y-12667388D02*
X10641729Y-12686436D01*
X10641729Y-12686436D02*
X10632205Y-12695960D01*
X10632205Y-12695960D02*
X10613158Y-12705484D01*
X10613158Y-12705484D02*
X10556015Y-12705484D01*
X10556015Y-12705484D02*
X10536967Y-12695960D01*
X10536967Y-12695960D02*
X10527444Y-12686436D01*
X10832205Y-12505484D02*
X10736967Y-12505484D01*
X10736967Y-12505484D02*
X10727444Y-12600722D01*
X10727444Y-12600722D02*
X10736967Y-12591198D01*
X10736967Y-12591198D02*
X10756015Y-12581674D01*
X10756015Y-12581674D02*
X10803634Y-12581674D01*
X10803634Y-12581674D02*
X10822682Y-12591198D01*
X10822682Y-12591198D02*
X10832205Y-12600722D01*
X10832205Y-12600722D02*
X10841729Y-12619769D01*
X10841729Y-12619769D02*
X10841729Y-12667388D01*
X10841729Y-12667388D02*
X10832205Y-12686436D01*
X10832205Y-12686436D02*
X10822682Y-12695960D01*
X10822682Y-12695960D02*
X10803634Y-12705484D01*
X10803634Y-12705484D02*
X10756015Y-12705484D01*
X10756015Y-12705484D02*
X10736967Y-12695960D01*
X10736967Y-12695960D02*
X10727444Y-12686436D01*
X10965539Y-12505484D02*
X10984586Y-12505484D01*
X10984586Y-12505484D02*
X11003634Y-12515008D01*
X11003634Y-12515008D02*
X11013158Y-12524531D01*
X11013158Y-12524531D02*
X11022682Y-12543579D01*
X11022682Y-12543579D02*
X11032205Y-12581674D01*
X11032205Y-12581674D02*
X11032205Y-12629293D01*
X11032205Y-12629293D02*
X11022682Y-12667388D01*
X11022682Y-12667388D02*
X11013158Y-12686436D01*
X11013158Y-12686436D02*
X11003634Y-12695960D01*
X11003634Y-12695960D02*
X10984586Y-12705484D01*
X10984586Y-12705484D02*
X10965539Y-12705484D01*
X10965539Y-12705484D02*
X10946491Y-12695960D01*
X10946491Y-12695960D02*
X10936967Y-12686436D01*
X10936967Y-12686436D02*
X10927444Y-12667388D01*
X10927444Y-12667388D02*
X10917920Y-12629293D01*
X10917920Y-12629293D02*
X10917920Y-12581674D01*
X10917920Y-12581674D02*
X10927444Y-12543579D01*
X10927444Y-12543579D02*
X10936967Y-12524531D01*
X10936967Y-12524531D02*
X10946491Y-12515008D01*
X10946491Y-12515008D02*
X10965539Y-12505484D01*
X11117920Y-12705484D02*
X11117920Y-12572150D01*
X11117920Y-12591198D02*
X11127444Y-12581674D01*
X11127444Y-12581674D02*
X11146491Y-12572150D01*
X11146491Y-12572150D02*
X11175063Y-12572150D01*
X11175063Y-12572150D02*
X11194110Y-12581674D01*
X11194110Y-12581674D02*
X11203634Y-12600722D01*
X11203634Y-12600722D02*
X11203634Y-12705484D01*
X11203634Y-12600722D02*
X11213158Y-12581674D01*
X11213158Y-12581674D02*
X11232205Y-12572150D01*
X11232205Y-12572150D02*
X11260777Y-12572150D01*
X11260777Y-12572150D02*
X11279824Y-12581674D01*
X11279824Y-12581674D02*
X11289348Y-12600722D01*
X11289348Y-12600722D02*
X11289348Y-12705484D01*
X11384586Y-12705484D02*
X11384586Y-12572150D01*
X11384586Y-12591198D02*
X11394110Y-12581674D01*
X11394110Y-12581674D02*
X11413158Y-12572150D01*
X11413158Y-12572150D02*
X11441729Y-12572150D01*
X11441729Y-12572150D02*
X11460777Y-12581674D01*
X11460777Y-12581674D02*
X11470301Y-12600722D01*
X11470301Y-12600722D02*
X11470301Y-12705484D01*
X11470301Y-12600722D02*
X11479824Y-12581674D01*
X11479824Y-12581674D02*
X11498872Y-12572150D01*
X11498872Y-12572150D02*
X11527443Y-12572150D01*
X11527443Y-12572150D02*
X11546491Y-12581674D01*
X11546491Y-12581674D02*
X11556015Y-12600722D01*
X11556015Y-12600722D02*
X11556015Y-12705484D01*
X11946491Y-12495960D02*
X11775063Y-12753103D01*
X12203634Y-12505484D02*
X12222682Y-12505484D01*
X12222682Y-12505484D02*
X12241729Y-12515008D01*
X12241729Y-12515008D02*
X12251253Y-12524531D01*
X12251253Y-12524531D02*
X12260777Y-12543579D01*
X12260777Y-12543579D02*
X12270301Y-12581674D01*
X12270301Y-12581674D02*
X12270301Y-12629293D01*
X12270301Y-12629293D02*
X12260777Y-12667388D01*
X12260777Y-12667388D02*
X12251253Y-12686436D01*
X12251253Y-12686436D02*
X12241729Y-12695960D01*
X12241729Y-12695960D02*
X12222682Y-12705484D01*
X12222682Y-12705484D02*
X12203634Y-12705484D01*
X12203634Y-12705484D02*
X12184586Y-12695960D01*
X12184586Y-12695960D02*
X12175063Y-12686436D01*
X12175063Y-12686436D02*
X12165539Y-12667388D01*
X12165539Y-12667388D02*
X12156015Y-12629293D01*
X12156015Y-12629293D02*
X12156015Y-12581674D01*
X12156015Y-12581674D02*
X12165539Y-12543579D01*
X12165539Y-12543579D02*
X12175063Y-12524531D01*
X12175063Y-12524531D02*
X12184586Y-12515008D01*
X12184586Y-12515008D02*
X12203634Y-12505484D01*
X12356015Y-12686436D02*
X12365539Y-12695960D01*
X12365539Y-12695960D02*
X12356015Y-12705484D01*
X12356015Y-12705484D02*
X12346491Y-12695960D01*
X12346491Y-12695960D02*
X12356015Y-12686436D01*
X12356015Y-12686436D02*
X12356015Y-12705484D01*
X12489348Y-12505484D02*
X12508396Y-12505484D01*
X12508396Y-12505484D02*
X12527444Y-12515008D01*
X12527444Y-12515008D02*
X12536967Y-12524531D01*
X12536967Y-12524531D02*
X12546491Y-12543579D01*
X12546491Y-12543579D02*
X12556015Y-12581674D01*
X12556015Y-12581674D02*
X12556015Y-12629293D01*
X12556015Y-12629293D02*
X12546491Y-12667388D01*
X12546491Y-12667388D02*
X12536967Y-12686436D01*
X12536967Y-12686436D02*
X12527444Y-12695960D01*
X12527444Y-12695960D02*
X12508396Y-12705484D01*
X12508396Y-12705484D02*
X12489348Y-12705484D01*
X12489348Y-12705484D02*
X12470301Y-12695960D01*
X12470301Y-12695960D02*
X12460777Y-12686436D01*
X12460777Y-12686436D02*
X12451253Y-12667388D01*
X12451253Y-12667388D02*
X12441729Y-12629293D01*
X12441729Y-12629293D02*
X12441729Y-12581674D01*
X12441729Y-12581674D02*
X12451253Y-12543579D01*
X12451253Y-12543579D02*
X12460777Y-12524531D01*
X12460777Y-12524531D02*
X12470301Y-12515008D01*
X12470301Y-12515008D02*
X12489348Y-12505484D01*
X12746491Y-12705484D02*
X12632206Y-12705484D01*
X12689348Y-12705484D02*
X12689348Y-12505484D01*
X12689348Y-12505484D02*
X12670301Y-12534055D01*
X12670301Y-12534055D02*
X12651253Y-12553103D01*
X12651253Y-12553103D02*
X12632206Y-12562627D01*
X12813158Y-12505484D02*
X12936967Y-12505484D01*
X12936967Y-12505484D02*
X12870301Y-12581674D01*
X12870301Y-12581674D02*
X12898872Y-12581674D01*
X12898872Y-12581674D02*
X12917920Y-12591198D01*
X12917920Y-12591198D02*
X12927444Y-12600722D01*
X12927444Y-12600722D02*
X12936967Y-12619769D01*
X12936967Y-12619769D02*
X12936967Y-12667388D01*
X12936967Y-12667388D02*
X12927444Y-12686436D01*
X12927444Y-12686436D02*
X12917920Y-12695960D01*
X12917920Y-12695960D02*
X12898872Y-12705484D01*
X12898872Y-12705484D02*
X12841729Y-12705484D01*
X12841729Y-12705484D02*
X12822682Y-12695960D01*
X12822682Y-12695960D02*
X12813158Y-12686436D01*
X13051253Y-12591198D02*
X13032206Y-12581674D01*
X13032206Y-12581674D02*
X13022682Y-12572150D01*
X13022682Y-12572150D02*
X13013158Y-12553103D01*
X13013158Y-12553103D02*
X13013158Y-12543579D01*
X13013158Y-12543579D02*
X13022682Y-12524531D01*
X13022682Y-12524531D02*
X13032206Y-12515008D01*
X13032206Y-12515008D02*
X13051253Y-12505484D01*
X13051253Y-12505484D02*
X13089348Y-12505484D01*
X13089348Y-12505484D02*
X13108396Y-12515008D01*
X13108396Y-12515008D02*
X13117920Y-12524531D01*
X13117920Y-12524531D02*
X13127444Y-12543579D01*
X13127444Y-12543579D02*
X13127444Y-12553103D01*
X13127444Y-12553103D02*
X13117920Y-12572150D01*
X13117920Y-12572150D02*
X13108396Y-12581674D01*
X13108396Y-12581674D02*
X13089348Y-12591198D01*
X13089348Y-12591198D02*
X13051253Y-12591198D01*
X13051253Y-12591198D02*
X13032206Y-12600722D01*
X13032206Y-12600722D02*
X13022682Y-12610246D01*
X13022682Y-12610246D02*
X13013158Y-12629293D01*
X13013158Y-12629293D02*
X13013158Y-12667388D01*
X13013158Y-12667388D02*
X13022682Y-12686436D01*
X13022682Y-12686436D02*
X13032206Y-12695960D01*
X13032206Y-12695960D02*
X13051253Y-12705484D01*
X13051253Y-12705484D02*
X13089348Y-12705484D01*
X13089348Y-12705484D02*
X13108396Y-12695960D01*
X13108396Y-12695960D02*
X13117920Y-12686436D01*
X13117920Y-12686436D02*
X13127444Y-12667388D01*
X13127444Y-12667388D02*
X13127444Y-12629293D01*
X13127444Y-12629293D02*
X13117920Y-12610246D01*
X13117920Y-12610246D02*
X13108396Y-12600722D01*
X13108396Y-12600722D02*
X13089348Y-12591198D01*
X13203634Y-12505484D02*
X13203634Y-12543579D01*
X13279825Y-12505484D02*
X13279825Y-12543579D01*
X13575063Y-12781674D02*
X13565539Y-12772150D01*
X13565539Y-12772150D02*
X13546491Y-12743579D01*
X13546491Y-12743579D02*
X13536968Y-12724531D01*
X13536968Y-12724531D02*
X13527444Y-12695960D01*
X13527444Y-12695960D02*
X13517920Y-12648341D01*
X13517920Y-12648341D02*
X13517920Y-12610246D01*
X13517920Y-12610246D02*
X13527444Y-12562627D01*
X13527444Y-12562627D02*
X13536968Y-12534055D01*
X13536968Y-12534055D02*
X13546491Y-12515008D01*
X13546491Y-12515008D02*
X13565539Y-12486436D01*
X13565539Y-12486436D02*
X13575063Y-12476912D01*
X13756015Y-12705484D02*
X13641729Y-12705484D01*
X13698872Y-12705484D02*
X13698872Y-12505484D01*
X13698872Y-12505484D02*
X13679825Y-12534055D01*
X13679825Y-12534055D02*
X13660777Y-12553103D01*
X13660777Y-12553103D02*
X13641729Y-12562627D01*
X13994110Y-12705484D02*
X13994110Y-12505484D01*
X14079825Y-12705484D02*
X14079825Y-12600722D01*
X14079825Y-12600722D02*
X14070301Y-12581674D01*
X14070301Y-12581674D02*
X14051253Y-12572150D01*
X14051253Y-12572150D02*
X14022682Y-12572150D01*
X14022682Y-12572150D02*
X14003634Y-12581674D01*
X14003634Y-12581674D02*
X13994110Y-12591198D01*
X14203634Y-12705484D02*
X14184587Y-12695960D01*
X14184587Y-12695960D02*
X14175063Y-12686436D01*
X14175063Y-12686436D02*
X14165539Y-12667388D01*
X14165539Y-12667388D02*
X14165539Y-12610246D01*
X14165539Y-12610246D02*
X14175063Y-12591198D01*
X14175063Y-12591198D02*
X14184587Y-12581674D01*
X14184587Y-12581674D02*
X14203634Y-12572150D01*
X14203634Y-12572150D02*
X14232206Y-12572150D01*
X14232206Y-12572150D02*
X14251253Y-12581674D01*
X14251253Y-12581674D02*
X14260777Y-12591198D01*
X14260777Y-12591198D02*
X14270301Y-12610246D01*
X14270301Y-12610246D02*
X14270301Y-12667388D01*
X14270301Y-12667388D02*
X14260777Y-12686436D01*
X14260777Y-12686436D02*
X14251253Y-12695960D01*
X14251253Y-12695960D02*
X14232206Y-12705484D01*
X14232206Y-12705484D02*
X14203634Y-12705484D01*
X14384587Y-12705484D02*
X14365539Y-12695960D01*
X14365539Y-12695960D02*
X14356015Y-12676912D01*
X14356015Y-12676912D02*
X14356015Y-12505484D01*
X14536968Y-12695960D02*
X14517920Y-12705484D01*
X14517920Y-12705484D02*
X14479825Y-12705484D01*
X14479825Y-12705484D02*
X14460777Y-12695960D01*
X14460777Y-12695960D02*
X14451253Y-12676912D01*
X14451253Y-12676912D02*
X14451253Y-12600722D01*
X14451253Y-12600722D02*
X14460777Y-12581674D01*
X14460777Y-12581674D02*
X14479825Y-12572150D01*
X14479825Y-12572150D02*
X14517920Y-12572150D01*
X14517920Y-12572150D02*
X14536968Y-12581674D01*
X14536968Y-12581674D02*
X14546491Y-12600722D01*
X14546491Y-12600722D02*
X14546491Y-12619769D01*
X14546491Y-12619769D02*
X14451253Y-12638817D01*
X14613158Y-12781674D02*
X14622682Y-12772150D01*
X14622682Y-12772150D02*
X14641730Y-12743579D01*
X14641730Y-12743579D02*
X14651253Y-12724531D01*
X14651253Y-12724531D02*
X14660777Y-12695960D01*
X14660777Y-12695960D02*
X14670301Y-12648341D01*
X14670301Y-12648341D02*
X14670301Y-12610246D01*
X14670301Y-12610246D02*
X14660777Y-12562627D01*
X14660777Y-12562627D02*
X14651253Y-12534055D01*
X14651253Y-12534055D02*
X14641730Y-12515008D01*
X14641730Y-12515008D02*
X14622682Y-12486436D01*
X14622682Y-12486436D02*
X14613158Y-12476912D01*
D14*
X9975000Y-12853000D02*
X9975000Y-12903000D01*
X9950000Y-12878000D02*
X10000000Y-12878000D01*
D11*
X10298872Y-12769484D02*
X10317920Y-12769484D01*
X10317920Y-12769484D02*
X10336967Y-12779008D01*
X10336967Y-12779008D02*
X10346491Y-12788531D01*
X10346491Y-12788531D02*
X10356015Y-12807579D01*
X10356015Y-12807579D02*
X10365539Y-12845674D01*
X10365539Y-12845674D02*
X10365539Y-12893293D01*
X10365539Y-12893293D02*
X10356015Y-12931388D01*
X10356015Y-12931388D02*
X10346491Y-12950436D01*
X10346491Y-12950436D02*
X10336967Y-12959960D01*
X10336967Y-12959960D02*
X10317920Y-12969484D01*
X10317920Y-12969484D02*
X10298872Y-12969484D01*
X10298872Y-12969484D02*
X10279824Y-12959960D01*
X10279824Y-12959960D02*
X10270301Y-12950436D01*
X10270301Y-12950436D02*
X10260777Y-12931388D01*
X10260777Y-12931388D02*
X10251253Y-12893293D01*
X10251253Y-12893293D02*
X10251253Y-12845674D01*
X10251253Y-12845674D02*
X10260777Y-12807579D01*
X10260777Y-12807579D02*
X10270301Y-12788531D01*
X10270301Y-12788531D02*
X10279824Y-12779008D01*
X10279824Y-12779008D02*
X10298872Y-12769484D01*
X10451253Y-12950436D02*
X10460777Y-12959960D01*
X10460777Y-12959960D02*
X10451253Y-12969484D01*
X10451253Y-12969484D02*
X10441729Y-12959960D01*
X10441729Y-12959960D02*
X10451253Y-12950436D01*
X10451253Y-12950436D02*
X10451253Y-12969484D01*
X10641729Y-12769484D02*
X10546491Y-12769484D01*
X10546491Y-12769484D02*
X10536967Y-12864722D01*
X10536967Y-12864722D02*
X10546491Y-12855198D01*
X10546491Y-12855198D02*
X10565539Y-12845674D01*
X10565539Y-12845674D02*
X10613158Y-12845674D01*
X10613158Y-12845674D02*
X10632205Y-12855198D01*
X10632205Y-12855198D02*
X10641729Y-12864722D01*
X10641729Y-12864722D02*
X10651253Y-12883769D01*
X10651253Y-12883769D02*
X10651253Y-12931388D01*
X10651253Y-12931388D02*
X10641729Y-12950436D01*
X10641729Y-12950436D02*
X10632205Y-12959960D01*
X10632205Y-12959960D02*
X10613158Y-12969484D01*
X10613158Y-12969484D02*
X10565539Y-12969484D01*
X10565539Y-12969484D02*
X10546491Y-12959960D01*
X10546491Y-12959960D02*
X10536967Y-12950436D01*
X10775063Y-12769484D02*
X10794110Y-12769484D01*
X10794110Y-12769484D02*
X10813158Y-12779008D01*
X10813158Y-12779008D02*
X10822682Y-12788531D01*
X10822682Y-12788531D02*
X10832205Y-12807579D01*
X10832205Y-12807579D02*
X10841729Y-12845674D01*
X10841729Y-12845674D02*
X10841729Y-12893293D01*
X10841729Y-12893293D02*
X10832205Y-12931388D01*
X10832205Y-12931388D02*
X10822682Y-12950436D01*
X10822682Y-12950436D02*
X10813158Y-12959960D01*
X10813158Y-12959960D02*
X10794110Y-12969484D01*
X10794110Y-12969484D02*
X10775063Y-12969484D01*
X10775063Y-12969484D02*
X10756015Y-12959960D01*
X10756015Y-12959960D02*
X10746491Y-12950436D01*
X10746491Y-12950436D02*
X10736967Y-12931388D01*
X10736967Y-12931388D02*
X10727444Y-12893293D01*
X10727444Y-12893293D02*
X10727444Y-12845674D01*
X10727444Y-12845674D02*
X10736967Y-12807579D01*
X10736967Y-12807579D02*
X10746491Y-12788531D01*
X10746491Y-12788531D02*
X10756015Y-12779008D01*
X10756015Y-12779008D02*
X10775063Y-12769484D01*
X10965539Y-12769484D02*
X10984586Y-12769484D01*
X10984586Y-12769484D02*
X11003634Y-12779008D01*
X11003634Y-12779008D02*
X11013158Y-12788531D01*
X11013158Y-12788531D02*
X11022682Y-12807579D01*
X11022682Y-12807579D02*
X11032205Y-12845674D01*
X11032205Y-12845674D02*
X11032205Y-12893293D01*
X11032205Y-12893293D02*
X11022682Y-12931388D01*
X11022682Y-12931388D02*
X11013158Y-12950436D01*
X11013158Y-12950436D02*
X11003634Y-12959960D01*
X11003634Y-12959960D02*
X10984586Y-12969484D01*
X10984586Y-12969484D02*
X10965539Y-12969484D01*
X10965539Y-12969484D02*
X10946491Y-12959960D01*
X10946491Y-12959960D02*
X10936967Y-12950436D01*
X10936967Y-12950436D02*
X10927444Y-12931388D01*
X10927444Y-12931388D02*
X10917920Y-12893293D01*
X10917920Y-12893293D02*
X10917920Y-12845674D01*
X10917920Y-12845674D02*
X10927444Y-12807579D01*
X10927444Y-12807579D02*
X10936967Y-12788531D01*
X10936967Y-12788531D02*
X10946491Y-12779008D01*
X10946491Y-12779008D02*
X10965539Y-12769484D01*
X11117920Y-12969484D02*
X11117920Y-12836150D01*
X11117920Y-12855198D02*
X11127444Y-12845674D01*
X11127444Y-12845674D02*
X11146491Y-12836150D01*
X11146491Y-12836150D02*
X11175063Y-12836150D01*
X11175063Y-12836150D02*
X11194110Y-12845674D01*
X11194110Y-12845674D02*
X11203634Y-12864722D01*
X11203634Y-12864722D02*
X11203634Y-12969484D01*
X11203634Y-12864722D02*
X11213158Y-12845674D01*
X11213158Y-12845674D02*
X11232205Y-12836150D01*
X11232205Y-12836150D02*
X11260777Y-12836150D01*
X11260777Y-12836150D02*
X11279824Y-12845674D01*
X11279824Y-12845674D02*
X11289348Y-12864722D01*
X11289348Y-12864722D02*
X11289348Y-12969484D01*
X11384586Y-12969484D02*
X11384586Y-12836150D01*
X11384586Y-12855198D02*
X11394110Y-12845674D01*
X11394110Y-12845674D02*
X11413158Y-12836150D01*
X11413158Y-12836150D02*
X11441729Y-12836150D01*
X11441729Y-12836150D02*
X11460777Y-12845674D01*
X11460777Y-12845674D02*
X11470301Y-12864722D01*
X11470301Y-12864722D02*
X11470301Y-12969484D01*
X11470301Y-12864722D02*
X11479824Y-12845674D01*
X11479824Y-12845674D02*
X11498872Y-12836150D01*
X11498872Y-12836150D02*
X11527443Y-12836150D01*
X11527443Y-12836150D02*
X11546491Y-12845674D01*
X11546491Y-12845674D02*
X11556015Y-12864722D01*
X11556015Y-12864722D02*
X11556015Y-12969484D01*
X11946491Y-12759960D02*
X11775063Y-13017103D01*
X12203634Y-12769484D02*
X12222682Y-12769484D01*
X12222682Y-12769484D02*
X12241729Y-12779008D01*
X12241729Y-12779008D02*
X12251253Y-12788531D01*
X12251253Y-12788531D02*
X12260777Y-12807579D01*
X12260777Y-12807579D02*
X12270301Y-12845674D01*
X12270301Y-12845674D02*
X12270301Y-12893293D01*
X12270301Y-12893293D02*
X12260777Y-12931388D01*
X12260777Y-12931388D02*
X12251253Y-12950436D01*
X12251253Y-12950436D02*
X12241729Y-12959960D01*
X12241729Y-12959960D02*
X12222682Y-12969484D01*
X12222682Y-12969484D02*
X12203634Y-12969484D01*
X12203634Y-12969484D02*
X12184586Y-12959960D01*
X12184586Y-12959960D02*
X12175063Y-12950436D01*
X12175063Y-12950436D02*
X12165539Y-12931388D01*
X12165539Y-12931388D02*
X12156015Y-12893293D01*
X12156015Y-12893293D02*
X12156015Y-12845674D01*
X12156015Y-12845674D02*
X12165539Y-12807579D01*
X12165539Y-12807579D02*
X12175063Y-12788531D01*
X12175063Y-12788531D02*
X12184586Y-12779008D01*
X12184586Y-12779008D02*
X12203634Y-12769484D01*
X12356015Y-12950436D02*
X12365539Y-12959960D01*
X12365539Y-12959960D02*
X12356015Y-12969484D01*
X12356015Y-12969484D02*
X12346491Y-12959960D01*
X12346491Y-12959960D02*
X12356015Y-12950436D01*
X12356015Y-12950436D02*
X12356015Y-12969484D01*
X12489348Y-12769484D02*
X12508396Y-12769484D01*
X12508396Y-12769484D02*
X12527444Y-12779008D01*
X12527444Y-12779008D02*
X12536967Y-12788531D01*
X12536967Y-12788531D02*
X12546491Y-12807579D01*
X12546491Y-12807579D02*
X12556015Y-12845674D01*
X12556015Y-12845674D02*
X12556015Y-12893293D01*
X12556015Y-12893293D02*
X12546491Y-12931388D01*
X12546491Y-12931388D02*
X12536967Y-12950436D01*
X12536967Y-12950436D02*
X12527444Y-12959960D01*
X12527444Y-12959960D02*
X12508396Y-12969484D01*
X12508396Y-12969484D02*
X12489348Y-12969484D01*
X12489348Y-12969484D02*
X12470301Y-12959960D01*
X12470301Y-12959960D02*
X12460777Y-12950436D01*
X12460777Y-12950436D02*
X12451253Y-12931388D01*
X12451253Y-12931388D02*
X12441729Y-12893293D01*
X12441729Y-12893293D02*
X12441729Y-12845674D01*
X12441729Y-12845674D02*
X12451253Y-12807579D01*
X12451253Y-12807579D02*
X12460777Y-12788531D01*
X12460777Y-12788531D02*
X12470301Y-12779008D01*
X12470301Y-12779008D02*
X12489348Y-12769484D01*
X12746491Y-12969484D02*
X12632206Y-12969484D01*
X12689348Y-12969484D02*
X12689348Y-12769484D01*
X12689348Y-12769484D02*
X12670301Y-12798055D01*
X12670301Y-12798055D02*
X12651253Y-12817103D01*
X12651253Y-12817103D02*
X12632206Y-12826627D01*
X12841729Y-12969484D02*
X12879825Y-12969484D01*
X12879825Y-12969484D02*
X12898872Y-12959960D01*
X12898872Y-12959960D02*
X12908396Y-12950436D01*
X12908396Y-12950436D02*
X12927444Y-12921865D01*
X12927444Y-12921865D02*
X12936967Y-12883769D01*
X12936967Y-12883769D02*
X12936967Y-12807579D01*
X12936967Y-12807579D02*
X12927444Y-12788531D01*
X12927444Y-12788531D02*
X12917920Y-12779008D01*
X12917920Y-12779008D02*
X12898872Y-12769484D01*
X12898872Y-12769484D02*
X12860777Y-12769484D01*
X12860777Y-12769484D02*
X12841729Y-12779008D01*
X12841729Y-12779008D02*
X12832206Y-12788531D01*
X12832206Y-12788531D02*
X12822682Y-12807579D01*
X12822682Y-12807579D02*
X12822682Y-12855198D01*
X12822682Y-12855198D02*
X12832206Y-12874246D01*
X12832206Y-12874246D02*
X12841729Y-12883769D01*
X12841729Y-12883769D02*
X12860777Y-12893293D01*
X12860777Y-12893293D02*
X12898872Y-12893293D01*
X12898872Y-12893293D02*
X12917920Y-12883769D01*
X12917920Y-12883769D02*
X12927444Y-12874246D01*
X12927444Y-12874246D02*
X12936967Y-12855198D01*
X13003634Y-12769484D02*
X13136967Y-12769484D01*
X13136967Y-12769484D02*
X13051253Y-12969484D01*
X13203634Y-12769484D02*
X13203634Y-12807579D01*
X13279825Y-12769484D02*
X13279825Y-12807579D01*
X13575063Y-13045674D02*
X13565539Y-13036150D01*
X13565539Y-13036150D02*
X13546491Y-13007579D01*
X13546491Y-13007579D02*
X13536968Y-12988531D01*
X13536968Y-12988531D02*
X13527444Y-12959960D01*
X13527444Y-12959960D02*
X13517920Y-12912341D01*
X13517920Y-12912341D02*
X13517920Y-12874246D01*
X13517920Y-12874246D02*
X13527444Y-12826627D01*
X13527444Y-12826627D02*
X13536968Y-12798055D01*
X13536968Y-12798055D02*
X13546491Y-12779008D01*
X13546491Y-12779008D02*
X13565539Y-12750436D01*
X13565539Y-12750436D02*
X13575063Y-12740912D01*
X13632206Y-12769484D02*
X13756015Y-12769484D01*
X13756015Y-12769484D02*
X13689348Y-12845674D01*
X13689348Y-12845674D02*
X13717920Y-12845674D01*
X13717920Y-12845674D02*
X13736968Y-12855198D01*
X13736968Y-12855198D02*
X13746491Y-12864722D01*
X13746491Y-12864722D02*
X13756015Y-12883769D01*
X13756015Y-12883769D02*
X13756015Y-12931388D01*
X13756015Y-12931388D02*
X13746491Y-12950436D01*
X13746491Y-12950436D02*
X13736968Y-12959960D01*
X13736968Y-12959960D02*
X13717920Y-12969484D01*
X13717920Y-12969484D02*
X13660777Y-12969484D01*
X13660777Y-12969484D02*
X13641729Y-12959960D01*
X13641729Y-12959960D02*
X13632206Y-12950436D01*
X13927444Y-12769484D02*
X13889348Y-12769484D01*
X13889348Y-12769484D02*
X13870301Y-12779008D01*
X13870301Y-12779008D02*
X13860777Y-12788531D01*
X13860777Y-12788531D02*
X13841729Y-12817103D01*
X13841729Y-12817103D02*
X13832206Y-12855198D01*
X13832206Y-12855198D02*
X13832206Y-12931388D01*
X13832206Y-12931388D02*
X13841729Y-12950436D01*
X13841729Y-12950436D02*
X13851253Y-12959960D01*
X13851253Y-12959960D02*
X13870301Y-12969484D01*
X13870301Y-12969484D02*
X13908396Y-12969484D01*
X13908396Y-12969484D02*
X13927444Y-12959960D01*
X13927444Y-12959960D02*
X13936968Y-12950436D01*
X13936968Y-12950436D02*
X13946491Y-12931388D01*
X13946491Y-12931388D02*
X13946491Y-12883769D01*
X13946491Y-12883769D02*
X13936968Y-12864722D01*
X13936968Y-12864722D02*
X13927444Y-12855198D01*
X13927444Y-12855198D02*
X13908396Y-12845674D01*
X13908396Y-12845674D02*
X13870301Y-12845674D01*
X13870301Y-12845674D02*
X13851253Y-12855198D01*
X13851253Y-12855198D02*
X13841729Y-12864722D01*
X13841729Y-12864722D02*
X13832206Y-12883769D01*
X14184587Y-12969484D02*
X14184587Y-12769484D01*
X14270301Y-12969484D02*
X14270301Y-12864722D01*
X14270301Y-12864722D02*
X14260777Y-12845674D01*
X14260777Y-12845674D02*
X14241730Y-12836150D01*
X14241730Y-12836150D02*
X14213158Y-12836150D01*
X14213158Y-12836150D02*
X14194110Y-12845674D01*
X14194110Y-12845674D02*
X14184587Y-12855198D01*
X14394110Y-12969484D02*
X14375063Y-12959960D01*
X14375063Y-12959960D02*
X14365539Y-12950436D01*
X14365539Y-12950436D02*
X14356015Y-12931388D01*
X14356015Y-12931388D02*
X14356015Y-12874246D01*
X14356015Y-12874246D02*
X14365539Y-12855198D01*
X14365539Y-12855198D02*
X14375063Y-12845674D01*
X14375063Y-12845674D02*
X14394110Y-12836150D01*
X14394110Y-12836150D02*
X14422682Y-12836150D01*
X14422682Y-12836150D02*
X14441730Y-12845674D01*
X14441730Y-12845674D02*
X14451253Y-12855198D01*
X14451253Y-12855198D02*
X14460777Y-12874246D01*
X14460777Y-12874246D02*
X14460777Y-12931388D01*
X14460777Y-12931388D02*
X14451253Y-12950436D01*
X14451253Y-12950436D02*
X14441730Y-12959960D01*
X14441730Y-12959960D02*
X14422682Y-12969484D01*
X14422682Y-12969484D02*
X14394110Y-12969484D01*
X14575063Y-12969484D02*
X14556015Y-12959960D01*
X14556015Y-12959960D02*
X14546491Y-12940912D01*
X14546491Y-12940912D02*
X14546491Y-12769484D01*
X14727444Y-12959960D02*
X14708396Y-12969484D01*
X14708396Y-12969484D02*
X14670301Y-12969484D01*
X14670301Y-12969484D02*
X14651253Y-12959960D01*
X14651253Y-12959960D02*
X14641730Y-12940912D01*
X14641730Y-12940912D02*
X14641730Y-12864722D01*
X14641730Y-12864722D02*
X14651253Y-12845674D01*
X14651253Y-12845674D02*
X14670301Y-12836150D01*
X14670301Y-12836150D02*
X14708396Y-12836150D01*
X14708396Y-12836150D02*
X14727444Y-12845674D01*
X14727444Y-12845674D02*
X14736968Y-12864722D01*
X14736968Y-12864722D02*
X14736968Y-12883769D01*
X14736968Y-12883769D02*
X14641730Y-12902817D01*
X14813158Y-12959960D02*
X14832206Y-12969484D01*
X14832206Y-12969484D02*
X14870301Y-12969484D01*
X14870301Y-12969484D02*
X14889349Y-12959960D01*
X14889349Y-12959960D02*
X14898872Y-12940912D01*
X14898872Y-12940912D02*
X14898872Y-12931388D01*
X14898872Y-12931388D02*
X14889349Y-12912341D01*
X14889349Y-12912341D02*
X14870301Y-12902817D01*
X14870301Y-12902817D02*
X14841730Y-12902817D01*
X14841730Y-12902817D02*
X14822682Y-12893293D01*
X14822682Y-12893293D02*
X14813158Y-12874246D01*
X14813158Y-12874246D02*
X14813158Y-12864722D01*
X14813158Y-12864722D02*
X14822682Y-12845674D01*
X14822682Y-12845674D02*
X14841730Y-12836150D01*
X14841730Y-12836150D02*
X14870301Y-12836150D01*
X14870301Y-12836150D02*
X14889349Y-12845674D01*
X14965539Y-13045674D02*
X14975063Y-13036150D01*
X14975063Y-13036150D02*
X14994111Y-13007579D01*
X14994111Y-13007579D02*
X15003634Y-12988531D01*
X15003634Y-12988531D02*
X15013158Y-12959960D01*
X15013158Y-12959960D02*
X15022682Y-12912341D01*
X15022682Y-12912341D02*
X15022682Y-12874246D01*
X15022682Y-12874246D02*
X15013158Y-12826627D01*
X15013158Y-12826627D02*
X15003634Y-12798055D01*
X15003634Y-12798055D02*
X14994111Y-12779008D01*
X14994111Y-12779008D02*
X14975063Y-12750436D01*
X14975063Y-12750436D02*
X14965539Y-12740912D01*
M02*
