%TF.GenerationSoftware,KiCad,Pcbnew,7.0.5*%
%TF.CreationDate,2023-06-11T19:33:25+08:00*%
%TF.ProjectId,DiveCAN Head,44697665-4341-44e2-9048-6561642e6b69,rev?*%
%TF.SameCoordinates,Original*%
%TF.FileFunction,Copper,L3,Inr*%
%TF.FilePolarity,Positive*%
%FSLAX46Y46*%
G04 Gerber Fmt 4.6, Leading zero omitted, Abs format (unit mm)*
G04 Created by KiCad (PCBNEW 7.0.5) date 2023-06-11 19:33:25*
%MOMM*%
%LPD*%
G01*
G04 APERTURE LIST*
%TA.AperFunction,ComponentPad*%
%ADD10R,0.850000X0.850000*%
%TD*%
%TA.AperFunction,ComponentPad*%
%ADD11O,0.850000X0.850000*%
%TD*%
%TA.AperFunction,ViaPad*%
%ADD12C,0.350000*%
%TD*%
%TA.AperFunction,ViaPad*%
%ADD13C,0.500000*%
%TD*%
%TA.AperFunction,Conductor*%
%ADD14C,0.254000*%
%TD*%
%TA.AperFunction,Conductor*%
%ADD15C,0.127000*%
%TD*%
G04 APERTURE END LIST*
D10*
%TO.N,Net-(J11-Pin_1)*%
%TO.C,J11*%
X120400000Y-93300000D03*
D11*
%TO.N,GNDREF*%
X119400000Y-93300000D03*
%TD*%
D10*
%TO.N,Net-(J2-Pin_1)*%
%TO.C,J2*%
X108900000Y-93300000D03*
D11*
%TO.N,GNDREF*%
X107900000Y-93300000D03*
%TD*%
D10*
%TO.N,Net-(J1-Pin_1)*%
%TO.C,J1*%
X114655000Y-93300000D03*
D11*
%TO.N,GNDREF*%
X113655000Y-93300000D03*
%TD*%
D10*
%TO.N,/Controller A/SOLENOID_RET*%
%TO.C,J3*%
X121600000Y-102900000D03*
D11*
%TO.N,/BUS_SOLENOID*%
X122600000Y-102900000D03*
%TD*%
D10*
%TO.N,GNDREF*%
%TO.C,J7*%
X101270001Y-106925000D03*
D11*
%TO.N,/SSC3_TX*%
X101270001Y-107925000D03*
%TO.N,/SSC3_RX*%
X101270001Y-108925000D03*
%TO.N,Net-(J7-Pin_4)*%
X101270001Y-109925000D03*
%TD*%
D10*
%TO.N,GNDREF*%
%TO.C,J5*%
X101100000Y-93260000D03*
D11*
%TO.N,/SSC1_TX*%
X101100000Y-94260000D03*
%TO.N,/SSC1_RX*%
X101100000Y-95260000D03*
%TO.N,Net-(J5-Pin_4)*%
X101100000Y-96260000D03*
%TD*%
D10*
%TO.N,GNDREF*%
%TO.C,J6*%
X101167498Y-100125000D03*
D11*
%TO.N,/SSC2_TX*%
X101167498Y-101125000D03*
%TO.N,/SSC2_RX*%
X101167498Y-102125000D03*
%TO.N,Net-(J6-Pin_4)*%
X101167498Y-103125000D03*
%TD*%
D10*
%TO.N,/IN_A*%
%TO.C,J4*%
X124800000Y-102600000D03*
D11*
%TO.N,/IN_B*%
X124800000Y-103600000D03*
%TO.N,/BUS_SOLENOID*%
X124800000Y-104600000D03*
%TO.N,GNDREF*%
X124800000Y-105600000D03*
%TD*%
D10*
%TO.N,GNDREF*%
%TO.C,J8*%
X115800000Y-96000000D03*
D11*
%TO.N,Net-(J8-Pin_2)*%
X115800000Y-97000000D03*
%TO.N,/CAN_A_PWR*%
X115800000Y-98000000D03*
%TO.N,/~{EN_A}*%
X115800000Y-99000000D03*
%TO.N,Net-(J8-Pin_5)*%
X115800000Y-100000000D03*
%TD*%
D10*
%TO.N,GNDREF*%
%TO.C,J9*%
X115750000Y-107500000D03*
D11*
%TO.N,Net-(J9-Pin_2)*%
X115750000Y-108500000D03*
%TO.N,/CAN_B_PWR*%
X115750000Y-109500000D03*
%TO.N,/~{EN_B}*%
X115750000Y-110500000D03*
%TO.N,Net-(J9-Pin_5)*%
X115750000Y-111500000D03*
%TD*%
%TO.N,/BUS_SOLENOID*%
%TO.C,J10*%
X122600000Y-105400000D03*
D10*
%TO.N,/Controller B/SOLENOID_RET*%
X121600000Y-105400000D03*
%TD*%
D12*
%TO.N,/BUS_A*%
X124600000Y-96200000D03*
%TO.N,GNDREF*%
X100975000Y-97600000D03*
X126250000Y-103500000D03*
X125575000Y-116375000D03*
X107900000Y-115575000D03*
X101050000Y-114450000D03*
X111200000Y-100075000D03*
%TO.N,Net-(U10-PD5)*%
X121275000Y-114175000D03*
%TO.N,Net-(U10-PD7)*%
X119050000Y-115700000D03*
%TO.N,/BUS_A*%
X113000000Y-104775000D03*
%TO.N,/Controller A/SSC1_PWR*%
X114550000Y-96650000D03*
%TO.N,/Controller B/RST*%
X114600000Y-98400000D03*
%TO.N,Net-(Q1-G)*%
X111100000Y-96400000D03*
X113500000Y-94800000D03*
%TO.N,/Controller B/SOLENOID_RET*%
X117700000Y-104550000D03*
%TO.N,/Controller A/SOLENOID_RET*%
X116850000Y-104250000D03*
%TO.N,/BUS_SOLENOID*%
X117100000Y-103200000D03*
%TO.N,/Controller B/SOLENOID*%
X109150000Y-115350000D03*
%TO.N,Net-(Q2-G)*%
X110800000Y-115850000D03*
%TO.N,/Controller A/SSC3_PWR*%
X115050000Y-103500000D03*
%TO.N,GNDREF*%
X111900000Y-110300000D03*
%TO.N,/Controller B/RST*%
X112800000Y-94800000D03*
X105600000Y-93000000D03*
X108100000Y-114300000D03*
%TO.N,/SSC1_PWR*%
X109600000Y-112200000D03*
%TO.N,/Controller A/SOLENOID_RET*%
X108500000Y-107700000D03*
%TO.N,/C1_B*%
X108400000Y-109000000D03*
%TO.N,/Controller A/RST*%
X109600000Y-110300000D03*
X108300000Y-101700000D03*
%TO.N,GNDREF*%
X124100000Y-115200000D03*
%TO.N,/BUS_B*%
X116800000Y-112000000D03*
X122500000Y-114700000D03*
%TO.N,Net-(Q2-G)*%
X114700000Y-108000000D03*
%TO.N,/Controller B/CLK*%
X114600000Y-106919000D03*
%TO.N,Net-(U11-TXCAN)*%
X118800000Y-107000000D03*
X111200000Y-110300000D03*
%TO.N,Net-(U11-RXCAN)*%
X119700000Y-108600000D03*
X111800000Y-112200000D03*
%TO.N,/SSC2_TX*%
X111100000Y-107700000D03*
%TO.N,/BUS_B*%
X118700000Y-113600000D03*
X110115222Y-114900000D03*
%TO.N,Net-(U10-PD4)*%
X120500000Y-115600000D03*
X114600000Y-111600000D03*
%TO.N,/Controller A/SSC2_PWR*%
X117300000Y-94900000D03*
%TO.N,/BUS_A*%
X119500000Y-101700000D03*
X119200000Y-98600000D03*
%TO.N,/IN_B*%
X118100000Y-107000000D03*
%TO.N,/IN_A*%
X121450000Y-104250000D03*
%TO.N,/CAN_A_PWR*%
X118300000Y-102600000D03*
%TO.N,/IN_B*%
X118400000Y-115400000D03*
%TO.N,/~{EN_A}*%
X122800000Y-111900000D03*
%TO.N,/Controller A/SOLENOID*%
X114600000Y-100600000D03*
%TO.N,/Controller A/SOLENOID_RET*%
X106700000Y-93700000D03*
%TO.N,/Controller B/SOLENOID_RET*%
X106500000Y-105200000D03*
%TO.N,Net-(U7-PD6)*%
X118300000Y-101800000D03*
X116800000Y-101500000D03*
%TO.N,GNDREF*%
X111500000Y-103800000D03*
%TO.N,/SSC2_RX*%
X111800000Y-105200000D03*
%TO.N,Net-(U7-PA5)*%
X110200000Y-96900000D03*
%TO.N,Net-(U8-TXCAN)*%
X114500000Y-94800000D03*
%TO.N,Net-(U8-RXCAN)*%
X120500000Y-96000000D03*
X109000000Y-99300000D03*
%TO.N,GNDREF*%
X125400000Y-93200000D03*
%TO.N,/Controller B/CLK*%
X124300000Y-109600000D03*
%TO.N,GNDREF*%
X109400000Y-112900000D03*
X108400000Y-98600000D03*
X102100000Y-99500000D03*
%TO.N,/C2_B*%
X108200000Y-94200000D03*
%TO.N,/~{EN_B}*%
X123200000Y-115700000D03*
%TO.N,Net-(U10-PA5)*%
X108000000Y-106100000D03*
%TO.N,Net-(U13-EN)*%
X124400000Y-114500000D03*
X124300000Y-99100000D03*
%TO.N,Net-(U16-EN)*%
X118900000Y-107700000D03*
X118000000Y-116700000D03*
D13*
%TO.N,/IN_A*%
X117900000Y-114800000D03*
D12*
%TO.N,GNDREF*%
X106900000Y-104200000D03*
%TO.N,/BUS_B*%
X109600000Y-109600000D03*
X108607611Y-113392389D03*
%TO.N,GNDREF*%
X103600000Y-113000000D03*
X107400000Y-113300000D03*
%TO.N,/C1_B*%
X106300000Y-93100000D03*
%TO.N,/C2_B*%
X109586500Y-108286500D03*
%TO.N,/SSC1_PWR*%
X110200000Y-97713500D03*
X102100000Y-97300000D03*
%TO.N,/SSC2_PWR*%
X102200000Y-103500000D03*
%TO.N,/SSC1_PWR*%
X111300000Y-101900000D03*
%TO.N,/SSC2_PWR*%
X110200000Y-103700000D03*
%TO.N,/SSC3_PWR*%
X110100000Y-104700000D03*
X110000000Y-114200000D03*
%TO.N,/SSC2_PWR*%
X110600000Y-113700000D03*
%TO.N,/SSC1_PWR*%
X111213500Y-113313500D03*
%TO.N,/SSC1_RX*%
X106700000Y-94400000D03*
X108300000Y-104100000D03*
X109100000Y-111300000D03*
%TO.N,/SSC2_TX*%
X111100000Y-97300000D03*
%TO.N,/C1_B*%
X123200000Y-93200000D03*
%TO.N,/C3_B*%
X111700000Y-93200000D03*
%TO.N,/C2_A*%
X118600000Y-93800000D03*
%TO.N,/C2_B*%
X118500000Y-93100000D03*
%TO.N,/SSC2_RX*%
X112100000Y-94800000D03*
%TO.N,/C1_A*%
X124400000Y-93700000D03*
%TO.N,/C3_A*%
X110000000Y-94600000D03*
%TO.N,/C2_A*%
X110000000Y-95300000D03*
%TO.N,/C1_A*%
X110000000Y-96000000D03*
%TO.N,/BUS_A*%
X105100000Y-100600000D03*
X104800000Y-107500000D03*
X104500000Y-93900000D03*
%TO.N,/BUS_B*%
X103200000Y-115500000D03*
X102600000Y-94600000D03*
X102600000Y-101400000D03*
X102700000Y-108200000D03*
%TO.N,GNDREF*%
X102300000Y-102800000D03*
X104000000Y-106600000D03*
%TO.N,/Controller A/SSC3_PWR*%
X115600000Y-94700000D03*
X123700000Y-96000000D03*
%TO.N,/Controller A/SSC2_RX*%
X111900000Y-96100000D03*
%TO.N,/Controller A/SSC3_RX*%
X108100000Y-103300000D03*
%TO.N,/Controller B/SSC3_PWR*%
X115800000Y-114700000D03*
%TO.N,/Controller B/SSC1_PWR*%
X115100000Y-112400000D03*
%TO.N,/Controller B/SSC2_PWR*%
X116300000Y-113400000D03*
%TO.N,Net-(U10-PD5)*%
X112000000Y-112900000D03*
%TO.N,Net-(U10-PD7)*%
X112000000Y-114200000D03*
%TO.N,/Controller A/SSC1_RX*%
X107600000Y-101300000D03*
%TO.N,/Controller B/SSC2_RX*%
X111000000Y-107000000D03*
%TO.N,/Controller B/SSC1_RX*%
X108600000Y-110300000D03*
%TO.N,/Controller B/SSC3_RX*%
X107400000Y-114300000D03*
%TD*%
D14*
%TO.N,/BUS_A*%
X124600000Y-96200000D02*
X122200000Y-98600000D01*
X122200000Y-98600000D02*
X119200000Y-98600000D01*
D15*
%TO.N,/SSC2_TX*%
X111100000Y-97300000D02*
X112213500Y-98413500D01*
X112213500Y-98413500D02*
X112213500Y-106586500D01*
X112213500Y-106586500D02*
X111100000Y-107700000D01*
D14*
%TO.N,/IN_B*%
X124800000Y-103600000D02*
X123823000Y-104577000D01*
X123823000Y-104577000D02*
X123823000Y-109977000D01*
X123823000Y-109977000D02*
X118400000Y-115400000D01*
%TO.N,/IN_A*%
X124800000Y-102600000D02*
X123150000Y-104250000D01*
X123150000Y-104250000D02*
X121450000Y-104250000D01*
D15*
%TO.N,/Controller B/RST*%
X114575000Y-98400000D02*
X112800000Y-96625000D01*
X112800000Y-96625000D02*
X112800000Y-94800000D01*
%TO.N,Net-(Q2-G)*%
X114700000Y-108000000D02*
X112915222Y-108000000D01*
X112915222Y-108000000D02*
X110786500Y-110128722D01*
X110786500Y-110128722D02*
X110786500Y-112301722D01*
X110786500Y-112301722D02*
X111627000Y-113142222D01*
X110800000Y-114815222D02*
X110800000Y-115850000D01*
X111627000Y-113142222D02*
X111627000Y-113988222D01*
X111627000Y-113988222D02*
X110800000Y-114815222D01*
%TO.N,/Controller A/SSC3_PWR*%
X115050000Y-95250000D02*
X115600000Y-94700000D01*
X115050000Y-103500000D02*
X115050000Y-95250000D01*
%TO.N,/Controller B/RST*%
X105600000Y-112084778D02*
X105600000Y-93000000D01*
X108100000Y-114300000D02*
X107513500Y-113713500D01*
X107513500Y-113713500D02*
X107228722Y-113713500D01*
X107228722Y-113713500D02*
X105600000Y-112084778D01*
%TO.N,/SSC1_RX*%
X109100000Y-111300000D02*
X109100000Y-110059210D01*
X109100000Y-110059210D02*
X108919000Y-109878210D01*
X108919000Y-109878210D02*
X108919000Y-104719000D01*
X108919000Y-104719000D02*
X108300000Y-104100000D01*
%TO.N,/Controller A/SOLENOID_RET*%
X107800000Y-107700000D02*
X108400000Y-107700000D01*
%TO.N,/C1_B*%
X107500000Y-109000000D02*
X108400000Y-109000000D01*
%TO.N,/Controller A/RST*%
X109600000Y-110200000D02*
X109600000Y-110300000D01*
X109173000Y-109773000D02*
X109600000Y-110200000D01*
X108300000Y-101700000D02*
X109173000Y-102573000D01*
X109173000Y-102573000D02*
X109173000Y-109773000D01*
%TO.N,/Controller A/SOLENOID_RET*%
X106700000Y-93700000D02*
X106286500Y-94113500D01*
X106286500Y-94113500D02*
X106286500Y-104401722D01*
X106286500Y-104401722D02*
X107000000Y-105115222D01*
X107000000Y-105115222D02*
X107000000Y-106900000D01*
X107000000Y-106900000D02*
X107800000Y-107700000D01*
%TO.N,Net-(U11-TXCAN)*%
X115484778Y-112200000D02*
X115271278Y-111986500D01*
X114815222Y-112100000D02*
X113000000Y-112100000D01*
X118800000Y-107000000D02*
X118386500Y-106586500D01*
X116000000Y-112200000D02*
X115484778Y-112200000D01*
X115271278Y-111986500D02*
X114928722Y-111986500D01*
X113000000Y-112100000D02*
X111200000Y-110300000D01*
X114928722Y-111986500D02*
X114815222Y-112100000D01*
X118386500Y-106586500D02*
X117928722Y-106586500D01*
X117928722Y-106586500D02*
X116365500Y-108149722D01*
X116365500Y-108149722D02*
X116365500Y-111834500D01*
X116365500Y-111834500D02*
X116000000Y-112200000D01*
D14*
%TO.N,/BUS_B*%
X102600000Y-101400000D02*
X102600000Y-94600000D01*
X102700000Y-108200000D02*
X102777000Y-108123000D01*
X102777000Y-108123000D02*
X102777000Y-101577000D01*
X102777000Y-101577000D02*
X102600000Y-101400000D01*
X103200000Y-115500000D02*
X102700000Y-115000000D01*
X102700000Y-115000000D02*
X102700000Y-108200000D01*
%TO.N,/BUS_A*%
X119200000Y-98600000D02*
X119200000Y-101400000D01*
X119200000Y-101400000D02*
X119500000Y-101700000D01*
%TO.N,/IN_A*%
X119377000Y-106323000D02*
X121450000Y-104250000D01*
%TO.N,/CAN_A_PWR*%
X118300000Y-102600000D02*
X117277000Y-101577000D01*
X117277000Y-101577000D02*
X117277000Y-99477000D01*
X117277000Y-99477000D02*
X115800000Y-98000000D01*
%TO.N,/IN_A*%
X117900000Y-114800000D02*
X117900000Y-109439340D01*
X117900000Y-109439340D02*
X119377000Y-107962340D01*
X119377000Y-107962340D02*
X119377000Y-106323000D01*
D15*
%TO.N,/SSC2_RX*%
X110625000Y-104025000D02*
X110625000Y-96275000D01*
X111800000Y-105200000D02*
X110625000Y-104025000D01*
%TO.N,/C2_B*%
X108200000Y-94200000D02*
X109586500Y-95586500D01*
X109586500Y-95586500D02*
X109586500Y-108286500D01*
%TO.N,Net-(U13-EN)*%
X125415500Y-100315500D02*
X124300000Y-99200000D01*
X124300000Y-99200000D02*
X124300000Y-99100000D01*
X124400000Y-114500000D02*
X125415500Y-113484500D01*
X125415500Y-113484500D02*
X125415500Y-100315500D01*
%TO.N,Net-(U16-EN)*%
X117411500Y-109188500D02*
X117411500Y-116111500D01*
X118900000Y-107700000D02*
X117411500Y-109188500D01*
X117411500Y-116111500D02*
X118000000Y-116700000D01*
%TO.N,/C1_B*%
X105900000Y-107400000D02*
X107500000Y-109000000D01*
X106300000Y-93100000D02*
X105900000Y-93500000D01*
X105900000Y-93500000D02*
X105900000Y-107400000D01*
%TO.N,/SSC2_PWR*%
X110200000Y-104059210D02*
X110200000Y-103700000D01*
X110513500Y-104372710D02*
X110200000Y-104059210D01*
X110513500Y-113613500D02*
X110513500Y-104372710D01*
X110600000Y-113700000D02*
X110513500Y-113613500D01*
%TO.N,/SSC3_PWR*%
X110100000Y-104700000D02*
X110100000Y-114100000D01*
X110100000Y-114100000D02*
X110000000Y-114200000D01*
%TO.N,/SSC1_RX*%
X106713500Y-94413500D02*
X106700000Y-94400000D01*
X107186500Y-94413500D02*
X106713500Y-94413500D01*
X108300000Y-104100000D02*
X107186500Y-102986500D01*
X107186500Y-102986500D02*
X107186500Y-94413500D01*
%TO.N,/SSC2_RX*%
X110625000Y-96275000D02*
X112100000Y-94800000D01*
%TO.N,/BUS_A*%
X104500000Y-93900000D02*
X104500000Y-100700000D01*
X104500000Y-100700000D02*
X104500000Y-107500000D01*
X105100000Y-100600000D02*
X104600000Y-100600000D01*
X104600000Y-100600000D02*
X104500000Y-100700000D01*
X104500000Y-107500000D02*
X104800000Y-107500000D01*
%TD*%
%TA.AperFunction,Conductor*%
%TO.N,GNDREF*%
G36*
X126692539Y-92170185D02*
G01*
X126738294Y-92222989D01*
X126749500Y-92274500D01*
X126749500Y-116876000D01*
X126729815Y-116943039D01*
X126677011Y-116988794D01*
X126625500Y-117000000D01*
X118470926Y-117000000D01*
X118403887Y-116980315D01*
X118358132Y-116927511D01*
X118348188Y-116858353D01*
X118360439Y-116819709D01*
X118361574Y-116817482D01*
X118361575Y-116817477D01*
X118380181Y-116700003D01*
X118380181Y-116699996D01*
X118361575Y-116582522D01*
X118361575Y-116582521D01*
X118361574Y-116582519D01*
X118361574Y-116582518D01*
X118307573Y-116476535D01*
X118307571Y-116476533D01*
X118307568Y-116476529D01*
X118223470Y-116392431D01*
X118223466Y-116392428D01*
X118223465Y-116392427D01*
X118117482Y-116338426D01*
X118117481Y-116338425D01*
X118117478Y-116338424D01*
X118031680Y-116324836D01*
X117968546Y-116294907D01*
X117963397Y-116290044D01*
X117711819Y-116038465D01*
X117678334Y-115977142D01*
X117675500Y-115950784D01*
X117675500Y-115369244D01*
X117695185Y-115302205D01*
X117747989Y-115256450D01*
X117817147Y-115246506D01*
X117834434Y-115250267D01*
X117835228Y-115250500D01*
X117835229Y-115250500D01*
X117898312Y-115250500D01*
X117965351Y-115270185D01*
X118011106Y-115322989D01*
X118021050Y-115392147D01*
X118020786Y-115393897D01*
X118019819Y-115400002D01*
X118019819Y-115400003D01*
X118038424Y-115517477D01*
X118038424Y-115517478D01*
X118038425Y-115517481D01*
X118038426Y-115517482D01*
X118090296Y-115619283D01*
X118092428Y-115623466D01*
X118092431Y-115623470D01*
X118176529Y-115707568D01*
X118176533Y-115707571D01*
X118176535Y-115707573D01*
X118282518Y-115761574D01*
X118282520Y-115761574D01*
X118282522Y-115761575D01*
X118399997Y-115780181D01*
X118400000Y-115780181D01*
X118400003Y-115780181D01*
X118495608Y-115765038D01*
X118517482Y-115761574D01*
X118520092Y-115760244D01*
X118523605Y-115759583D01*
X118526760Y-115758559D01*
X118526892Y-115758966D01*
X118588755Y-115747345D01*
X118653497Y-115773618D01*
X118686873Y-115814432D01*
X118688425Y-115817478D01*
X118688426Y-115817482D01*
X118734329Y-115907571D01*
X118742428Y-115923466D01*
X118742431Y-115923470D01*
X118826529Y-116007568D01*
X118826533Y-116007571D01*
X118826535Y-116007573D01*
X118932518Y-116061574D01*
X118932520Y-116061574D01*
X118932522Y-116061575D01*
X119049997Y-116080181D01*
X119050000Y-116080181D01*
X119050003Y-116080181D01*
X119167477Y-116061575D01*
X119167478Y-116061575D01*
X119167479Y-116061574D01*
X119167482Y-116061574D01*
X119273465Y-116007573D01*
X119357573Y-115923465D01*
X119411574Y-115817482D01*
X119412057Y-115814432D01*
X119430181Y-115700003D01*
X119430181Y-115699996D01*
X119414344Y-115600003D01*
X120119819Y-115600003D01*
X120138424Y-115717477D01*
X120138424Y-115717478D01*
X120138425Y-115717481D01*
X120138426Y-115717482D01*
X120189376Y-115817478D01*
X120192428Y-115823466D01*
X120192431Y-115823470D01*
X120276529Y-115907568D01*
X120276533Y-115907571D01*
X120276535Y-115907573D01*
X120382518Y-115961574D01*
X120382520Y-115961574D01*
X120382522Y-115961575D01*
X120499997Y-115980181D01*
X120500000Y-115980181D01*
X120500003Y-115980181D01*
X120617477Y-115961575D01*
X120617478Y-115961575D01*
X120617479Y-115961574D01*
X120617482Y-115961574D01*
X120723465Y-115907573D01*
X120807573Y-115823465D01*
X120861574Y-115717482D01*
X120862510Y-115711574D01*
X120864343Y-115700003D01*
X122819819Y-115700003D01*
X122838424Y-115817477D01*
X122838424Y-115817478D01*
X122838425Y-115817481D01*
X122838426Y-115817482D01*
X122884327Y-115907568D01*
X122892428Y-115923466D01*
X122892431Y-115923470D01*
X122976529Y-116007568D01*
X122976533Y-116007571D01*
X122976535Y-116007573D01*
X123082518Y-116061574D01*
X123082520Y-116061574D01*
X123082522Y-116061575D01*
X123199997Y-116080181D01*
X123200000Y-116080181D01*
X123200003Y-116080181D01*
X123317477Y-116061575D01*
X123317478Y-116061575D01*
X123317479Y-116061574D01*
X123317482Y-116061574D01*
X123423465Y-116007573D01*
X123507573Y-115923465D01*
X123561574Y-115817482D01*
X123562057Y-115814432D01*
X123580181Y-115700003D01*
X123580181Y-115699996D01*
X123561575Y-115582522D01*
X123561575Y-115582521D01*
X123561574Y-115582519D01*
X123561574Y-115582518D01*
X123507573Y-115476535D01*
X123507571Y-115476533D01*
X123507568Y-115476529D01*
X123423470Y-115392431D01*
X123423466Y-115392428D01*
X123423465Y-115392427D01*
X123317482Y-115338426D01*
X123317480Y-115338425D01*
X123317477Y-115338424D01*
X123200003Y-115319819D01*
X123199997Y-115319819D01*
X123082522Y-115338424D01*
X123082521Y-115338424D01*
X122976533Y-115392428D01*
X122976529Y-115392431D01*
X122892431Y-115476529D01*
X122892428Y-115476533D01*
X122838424Y-115582521D01*
X122838424Y-115582522D01*
X122819819Y-115699996D01*
X122819819Y-115700003D01*
X120864343Y-115700003D01*
X120880181Y-115600003D01*
X120880181Y-115599996D01*
X120861575Y-115482522D01*
X120861575Y-115482521D01*
X120861574Y-115482519D01*
X120861574Y-115482518D01*
X120807573Y-115376535D01*
X120807571Y-115376533D01*
X120807568Y-115376529D01*
X120723470Y-115292431D01*
X120723466Y-115292428D01*
X120723465Y-115292427D01*
X120617482Y-115238426D01*
X120617480Y-115238425D01*
X120617477Y-115238424D01*
X120500003Y-115219819D01*
X120499997Y-115219819D01*
X120382522Y-115238424D01*
X120382521Y-115238424D01*
X120276533Y-115292428D01*
X120276529Y-115292431D01*
X120192431Y-115376529D01*
X120192428Y-115376533D01*
X120138424Y-115482521D01*
X120138424Y-115482522D01*
X120119819Y-115599996D01*
X120119819Y-115600003D01*
X119414344Y-115600003D01*
X119411575Y-115582522D01*
X119411575Y-115582521D01*
X119411574Y-115582519D01*
X119411574Y-115582518D01*
X119357573Y-115476535D01*
X119357571Y-115476533D01*
X119357568Y-115476529D01*
X119273470Y-115392431D01*
X119273466Y-115392428D01*
X119273465Y-115392427D01*
X119167482Y-115338426D01*
X119167479Y-115338425D01*
X119158786Y-115333996D01*
X119160627Y-115330382D01*
X119119234Y-115302236D01*
X119091868Y-115237949D01*
X119103602Y-115169071D01*
X119127338Y-115135814D01*
X119563149Y-114700003D01*
X122119819Y-114700003D01*
X122138424Y-114817477D01*
X122138424Y-114817478D01*
X122138425Y-114817481D01*
X122138426Y-114817482D01*
X122185004Y-114908897D01*
X122192428Y-114923466D01*
X122192431Y-114923470D01*
X122276529Y-115007568D01*
X122276533Y-115007571D01*
X122276535Y-115007573D01*
X122382518Y-115061574D01*
X122382520Y-115061574D01*
X122382522Y-115061575D01*
X122499997Y-115080181D01*
X122500000Y-115080181D01*
X122500003Y-115080181D01*
X122617477Y-115061575D01*
X122617478Y-115061575D01*
X122617479Y-115061574D01*
X122617482Y-115061574D01*
X122723465Y-115007573D01*
X122807573Y-114923465D01*
X122861574Y-114817482D01*
X122862410Y-114812206D01*
X122880181Y-114700003D01*
X122880181Y-114699996D01*
X122861575Y-114582522D01*
X122861575Y-114582521D01*
X122861574Y-114582519D01*
X122861574Y-114582518D01*
X122807573Y-114476535D01*
X122807571Y-114476533D01*
X122807568Y-114476529D01*
X122723470Y-114392431D01*
X122723466Y-114392428D01*
X122723465Y-114392427D01*
X122617482Y-114338426D01*
X122617480Y-114338425D01*
X122617477Y-114338424D01*
X122500003Y-114319819D01*
X122499997Y-114319819D01*
X122382522Y-114338424D01*
X122382521Y-114338424D01*
X122276533Y-114392428D01*
X122276529Y-114392431D01*
X122192431Y-114476529D01*
X122192428Y-114476533D01*
X122138424Y-114582521D01*
X122138424Y-114582522D01*
X122119819Y-114699996D01*
X122119819Y-114700003D01*
X119563149Y-114700003D01*
X120088149Y-114175003D01*
X120894819Y-114175003D01*
X120913424Y-114292477D01*
X120913424Y-114292478D01*
X120913425Y-114292481D01*
X120913426Y-114292482D01*
X120964350Y-114392427D01*
X120967428Y-114398466D01*
X120967431Y-114398470D01*
X121051529Y-114482568D01*
X121051533Y-114482571D01*
X121051535Y-114482573D01*
X121157518Y-114536574D01*
X121157520Y-114536574D01*
X121157522Y-114536575D01*
X121274997Y-114555181D01*
X121275000Y-114555181D01*
X121275003Y-114555181D01*
X121392477Y-114536575D01*
X121392478Y-114536575D01*
X121392479Y-114536574D01*
X121392482Y-114536574D01*
X121498465Y-114482573D01*
X121582573Y-114398465D01*
X121636574Y-114292482D01*
X121651221Y-114200003D01*
X121655181Y-114175003D01*
X121655181Y-114174996D01*
X121636575Y-114057522D01*
X121636575Y-114057521D01*
X121636574Y-114057519D01*
X121636574Y-114057518D01*
X121582573Y-113951535D01*
X121582571Y-113951533D01*
X121582568Y-113951529D01*
X121498470Y-113867431D01*
X121498466Y-113867428D01*
X121498466Y-113867427D01*
X121498465Y-113867427D01*
X121392482Y-113813426D01*
X121392480Y-113813425D01*
X121392477Y-113813424D01*
X121275003Y-113794819D01*
X121274997Y-113794819D01*
X121157522Y-113813424D01*
X121157521Y-113813424D01*
X121051533Y-113867428D01*
X121051529Y-113867431D01*
X120967431Y-113951529D01*
X120967428Y-113951533D01*
X120913424Y-114057521D01*
X120913424Y-114057522D01*
X120894819Y-114174996D01*
X120894819Y-114175003D01*
X120088149Y-114175003D01*
X122252683Y-112010470D01*
X122314004Y-111976987D01*
X122383696Y-111981971D01*
X122439629Y-112023843D01*
X122450842Y-112041850D01*
X122492427Y-112123465D01*
X122492428Y-112123466D01*
X122492431Y-112123470D01*
X122576529Y-112207568D01*
X122576533Y-112207571D01*
X122576535Y-112207573D01*
X122682518Y-112261574D01*
X122682520Y-112261574D01*
X122682522Y-112261575D01*
X122799997Y-112280181D01*
X122800000Y-112280181D01*
X122800003Y-112280181D01*
X122917477Y-112261575D01*
X122917478Y-112261575D01*
X122917479Y-112261574D01*
X122917482Y-112261574D01*
X123023465Y-112207573D01*
X123107573Y-112123465D01*
X123161574Y-112017482D01*
X123162684Y-112010472D01*
X123180181Y-111900003D01*
X123180181Y-111899996D01*
X123161575Y-111782521D01*
X123161574Y-111782519D01*
X123161574Y-111782518D01*
X123107573Y-111676535D01*
X123107571Y-111676533D01*
X123107568Y-111676529D01*
X123023470Y-111592431D01*
X123023466Y-111592428D01*
X123023465Y-111592427D01*
X122941856Y-111550845D01*
X122891062Y-111502873D01*
X122874267Y-111435052D01*
X122896804Y-111368917D01*
X122910466Y-111352687D01*
X124042561Y-110220592D01*
X124046523Y-110216961D01*
X124077750Y-110190760D01*
X124098125Y-110155466D01*
X124101026Y-110150913D01*
X124124394Y-110117543D01*
X124124395Y-110117537D01*
X124126550Y-110112917D01*
X124133758Y-110095517D01*
X124135497Y-110090739D01*
X124137770Y-110077846D01*
X124168794Y-110015242D01*
X124228739Y-109979349D01*
X124279284Y-109976900D01*
X124300000Y-109980181D01*
X124300003Y-109980181D01*
X124417477Y-109961575D01*
X124417478Y-109961575D01*
X124417479Y-109961574D01*
X124417482Y-109961574D01*
X124523465Y-109907573D01*
X124607573Y-109823465D01*
X124661574Y-109717482D01*
X124672137Y-109650791D01*
X124680181Y-109600003D01*
X124680181Y-109599996D01*
X124661575Y-109482521D01*
X124661574Y-109482519D01*
X124661574Y-109482518D01*
X124607573Y-109376535D01*
X124607571Y-109376533D01*
X124607568Y-109376529D01*
X124523470Y-109292431D01*
X124523466Y-109292428D01*
X124523465Y-109292427D01*
X124417482Y-109238426D01*
X124417480Y-109238425D01*
X124417477Y-109238424D01*
X124300003Y-109219819D01*
X124300001Y-109219819D01*
X124300000Y-109219819D01*
X124293894Y-109220785D01*
X124224601Y-109211830D01*
X124171150Y-109166832D01*
X124150512Y-109100080D01*
X124150500Y-109098447D01*
X124150500Y-105135768D01*
X124170185Y-105068730D01*
X124222989Y-105022975D01*
X124292147Y-105013031D01*
X124355703Y-105042056D01*
X124356727Y-105042954D01*
X124442064Y-105118556D01*
X124442066Y-105118557D01*
X124576566Y-105189148D01*
X124602175Y-105195460D01*
X124724050Y-105225500D01*
X124724051Y-105225500D01*
X124875948Y-105225500D01*
X124875949Y-105225500D01*
X124997825Y-105195460D01*
X125067626Y-105198529D01*
X125124688Y-105238848D01*
X125150893Y-105303618D01*
X125151499Y-105315857D01*
X125151500Y-113323784D01*
X125131815Y-113390823D01*
X125115181Y-113411465D01*
X124436602Y-114090044D01*
X124375279Y-114123529D01*
X124368319Y-114124836D01*
X124282521Y-114138424D01*
X124176533Y-114192428D01*
X124176529Y-114192431D01*
X124092431Y-114276529D01*
X124092428Y-114276533D01*
X124038424Y-114382521D01*
X124038424Y-114382522D01*
X124019819Y-114499996D01*
X124019819Y-114500003D01*
X124038424Y-114617477D01*
X124038424Y-114617478D01*
X124038425Y-114617481D01*
X124038426Y-114617482D01*
X124086694Y-114712214D01*
X124092428Y-114723466D01*
X124092431Y-114723470D01*
X124176529Y-114807568D01*
X124176533Y-114807571D01*
X124176535Y-114807573D01*
X124282518Y-114861574D01*
X124282520Y-114861574D01*
X124282522Y-114861575D01*
X124399997Y-114880181D01*
X124400000Y-114880181D01*
X124400003Y-114880181D01*
X124517477Y-114861575D01*
X124517478Y-114861575D01*
X124517479Y-114861574D01*
X124517482Y-114861574D01*
X124623465Y-114807573D01*
X124707573Y-114723465D01*
X124761574Y-114617482D01*
X124762734Y-114610160D01*
X124775164Y-114531678D01*
X124805093Y-114468543D01*
X124809938Y-114463412D01*
X125575155Y-113698195D01*
X125593946Y-113682775D01*
X125605472Y-113675074D01*
X125605833Y-113674833D01*
X125664183Y-113587508D01*
X125672597Y-113545209D01*
X125679500Y-113510506D01*
X125679500Y-113510502D01*
X125684672Y-113484500D01*
X125681881Y-113470470D01*
X125679500Y-113446293D01*
X125679500Y-100353710D01*
X125681882Y-100329522D01*
X125684671Y-100315500D01*
X125679500Y-100289501D01*
X125679500Y-100289498D01*
X125664183Y-100212492D01*
X125605833Y-100125167D01*
X125605832Y-100125166D01*
X125593939Y-100117219D01*
X125575151Y-100101799D01*
X124710250Y-99236898D01*
X124676765Y-99175575D01*
X124675458Y-99129817D01*
X124680181Y-99100000D01*
X124680180Y-99099996D01*
X124677512Y-99083152D01*
X124663144Y-98992428D01*
X124661575Y-98982522D01*
X124661575Y-98982521D01*
X124661574Y-98982519D01*
X124661574Y-98982518D01*
X124607573Y-98876535D01*
X124607571Y-98876533D01*
X124607568Y-98876529D01*
X124523470Y-98792431D01*
X124523466Y-98792428D01*
X124523465Y-98792427D01*
X124417482Y-98738426D01*
X124417480Y-98738425D01*
X124417477Y-98738424D01*
X124300003Y-98719819D01*
X124299997Y-98719819D01*
X124182522Y-98738424D01*
X124182521Y-98738424D01*
X124076533Y-98792428D01*
X124076529Y-98792431D01*
X123992431Y-98876529D01*
X123992428Y-98876533D01*
X123938424Y-98982521D01*
X123938424Y-98982522D01*
X123919819Y-99099996D01*
X123919819Y-99100003D01*
X123938424Y-99217477D01*
X123938424Y-99217478D01*
X123938425Y-99217481D01*
X123938426Y-99217482D01*
X123980913Y-99300868D01*
X123992428Y-99323466D01*
X123992431Y-99323470D01*
X124076529Y-99407568D01*
X124076531Y-99407569D01*
X124076535Y-99407573D01*
X124176651Y-99458584D01*
X124208034Y-99481386D01*
X125115181Y-100388534D01*
X125148665Y-100449855D01*
X125151499Y-100476213D01*
X125151499Y-101192431D01*
X125151500Y-101850500D01*
X125131815Y-101917539D01*
X125079012Y-101963294D01*
X125027500Y-101974500D01*
X124355247Y-101974500D01*
X124296770Y-101986131D01*
X124296769Y-101986132D01*
X124230447Y-102030447D01*
X124186132Y-102096769D01*
X124186131Y-102096770D01*
X124174500Y-102155247D01*
X124174500Y-102710983D01*
X124154815Y-102778022D01*
X124138181Y-102798664D01*
X123050665Y-103886181D01*
X122989342Y-103919666D01*
X122962984Y-103922500D01*
X121664126Y-103922500D01*
X121607832Y-103908985D01*
X121591430Y-103900628D01*
X121567482Y-103888426D01*
X121567480Y-103888425D01*
X121567477Y-103888424D01*
X121450003Y-103869819D01*
X121449997Y-103869819D01*
X121332522Y-103888424D01*
X121332521Y-103888424D01*
X121226533Y-103942428D01*
X121226529Y-103942431D01*
X121142431Y-104026529D01*
X121142429Y-104026533D01*
X121142427Y-104026535D01*
X121088853Y-104131680D01*
X121083996Y-104141213D01*
X121082269Y-104140333D01*
X121059722Y-104177121D01*
X119157451Y-106079393D01*
X119153462Y-106083049D01*
X119122250Y-106109239D01*
X119122248Y-106109241D01*
X119101876Y-106144526D01*
X119098971Y-106149087D01*
X119075604Y-106182459D01*
X119073473Y-106187028D01*
X119066225Y-106204528D01*
X119064502Y-106209264D01*
X119057427Y-106249383D01*
X119056256Y-106254662D01*
X119045712Y-106294016D01*
X119049264Y-106334598D01*
X119049500Y-106340005D01*
X119049499Y-106514151D01*
X119029814Y-106581190D01*
X118977010Y-106626945D01*
X118907851Y-106636888D01*
X118906102Y-106636623D01*
X118831680Y-106624836D01*
X118768545Y-106594907D01*
X118763396Y-106590044D01*
X118600197Y-106426845D01*
X118584776Y-106408055D01*
X118576832Y-106396166D01*
X118554787Y-106381436D01*
X118489509Y-106337817D01*
X118489510Y-106337817D01*
X118438003Y-106327572D01*
X118386500Y-106317328D01*
X118386499Y-106317328D01*
X118386498Y-106317328D01*
X118375602Y-106319495D01*
X118372477Y-106320117D01*
X118348287Y-106322500D01*
X117966935Y-106322500D01*
X117942744Y-106320117D01*
X117937633Y-106319100D01*
X117928723Y-106317328D01*
X117928722Y-106317328D01*
X117877218Y-106327572D01*
X117825713Y-106337817D01*
X117760426Y-106381440D01*
X117760427Y-106381441D01*
X117738388Y-106396167D01*
X117730444Y-106408056D01*
X117715026Y-106426841D01*
X116206875Y-107934993D01*
X116145552Y-107968478D01*
X116075860Y-107963494D01*
X116061569Y-107957109D01*
X116037849Y-107944660D01*
X115973434Y-107910852D01*
X115973433Y-107910851D01*
X115973432Y-107910851D01*
X115825950Y-107874500D01*
X115825949Y-107874500D01*
X115674051Y-107874500D01*
X115674050Y-107874500D01*
X115526567Y-107910851D01*
X115392067Y-107981442D01*
X115285295Y-108076033D01*
X115222061Y-108105754D01*
X115152798Y-108096570D01*
X115099495Y-108051398D01*
X115080594Y-108002614D01*
X115080180Y-108000003D01*
X115080181Y-108000000D01*
X115061574Y-107882518D01*
X115007573Y-107776535D01*
X115007571Y-107776533D01*
X115007568Y-107776529D01*
X114923470Y-107692431D01*
X114923466Y-107692428D01*
X114923465Y-107692427D01*
X114817482Y-107638426D01*
X114817480Y-107638425D01*
X114817477Y-107638424D01*
X114700003Y-107619819D01*
X114699997Y-107619819D01*
X114582522Y-107638424D01*
X114582521Y-107638424D01*
X114476533Y-107692428D01*
X114476529Y-107692431D01*
X114469280Y-107699681D01*
X114407957Y-107733166D01*
X114381599Y-107736000D01*
X112953435Y-107736000D01*
X112929244Y-107733617D01*
X112924133Y-107732600D01*
X112915223Y-107730828D01*
X112915222Y-107730828D01*
X112889218Y-107736000D01*
X112889217Y-107735999D01*
X112812216Y-107751315D01*
X112812213Y-107751317D01*
X112793234Y-107763999D01*
X112746039Y-107795533D01*
X112745993Y-107795565D01*
X112724889Y-107809666D01*
X112724888Y-107809667D01*
X112716945Y-107821555D01*
X112701526Y-107840342D01*
X110989181Y-109552688D01*
X110927858Y-109586173D01*
X110858166Y-109581189D01*
X110802233Y-109539317D01*
X110777816Y-109473853D01*
X110777500Y-109465007D01*
X110777500Y-108159461D01*
X110797185Y-108092422D01*
X110849989Y-108046667D01*
X110919147Y-108036723D01*
X110957789Y-108048974D01*
X110982518Y-108061574D01*
X110982520Y-108061574D01*
X110982522Y-108061575D01*
X111099997Y-108080181D01*
X111100000Y-108080181D01*
X111100003Y-108080181D01*
X111217477Y-108061575D01*
X111217478Y-108061575D01*
X111217479Y-108061574D01*
X111217482Y-108061574D01*
X111323465Y-108007573D01*
X111407573Y-107923465D01*
X111461574Y-107817482D01*
X111462812Y-107809666D01*
X111475164Y-107731678D01*
X111505093Y-107668543D01*
X111509938Y-107663412D01*
X112254348Y-106919003D01*
X114219819Y-106919003D01*
X114238424Y-107036477D01*
X114238424Y-107036478D01*
X114238425Y-107036481D01*
X114238426Y-107036482D01*
X114291271Y-107140197D01*
X114292428Y-107142466D01*
X114292431Y-107142470D01*
X114376529Y-107226568D01*
X114376533Y-107226571D01*
X114376535Y-107226573D01*
X114482518Y-107280574D01*
X114482520Y-107280574D01*
X114482522Y-107280575D01*
X114599997Y-107299181D01*
X114600000Y-107299181D01*
X114600003Y-107299181D01*
X114717477Y-107280575D01*
X114717478Y-107280575D01*
X114717479Y-107280574D01*
X114717482Y-107280574D01*
X114823465Y-107226573D01*
X114907573Y-107142465D01*
X114961574Y-107036482D01*
X114980181Y-106919000D01*
X114980181Y-106918996D01*
X114961575Y-106801522D01*
X114961575Y-106801521D01*
X114961574Y-106801519D01*
X114961574Y-106801518D01*
X114907573Y-106695535D01*
X114907571Y-106695533D01*
X114907568Y-106695529D01*
X114823470Y-106611431D01*
X114823466Y-106611428D01*
X114823466Y-106611427D01*
X114823465Y-106611427D01*
X114717482Y-106557426D01*
X114717480Y-106557425D01*
X114717477Y-106557424D01*
X114600003Y-106538819D01*
X114599997Y-106538819D01*
X114482522Y-106557424D01*
X114482521Y-106557424D01*
X114376533Y-106611428D01*
X114376529Y-106611431D01*
X114292431Y-106695529D01*
X114292428Y-106695533D01*
X114238424Y-106801521D01*
X114238424Y-106801522D01*
X114219819Y-106918996D01*
X114219819Y-106919003D01*
X112254348Y-106919003D01*
X112373159Y-106800192D01*
X112391936Y-106784781D01*
X112403833Y-106776833D01*
X112412720Y-106763531D01*
X112412725Y-106763526D01*
X112418561Y-106754791D01*
X112418563Y-106754790D01*
X112462183Y-106689508D01*
X112482672Y-106586500D01*
X112479882Y-106572471D01*
X112477500Y-106548283D01*
X112477500Y-105082901D01*
X112497185Y-105015862D01*
X112549989Y-104970107D01*
X112619147Y-104960163D01*
X112682703Y-104989188D01*
X112689181Y-104995220D01*
X112776529Y-105082568D01*
X112776533Y-105082571D01*
X112776535Y-105082573D01*
X112882518Y-105136574D01*
X112882520Y-105136574D01*
X112882522Y-105136575D01*
X112999997Y-105155181D01*
X113000000Y-105155181D01*
X113000003Y-105155181D01*
X113117477Y-105136575D01*
X113117478Y-105136575D01*
X113117479Y-105136574D01*
X113117482Y-105136574D01*
X113223465Y-105082573D01*
X113307573Y-104998465D01*
X113361574Y-104892482D01*
X113361583Y-104892427D01*
X113380181Y-104775003D01*
X113380181Y-104774996D01*
X113361575Y-104657522D01*
X113361575Y-104657521D01*
X113361574Y-104657519D01*
X113361574Y-104657518D01*
X113307573Y-104551535D01*
X113307571Y-104551533D01*
X113307568Y-104551529D01*
X113223470Y-104467431D01*
X113223466Y-104467428D01*
X113223466Y-104467427D01*
X113223465Y-104467427D01*
X113117482Y-104413426D01*
X113117480Y-104413425D01*
X113117477Y-104413424D01*
X113000003Y-104394819D01*
X112999997Y-104394819D01*
X112882522Y-104413424D01*
X112882521Y-104413424D01*
X112776533Y-104467428D01*
X112776529Y-104467431D01*
X112689181Y-104554780D01*
X112627858Y-104588265D01*
X112558166Y-104583281D01*
X112502233Y-104541409D01*
X112477816Y-104475945D01*
X112477500Y-104467099D01*
X112477500Y-104250003D01*
X116469819Y-104250003D01*
X116488424Y-104367477D01*
X116488424Y-104367478D01*
X116488425Y-104367481D01*
X116488426Y-104367482D01*
X116539350Y-104467427D01*
X116542428Y-104473466D01*
X116542431Y-104473470D01*
X116626529Y-104557568D01*
X116626533Y-104557571D01*
X116626535Y-104557573D01*
X116732518Y-104611574D01*
X116732520Y-104611574D01*
X116732522Y-104611575D01*
X116849997Y-104630181D01*
X116850000Y-104630181D01*
X116850003Y-104630181D01*
X116967477Y-104611575D01*
X116967478Y-104611575D01*
X116967479Y-104611574D01*
X116967482Y-104611574D01*
X117073465Y-104557573D01*
X117115084Y-104515953D01*
X117176408Y-104482467D01*
X117246099Y-104487451D01*
X117302033Y-104529322D01*
X117325240Y-104584235D01*
X117338424Y-104667477D01*
X117338424Y-104667478D01*
X117338425Y-104667481D01*
X117338426Y-104667482D01*
X117387842Y-104764467D01*
X117392428Y-104773466D01*
X117392431Y-104773470D01*
X117476529Y-104857568D01*
X117476533Y-104857571D01*
X117476535Y-104857573D01*
X117582518Y-104911574D01*
X117582520Y-104911574D01*
X117582522Y-104911575D01*
X117699997Y-104930181D01*
X117700000Y-104930181D01*
X117700003Y-104930181D01*
X117817477Y-104911575D01*
X117817478Y-104911575D01*
X117817479Y-104911574D01*
X117817482Y-104911574D01*
X117923465Y-104857573D01*
X118007573Y-104773465D01*
X118061574Y-104667482D01*
X118061575Y-104667477D01*
X118080181Y-104550003D01*
X118080181Y-104549996D01*
X118061575Y-104432522D01*
X118061575Y-104432521D01*
X118061574Y-104432519D01*
X118061574Y-104432518D01*
X118007573Y-104326535D01*
X118007571Y-104326533D01*
X118007568Y-104326529D01*
X117923470Y-104242431D01*
X117923466Y-104242428D01*
X117923465Y-104242427D01*
X117817482Y-104188426D01*
X117817480Y-104188425D01*
X117817477Y-104188424D01*
X117700003Y-104169819D01*
X117699997Y-104169819D01*
X117582522Y-104188424D01*
X117582521Y-104188424D01*
X117476533Y-104242428D01*
X117476529Y-104242431D01*
X117434912Y-104284048D01*
X117373589Y-104317532D01*
X117303897Y-104312547D01*
X117247964Y-104270675D01*
X117224759Y-104215763D01*
X117211575Y-104132522D01*
X117211575Y-104132521D01*
X117211574Y-104132519D01*
X117211574Y-104132518D01*
X117157573Y-104026535D01*
X117157571Y-104026533D01*
X117157568Y-104026529D01*
X117073470Y-103942431D01*
X117073466Y-103942428D01*
X117073465Y-103942427D01*
X116967482Y-103888426D01*
X116967480Y-103888425D01*
X116967477Y-103888424D01*
X116850003Y-103869819D01*
X116849997Y-103869819D01*
X116732522Y-103888424D01*
X116732521Y-103888424D01*
X116626533Y-103942428D01*
X116626529Y-103942431D01*
X116542431Y-104026529D01*
X116542428Y-104026533D01*
X116488424Y-104132521D01*
X116488424Y-104132522D01*
X116469819Y-104249996D01*
X116469819Y-104250003D01*
X112477500Y-104250003D01*
X112477500Y-98451713D01*
X112479883Y-98427521D01*
X112482672Y-98413500D01*
X112462183Y-98310492D01*
X112418563Y-98245210D01*
X112418561Y-98245208D01*
X112417011Y-98242888D01*
X112417001Y-98242875D01*
X112403833Y-98223167D01*
X112403832Y-98223166D01*
X112403830Y-98223164D01*
X112391941Y-98215220D01*
X112373154Y-98199801D01*
X111509955Y-97336603D01*
X111476470Y-97275280D01*
X111475169Y-97268357D01*
X111461574Y-97182518D01*
X111407573Y-97076535D01*
X111407571Y-97076533D01*
X111407568Y-97076529D01*
X111323470Y-96992431D01*
X111323466Y-96992428D01*
X111323465Y-96992427D01*
X111260772Y-96960483D01*
X111209978Y-96912511D01*
X111193182Y-96844690D01*
X111215719Y-96778555D01*
X111260772Y-96739516D01*
X111323465Y-96707573D01*
X111407573Y-96623465D01*
X111461574Y-96517482D01*
X111467922Y-96477397D01*
X111497849Y-96414266D01*
X111557160Y-96377333D01*
X111627022Y-96378329D01*
X111667833Y-96402938D01*
X111668636Y-96401834D01*
X111676533Y-96407571D01*
X111676535Y-96407573D01*
X111782518Y-96461574D01*
X111782520Y-96461574D01*
X111782522Y-96461575D01*
X111899997Y-96480181D01*
X111900000Y-96480181D01*
X111900003Y-96480181D01*
X112017477Y-96461575D01*
X112017478Y-96461575D01*
X112017479Y-96461574D01*
X112017482Y-96461574D01*
X112123465Y-96407573D01*
X112207573Y-96323465D01*
X112261574Y-96217482D01*
X112261575Y-96217477D01*
X112280181Y-96100003D01*
X112280181Y-96099996D01*
X112261575Y-95982522D01*
X112261575Y-95982521D01*
X112261574Y-95982519D01*
X112261574Y-95982518D01*
X112207573Y-95876535D01*
X112207571Y-95876533D01*
X112207568Y-95876529D01*
X112123470Y-95792431D01*
X112123466Y-95792428D01*
X112123465Y-95792427D01*
X112017482Y-95738426D01*
X112017480Y-95738425D01*
X112017477Y-95738424D01*
X111900003Y-95719819D01*
X111900001Y-95719819D01*
X111900000Y-95719819D01*
X111865261Y-95725320D01*
X111795968Y-95716365D01*
X111742517Y-95671368D01*
X111721878Y-95604616D01*
X111740604Y-95537303D01*
X111758180Y-95515170D01*
X112063396Y-95209954D01*
X112124717Y-95176471D01*
X112131678Y-95175164D01*
X112217477Y-95161575D01*
X112217478Y-95161575D01*
X112217479Y-95161574D01*
X112217482Y-95161574D01*
X112323465Y-95107573D01*
X112324315Y-95106722D01*
X112325601Y-95106020D01*
X112331364Y-95101834D01*
X112331904Y-95102578D01*
X112385634Y-95073235D01*
X112455326Y-95078215D01*
X112511262Y-95120083D01*
X112535683Y-95185546D01*
X112536000Y-95194400D01*
X112536000Y-96586783D01*
X112533618Y-96610971D01*
X112530828Y-96624999D01*
X112536000Y-96651002D01*
X112536000Y-96651011D01*
X112551315Y-96728005D01*
X112551317Y-96728009D01*
X112609666Y-96815332D01*
X112621555Y-96823276D01*
X112640345Y-96838697D01*
X114194748Y-98393100D01*
X114228233Y-98454423D01*
X114229540Y-98461383D01*
X114238424Y-98517479D01*
X114238426Y-98517482D01*
X114292427Y-98623465D01*
X114292429Y-98623467D01*
X114292431Y-98623470D01*
X114376529Y-98707568D01*
X114376533Y-98707571D01*
X114376535Y-98707573D01*
X114482518Y-98761574D01*
X114482520Y-98761574D01*
X114482522Y-98761575D01*
X114599997Y-98780181D01*
X114600000Y-98780181D01*
X114600002Y-98780181D01*
X114642602Y-98773434D01*
X114711896Y-98782389D01*
X114765348Y-98827385D01*
X114785987Y-98894137D01*
X114786000Y-98895907D01*
X114786000Y-100104092D01*
X114766315Y-100171131D01*
X114713511Y-100216886D01*
X114644353Y-100226830D01*
X114642605Y-100226566D01*
X114600000Y-100219819D01*
X114599997Y-100219819D01*
X114482522Y-100238424D01*
X114482521Y-100238424D01*
X114376533Y-100292428D01*
X114376529Y-100292431D01*
X114292431Y-100376529D01*
X114292428Y-100376533D01*
X114238424Y-100482521D01*
X114238424Y-100482522D01*
X114219819Y-100599996D01*
X114219819Y-100600003D01*
X114238424Y-100717477D01*
X114238424Y-100717478D01*
X114292428Y-100823466D01*
X114292431Y-100823470D01*
X114376529Y-100907568D01*
X114376533Y-100907571D01*
X114376535Y-100907573D01*
X114482518Y-100961574D01*
X114482520Y-100961574D01*
X114482522Y-100961575D01*
X114599997Y-100980181D01*
X114600000Y-100980181D01*
X114600002Y-100980181D01*
X114642601Y-100973434D01*
X114711895Y-100982389D01*
X114765347Y-101027385D01*
X114785986Y-101094136D01*
X114785999Y-101095907D01*
X114785999Y-103181599D01*
X114766314Y-103248638D01*
X114749683Y-103269277D01*
X114742429Y-103276530D01*
X114688424Y-103382521D01*
X114688424Y-103382522D01*
X114669819Y-103499996D01*
X114669819Y-103500003D01*
X114688424Y-103617477D01*
X114688424Y-103617478D01*
X114688425Y-103617481D01*
X114688426Y-103617482D01*
X114740569Y-103719819D01*
X114742428Y-103723466D01*
X114742431Y-103723470D01*
X114826529Y-103807568D01*
X114826533Y-103807571D01*
X114826535Y-103807573D01*
X114932518Y-103861574D01*
X114932520Y-103861574D01*
X114932522Y-103861575D01*
X115049997Y-103880181D01*
X115050000Y-103880181D01*
X115050003Y-103880181D01*
X115167477Y-103861575D01*
X115167478Y-103861575D01*
X115167479Y-103861574D01*
X115167482Y-103861574D01*
X115273465Y-103807573D01*
X115357573Y-103723465D01*
X115411574Y-103617482D01*
X115411575Y-103617477D01*
X115430181Y-103500003D01*
X115430181Y-103499996D01*
X115411575Y-103382522D01*
X115411575Y-103382521D01*
X115411574Y-103382519D01*
X115411574Y-103382518D01*
X115357573Y-103276535D01*
X115357571Y-103276533D01*
X115357568Y-103276529D01*
X115350319Y-103269280D01*
X115316834Y-103207957D01*
X115315979Y-103200003D01*
X116719819Y-103200003D01*
X116738424Y-103317477D01*
X116738424Y-103317478D01*
X116738425Y-103317481D01*
X116738426Y-103317482D01*
X116789926Y-103418557D01*
X116792428Y-103423466D01*
X116792431Y-103423470D01*
X116876529Y-103507568D01*
X116876533Y-103507571D01*
X116876535Y-103507573D01*
X116982518Y-103561574D01*
X116982520Y-103561574D01*
X116982522Y-103561575D01*
X117099997Y-103580181D01*
X117100000Y-103580181D01*
X117100003Y-103580181D01*
X117217477Y-103561575D01*
X117217478Y-103561575D01*
X117217479Y-103561574D01*
X117217482Y-103561574D01*
X117323465Y-103507573D01*
X117407573Y-103423465D01*
X117447679Y-103344752D01*
X120974500Y-103344752D01*
X120986131Y-103403229D01*
X120986132Y-103403230D01*
X121030447Y-103469552D01*
X121096769Y-103513867D01*
X121096770Y-103513868D01*
X121155247Y-103525499D01*
X121155250Y-103525500D01*
X121155252Y-103525500D01*
X122044750Y-103525500D01*
X122044751Y-103525499D01*
X122059568Y-103522552D01*
X122103229Y-103513868D01*
X122103229Y-103513867D01*
X122103231Y-103513867D01*
X122148324Y-103483735D01*
X122179707Y-103462767D01*
X122181674Y-103465711D01*
X122224736Y-103442187D01*
X122294429Y-103447158D01*
X122308740Y-103453550D01*
X122339229Y-103469552D01*
X122376566Y-103489148D01*
X122524050Y-103525500D01*
X122524051Y-103525500D01*
X122675950Y-103525500D01*
X122748689Y-103507571D01*
X122823434Y-103489148D01*
X122957934Y-103418557D01*
X123071632Y-103317830D01*
X123157921Y-103192819D01*
X123211785Y-103050791D01*
X123230094Y-102900000D01*
X123211785Y-102749209D01*
X123157921Y-102607181D01*
X123071632Y-102482170D01*
X122957934Y-102381443D01*
X122823434Y-102310852D01*
X122823433Y-102310851D01*
X122823432Y-102310851D01*
X122675950Y-102274500D01*
X122675949Y-102274500D01*
X122524051Y-102274500D01*
X122524050Y-102274500D01*
X122376567Y-102310851D01*
X122308743Y-102346448D01*
X122240234Y-102360172D01*
X122180119Y-102336615D01*
X122179707Y-102337233D01*
X122176886Y-102335348D01*
X122175181Y-102334680D01*
X122172968Y-102332730D01*
X122103230Y-102286132D01*
X122103229Y-102286131D01*
X122044752Y-102274500D01*
X122044748Y-102274500D01*
X121155252Y-102274500D01*
X121155247Y-102274500D01*
X121096770Y-102286131D01*
X121096769Y-102286132D01*
X121030447Y-102330447D01*
X120986132Y-102396769D01*
X120986131Y-102396770D01*
X120974500Y-102455247D01*
X120974500Y-103344752D01*
X117447679Y-103344752D01*
X117461574Y-103317482D01*
X117461575Y-103317477D01*
X117480181Y-103200003D01*
X117480181Y-103199996D01*
X117461575Y-103082521D01*
X117461574Y-103082519D01*
X117461574Y-103082518D01*
X117407573Y-102976535D01*
X117407571Y-102976533D01*
X117407568Y-102976529D01*
X117323470Y-102892431D01*
X117323466Y-102892428D01*
X117323465Y-102892427D01*
X117217482Y-102838426D01*
X117217480Y-102838425D01*
X117217477Y-102838424D01*
X117100003Y-102819819D01*
X117099997Y-102819819D01*
X116982522Y-102838424D01*
X116982521Y-102838424D01*
X116876533Y-102892428D01*
X116876529Y-102892431D01*
X116792431Y-102976529D01*
X116792428Y-102976533D01*
X116792426Y-102976535D01*
X116792427Y-102976535D01*
X116738426Y-103082518D01*
X116738425Y-103082519D01*
X116738425Y-103082521D01*
X116719819Y-103199996D01*
X116719819Y-103200003D01*
X115315979Y-103200003D01*
X115314000Y-103181599D01*
X115314000Y-100656463D01*
X115333685Y-100589424D01*
X115386489Y-100543669D01*
X115455647Y-100533725D01*
X115495623Y-100546666D01*
X115576565Y-100589148D01*
X115576566Y-100589148D01*
X115724050Y-100625500D01*
X115724051Y-100625500D01*
X115875950Y-100625500D01*
X115925110Y-100613382D01*
X116023434Y-100589148D01*
X116157934Y-100518557D01*
X116271632Y-100417830D01*
X116357921Y-100292819D01*
X116411785Y-100150791D01*
X116430094Y-100000000D01*
X116411785Y-99849209D01*
X116357921Y-99707181D01*
X116271632Y-99582170D01*
X116271631Y-99582169D01*
X116267371Y-99575997D01*
X116268416Y-99575275D01*
X116241962Y-99519006D01*
X116251139Y-99449741D01*
X116267584Y-99424150D01*
X116267371Y-99424003D01*
X116286000Y-99397014D01*
X116357921Y-99292819D01*
X116364633Y-99275119D01*
X116406806Y-99219420D01*
X116472403Y-99195361D01*
X116540594Y-99210585D01*
X116568255Y-99231410D01*
X116913181Y-99576335D01*
X116946666Y-99637658D01*
X116949500Y-99664016D01*
X116949500Y-100998312D01*
X116929815Y-101065351D01*
X116877011Y-101111106D01*
X116807853Y-101121050D01*
X116806155Y-101120793D01*
X116800000Y-101119819D01*
X116799998Y-101119819D01*
X116799997Y-101119819D01*
X116682522Y-101138424D01*
X116682521Y-101138424D01*
X116576533Y-101192428D01*
X116576529Y-101192431D01*
X116492431Y-101276529D01*
X116492428Y-101276533D01*
X116438424Y-101382521D01*
X116438424Y-101382522D01*
X116419819Y-101499996D01*
X116419819Y-101500003D01*
X116438424Y-101617477D01*
X116438424Y-101617478D01*
X116438425Y-101617481D01*
X116438426Y-101617482D01*
X116484124Y-101707170D01*
X116492428Y-101723466D01*
X116492431Y-101723470D01*
X116576529Y-101807568D01*
X116576533Y-101807571D01*
X116576535Y-101807573D01*
X116682518Y-101861574D01*
X116682520Y-101861574D01*
X116682522Y-101861575D01*
X116799997Y-101880181D01*
X116800000Y-101880181D01*
X116800003Y-101880181D01*
X116917477Y-101861575D01*
X116917478Y-101861575D01*
X116917479Y-101861574D01*
X116917482Y-101861574D01*
X116957076Y-101841399D01*
X117025743Y-101828504D01*
X117090484Y-101854780D01*
X117101049Y-101864203D01*
X117909723Y-102672878D01*
X117932267Y-102709667D01*
X117933996Y-102708787D01*
X117938425Y-102717480D01*
X117938426Y-102717482D01*
X117992427Y-102823465D01*
X117992429Y-102823467D01*
X117992431Y-102823470D01*
X118076529Y-102907568D01*
X118076533Y-102907571D01*
X118076535Y-102907573D01*
X118182518Y-102961574D01*
X118182520Y-102961574D01*
X118182522Y-102961575D01*
X118299997Y-102980181D01*
X118300000Y-102980181D01*
X118300003Y-102980181D01*
X118417477Y-102961575D01*
X118417478Y-102961575D01*
X118417479Y-102961574D01*
X118417482Y-102961574D01*
X118523465Y-102907573D01*
X118607573Y-102823465D01*
X118661574Y-102717482D01*
X118661575Y-102717477D01*
X118680181Y-102600003D01*
X118680181Y-102599996D01*
X118661575Y-102482522D01*
X118661575Y-102482521D01*
X118661574Y-102482519D01*
X118661574Y-102482518D01*
X118607573Y-102376535D01*
X118607571Y-102376533D01*
X118607568Y-102376529D01*
X118518720Y-102287681D01*
X118485235Y-102226358D01*
X118490219Y-102156666D01*
X118518720Y-102112319D01*
X118607568Y-102023470D01*
X118607573Y-102023465D01*
X118661574Y-101917482D01*
X118661575Y-101917477D01*
X118680181Y-101800003D01*
X118680181Y-101799996D01*
X118661575Y-101682522D01*
X118661575Y-101682521D01*
X118661574Y-101682519D01*
X118661574Y-101682518D01*
X118607573Y-101576535D01*
X118607571Y-101576533D01*
X118607568Y-101576529D01*
X118523470Y-101492431D01*
X118523466Y-101492428D01*
X118523465Y-101492427D01*
X118417482Y-101438426D01*
X118417480Y-101438425D01*
X118417477Y-101438424D01*
X118300003Y-101419819D01*
X118299997Y-101419819D01*
X118182522Y-101438424D01*
X118182521Y-101438424D01*
X118076533Y-101492428D01*
X118076529Y-101492431D01*
X117992431Y-101576529D01*
X117992425Y-101576537D01*
X117984599Y-101591897D01*
X117936623Y-101642692D01*
X117868802Y-101659485D01*
X117802668Y-101636946D01*
X117786435Y-101623280D01*
X117640818Y-101477663D01*
X117607333Y-101416340D01*
X117604499Y-101389991D01*
X117604499Y-99493997D01*
X117604735Y-99488591D01*
X117608286Y-99448015D01*
X117608285Y-99448014D01*
X117608286Y-99448013D01*
X117597741Y-99408662D01*
X117596574Y-99403402D01*
X117589497Y-99363261D01*
X117589495Y-99363257D01*
X117587756Y-99358480D01*
X117580546Y-99341072D01*
X117578393Y-99336455D01*
X117555032Y-99303093D01*
X117552123Y-99298528D01*
X117531750Y-99263240D01*
X117531746Y-99263236D01*
X117500535Y-99237046D01*
X117496546Y-99233391D01*
X116980632Y-98717477D01*
X116863158Y-98600003D01*
X118819819Y-98600003D01*
X118838424Y-98717477D01*
X118838424Y-98717478D01*
X118838425Y-98717481D01*
X118838426Y-98717482D01*
X118858985Y-98757832D01*
X118872500Y-98814125D01*
X118872500Y-101382994D01*
X118872264Y-101388401D01*
X118868712Y-101428983D01*
X118879257Y-101468335D01*
X118880428Y-101473618D01*
X118887503Y-101513740D01*
X118889232Y-101518491D01*
X118896468Y-101535959D01*
X118898606Y-101540544D01*
X118921972Y-101573914D01*
X118924879Y-101578478D01*
X118945247Y-101613757D01*
X118945251Y-101613761D01*
X118976463Y-101639951D01*
X118980442Y-101643596D01*
X119047098Y-101710252D01*
X119109721Y-101772875D01*
X119132269Y-101809666D01*
X119133996Y-101808787D01*
X119138425Y-101817480D01*
X119138426Y-101817482D01*
X119192427Y-101923465D01*
X119192429Y-101923467D01*
X119192431Y-101923470D01*
X119276529Y-102007568D01*
X119276533Y-102007571D01*
X119276535Y-102007573D01*
X119382518Y-102061574D01*
X119382520Y-102061574D01*
X119382522Y-102061575D01*
X119499997Y-102080181D01*
X119500000Y-102080181D01*
X119500003Y-102080181D01*
X119617477Y-102061575D01*
X119617478Y-102061575D01*
X119617479Y-102061574D01*
X119617482Y-102061574D01*
X119723465Y-102007573D01*
X119807573Y-101923465D01*
X119861574Y-101817482D01*
X119862951Y-101808787D01*
X119880181Y-101700003D01*
X119880181Y-101699996D01*
X119861575Y-101582522D01*
X119861575Y-101582521D01*
X119861574Y-101582519D01*
X119861574Y-101582518D01*
X119807573Y-101476535D01*
X119807571Y-101476533D01*
X119807568Y-101476529D01*
X119723470Y-101392431D01*
X119723467Y-101392429D01*
X119723465Y-101392427D01*
X119617482Y-101338426D01*
X119617480Y-101338425D01*
X119608787Y-101333996D01*
X119609666Y-101332269D01*
X119572875Y-101309721D01*
X119563819Y-101300665D01*
X119530334Y-101239342D01*
X119527500Y-101212984D01*
X119527500Y-99051500D01*
X119547185Y-98984461D01*
X119599989Y-98938706D01*
X119651500Y-98927500D01*
X122182995Y-98927500D01*
X122188398Y-98927735D01*
X122228984Y-98931287D01*
X122268368Y-98920732D01*
X122273586Y-98919576D01*
X122313739Y-98912497D01*
X122313744Y-98912493D01*
X122318531Y-98910752D01*
X122335919Y-98903549D01*
X122340537Y-98901395D01*
X122340543Y-98901394D01*
X122373937Y-98878009D01*
X122378451Y-98875134D01*
X122413760Y-98854750D01*
X122439966Y-98823517D01*
X122443597Y-98819555D01*
X124672877Y-96590276D01*
X124709668Y-96567736D01*
X124708786Y-96566005D01*
X124734663Y-96552820D01*
X124823465Y-96507573D01*
X124907573Y-96423465D01*
X124961574Y-96317482D01*
X124961575Y-96317477D01*
X124980181Y-96200003D01*
X124980181Y-96199996D01*
X124961575Y-96082522D01*
X124961575Y-96082521D01*
X124961574Y-96082519D01*
X124961574Y-96082518D01*
X124907573Y-95976535D01*
X124907570Y-95976532D01*
X124907568Y-95976529D01*
X124823470Y-95892431D01*
X124823466Y-95892428D01*
X124823465Y-95892427D01*
X124717482Y-95838426D01*
X124717480Y-95838425D01*
X124717477Y-95838424D01*
X124600003Y-95819819D01*
X124599997Y-95819819D01*
X124482522Y-95838424D01*
X124482521Y-95838424D01*
X124376533Y-95892428D01*
X124376529Y-95892431D01*
X124292428Y-95976532D01*
X124291076Y-95978394D01*
X124288852Y-95980108D01*
X124285526Y-95983435D01*
X124285095Y-95983004D01*
X124235744Y-96021058D01*
X124166131Y-96027034D01*
X124104337Y-95994427D01*
X124069982Y-95933587D01*
X124068289Y-95924919D01*
X124061574Y-95882518D01*
X124007573Y-95776535D01*
X124007571Y-95776533D01*
X124007568Y-95776529D01*
X123923470Y-95692431D01*
X123923466Y-95692428D01*
X123923465Y-95692427D01*
X123817482Y-95638426D01*
X123817480Y-95638425D01*
X123817477Y-95638424D01*
X123700003Y-95619819D01*
X123699997Y-95619819D01*
X123582522Y-95638424D01*
X123582521Y-95638424D01*
X123476533Y-95692428D01*
X123476529Y-95692431D01*
X123392431Y-95776529D01*
X123392428Y-95776533D01*
X123338424Y-95882521D01*
X123338424Y-95882522D01*
X123319819Y-95999996D01*
X123319819Y-96000003D01*
X123338424Y-96117477D01*
X123338424Y-96117478D01*
X123338425Y-96117481D01*
X123338426Y-96117482D01*
X123389376Y-96217478D01*
X123392428Y-96223466D01*
X123392431Y-96223470D01*
X123476529Y-96307568D01*
X123476533Y-96307571D01*
X123476535Y-96307573D01*
X123582518Y-96361574D01*
X123582520Y-96361574D01*
X123582522Y-96361575D01*
X123681202Y-96377204D01*
X123744337Y-96407133D01*
X123781269Y-96466444D01*
X123780271Y-96536306D01*
X123749486Y-96587358D01*
X122100665Y-98236181D01*
X122039342Y-98269666D01*
X122012984Y-98272500D01*
X119414126Y-98272500D01*
X119357832Y-98258985D01*
X119330796Y-98245210D01*
X119317482Y-98238426D01*
X119317480Y-98238425D01*
X119317477Y-98238424D01*
X119200003Y-98219819D01*
X119199997Y-98219819D01*
X119082522Y-98238424D01*
X119082521Y-98238424D01*
X118976533Y-98292428D01*
X118976529Y-98292431D01*
X118892431Y-98376529D01*
X118892428Y-98376533D01*
X118838424Y-98482521D01*
X118838424Y-98482522D01*
X118819819Y-98599996D01*
X118819819Y-98600003D01*
X116863158Y-98600003D01*
X116454709Y-98191555D01*
X116421225Y-98130233D01*
X116419295Y-98088932D01*
X116430094Y-98000000D01*
X116411785Y-97849209D01*
X116357921Y-97707181D01*
X116271632Y-97582170D01*
X116271631Y-97582169D01*
X116267371Y-97575997D01*
X116268416Y-97575275D01*
X116241962Y-97519006D01*
X116251139Y-97449741D01*
X116267584Y-97424150D01*
X116267371Y-97424003D01*
X116317122Y-97351926D01*
X116357921Y-97292819D01*
X116411785Y-97150791D01*
X116430094Y-97000000D01*
X116411785Y-96849209D01*
X116357921Y-96707181D01*
X116271632Y-96582170D01*
X116157934Y-96481443D01*
X116023434Y-96410852D01*
X116023433Y-96410851D01*
X116023432Y-96410851D01*
X115875950Y-96374500D01*
X115875949Y-96374500D01*
X115724051Y-96374500D01*
X115724050Y-96374500D01*
X115576567Y-96410851D01*
X115495625Y-96453333D01*
X115427117Y-96467057D01*
X115362064Y-96441565D01*
X115321120Y-96384949D01*
X115314000Y-96343536D01*
X115314000Y-96000003D01*
X120119819Y-96000003D01*
X120138424Y-96117477D01*
X120138424Y-96117478D01*
X120138425Y-96117481D01*
X120138426Y-96117482D01*
X120189376Y-96217478D01*
X120192428Y-96223466D01*
X120192431Y-96223470D01*
X120276529Y-96307568D01*
X120276533Y-96307571D01*
X120276535Y-96307573D01*
X120382518Y-96361574D01*
X120382520Y-96361574D01*
X120382522Y-96361575D01*
X120499997Y-96380181D01*
X120500000Y-96380181D01*
X120500003Y-96380181D01*
X120617477Y-96361575D01*
X120617478Y-96361575D01*
X120617479Y-96361574D01*
X120617482Y-96361574D01*
X120723465Y-96307573D01*
X120807573Y-96223465D01*
X120861574Y-96117482D01*
X120861575Y-96117477D01*
X120880181Y-96000003D01*
X120880181Y-95999996D01*
X120861575Y-95882522D01*
X120861575Y-95882521D01*
X120861574Y-95882519D01*
X120861574Y-95882518D01*
X120807573Y-95776535D01*
X120807571Y-95776533D01*
X120807568Y-95776529D01*
X120723470Y-95692431D01*
X120723466Y-95692428D01*
X120723465Y-95692427D01*
X120617482Y-95638426D01*
X120617480Y-95638425D01*
X120617477Y-95638424D01*
X120500003Y-95619819D01*
X120499997Y-95619819D01*
X120382522Y-95638424D01*
X120382521Y-95638424D01*
X120276533Y-95692428D01*
X120276529Y-95692431D01*
X120192431Y-95776529D01*
X120192428Y-95776533D01*
X120138424Y-95882521D01*
X120138424Y-95882522D01*
X120119819Y-95999996D01*
X120119819Y-96000003D01*
X115314000Y-96000003D01*
X115314000Y-95882518D01*
X115314000Y-95410709D01*
X115333683Y-95343674D01*
X115350310Y-95323041D01*
X115563395Y-95109955D01*
X115624718Y-95076471D01*
X115631679Y-95075164D01*
X115717477Y-95061575D01*
X115717478Y-95061575D01*
X115717479Y-95061574D01*
X115717482Y-95061574D01*
X115823465Y-95007573D01*
X115907573Y-94923465D01*
X115919527Y-94900003D01*
X116919819Y-94900003D01*
X116938424Y-95017477D01*
X116938424Y-95017478D01*
X116938425Y-95017481D01*
X116938426Y-95017482D01*
X116985163Y-95109209D01*
X116992428Y-95123466D01*
X116992431Y-95123470D01*
X117076529Y-95207568D01*
X117076533Y-95207571D01*
X117076535Y-95207573D01*
X117182518Y-95261574D01*
X117182520Y-95261574D01*
X117182522Y-95261575D01*
X117299997Y-95280181D01*
X117300000Y-95280181D01*
X117300003Y-95280181D01*
X117417477Y-95261575D01*
X117417478Y-95261575D01*
X117417479Y-95261574D01*
X117417482Y-95261574D01*
X117523465Y-95207573D01*
X117607573Y-95123465D01*
X117661574Y-95017482D01*
X117661575Y-95017477D01*
X117680181Y-94900003D01*
X117680181Y-94899996D01*
X117661575Y-94782522D01*
X117661575Y-94782521D01*
X117661574Y-94782519D01*
X117661574Y-94782518D01*
X117607573Y-94676535D01*
X117607571Y-94676533D01*
X117607568Y-94676529D01*
X117523470Y-94592431D01*
X117523466Y-94592428D01*
X117523465Y-94592427D01*
X117417482Y-94538426D01*
X117417480Y-94538425D01*
X117417477Y-94538424D01*
X117300003Y-94519819D01*
X117299997Y-94519819D01*
X117182522Y-94538424D01*
X117182521Y-94538424D01*
X117076533Y-94592428D01*
X117076529Y-94592431D01*
X116992431Y-94676529D01*
X116992428Y-94676533D01*
X116938424Y-94782521D01*
X116938424Y-94782522D01*
X116919819Y-94899996D01*
X116919819Y-94900003D01*
X115919527Y-94900003D01*
X115961574Y-94817482D01*
X115961575Y-94817477D01*
X115980181Y-94700003D01*
X115980181Y-94699996D01*
X115961575Y-94582522D01*
X115961575Y-94582521D01*
X115961574Y-94582519D01*
X115961574Y-94582518D01*
X115907573Y-94476535D01*
X115907571Y-94476533D01*
X115907568Y-94476529D01*
X115823470Y-94392431D01*
X115823466Y-94392428D01*
X115823465Y-94392427D01*
X115717482Y-94338426D01*
X115717480Y-94338425D01*
X115717477Y-94338424D01*
X115600003Y-94319819D01*
X115599997Y-94319819D01*
X115482522Y-94338424D01*
X115482521Y-94338424D01*
X115376533Y-94392428D01*
X115376529Y-94392431D01*
X115292431Y-94476529D01*
X115292428Y-94476533D01*
X115238424Y-94582521D01*
X115224836Y-94668319D01*
X115194907Y-94731454D01*
X115190044Y-94736602D01*
X115085964Y-94840682D01*
X115024641Y-94874167D01*
X114954949Y-94869183D01*
X114899016Y-94827311D01*
X114875810Y-94772399D01*
X114861575Y-94682521D01*
X114861574Y-94682519D01*
X114861574Y-94682518D01*
X114807573Y-94576535D01*
X114807571Y-94576533D01*
X114807568Y-94576529D01*
X114723470Y-94492431D01*
X114723466Y-94492428D01*
X114723465Y-94492427D01*
X114617482Y-94438426D01*
X114617480Y-94438425D01*
X114617477Y-94438424D01*
X114500003Y-94419819D01*
X114499997Y-94419819D01*
X114382522Y-94438424D01*
X114382521Y-94438424D01*
X114276533Y-94492428D01*
X114276529Y-94492431D01*
X114192431Y-94576529D01*
X114192428Y-94576533D01*
X114138424Y-94682521D01*
X114122473Y-94783240D01*
X114114676Y-94799686D01*
X114122473Y-94816760D01*
X114138424Y-94917477D01*
X114138424Y-94917478D01*
X114138425Y-94917481D01*
X114138426Y-94917482D01*
X114189376Y-95017478D01*
X114192428Y-95023466D01*
X114192431Y-95023470D01*
X114276529Y-95107568D01*
X114276533Y-95107571D01*
X114276535Y-95107573D01*
X114382518Y-95161574D01*
X114382520Y-95161574D01*
X114382522Y-95161575D01*
X114499997Y-95180181D01*
X114500000Y-95180181D01*
X114500003Y-95180181D01*
X114617476Y-95161575D01*
X114617476Y-95161574D01*
X114617482Y-95161574D01*
X114617487Y-95161571D01*
X114621672Y-95160212D01*
X114627059Y-95160057D01*
X114627121Y-95160048D01*
X114627122Y-95160056D01*
X114691513Y-95158213D01*
X114751348Y-95194291D01*
X114781614Y-95253955D01*
X114783617Y-95264027D01*
X114785999Y-95288213D01*
X114785999Y-96162011D01*
X114766314Y-96229050D01*
X114713510Y-96274805D01*
X114644352Y-96284749D01*
X114642603Y-96284485D01*
X114568806Y-96272797D01*
X114550000Y-96269819D01*
X114549999Y-96269819D01*
X114549997Y-96269819D01*
X114432522Y-96288424D01*
X114432521Y-96288424D01*
X114326533Y-96342428D01*
X114326529Y-96342431D01*
X114242431Y-96426529D01*
X114242428Y-96426533D01*
X114188424Y-96532521D01*
X114188424Y-96532522D01*
X114169819Y-96649996D01*
X114169819Y-96650003D01*
X114188424Y-96767477D01*
X114188424Y-96767478D01*
X114188425Y-96767481D01*
X114188426Y-96767482D01*
X114240148Y-96868993D01*
X114242428Y-96873466D01*
X114242431Y-96873470D01*
X114326529Y-96957568D01*
X114326533Y-96957571D01*
X114326535Y-96957573D01*
X114432518Y-97011574D01*
X114432520Y-97011574D01*
X114432522Y-97011575D01*
X114549997Y-97030181D01*
X114550000Y-97030181D01*
X114550002Y-97030181D01*
X114642601Y-97015515D01*
X114711895Y-97024470D01*
X114765347Y-97069466D01*
X114785986Y-97136218D01*
X114785999Y-97137988D01*
X114785999Y-97904092D01*
X114766314Y-97971131D01*
X114713510Y-98016886D01*
X114644352Y-98026830D01*
X114642603Y-98026566D01*
X114601976Y-98020132D01*
X114538841Y-97990203D01*
X114533691Y-97985339D01*
X113100319Y-96551966D01*
X113066834Y-96490643D01*
X113064000Y-96464285D01*
X113064000Y-95194401D01*
X113083685Y-95127362D01*
X113136489Y-95081607D01*
X113205647Y-95071663D01*
X113269203Y-95100688D01*
X113275681Y-95106720D01*
X113276529Y-95107568D01*
X113276533Y-95107571D01*
X113276535Y-95107573D01*
X113382518Y-95161574D01*
X113382520Y-95161574D01*
X113382522Y-95161575D01*
X113499997Y-95180181D01*
X113500000Y-95180181D01*
X113500003Y-95180181D01*
X113617477Y-95161575D01*
X113617478Y-95161575D01*
X113617479Y-95161574D01*
X113617482Y-95161574D01*
X113723465Y-95107573D01*
X113807573Y-95023465D01*
X113861574Y-94917482D01*
X113861575Y-94917477D01*
X113877527Y-94816760D01*
X113885323Y-94800312D01*
X113877527Y-94783240D01*
X113861575Y-94682521D01*
X113861574Y-94682519D01*
X113861574Y-94682518D01*
X113807573Y-94576535D01*
X113807571Y-94576533D01*
X113807568Y-94576529D01*
X113723470Y-94492431D01*
X113723466Y-94492428D01*
X113723465Y-94492427D01*
X113617482Y-94438426D01*
X113617480Y-94438425D01*
X113617477Y-94438424D01*
X113500003Y-94419819D01*
X113499997Y-94419819D01*
X113382522Y-94438424D01*
X113382521Y-94438424D01*
X113276533Y-94492428D01*
X113276529Y-94492431D01*
X113237681Y-94531280D01*
X113176358Y-94564765D01*
X113106666Y-94559781D01*
X113062319Y-94531280D01*
X113023470Y-94492431D01*
X113023466Y-94492428D01*
X113023465Y-94492427D01*
X112917482Y-94438426D01*
X112917480Y-94438425D01*
X112917477Y-94438424D01*
X112800003Y-94419819D01*
X112799997Y-94419819D01*
X112682522Y-94438424D01*
X112682521Y-94438424D01*
X112576533Y-94492428D01*
X112576529Y-94492431D01*
X112537679Y-94531281D01*
X112476356Y-94564765D01*
X112406664Y-94559780D01*
X112362317Y-94531279D01*
X112323469Y-94492430D01*
X112323466Y-94492428D01*
X112323465Y-94492427D01*
X112217482Y-94438426D01*
X112217480Y-94438425D01*
X112217477Y-94438424D01*
X112100003Y-94419819D01*
X112099997Y-94419819D01*
X111982522Y-94438424D01*
X111982521Y-94438424D01*
X111876533Y-94492428D01*
X111876529Y-94492431D01*
X111792431Y-94576529D01*
X111792428Y-94576533D01*
X111738424Y-94682521D01*
X111724836Y-94768319D01*
X111694907Y-94831454D01*
X111690044Y-94836602D01*
X110572291Y-95954355D01*
X110510968Y-95987840D01*
X110441276Y-95982856D01*
X110385343Y-95940984D01*
X110362136Y-95886068D01*
X110361574Y-95882522D01*
X110361574Y-95882518D01*
X110307573Y-95776535D01*
X110307571Y-95776533D01*
X110307568Y-95776529D01*
X110268720Y-95737681D01*
X110235235Y-95676358D01*
X110240219Y-95606666D01*
X110268720Y-95562319D01*
X110307568Y-95523470D01*
X110307573Y-95523465D01*
X110361574Y-95417482D01*
X110373264Y-95343674D01*
X110380181Y-95300003D01*
X110380181Y-95299996D01*
X110361575Y-95182521D01*
X110361574Y-95182519D01*
X110361574Y-95182518D01*
X110307573Y-95076535D01*
X110307571Y-95076533D01*
X110307568Y-95076529D01*
X110268720Y-95037681D01*
X110235235Y-94976358D01*
X110240219Y-94906666D01*
X110268720Y-94862319D01*
X110307568Y-94823470D01*
X110307573Y-94823465D01*
X110361574Y-94717482D01*
X110363409Y-94705895D01*
X110380181Y-94600003D01*
X110380181Y-94599996D01*
X110361575Y-94482522D01*
X110361575Y-94482521D01*
X110361574Y-94482519D01*
X110361574Y-94482518D01*
X110307573Y-94376535D01*
X110307571Y-94376533D01*
X110307568Y-94376529D01*
X110223470Y-94292431D01*
X110223466Y-94292428D01*
X110223465Y-94292427D01*
X110117482Y-94238426D01*
X110117480Y-94238425D01*
X110117477Y-94238424D01*
X110000003Y-94219819D01*
X109999997Y-94219819D01*
X109882522Y-94238424D01*
X109882521Y-94238424D01*
X109776533Y-94292428D01*
X109776529Y-94292431D01*
X109692431Y-94376529D01*
X109692428Y-94376533D01*
X109638424Y-94482521D01*
X109638424Y-94482522D01*
X109619819Y-94599996D01*
X109619819Y-94600003D01*
X109638424Y-94717477D01*
X109638424Y-94717478D01*
X109638425Y-94717481D01*
X109638426Y-94717482D01*
X109689376Y-94817478D01*
X109692428Y-94823466D01*
X109692431Y-94823470D01*
X109731280Y-94862320D01*
X109764764Y-94923643D01*
X109759779Y-94993335D01*
X109731280Y-95037680D01*
X109692431Y-95076529D01*
X109692425Y-95076537D01*
X109688041Y-95085142D01*
X109640065Y-95135937D01*
X109572243Y-95152730D01*
X109506109Y-95130190D01*
X109489877Y-95116525D01*
X108609955Y-94236603D01*
X108576470Y-94175280D01*
X108575169Y-94168357D01*
X108561574Y-94082518D01*
X108561573Y-94082517D01*
X108560047Y-94072878D01*
X108562856Y-94072432D01*
X108561300Y-94017982D01*
X108597378Y-93958147D01*
X108660078Y-93927317D01*
X108681227Y-93925500D01*
X109344750Y-93925500D01*
X109344751Y-93925499D01*
X109359568Y-93922552D01*
X109403229Y-93913868D01*
X109403229Y-93913867D01*
X109403231Y-93913867D01*
X109469552Y-93869552D01*
X109513867Y-93803231D01*
X109513867Y-93803229D01*
X109513868Y-93803229D01*
X109525499Y-93744752D01*
X114029500Y-93744752D01*
X114041131Y-93803229D01*
X114041132Y-93803230D01*
X114085447Y-93869552D01*
X114151769Y-93913867D01*
X114151770Y-93913868D01*
X114210247Y-93925499D01*
X114210250Y-93925500D01*
X114210252Y-93925500D01*
X115099750Y-93925500D01*
X115099751Y-93925499D01*
X115114568Y-93922552D01*
X115158229Y-93913868D01*
X115158229Y-93913867D01*
X115158231Y-93913867D01*
X115224552Y-93869552D01*
X115268867Y-93803231D01*
X115268867Y-93803229D01*
X115268868Y-93803229D01*
X115280499Y-93744752D01*
X115280500Y-93744750D01*
X115280500Y-93100003D01*
X118119819Y-93100003D01*
X118138424Y-93217477D01*
X118138424Y-93217478D01*
X118138425Y-93217481D01*
X118138426Y-93217482D01*
X118192426Y-93323464D01*
X118192428Y-93323466D01*
X118192431Y-93323470D01*
X118281952Y-93412991D01*
X118315437Y-93474314D01*
X118310453Y-93544006D01*
X118294597Y-93573547D01*
X118292430Y-93576529D01*
X118289377Y-93582521D01*
X118238426Y-93682518D01*
X118238425Y-93682519D01*
X118238425Y-93682521D01*
X118219819Y-93799996D01*
X118219819Y-93800003D01*
X118238424Y-93917477D01*
X118238424Y-93917478D01*
X118238425Y-93917481D01*
X118238426Y-93917482D01*
X118289633Y-94017982D01*
X118292428Y-94023466D01*
X118292431Y-94023470D01*
X118376529Y-94107568D01*
X118376533Y-94107571D01*
X118376535Y-94107573D01*
X118482518Y-94161574D01*
X118482520Y-94161574D01*
X118482522Y-94161575D01*
X118599997Y-94180181D01*
X118600000Y-94180181D01*
X118600003Y-94180181D01*
X118717477Y-94161575D01*
X118717478Y-94161575D01*
X118717479Y-94161574D01*
X118717482Y-94161574D01*
X118823465Y-94107573D01*
X118907573Y-94023465D01*
X118961574Y-93917482D01*
X118961575Y-93917477D01*
X118980181Y-93800003D01*
X118980181Y-93799996D01*
X118971431Y-93744752D01*
X119774500Y-93744752D01*
X119786131Y-93803229D01*
X119786132Y-93803230D01*
X119830447Y-93869552D01*
X119896769Y-93913867D01*
X119896770Y-93913868D01*
X119955247Y-93925499D01*
X119955250Y-93925500D01*
X119955252Y-93925500D01*
X120844750Y-93925500D01*
X120844751Y-93925499D01*
X120859568Y-93922552D01*
X120903229Y-93913868D01*
X120903229Y-93913867D01*
X120903231Y-93913867D01*
X120969552Y-93869552D01*
X121013867Y-93803231D01*
X121013867Y-93803229D01*
X121013868Y-93803229D01*
X121025499Y-93744752D01*
X121025500Y-93744750D01*
X121025500Y-93700003D01*
X124019819Y-93700003D01*
X124038424Y-93817477D01*
X124038424Y-93817478D01*
X124038425Y-93817481D01*
X124038426Y-93817482D01*
X124089376Y-93917478D01*
X124092428Y-93923466D01*
X124092431Y-93923470D01*
X124176529Y-94007568D01*
X124176533Y-94007571D01*
X124176535Y-94007573D01*
X124282518Y-94061574D01*
X124282520Y-94061574D01*
X124282522Y-94061575D01*
X124399997Y-94080181D01*
X124400000Y-94080181D01*
X124400003Y-94080181D01*
X124517477Y-94061575D01*
X124517478Y-94061575D01*
X124517479Y-94061574D01*
X124517482Y-94061574D01*
X124623465Y-94007573D01*
X124707573Y-93923465D01*
X124761574Y-93817482D01*
X124763831Y-93803230D01*
X124780181Y-93700003D01*
X124780181Y-93699996D01*
X124761575Y-93582522D01*
X124761575Y-93582521D01*
X124761574Y-93582519D01*
X124761574Y-93582518D01*
X124707573Y-93476535D01*
X124707571Y-93476533D01*
X124707568Y-93476529D01*
X124623470Y-93392431D01*
X124623466Y-93392428D01*
X124623465Y-93392427D01*
X124517482Y-93338426D01*
X124517480Y-93338425D01*
X124517477Y-93338424D01*
X124400003Y-93319819D01*
X124399997Y-93319819D01*
X124282522Y-93338424D01*
X124282521Y-93338424D01*
X124176533Y-93392428D01*
X124176529Y-93392431D01*
X124092431Y-93476529D01*
X124092428Y-93476533D01*
X124038424Y-93582521D01*
X124038424Y-93582522D01*
X124019819Y-93699996D01*
X124019819Y-93700003D01*
X121025500Y-93700003D01*
X121025500Y-93200003D01*
X122819819Y-93200003D01*
X122838424Y-93317477D01*
X122838424Y-93317478D01*
X122838425Y-93317481D01*
X122838426Y-93317482D01*
X122887090Y-93412991D01*
X122892428Y-93423466D01*
X122892431Y-93423470D01*
X122976529Y-93507568D01*
X122976533Y-93507571D01*
X122976535Y-93507573D01*
X123082518Y-93561574D01*
X123082520Y-93561574D01*
X123082522Y-93561575D01*
X123199997Y-93580181D01*
X123200000Y-93580181D01*
X123200003Y-93580181D01*
X123317477Y-93561575D01*
X123317478Y-93561575D01*
X123317479Y-93561574D01*
X123317482Y-93561574D01*
X123423465Y-93507573D01*
X123507573Y-93423465D01*
X123561574Y-93317482D01*
X123565604Y-93292038D01*
X123580181Y-93200003D01*
X123580181Y-93199996D01*
X123561575Y-93082522D01*
X123561575Y-93082521D01*
X123561574Y-93082519D01*
X123561574Y-93082518D01*
X123507573Y-92976535D01*
X123507571Y-92976533D01*
X123507568Y-92976529D01*
X123423470Y-92892431D01*
X123423466Y-92892428D01*
X123423465Y-92892427D01*
X123317482Y-92838426D01*
X123317480Y-92838425D01*
X123317477Y-92838424D01*
X123200003Y-92819819D01*
X123199997Y-92819819D01*
X123082522Y-92838424D01*
X123082521Y-92838424D01*
X122976533Y-92892428D01*
X122976529Y-92892431D01*
X122892431Y-92976529D01*
X122892428Y-92976533D01*
X122838424Y-93082521D01*
X122838424Y-93082522D01*
X122819819Y-93199996D01*
X122819819Y-93200003D01*
X121025500Y-93200003D01*
X121025500Y-92855249D01*
X121025499Y-92855247D01*
X121013868Y-92796770D01*
X121013867Y-92796769D01*
X120969552Y-92730447D01*
X120903230Y-92686132D01*
X120903229Y-92686131D01*
X120844752Y-92674500D01*
X120844748Y-92674500D01*
X119955252Y-92674500D01*
X119955247Y-92674500D01*
X119896770Y-92686131D01*
X119896769Y-92686132D01*
X119830447Y-92730447D01*
X119786132Y-92796769D01*
X119786131Y-92796770D01*
X119774500Y-92855247D01*
X119774500Y-93744752D01*
X118971431Y-93744752D01*
X118961575Y-93682521D01*
X118961574Y-93682519D01*
X118961574Y-93682518D01*
X118907573Y-93576535D01*
X118907571Y-93576533D01*
X118907568Y-93576529D01*
X118818047Y-93487008D01*
X118784562Y-93425685D01*
X118789546Y-93355993D01*
X118805410Y-93326441D01*
X118807568Y-93323470D01*
X118807573Y-93323465D01*
X118861574Y-93217482D01*
X118861575Y-93217477D01*
X118880181Y-93100003D01*
X118880181Y-93099996D01*
X118861575Y-92982522D01*
X118861575Y-92982521D01*
X118861574Y-92982519D01*
X118861574Y-92982518D01*
X118807573Y-92876535D01*
X118807571Y-92876533D01*
X118807568Y-92876529D01*
X118723470Y-92792431D01*
X118723466Y-92792428D01*
X118723465Y-92792427D01*
X118617482Y-92738426D01*
X118617480Y-92738425D01*
X118617477Y-92738424D01*
X118500003Y-92719819D01*
X118499997Y-92719819D01*
X118382522Y-92738424D01*
X118382521Y-92738424D01*
X118276533Y-92792428D01*
X118276529Y-92792431D01*
X118192431Y-92876529D01*
X118192428Y-92876533D01*
X118138424Y-92982521D01*
X118138424Y-92982522D01*
X118119819Y-93099996D01*
X118119819Y-93100003D01*
X115280500Y-93100003D01*
X115280500Y-92855249D01*
X115280499Y-92855247D01*
X115268868Y-92796770D01*
X115268867Y-92796769D01*
X115224552Y-92730447D01*
X115158230Y-92686132D01*
X115158229Y-92686131D01*
X115099752Y-92674500D01*
X115099748Y-92674500D01*
X114210252Y-92674500D01*
X114210247Y-92674500D01*
X114151770Y-92686131D01*
X114151769Y-92686132D01*
X114085447Y-92730447D01*
X114041132Y-92796769D01*
X114041131Y-92796770D01*
X114029500Y-92855247D01*
X114029500Y-93744752D01*
X109525499Y-93744752D01*
X109525500Y-93744750D01*
X109525500Y-93200003D01*
X111319819Y-93200003D01*
X111338424Y-93317477D01*
X111338424Y-93317478D01*
X111338425Y-93317481D01*
X111338426Y-93317482D01*
X111387090Y-93412991D01*
X111392428Y-93423466D01*
X111392431Y-93423470D01*
X111476529Y-93507568D01*
X111476533Y-93507571D01*
X111476535Y-93507573D01*
X111582518Y-93561574D01*
X111582520Y-93561574D01*
X111582522Y-93561575D01*
X111699997Y-93580181D01*
X111700000Y-93580181D01*
X111700003Y-93580181D01*
X111817477Y-93561575D01*
X111817478Y-93561575D01*
X111817479Y-93561574D01*
X111817482Y-93561574D01*
X111923465Y-93507573D01*
X112007573Y-93423465D01*
X112061574Y-93317482D01*
X112065604Y-93292038D01*
X112080181Y-93200003D01*
X112080181Y-93199996D01*
X112061575Y-93082522D01*
X112061575Y-93082521D01*
X112061574Y-93082519D01*
X112061574Y-93082518D01*
X112007573Y-92976535D01*
X112007571Y-92976533D01*
X112007568Y-92976529D01*
X111923470Y-92892431D01*
X111923466Y-92892428D01*
X111923465Y-92892427D01*
X111817482Y-92838426D01*
X111817480Y-92838425D01*
X111817477Y-92838424D01*
X111700003Y-92819819D01*
X111699997Y-92819819D01*
X111582522Y-92838424D01*
X111582521Y-92838424D01*
X111476533Y-92892428D01*
X111476529Y-92892431D01*
X111392431Y-92976529D01*
X111392428Y-92976533D01*
X111338424Y-93082521D01*
X111338424Y-93082522D01*
X111319819Y-93199996D01*
X111319819Y-93200003D01*
X109525500Y-93200003D01*
X109525500Y-92855249D01*
X109525499Y-92855247D01*
X109513868Y-92796770D01*
X109513867Y-92796769D01*
X109469552Y-92730447D01*
X109403230Y-92686132D01*
X109403229Y-92686131D01*
X109344752Y-92674500D01*
X109344748Y-92674500D01*
X108455252Y-92674500D01*
X108455247Y-92674500D01*
X108396770Y-92686131D01*
X108396769Y-92686132D01*
X108330447Y-92730447D01*
X108286132Y-92796769D01*
X108286131Y-92796770D01*
X108274500Y-92855247D01*
X108274499Y-92855249D01*
X108274500Y-93702113D01*
X108254815Y-93769152D01*
X108202011Y-93814907D01*
X108169898Y-93824586D01*
X108082521Y-93838424D01*
X107976533Y-93892428D01*
X107976529Y-93892431D01*
X107892431Y-93976529D01*
X107892428Y-93976533D01*
X107838424Y-94082521D01*
X107838424Y-94082522D01*
X107819819Y-94199996D01*
X107819819Y-94200003D01*
X107838424Y-94317477D01*
X107838424Y-94317478D01*
X107838425Y-94317481D01*
X107838426Y-94317482D01*
X107890569Y-94419819D01*
X107892428Y-94423466D01*
X107892431Y-94423470D01*
X107976529Y-94507568D01*
X107976533Y-94507571D01*
X107976535Y-94507573D01*
X108082518Y-94561574D01*
X108168321Y-94575163D01*
X108231453Y-94605091D01*
X108236603Y-94609955D01*
X108762585Y-95135937D01*
X109286181Y-95659532D01*
X109319666Y-95720855D01*
X109322500Y-95747213D01*
X109322500Y-98840538D01*
X109302815Y-98907577D01*
X109250011Y-98953332D01*
X109180853Y-98963276D01*
X109142207Y-98951024D01*
X109141819Y-98950826D01*
X109117482Y-98938426D01*
X109117480Y-98938425D01*
X109117479Y-98938425D01*
X109117477Y-98938424D01*
X109000003Y-98919819D01*
X108999997Y-98919819D01*
X108882522Y-98938424D01*
X108882521Y-98938424D01*
X108776533Y-98992428D01*
X108776529Y-98992431D01*
X108692431Y-99076529D01*
X108692428Y-99076533D01*
X108638424Y-99182521D01*
X108638424Y-99182522D01*
X108619819Y-99299996D01*
X108619819Y-99300003D01*
X108638424Y-99417477D01*
X108638424Y-99417478D01*
X108638425Y-99417481D01*
X108638426Y-99417482D01*
X108670987Y-99481387D01*
X108692428Y-99523466D01*
X108692431Y-99523470D01*
X108776529Y-99607568D01*
X108776533Y-99607571D01*
X108776535Y-99607573D01*
X108882518Y-99661574D01*
X108882520Y-99661574D01*
X108882522Y-99661575D01*
X108999997Y-99680181D01*
X109000000Y-99680181D01*
X109000003Y-99680181D01*
X109117477Y-99661575D01*
X109117477Y-99661574D01*
X109117482Y-99661574D01*
X109142206Y-99648976D01*
X109210871Y-99636080D01*
X109275612Y-99662355D01*
X109315870Y-99719461D01*
X109322499Y-99759461D01*
X109322500Y-102049785D01*
X109302815Y-102116824D01*
X109250012Y-102162579D01*
X109180853Y-102172523D01*
X109117297Y-102143498D01*
X109110819Y-102137466D01*
X108709955Y-101736603D01*
X108676470Y-101675280D01*
X108675169Y-101668357D01*
X108661574Y-101582518D01*
X108607573Y-101476535D01*
X108607571Y-101476533D01*
X108607568Y-101476529D01*
X108523470Y-101392431D01*
X108523466Y-101392428D01*
X108523465Y-101392427D01*
X108417482Y-101338426D01*
X108417480Y-101338425D01*
X108417477Y-101338424D01*
X108300003Y-101319819D01*
X108299997Y-101319819D01*
X108182522Y-101338424D01*
X108182520Y-101338425D01*
X108152989Y-101353472D01*
X108084320Y-101366367D01*
X108019580Y-101340090D01*
X107979324Y-101282983D01*
X107974224Y-101262393D01*
X107961574Y-101182518D01*
X107907573Y-101076535D01*
X107907571Y-101076533D01*
X107907568Y-101076529D01*
X107823470Y-100992431D01*
X107823466Y-100992428D01*
X107823465Y-100992427D01*
X107717482Y-100938426D01*
X107717480Y-100938425D01*
X107717477Y-100938424D01*
X107600003Y-100919819D01*
X107600001Y-100919819D01*
X107600000Y-100919819D01*
X107593895Y-100920785D01*
X107524604Y-100911830D01*
X107471152Y-100866833D01*
X107450513Y-100800082D01*
X107450500Y-100798312D01*
X107450500Y-94451713D01*
X107452883Y-94427521D01*
X107453689Y-94423470D01*
X107455672Y-94413500D01*
X107435183Y-94310492D01*
X107376833Y-94223167D01*
X107289508Y-94164817D01*
X107289507Y-94164816D01*
X107289506Y-94164816D01*
X107289505Y-94164815D01*
X107212511Y-94149500D01*
X107212502Y-94149500D01*
X107186500Y-94144328D01*
X107186499Y-94144328D01*
X107177588Y-94146100D01*
X107172477Y-94147117D01*
X107148287Y-94149500D01*
X107080901Y-94149500D01*
X107013862Y-94129815D01*
X106968107Y-94077011D01*
X106958163Y-94007853D01*
X106987188Y-93944297D01*
X106993220Y-93937819D01*
X107007568Y-93923470D01*
X107007573Y-93923465D01*
X107061574Y-93817482D01*
X107063831Y-93803230D01*
X107080181Y-93700003D01*
X107080181Y-93699996D01*
X107061575Y-93582522D01*
X107061575Y-93582521D01*
X107061574Y-93582519D01*
X107061574Y-93582518D01*
X107007573Y-93476535D01*
X107007571Y-93476533D01*
X107007568Y-93476529D01*
X106923470Y-93392431D01*
X106923466Y-93392428D01*
X106923465Y-93392427D01*
X106817482Y-93338426D01*
X106817479Y-93338425D01*
X106817478Y-93338425D01*
X106769174Y-93330774D01*
X106706040Y-93300844D01*
X106669109Y-93241533D01*
X106666100Y-93188903D01*
X106680181Y-93100001D01*
X106680181Y-93099996D01*
X106661575Y-92982522D01*
X106661575Y-92982521D01*
X106661574Y-92982519D01*
X106661574Y-92982518D01*
X106607573Y-92876535D01*
X106607571Y-92876533D01*
X106607568Y-92876529D01*
X106523470Y-92792431D01*
X106523466Y-92792428D01*
X106523465Y-92792427D01*
X106417482Y-92738426D01*
X106417480Y-92738425D01*
X106417477Y-92738424D01*
X106300003Y-92719819D01*
X106299997Y-92719819D01*
X106182522Y-92738424D01*
X106182521Y-92738424D01*
X106076529Y-92792430D01*
X106073547Y-92794597D01*
X106069315Y-92796106D01*
X106067840Y-92796858D01*
X106067742Y-92796667D01*
X106007738Y-92818069D01*
X105939686Y-92802237D01*
X105912991Y-92781952D01*
X105823470Y-92692431D01*
X105823466Y-92692428D01*
X105823465Y-92692427D01*
X105717482Y-92638426D01*
X105717480Y-92638425D01*
X105717477Y-92638424D01*
X105600003Y-92619819D01*
X105599997Y-92619819D01*
X105482522Y-92638424D01*
X105482521Y-92638424D01*
X105376533Y-92692428D01*
X105376529Y-92692431D01*
X105292431Y-92776529D01*
X105292428Y-92776533D01*
X105238424Y-92882521D01*
X105238424Y-92882522D01*
X105219819Y-92999996D01*
X105219819Y-93000003D01*
X105238424Y-93117477D01*
X105238424Y-93117478D01*
X105238425Y-93117481D01*
X105238426Y-93117482D01*
X105289376Y-93217478D01*
X105292428Y-93223466D01*
X105299678Y-93230716D01*
X105333165Y-93292038D01*
X105336000Y-93318400D01*
X105336000Y-100112012D01*
X105316315Y-100179051D01*
X105263511Y-100224806D01*
X105194353Y-100234750D01*
X105192603Y-100234485D01*
X105100003Y-100219819D01*
X105099997Y-100219819D01*
X104982522Y-100238424D01*
X104982518Y-100238425D01*
X104944294Y-100257902D01*
X104875625Y-100270798D01*
X104810884Y-100244521D01*
X104770628Y-100187414D01*
X104764000Y-100147417D01*
X104764000Y-94218399D01*
X104783685Y-94151360D01*
X104800318Y-94130719D01*
X104807573Y-94123465D01*
X104861574Y-94017482D01*
X104863099Y-94007853D01*
X104880181Y-93900003D01*
X104880181Y-93899996D01*
X104861575Y-93782522D01*
X104861575Y-93782521D01*
X104861574Y-93782519D01*
X104861574Y-93782518D01*
X104807573Y-93676535D01*
X104807571Y-93676533D01*
X104807568Y-93676529D01*
X104723470Y-93592431D01*
X104723466Y-93592428D01*
X104723465Y-93592427D01*
X104617482Y-93538426D01*
X104617480Y-93538425D01*
X104617477Y-93538424D01*
X104500003Y-93519819D01*
X104499997Y-93519819D01*
X104382522Y-93538424D01*
X104382521Y-93538424D01*
X104276533Y-93592428D01*
X104276529Y-93592431D01*
X104192431Y-93676529D01*
X104192428Y-93676533D01*
X104138424Y-93782521D01*
X104138424Y-93782522D01*
X104119819Y-93899996D01*
X104119819Y-93900003D01*
X104138424Y-94017477D01*
X104138424Y-94017478D01*
X104138425Y-94017481D01*
X104138426Y-94017482D01*
X104192427Y-94123465D01*
X104199679Y-94130716D01*
X104233165Y-94192037D01*
X104236000Y-94218399D01*
X104236000Y-100661783D01*
X104233618Y-100685971D01*
X104230828Y-100699999D01*
X104230828Y-100700000D01*
X104233617Y-100714021D01*
X104236000Y-100738213D01*
X104236000Y-107461783D01*
X104233618Y-107485971D01*
X104230828Y-107500000D01*
X104236000Y-107526002D01*
X104236000Y-107526011D01*
X104251315Y-107603005D01*
X104251316Y-107603006D01*
X104251316Y-107603007D01*
X104251317Y-107603008D01*
X104309667Y-107690333D01*
X104396992Y-107748683D01*
X104500000Y-107769172D01*
X104500002Y-107769171D01*
X104510708Y-107771301D01*
X104572619Y-107803686D01*
X104574199Y-107805238D01*
X104576529Y-107807568D01*
X104576533Y-107807571D01*
X104576535Y-107807573D01*
X104682518Y-107861574D01*
X104682520Y-107861574D01*
X104682522Y-107861575D01*
X104799997Y-107880181D01*
X104800000Y-107880181D01*
X104800003Y-107880181D01*
X104917477Y-107861575D01*
X104917478Y-107861575D01*
X104917479Y-107861574D01*
X104917482Y-107861574D01*
X105023465Y-107807573D01*
X105107573Y-107723465D01*
X105107575Y-107723459D01*
X105111678Y-107717814D01*
X105167006Y-107675145D01*
X105236619Y-107669162D01*
X105298416Y-107701765D01*
X105332776Y-107762602D01*
X105336000Y-107790694D01*
X105336000Y-112046561D01*
X105333618Y-112070749D01*
X105330828Y-112084777D01*
X105336000Y-112110780D01*
X105336000Y-112110789D01*
X105351315Y-112187783D01*
X105351317Y-112187787D01*
X105409666Y-112275110D01*
X105421555Y-112283054D01*
X105440345Y-112298475D01*
X107015023Y-113873154D01*
X107030442Y-113891941D01*
X107038386Y-113903830D01*
X107038389Y-113903833D01*
X107052730Y-113913415D01*
X107097535Y-113967027D01*
X107106242Y-114036352D01*
X107094324Y-114072811D01*
X107038425Y-114182518D01*
X107038425Y-114182521D01*
X107019819Y-114299996D01*
X107019819Y-114300003D01*
X107038424Y-114417477D01*
X107038424Y-114417478D01*
X107038425Y-114417481D01*
X107038426Y-114417482D01*
X107088250Y-114515268D01*
X107092428Y-114523466D01*
X107092431Y-114523470D01*
X107176529Y-114607568D01*
X107176533Y-114607571D01*
X107176535Y-114607573D01*
X107282518Y-114661574D01*
X107282520Y-114661574D01*
X107282522Y-114661575D01*
X107399997Y-114680181D01*
X107400000Y-114680181D01*
X107400003Y-114680181D01*
X107517477Y-114661575D01*
X107517478Y-114661575D01*
X107517479Y-114661574D01*
X107517482Y-114661574D01*
X107623465Y-114607573D01*
X107662316Y-114568721D01*
X107723640Y-114535235D01*
X107793331Y-114540219D01*
X107837679Y-114568719D01*
X107876529Y-114607568D01*
X107876533Y-114607571D01*
X107876535Y-114607573D01*
X107982518Y-114661574D01*
X107982520Y-114661574D01*
X107982522Y-114661575D01*
X108099997Y-114680181D01*
X108100000Y-114680181D01*
X108100003Y-114680181D01*
X108217477Y-114661575D01*
X108217478Y-114661575D01*
X108217479Y-114661574D01*
X108217482Y-114661574D01*
X108323465Y-114607573D01*
X108407573Y-114523465D01*
X108461574Y-114417482D01*
X108465542Y-114392428D01*
X108480181Y-114300003D01*
X108480181Y-114299996D01*
X108461575Y-114182521D01*
X108461574Y-114182519D01*
X108461574Y-114182518D01*
X108407573Y-114076535D01*
X108407571Y-114076533D01*
X108407568Y-114076529D01*
X108323470Y-113992431D01*
X108323466Y-113992428D01*
X108323465Y-113992427D01*
X108217482Y-113938426D01*
X108217480Y-113938425D01*
X108217477Y-113938424D01*
X108131680Y-113924836D01*
X108068545Y-113894907D01*
X108063396Y-113890044D01*
X107727197Y-113553845D01*
X107711776Y-113535055D01*
X107703832Y-113523166D01*
X107616509Y-113464817D01*
X107616505Y-113464815D01*
X107539511Y-113449500D01*
X107539502Y-113449500D01*
X107513500Y-113444328D01*
X107513499Y-113444328D01*
X107504588Y-113446100D01*
X107499477Y-113447117D01*
X107475287Y-113449500D01*
X107389437Y-113449500D01*
X107322398Y-113429815D01*
X107301756Y-113413181D01*
X107280967Y-113392392D01*
X108227430Y-113392392D01*
X108246035Y-113509866D01*
X108246035Y-113509867D01*
X108246036Y-113509870D01*
X108246037Y-113509871D01*
X108289163Y-113594511D01*
X108300039Y-113615855D01*
X108300042Y-113615859D01*
X108384140Y-113699957D01*
X108384144Y-113699960D01*
X108384146Y-113699962D01*
X108490129Y-113753963D01*
X108490131Y-113753963D01*
X108490133Y-113753964D01*
X108607608Y-113772570D01*
X108607611Y-113772570D01*
X108607614Y-113772570D01*
X108725088Y-113753964D01*
X108725089Y-113753964D01*
X108725090Y-113753963D01*
X108725093Y-113753963D01*
X108831076Y-113699962D01*
X108915184Y-113615854D01*
X108969185Y-113509871D01*
X108969186Y-113509866D01*
X108987792Y-113392392D01*
X108987792Y-113392385D01*
X108969186Y-113274911D01*
X108969186Y-113274910D01*
X108969185Y-113274908D01*
X108969185Y-113274907D01*
X108915184Y-113168924D01*
X108915182Y-113168922D01*
X108915179Y-113168918D01*
X108831081Y-113084820D01*
X108831077Y-113084817D01*
X108831076Y-113084816D01*
X108725093Y-113030815D01*
X108725091Y-113030814D01*
X108725088Y-113030813D01*
X108607614Y-113012208D01*
X108607608Y-113012208D01*
X108490133Y-113030813D01*
X108490132Y-113030813D01*
X108384144Y-113084817D01*
X108384140Y-113084820D01*
X108300042Y-113168918D01*
X108300039Y-113168922D01*
X108246035Y-113274910D01*
X108246035Y-113274911D01*
X108227430Y-113392385D01*
X108227430Y-113392392D01*
X107280967Y-113392392D01*
X105900319Y-112011744D01*
X105866834Y-111950421D01*
X105864000Y-111924063D01*
X105864000Y-108036714D01*
X105883685Y-107969675D01*
X105936489Y-107923920D01*
X106005647Y-107913976D01*
X106069203Y-107943001D01*
X106075678Y-107949030D01*
X106694685Y-108568038D01*
X107286301Y-109159654D01*
X107301720Y-109178441D01*
X107309664Y-109190330D01*
X107309666Y-109190332D01*
X107309667Y-109190333D01*
X107329375Y-109203501D01*
X107329388Y-109203511D01*
X107331708Y-109205061D01*
X107331710Y-109205063D01*
X107396992Y-109248683D01*
X107500000Y-109269172D01*
X107514022Y-109266382D01*
X107538213Y-109264000D01*
X108081599Y-109264000D01*
X108148638Y-109283685D01*
X108169280Y-109300319D01*
X108176529Y-109307568D01*
X108176533Y-109307571D01*
X108176535Y-109307573D01*
X108282518Y-109361574D01*
X108282520Y-109361574D01*
X108282522Y-109361575D01*
X108399997Y-109380181D01*
X108400000Y-109380181D01*
X108400002Y-109380181D01*
X108458800Y-109370868D01*
X108511602Y-109362505D01*
X108580895Y-109371459D01*
X108634347Y-109416456D01*
X108654987Y-109483207D01*
X108655000Y-109484978D01*
X108655000Y-109805201D01*
X108635315Y-109872240D01*
X108582511Y-109917995D01*
X108550398Y-109927674D01*
X108482522Y-109938424D01*
X108482521Y-109938424D01*
X108376533Y-109992428D01*
X108376529Y-109992431D01*
X108292431Y-110076529D01*
X108292428Y-110076533D01*
X108238424Y-110182521D01*
X108238424Y-110182522D01*
X108219819Y-110299996D01*
X108219819Y-110300003D01*
X108238424Y-110417477D01*
X108238424Y-110417478D01*
X108292428Y-110523466D01*
X108292431Y-110523470D01*
X108376529Y-110607568D01*
X108376533Y-110607571D01*
X108376535Y-110607573D01*
X108482518Y-110661574D01*
X108482520Y-110661574D01*
X108482522Y-110661575D01*
X108599997Y-110680181D01*
X108600000Y-110680181D01*
X108600001Y-110680181D01*
X108617180Y-110677459D01*
X108692603Y-110665514D01*
X108761895Y-110674468D01*
X108815347Y-110719464D01*
X108835987Y-110786216D01*
X108836000Y-110787987D01*
X108836000Y-110981599D01*
X108816315Y-111048638D01*
X108799681Y-111069280D01*
X108792431Y-111076529D01*
X108792428Y-111076533D01*
X108738424Y-111182521D01*
X108738424Y-111182522D01*
X108719819Y-111299996D01*
X108719819Y-111300003D01*
X108738424Y-111417477D01*
X108738424Y-111417478D01*
X108738425Y-111417481D01*
X108738426Y-111417482D01*
X108790569Y-111519819D01*
X108792428Y-111523466D01*
X108792431Y-111523470D01*
X108876529Y-111607568D01*
X108876533Y-111607571D01*
X108876535Y-111607573D01*
X108982518Y-111661574D01*
X108982520Y-111661574D01*
X108982522Y-111661575D01*
X109099997Y-111680181D01*
X109100000Y-111680181D01*
X109100003Y-111680181D01*
X109217477Y-111661575D01*
X109217478Y-111661575D01*
X109217479Y-111661574D01*
X109217482Y-111661574D01*
X109323465Y-111607573D01*
X109407573Y-111523465D01*
X109461574Y-111417482D01*
X109467993Y-111376956D01*
X109480181Y-111300003D01*
X109480181Y-111299996D01*
X109461575Y-111182522D01*
X109461575Y-111182521D01*
X109461574Y-111182519D01*
X109461574Y-111182518D01*
X109407573Y-111076535D01*
X109407571Y-111076533D01*
X109407568Y-111076529D01*
X109400319Y-111069280D01*
X109366834Y-111007957D01*
X109364000Y-110981600D01*
X109364000Y-110917830D01*
X109364000Y-110787984D01*
X109383683Y-110720948D01*
X109436487Y-110675193D01*
X109505645Y-110665249D01*
X109507343Y-110665505D01*
X109557811Y-110673499D01*
X109599998Y-110680181D01*
X109600000Y-110680181D01*
X109600001Y-110680181D01*
X109614491Y-110677885D01*
X109692602Y-110665514D01*
X109761894Y-110674468D01*
X109815346Y-110719464D01*
X109835986Y-110786215D01*
X109835999Y-110787987D01*
X109835999Y-111712012D01*
X109816314Y-111779051D01*
X109763510Y-111824806D01*
X109694352Y-111834750D01*
X109692601Y-111834485D01*
X109600002Y-111819819D01*
X109599997Y-111819819D01*
X109482522Y-111838424D01*
X109482521Y-111838424D01*
X109376533Y-111892428D01*
X109376529Y-111892431D01*
X109292431Y-111976529D01*
X109292428Y-111976533D01*
X109238424Y-112082521D01*
X109238424Y-112082522D01*
X109219819Y-112199996D01*
X109219819Y-112200003D01*
X109238424Y-112317477D01*
X109238424Y-112317478D01*
X109238425Y-112317481D01*
X109238426Y-112317482D01*
X109283050Y-112405062D01*
X109292428Y-112423466D01*
X109292431Y-112423470D01*
X109376529Y-112507568D01*
X109376533Y-112507571D01*
X109376535Y-112507573D01*
X109482518Y-112561574D01*
X109482520Y-112561574D01*
X109482522Y-112561575D01*
X109599997Y-112580181D01*
X109600000Y-112580181D01*
X109600001Y-112580181D01*
X109617180Y-112577459D01*
X109692603Y-112565514D01*
X109761895Y-112574468D01*
X109815347Y-112619464D01*
X109835987Y-112686216D01*
X109836000Y-112687987D01*
X109836000Y-113786141D01*
X109816315Y-113853180D01*
X109782386Y-113883885D01*
X109784427Y-113886694D01*
X109776529Y-113892431D01*
X109692431Y-113976529D01*
X109692428Y-113976533D01*
X109692426Y-113976535D01*
X109692427Y-113976535D01*
X109638426Y-114082518D01*
X109638425Y-114082519D01*
X109638425Y-114082521D01*
X109619819Y-114199996D01*
X109619819Y-114200003D01*
X109638424Y-114317477D01*
X109638424Y-114317478D01*
X109638425Y-114317481D01*
X109638426Y-114317482D01*
X109689376Y-114417478D01*
X109692428Y-114423466D01*
X109692431Y-114423470D01*
X109776531Y-114507570D01*
X109776923Y-114507855D01*
X109777283Y-114508322D01*
X109783435Y-114514474D01*
X109782640Y-114515268D01*
X109819591Y-114563183D01*
X109825573Y-114632796D01*
X109810522Y-114667046D01*
X109812080Y-114667840D01*
X109807650Y-114676533D01*
X109807649Y-114676535D01*
X109753648Y-114782518D01*
X109753647Y-114782519D01*
X109753647Y-114782521D01*
X109735041Y-114899996D01*
X109735041Y-114900003D01*
X109753646Y-115017477D01*
X109753646Y-115017478D01*
X109753647Y-115017481D01*
X109753648Y-115017482D01*
X109802693Y-115113739D01*
X109807650Y-115123466D01*
X109807653Y-115123470D01*
X109891751Y-115207568D01*
X109891754Y-115207570D01*
X109891757Y-115207573D01*
X109997740Y-115261574D01*
X109997742Y-115261574D01*
X109997744Y-115261575D01*
X110115219Y-115280181D01*
X110115222Y-115280181D01*
X110115225Y-115280181D01*
X110232699Y-115261575D01*
X110232700Y-115261575D01*
X110232701Y-115261574D01*
X110232704Y-115261574D01*
X110338687Y-115207573D01*
X110338692Y-115207567D01*
X110339115Y-115207262D01*
X110339718Y-115207046D01*
X110347382Y-115203142D01*
X110347886Y-115204132D01*
X110404921Y-115183782D01*
X110472975Y-115199608D01*
X110521670Y-115249713D01*
X110536000Y-115307580D01*
X110536000Y-115531599D01*
X110516315Y-115598638D01*
X110499681Y-115619280D01*
X110492431Y-115626529D01*
X110492428Y-115626533D01*
X110438424Y-115732521D01*
X110438424Y-115732522D01*
X110419819Y-115849996D01*
X110419819Y-115850003D01*
X110438424Y-115967477D01*
X110438424Y-115967478D01*
X110438425Y-115967481D01*
X110438426Y-115967482D01*
X110492334Y-116073283D01*
X110492428Y-116073466D01*
X110492431Y-116073470D01*
X110576529Y-116157568D01*
X110576533Y-116157571D01*
X110576535Y-116157573D01*
X110682518Y-116211574D01*
X110682520Y-116211574D01*
X110682522Y-116211575D01*
X110799997Y-116230181D01*
X110800000Y-116230181D01*
X110800003Y-116230181D01*
X110917477Y-116211575D01*
X110917478Y-116211575D01*
X110917479Y-116211574D01*
X110917482Y-116211574D01*
X111023465Y-116157573D01*
X111107573Y-116073465D01*
X111161574Y-115967482D01*
X111168545Y-115923470D01*
X111180181Y-115850003D01*
X111180181Y-115849996D01*
X111161575Y-115732522D01*
X111161575Y-115732521D01*
X111161574Y-115732519D01*
X111161574Y-115732518D01*
X111107573Y-115626535D01*
X111100321Y-115619283D01*
X111066834Y-115557961D01*
X111064000Y-115531608D01*
X111064000Y-114975932D01*
X111083684Y-114908897D01*
X111100313Y-114888260D01*
X111288570Y-114700003D01*
X115419819Y-114700003D01*
X115438424Y-114817477D01*
X115438424Y-114817478D01*
X115438425Y-114817481D01*
X115438426Y-114817482D01*
X115485004Y-114908897D01*
X115492428Y-114923466D01*
X115492431Y-114923470D01*
X115576529Y-115007568D01*
X115576533Y-115007571D01*
X115576535Y-115007573D01*
X115682518Y-115061574D01*
X115682520Y-115061574D01*
X115682522Y-115061575D01*
X115799997Y-115080181D01*
X115800000Y-115080181D01*
X115800003Y-115080181D01*
X115917477Y-115061575D01*
X115917478Y-115061575D01*
X115917479Y-115061574D01*
X115917482Y-115061574D01*
X116023465Y-115007573D01*
X116107573Y-114923465D01*
X116161574Y-114817482D01*
X116162410Y-114812206D01*
X116180181Y-114700003D01*
X116180181Y-114699996D01*
X116161575Y-114582522D01*
X116161575Y-114582521D01*
X116161574Y-114582519D01*
X116161574Y-114582518D01*
X116107573Y-114476535D01*
X116107571Y-114476533D01*
X116107568Y-114476529D01*
X116023470Y-114392431D01*
X116023466Y-114392428D01*
X116023465Y-114392427D01*
X115917482Y-114338426D01*
X115917480Y-114338425D01*
X115917477Y-114338424D01*
X115800003Y-114319819D01*
X115799997Y-114319819D01*
X115682522Y-114338424D01*
X115682521Y-114338424D01*
X115576533Y-114392428D01*
X115576529Y-114392431D01*
X115492431Y-114476529D01*
X115492428Y-114476533D01*
X115438424Y-114582521D01*
X115438424Y-114582522D01*
X115419819Y-114699996D01*
X115419819Y-114700003D01*
X111288570Y-114700003D01*
X111541088Y-114447485D01*
X111602409Y-114414002D01*
X111672101Y-114418986D01*
X111716448Y-114447487D01*
X111776529Y-114507568D01*
X111776532Y-114507570D01*
X111776535Y-114507573D01*
X111882518Y-114561574D01*
X111882520Y-114561574D01*
X111882522Y-114561575D01*
X111999997Y-114580181D01*
X112000000Y-114580181D01*
X112000003Y-114580181D01*
X112117477Y-114561575D01*
X112117478Y-114561575D01*
X112117479Y-114561574D01*
X112117482Y-114561574D01*
X112223465Y-114507573D01*
X112307573Y-114423465D01*
X112361574Y-114317482D01*
X112361575Y-114317477D01*
X112380181Y-114200003D01*
X112380181Y-114199996D01*
X112361575Y-114082521D01*
X112361574Y-114082519D01*
X112361574Y-114082518D01*
X112307573Y-113976535D01*
X112307571Y-113976533D01*
X112307568Y-113976529D01*
X112223470Y-113892431D01*
X112223466Y-113892428D01*
X112223465Y-113892427D01*
X112117482Y-113838426D01*
X112117481Y-113838425D01*
X112117478Y-113838424D01*
X111995601Y-113819121D01*
X111932466Y-113789192D01*
X111895535Y-113729880D01*
X111890999Y-113696648D01*
X111890999Y-113403351D01*
X111891982Y-113400003D01*
X115919819Y-113400003D01*
X115938424Y-113517477D01*
X115938424Y-113517478D01*
X115938425Y-113517481D01*
X115938426Y-113517482D01*
X115991208Y-113621073D01*
X115992428Y-113623466D01*
X115992431Y-113623470D01*
X116076529Y-113707568D01*
X116076533Y-113707571D01*
X116076535Y-113707573D01*
X116182518Y-113761574D01*
X116182520Y-113761574D01*
X116182522Y-113761575D01*
X116299997Y-113780181D01*
X116300000Y-113780181D01*
X116300003Y-113780181D01*
X116417477Y-113761575D01*
X116417478Y-113761575D01*
X116417479Y-113761574D01*
X116417482Y-113761574D01*
X116523465Y-113707573D01*
X116607573Y-113623465D01*
X116661574Y-113517482D01*
X116662680Y-113510499D01*
X116680181Y-113400003D01*
X116680181Y-113399996D01*
X116661575Y-113282522D01*
X116661575Y-113282521D01*
X116661574Y-113282519D01*
X116661574Y-113282518D01*
X116607573Y-113176535D01*
X116607571Y-113176533D01*
X116607568Y-113176529D01*
X116523470Y-113092431D01*
X116523466Y-113092428D01*
X116523465Y-113092427D01*
X116417482Y-113038426D01*
X116417480Y-113038425D01*
X116417477Y-113038424D01*
X116300003Y-113019819D01*
X116299997Y-113019819D01*
X116182522Y-113038424D01*
X116182521Y-113038424D01*
X116076533Y-113092428D01*
X116076529Y-113092431D01*
X115992431Y-113176529D01*
X115992428Y-113176533D01*
X115938424Y-113282521D01*
X115938424Y-113282522D01*
X115919819Y-113399996D01*
X115919819Y-113400003D01*
X111891982Y-113400003D01*
X111910684Y-113336312D01*
X111963488Y-113290557D01*
X111995602Y-113280878D01*
X112117477Y-113261575D01*
X112117478Y-113261575D01*
X112117479Y-113261574D01*
X112117482Y-113261574D01*
X112223465Y-113207573D01*
X112307573Y-113123465D01*
X112361574Y-113017482D01*
X112361575Y-113017477D01*
X112380181Y-112900003D01*
X112380181Y-112899996D01*
X112361575Y-112782522D01*
X112361575Y-112782521D01*
X112361574Y-112782519D01*
X112361574Y-112782518D01*
X112307573Y-112676535D01*
X112307571Y-112676533D01*
X112307568Y-112676529D01*
X112223470Y-112592431D01*
X112223467Y-112592429D01*
X112223465Y-112592427D01*
X112173594Y-112567016D01*
X112122800Y-112519043D01*
X112106005Y-112451222D01*
X112119405Y-112400242D01*
X112161574Y-112317482D01*
X112161575Y-112317477D01*
X112180181Y-112200003D01*
X112180181Y-112199996D01*
X112161575Y-112082522D01*
X112161575Y-112082521D01*
X112161574Y-112082519D01*
X112161574Y-112082518D01*
X112107573Y-111976535D01*
X112107571Y-111976533D01*
X112107568Y-111976529D01*
X112023470Y-111892431D01*
X112023466Y-111892428D01*
X112023465Y-111892427D01*
X111917482Y-111838426D01*
X111917480Y-111838425D01*
X111917477Y-111838424D01*
X111800003Y-111819819D01*
X111799997Y-111819819D01*
X111682522Y-111838424D01*
X111682521Y-111838424D01*
X111576533Y-111892428D01*
X111576529Y-111892431D01*
X111492431Y-111976529D01*
X111492428Y-111976533D01*
X111438424Y-112082521D01*
X111438424Y-112082522D01*
X111419819Y-112199996D01*
X111419819Y-112199997D01*
X111419819Y-112200000D01*
X111427555Y-112248847D01*
X111428185Y-112252822D01*
X111419229Y-112322116D01*
X111374232Y-112375567D01*
X111307480Y-112396206D01*
X111240167Y-112377480D01*
X111218030Y-112359900D01*
X111086819Y-112228689D01*
X111053334Y-112167366D01*
X111050500Y-112141008D01*
X111050500Y-110823214D01*
X111070185Y-110756175D01*
X111122989Y-110710420D01*
X111192147Y-110700476D01*
X111255703Y-110729501D01*
X111262181Y-110735533D01*
X112786299Y-112259651D01*
X112801719Y-112278439D01*
X112802883Y-112280181D01*
X112809667Y-112290333D01*
X112896992Y-112348683D01*
X112973998Y-112364000D01*
X112974000Y-112364000D01*
X112979968Y-112365187D01*
X112979971Y-112365187D01*
X113000000Y-112369171D01*
X113014022Y-112366381D01*
X113038211Y-112364000D01*
X114608211Y-112364000D01*
X114675250Y-112383685D01*
X114721005Y-112436489D01*
X114730684Y-112468603D01*
X114738424Y-112517477D01*
X114738424Y-112517478D01*
X114738425Y-112517481D01*
X114738426Y-112517482D01*
X114790388Y-112619464D01*
X114792428Y-112623466D01*
X114792431Y-112623470D01*
X114876529Y-112707568D01*
X114876533Y-112707571D01*
X114876535Y-112707573D01*
X114982518Y-112761574D01*
X114982520Y-112761574D01*
X114982522Y-112761575D01*
X115099997Y-112780181D01*
X115100000Y-112780181D01*
X115100003Y-112780181D01*
X115217477Y-112761575D01*
X115217478Y-112761575D01*
X115217479Y-112761574D01*
X115217482Y-112761574D01*
X115323465Y-112707573D01*
X115407573Y-112623465D01*
X115454327Y-112531704D01*
X115502302Y-112480909D01*
X115564812Y-112464000D01*
X115961787Y-112464000D01*
X115985977Y-112466382D01*
X116000000Y-112469172D01*
X116103008Y-112448683D01*
X116168290Y-112405062D01*
X116174255Y-112401076D01*
X116181543Y-112396206D01*
X116190333Y-112390333D01*
X116198275Y-112378445D01*
X116213694Y-112359656D01*
X116333477Y-112239873D01*
X116394798Y-112206390D01*
X116464490Y-112211374D01*
X116508835Y-112239873D01*
X116576535Y-112307573D01*
X116682518Y-112361574D01*
X116682520Y-112361574D01*
X116682522Y-112361575D01*
X116799997Y-112380181D01*
X116800000Y-112380181D01*
X116800003Y-112380181D01*
X116917477Y-112361575D01*
X116917478Y-112361575D01*
X116917479Y-112361574D01*
X116917482Y-112361574D01*
X116967207Y-112336237D01*
X117035874Y-112323342D01*
X117100615Y-112349618D01*
X117140872Y-112406725D01*
X117147500Y-112446723D01*
X117147500Y-116073283D01*
X117145118Y-116097471D01*
X117142328Y-116111499D01*
X117147500Y-116137502D01*
X117147500Y-116137511D01*
X117162815Y-116214505D01*
X117162817Y-116214509D01*
X117221166Y-116301832D01*
X117233055Y-116309776D01*
X117251845Y-116325197D01*
X117590044Y-116663397D01*
X117623529Y-116724720D01*
X117624836Y-116731680D01*
X117638424Y-116817478D01*
X117638425Y-116817480D01*
X117639561Y-116819709D01*
X117640123Y-116822706D01*
X117641441Y-116826760D01*
X117640916Y-116826930D01*
X117652455Y-116888379D01*
X117626176Y-116953118D01*
X117569068Y-116993373D01*
X117529074Y-117000000D01*
X100174500Y-117000000D01*
X100107461Y-116980315D01*
X100061706Y-116927511D01*
X100050500Y-116876000D01*
X100050500Y-109925000D01*
X100639907Y-109925000D01*
X100658216Y-110075791D01*
X100712080Y-110217819D01*
X100798369Y-110342830D01*
X100912067Y-110443557D01*
X101046567Y-110514148D01*
X101084388Y-110523470D01*
X101194051Y-110550500D01*
X101194052Y-110550500D01*
X101345951Y-110550500D01*
X101395111Y-110538382D01*
X101493435Y-110514148D01*
X101627935Y-110443557D01*
X101741633Y-110342830D01*
X101827922Y-110217819D01*
X101881786Y-110075791D01*
X101900095Y-109925000D01*
X101881786Y-109774209D01*
X101827922Y-109632181D01*
X101741633Y-109507170D01*
X101741632Y-109507169D01*
X101737372Y-109500997D01*
X101738417Y-109500275D01*
X101711963Y-109444006D01*
X101721140Y-109374741D01*
X101737585Y-109349150D01*
X101737372Y-109349003D01*
X101765969Y-109307573D01*
X101827922Y-109217819D01*
X101881786Y-109075791D01*
X101900095Y-108925000D01*
X101881786Y-108774209D01*
X101827922Y-108632181D01*
X101741633Y-108507170D01*
X101741632Y-108507169D01*
X101737372Y-108500997D01*
X101738417Y-108500275D01*
X101711963Y-108444006D01*
X101721140Y-108374741D01*
X101737585Y-108349150D01*
X101737372Y-108349003D01*
X101759129Y-108317482D01*
X101827922Y-108217819D01*
X101881786Y-108075791D01*
X101900095Y-107925000D01*
X101881786Y-107774209D01*
X101827922Y-107632181D01*
X101741633Y-107507170D01*
X101627935Y-107406443D01*
X101493435Y-107335852D01*
X101493434Y-107335851D01*
X101493433Y-107335851D01*
X101345951Y-107299500D01*
X101345950Y-107299500D01*
X101194052Y-107299500D01*
X101194051Y-107299500D01*
X101046568Y-107335851D01*
X100912068Y-107406442D01*
X100912066Y-107406443D01*
X100912067Y-107406443D01*
X100806464Y-107499999D01*
X100798368Y-107507171D01*
X100712081Y-107632179D01*
X100712080Y-107632180D01*
X100658216Y-107774208D01*
X100641246Y-107913976D01*
X100639907Y-107925000D01*
X100658216Y-108075791D01*
X100712080Y-108217819D01*
X100780873Y-108317482D01*
X100802630Y-108349003D01*
X100801585Y-108349723D01*
X100828040Y-108406007D01*
X100818856Y-108475270D01*
X100802417Y-108500850D01*
X100802630Y-108500997D01*
X100712081Y-108632179D01*
X100712080Y-108632180D01*
X100658216Y-108774208D01*
X100639941Y-108924724D01*
X100639907Y-108925000D01*
X100658216Y-109075791D01*
X100712080Y-109217819D01*
X100774033Y-109307573D01*
X100802630Y-109349003D01*
X100801585Y-109349723D01*
X100828040Y-109406007D01*
X100818856Y-109475270D01*
X100802417Y-109500850D01*
X100802630Y-109500997D01*
X100712081Y-109632179D01*
X100712080Y-109632180D01*
X100658216Y-109774208D01*
X100648161Y-109857021D01*
X100639907Y-109925000D01*
X100050500Y-109925000D01*
X100050500Y-103125000D01*
X100537404Y-103125000D01*
X100555713Y-103275791D01*
X100609577Y-103417819D01*
X100695866Y-103542830D01*
X100809564Y-103643557D01*
X100944064Y-103714148D01*
X100981885Y-103723470D01*
X101091548Y-103750500D01*
X101091549Y-103750500D01*
X101243448Y-103750500D01*
X101292608Y-103738382D01*
X101390932Y-103714148D01*
X101525432Y-103643557D01*
X101634220Y-103547179D01*
X101697452Y-103517459D01*
X101766716Y-103526643D01*
X101820019Y-103571815D01*
X101834259Y-103608570D01*
X101835409Y-103608197D01*
X101838424Y-103617478D01*
X101838425Y-103617481D01*
X101838426Y-103617482D01*
X101890569Y-103719819D01*
X101892428Y-103723466D01*
X101892431Y-103723470D01*
X101976529Y-103807568D01*
X101976533Y-103807571D01*
X101976535Y-103807573D01*
X102082518Y-103861574D01*
X102082520Y-103861574D01*
X102082522Y-103861575D01*
X102199997Y-103880181D01*
X102200000Y-103880181D01*
X102200002Y-103880181D01*
X102249570Y-103872330D01*
X102306103Y-103863376D01*
X102375395Y-103872330D01*
X102428847Y-103917326D01*
X102449487Y-103984078D01*
X102449500Y-103985849D01*
X102449500Y-107868099D01*
X102429815Y-107935138D01*
X102413181Y-107955780D01*
X102392431Y-107976529D01*
X102392428Y-107976533D01*
X102338424Y-108082521D01*
X102338424Y-108082522D01*
X102319819Y-108199996D01*
X102319819Y-108200003D01*
X102338424Y-108317479D01*
X102338426Y-108317482D01*
X102358984Y-108357831D01*
X102372499Y-108414124D01*
X102372499Y-114982994D01*
X102372263Y-114988399D01*
X102368712Y-115028982D01*
X102379257Y-115068335D01*
X102380428Y-115073618D01*
X102387503Y-115113740D01*
X102389232Y-115118491D01*
X102396468Y-115135959D01*
X102398606Y-115140544D01*
X102421972Y-115173914D01*
X102424879Y-115178478D01*
X102445247Y-115213757D01*
X102445251Y-115213761D01*
X102476463Y-115239951D01*
X102480442Y-115243596D01*
X102736841Y-115499996D01*
X102809721Y-115572876D01*
X102832270Y-115609666D01*
X102833996Y-115608787D01*
X102838425Y-115617480D01*
X102838426Y-115617482D01*
X102892427Y-115723465D01*
X102892429Y-115723467D01*
X102892431Y-115723470D01*
X102976529Y-115807568D01*
X102976533Y-115807571D01*
X102976535Y-115807573D01*
X103082518Y-115861574D01*
X103082520Y-115861574D01*
X103082522Y-115861575D01*
X103199997Y-115880181D01*
X103200000Y-115880181D01*
X103200003Y-115880181D01*
X103317477Y-115861575D01*
X103317478Y-115861575D01*
X103317479Y-115861574D01*
X103317482Y-115861574D01*
X103423465Y-115807573D01*
X103507573Y-115723465D01*
X103561574Y-115617482D01*
X103562951Y-115608787D01*
X103580181Y-115500003D01*
X103580181Y-115499996D01*
X103561575Y-115382521D01*
X103561574Y-115382519D01*
X103561574Y-115382518D01*
X103545007Y-115350003D01*
X108769819Y-115350003D01*
X108788424Y-115467477D01*
X108788424Y-115467478D01*
X108788425Y-115467481D01*
X108788426Y-115467482D01*
X108834527Y-115557961D01*
X108842428Y-115573466D01*
X108842431Y-115573470D01*
X108926529Y-115657568D01*
X108926533Y-115657571D01*
X108926535Y-115657573D01*
X109032518Y-115711574D01*
X109032520Y-115711574D01*
X109032522Y-115711575D01*
X109149997Y-115730181D01*
X109150000Y-115730181D01*
X109150003Y-115730181D01*
X109267477Y-115711575D01*
X109267478Y-115711575D01*
X109267479Y-115711574D01*
X109267482Y-115711574D01*
X109373465Y-115657573D01*
X109457573Y-115573465D01*
X109511574Y-115467482D01*
X109511575Y-115467477D01*
X109530181Y-115350003D01*
X109530181Y-115349996D01*
X109511575Y-115232522D01*
X109511575Y-115232521D01*
X109511574Y-115232519D01*
X109511574Y-115232518D01*
X109457573Y-115126535D01*
X109457571Y-115126533D01*
X109457568Y-115126529D01*
X109373470Y-115042431D01*
X109373466Y-115042428D01*
X109373465Y-115042427D01*
X109267482Y-114988426D01*
X109267480Y-114988425D01*
X109267477Y-114988424D01*
X109150003Y-114969819D01*
X109149997Y-114969819D01*
X109032522Y-114988424D01*
X109032521Y-114988424D01*
X108926533Y-115042428D01*
X108926529Y-115042431D01*
X108842431Y-115126529D01*
X108842428Y-115126533D01*
X108788424Y-115232521D01*
X108788424Y-115232522D01*
X108769819Y-115349996D01*
X108769819Y-115350003D01*
X103545007Y-115350003D01*
X103507573Y-115276535D01*
X103507571Y-115276533D01*
X103507568Y-115276529D01*
X103423470Y-115192431D01*
X103423467Y-115192429D01*
X103423465Y-115192427D01*
X103317482Y-115138426D01*
X103317480Y-115138425D01*
X103308787Y-115133996D01*
X103309666Y-115132270D01*
X103272876Y-115109721D01*
X103063818Y-114900663D01*
X103030333Y-114839340D01*
X103027499Y-114812982D01*
X103027499Y-111638424D01*
X103027499Y-108414121D01*
X103041013Y-108357833D01*
X103061574Y-108317482D01*
X103063218Y-108307095D01*
X103076367Y-108274571D01*
X103073808Y-108273378D01*
X103080549Y-108258920D01*
X103087754Y-108241528D01*
X103089495Y-108236742D01*
X103089494Y-108236742D01*
X103089497Y-108236739D01*
X103096577Y-108196578D01*
X103097733Y-108191365D01*
X103108286Y-108151985D01*
X103104735Y-108111406D01*
X103104500Y-108106003D01*
X103104500Y-101594004D01*
X103104736Y-101588597D01*
X103105622Y-101578478D01*
X103108287Y-101548016D01*
X103108286Y-101548015D01*
X103108287Y-101548014D01*
X103100104Y-101517478D01*
X103097739Y-101508655D01*
X103096574Y-101503401D01*
X103089497Y-101463261D01*
X103089493Y-101463254D01*
X103087757Y-101458482D01*
X103080540Y-101441058D01*
X103078394Y-101436455D01*
X103055025Y-101403082D01*
X103052116Y-101398516D01*
X103031750Y-101363240D01*
X103031750Y-101363239D01*
X103004161Y-101340090D01*
X103000533Y-101337046D01*
X102996562Y-101333407D01*
X102990278Y-101327123D01*
X102967734Y-101290332D01*
X102966005Y-101291214D01*
X102941015Y-101242167D01*
X102927500Y-101185873D01*
X102927500Y-94814125D01*
X102941014Y-94757832D01*
X102961574Y-94717482D01*
X102963409Y-94705895D01*
X102980181Y-94600003D01*
X102980181Y-94599996D01*
X102961575Y-94482522D01*
X102961575Y-94482521D01*
X102961574Y-94482519D01*
X102961574Y-94482518D01*
X102907573Y-94376535D01*
X102907571Y-94376533D01*
X102907568Y-94376529D01*
X102823470Y-94292431D01*
X102823466Y-94292428D01*
X102823465Y-94292427D01*
X102717482Y-94238426D01*
X102717480Y-94238425D01*
X102717477Y-94238424D01*
X102600003Y-94219819D01*
X102599997Y-94219819D01*
X102482522Y-94238424D01*
X102482521Y-94238424D01*
X102376533Y-94292428D01*
X102376529Y-94292431D01*
X102292431Y-94376529D01*
X102292428Y-94376533D01*
X102238424Y-94482521D01*
X102238424Y-94482522D01*
X102219819Y-94599996D01*
X102219819Y-94600003D01*
X102238424Y-94717477D01*
X102238424Y-94717478D01*
X102238425Y-94717481D01*
X102238426Y-94717482D01*
X102258985Y-94757832D01*
X102272500Y-94814125D01*
X102272500Y-96801954D01*
X102252815Y-96868993D01*
X102200011Y-96914748D01*
X102130853Y-96924692D01*
X102129105Y-96924428D01*
X102100000Y-96919819D01*
X102099997Y-96919819D01*
X101982522Y-96938424D01*
X101982521Y-96938424D01*
X101876533Y-96992428D01*
X101876529Y-96992431D01*
X101792431Y-97076529D01*
X101792428Y-97076533D01*
X101738424Y-97182521D01*
X101738424Y-97182522D01*
X101719819Y-97299996D01*
X101719819Y-97300003D01*
X101738424Y-97417477D01*
X101738424Y-97417478D01*
X101792428Y-97523466D01*
X101792431Y-97523470D01*
X101876529Y-97607568D01*
X101876533Y-97607571D01*
X101876535Y-97607573D01*
X101982518Y-97661574D01*
X101982520Y-97661574D01*
X101982522Y-97661575D01*
X102099997Y-97680181D01*
X102100000Y-97680181D01*
X102100002Y-97680181D01*
X102129102Y-97675572D01*
X102198395Y-97684527D01*
X102251847Y-97729523D01*
X102272487Y-97796274D01*
X102272500Y-97798045D01*
X102272500Y-101185873D01*
X102258985Y-101242167D01*
X102238426Y-101282515D01*
X102238425Y-101282519D01*
X102219819Y-101399996D01*
X102219819Y-101400003D01*
X102238424Y-101517477D01*
X102238424Y-101517478D01*
X102238425Y-101517481D01*
X102238426Y-101517482D01*
X102292427Y-101623465D01*
X102376535Y-101707573D01*
X102376537Y-101707574D01*
X102376538Y-101707575D01*
X102381792Y-101710252D01*
X102432589Y-101758225D01*
X102449500Y-101820738D01*
X102449500Y-103014150D01*
X102429815Y-103081189D01*
X102377011Y-103126944D01*
X102307853Y-103136888D01*
X102306103Y-103136623D01*
X102200003Y-103119819D01*
X102199997Y-103119819D01*
X102082522Y-103138424D01*
X102082518Y-103138425D01*
X101973741Y-103193850D01*
X101905072Y-103206746D01*
X101840332Y-103180469D01*
X101800075Y-103123362D01*
X101794351Y-103098311D01*
X101793780Y-103093608D01*
X101779283Y-102974209D01*
X101725419Y-102832181D01*
X101639130Y-102707170D01*
X101639129Y-102707169D01*
X101634869Y-102700997D01*
X101635914Y-102700275D01*
X101609460Y-102644006D01*
X101618637Y-102574741D01*
X101635082Y-102549150D01*
X101634869Y-102549003D01*
X101639130Y-102542830D01*
X101725419Y-102417819D01*
X101779283Y-102275791D01*
X101797592Y-102125000D01*
X101779283Y-101974209D01*
X101725419Y-101832181D01*
X101639130Y-101707170D01*
X101639129Y-101707169D01*
X101634869Y-101700997D01*
X101635914Y-101700275D01*
X101609460Y-101644006D01*
X101618637Y-101574741D01*
X101635082Y-101549150D01*
X101634869Y-101549003D01*
X101640708Y-101540544D01*
X101725419Y-101417819D01*
X101779283Y-101275791D01*
X101797592Y-101125000D01*
X101779283Y-100974209D01*
X101725419Y-100832181D01*
X101639130Y-100707170D01*
X101525432Y-100606443D01*
X101390932Y-100535852D01*
X101390931Y-100535851D01*
X101390930Y-100535851D01*
X101243448Y-100499500D01*
X101243447Y-100499500D01*
X101091549Y-100499500D01*
X101091548Y-100499500D01*
X100944065Y-100535851D01*
X100809565Y-100606442D01*
X100809563Y-100606443D01*
X100809564Y-100606443D01*
X100703961Y-100699999D01*
X100695865Y-100707171D01*
X100609578Y-100832179D01*
X100609577Y-100832180D01*
X100555713Y-100974208D01*
X100554988Y-100980181D01*
X100537404Y-101125000D01*
X100555713Y-101275791D01*
X100609577Y-101417819D01*
X100692826Y-101538426D01*
X100700127Y-101549003D01*
X100699082Y-101549723D01*
X100725537Y-101606007D01*
X100716353Y-101675270D01*
X100699914Y-101700850D01*
X100700127Y-101700997D01*
X100695866Y-101707169D01*
X100695866Y-101707170D01*
X100693739Y-101710252D01*
X100609578Y-101832179D01*
X100609577Y-101832180D01*
X100555713Y-101974208D01*
X100546537Y-102049785D01*
X100537404Y-102125000D01*
X100555713Y-102275791D01*
X100609577Y-102417819D01*
X100695866Y-102542830D01*
X100700127Y-102549003D01*
X100699082Y-102549723D01*
X100725537Y-102606007D01*
X100716353Y-102675270D01*
X100699914Y-102700850D01*
X100700127Y-102700997D01*
X100609578Y-102832179D01*
X100609577Y-102832180D01*
X100555713Y-102974208D01*
X100540645Y-103098311D01*
X100537404Y-103125000D01*
X100050500Y-103125000D01*
X100050500Y-96260000D01*
X100469906Y-96260000D01*
X100488215Y-96410791D01*
X100542079Y-96552819D01*
X100628368Y-96677830D01*
X100742066Y-96778557D01*
X100876566Y-96849148D01*
X100950308Y-96867324D01*
X101024050Y-96885500D01*
X101024051Y-96885500D01*
X101175950Y-96885500D01*
X101242920Y-96868993D01*
X101323434Y-96849148D01*
X101457934Y-96778557D01*
X101571632Y-96677830D01*
X101657921Y-96552819D01*
X101711785Y-96410791D01*
X101730094Y-96260000D01*
X101711785Y-96109209D01*
X101657921Y-95967181D01*
X101571632Y-95842170D01*
X101571631Y-95842169D01*
X101567371Y-95835997D01*
X101568416Y-95835275D01*
X101541962Y-95779006D01*
X101551139Y-95709741D01*
X101567584Y-95684150D01*
X101567371Y-95684003D01*
X101584262Y-95659532D01*
X101657921Y-95552819D01*
X101711785Y-95410791D01*
X101730094Y-95260000D01*
X101711785Y-95109209D01*
X101657921Y-94967181D01*
X101571632Y-94842170D01*
X101571631Y-94842169D01*
X101567371Y-94835997D01*
X101568416Y-94835275D01*
X101541962Y-94779006D01*
X101551139Y-94709741D01*
X101567584Y-94684150D01*
X101567371Y-94684003D01*
X101584076Y-94659802D01*
X101657921Y-94552819D01*
X101711785Y-94410791D01*
X101730094Y-94260000D01*
X101711785Y-94109209D01*
X101657921Y-93967181D01*
X101571632Y-93842170D01*
X101457934Y-93741443D01*
X101323434Y-93670852D01*
X101323433Y-93670851D01*
X101323432Y-93670851D01*
X101175950Y-93634500D01*
X101175949Y-93634500D01*
X101024051Y-93634500D01*
X101024050Y-93634500D01*
X100876567Y-93670851D01*
X100742067Y-93741442D01*
X100742065Y-93741443D01*
X100742066Y-93741443D01*
X100632597Y-93838424D01*
X100628367Y-93842171D01*
X100542080Y-93967179D01*
X100542079Y-93967180D01*
X100488215Y-94109208D01*
X100469906Y-94259999D01*
X100469906Y-94260000D01*
X100488215Y-94410791D01*
X100542079Y-94552819D01*
X100569419Y-94592428D01*
X100632629Y-94684003D01*
X100631584Y-94684723D01*
X100658039Y-94741007D01*
X100648855Y-94810270D01*
X100632416Y-94835850D01*
X100632629Y-94835997D01*
X100542080Y-94967179D01*
X100542079Y-94967180D01*
X100488215Y-95109208D01*
X100470640Y-95253955D01*
X100469906Y-95260000D01*
X100488215Y-95410791D01*
X100542079Y-95552819D01*
X100615738Y-95659532D01*
X100632629Y-95684003D01*
X100631584Y-95684723D01*
X100658039Y-95741007D01*
X100648855Y-95810270D01*
X100632416Y-95835850D01*
X100632629Y-95835997D01*
X100542080Y-95967179D01*
X100542079Y-95967180D01*
X100488215Y-96109208D01*
X100474342Y-96223465D01*
X100469906Y-96260000D01*
X100050500Y-96260000D01*
X100050500Y-92323581D01*
X100070185Y-92256542D01*
X100122989Y-92210787D01*
X100174268Y-92199581D01*
X111266920Y-92178886D01*
X126482113Y-92150500D01*
X126625500Y-92150500D01*
X126692539Y-92170185D01*
G37*
%TD.AperFunction*%
%TA.AperFunction,Conductor*%
G36*
X114448638Y-108283685D02*
G01*
X114469280Y-108300319D01*
X114476529Y-108307568D01*
X114476533Y-108307571D01*
X114476535Y-108307573D01*
X114582518Y-108361574D01*
X114582520Y-108361574D01*
X114582522Y-108361575D01*
X114699997Y-108380181D01*
X114700000Y-108380181D01*
X114700003Y-108380181D01*
X114817477Y-108361575D01*
X114817478Y-108361575D01*
X114817479Y-108361574D01*
X114817482Y-108361574D01*
X114923465Y-108307573D01*
X114923469Y-108307568D01*
X114931364Y-108301834D01*
X114933029Y-108304127D01*
X114980860Y-108278000D01*
X115050552Y-108282973D01*
X115106493Y-108324835D01*
X115130921Y-108390295D01*
X115130334Y-108414107D01*
X115122028Y-108482521D01*
X115119906Y-108500000D01*
X115138215Y-108650791D01*
X115192079Y-108792819D01*
X115213233Y-108823466D01*
X115282629Y-108924003D01*
X115281583Y-108924724D01*
X115308037Y-108980995D01*
X115298860Y-109050259D01*
X115282416Y-109075850D01*
X115282629Y-109075997D01*
X115192080Y-109207179D01*
X115192079Y-109207180D01*
X115138215Y-109349208D01*
X115135513Y-109371459D01*
X115119906Y-109500000D01*
X115138215Y-109650791D01*
X115192079Y-109792819D01*
X115250643Y-109877663D01*
X115282629Y-109924003D01*
X115281584Y-109924723D01*
X115308039Y-109981007D01*
X115298855Y-110050270D01*
X115282416Y-110075850D01*
X115282629Y-110075997D01*
X115192080Y-110207179D01*
X115192079Y-110207180D01*
X115138215Y-110349208D01*
X115119906Y-110500000D01*
X115138215Y-110650791D01*
X115192079Y-110792819D01*
X115192080Y-110792820D01*
X115282629Y-110924003D01*
X115281584Y-110924723D01*
X115308039Y-110981007D01*
X115298855Y-111050270D01*
X115282416Y-111075850D01*
X115282629Y-111075997D01*
X115192080Y-111207179D01*
X115192079Y-111207180D01*
X115138212Y-111349214D01*
X115138172Y-111349379D01*
X115138109Y-111349486D01*
X115135555Y-111356222D01*
X115134434Y-111355797D01*
X115103011Y-111409756D01*
X115040788Y-111441539D01*
X114971260Y-111434637D01*
X114916501Y-111391241D01*
X114907879Y-111376956D01*
X114907574Y-111376537D01*
X114907573Y-111376535D01*
X114907570Y-111376532D01*
X114907568Y-111376529D01*
X114823470Y-111292431D01*
X114823466Y-111292428D01*
X114823465Y-111292427D01*
X114717482Y-111238426D01*
X114717480Y-111238425D01*
X114717477Y-111238424D01*
X114600003Y-111219819D01*
X114599997Y-111219819D01*
X114482522Y-111238424D01*
X114482521Y-111238424D01*
X114376533Y-111292428D01*
X114376529Y-111292431D01*
X114292431Y-111376529D01*
X114292428Y-111376533D01*
X114238424Y-111482521D01*
X114238424Y-111482522D01*
X114219819Y-111599996D01*
X114219819Y-111600003D01*
X114234485Y-111692603D01*
X114225530Y-111761896D01*
X114180534Y-111815348D01*
X114113782Y-111835987D01*
X114112012Y-111836000D01*
X113160714Y-111836000D01*
X113093675Y-111816315D01*
X113073033Y-111799681D01*
X111609955Y-110336603D01*
X111576470Y-110275280D01*
X111575169Y-110268357D01*
X111561574Y-110182518D01*
X111507573Y-110076535D01*
X111507571Y-110076533D01*
X111507568Y-110076529D01*
X111447487Y-110016448D01*
X111414002Y-109955125D01*
X111418986Y-109885433D01*
X111447485Y-109841088D01*
X112988255Y-108300319D01*
X113049579Y-108266834D01*
X113075937Y-108264000D01*
X114381599Y-108264000D01*
X114448638Y-108283685D01*
G37*
%TD.AperFunction*%
%TA.AperFunction,Conductor*%
G36*
X106848396Y-94776608D02*
G01*
X106901848Y-94821604D01*
X106922487Y-94888356D01*
X106922500Y-94890126D01*
X106922500Y-102948283D01*
X106920118Y-102972471D01*
X106917328Y-102986499D01*
X106922500Y-103012502D01*
X106922500Y-103012511D01*
X106937815Y-103089505D01*
X106937817Y-103089509D01*
X106992243Y-103170961D01*
X106996167Y-103176833D01*
X107008055Y-103184776D01*
X107026845Y-103200197D01*
X107890044Y-104063397D01*
X107923529Y-104124720D01*
X107924836Y-104131680D01*
X107938424Y-104217478D01*
X107992428Y-104323466D01*
X107992431Y-104323470D01*
X108076529Y-104407568D01*
X108076533Y-104407571D01*
X108076535Y-104407573D01*
X108182518Y-104461574D01*
X108268321Y-104475163D01*
X108331453Y-104505091D01*
X108336603Y-104509955D01*
X108618681Y-104792033D01*
X108652166Y-104853356D01*
X108655000Y-104879714D01*
X108655000Y-107199183D01*
X108635315Y-107266222D01*
X108582511Y-107311977D01*
X108513353Y-107321921D01*
X108511642Y-107321662D01*
X108500000Y-107319819D01*
X108499998Y-107319819D01*
X108499997Y-107319819D01*
X108382522Y-107338424D01*
X108382521Y-107338424D01*
X108276533Y-107392428D01*
X108276529Y-107392431D01*
X108269280Y-107399681D01*
X108207957Y-107433166D01*
X108181599Y-107436000D01*
X107960714Y-107436000D01*
X107893675Y-107416315D01*
X107873033Y-107399681D01*
X107300318Y-106826966D01*
X107266833Y-106765643D01*
X107263999Y-106739285D01*
X107263999Y-106100003D01*
X107619819Y-106100003D01*
X107638424Y-106217477D01*
X107638424Y-106217478D01*
X107638425Y-106217481D01*
X107638426Y-106217482D01*
X107691935Y-106322500D01*
X107692428Y-106323466D01*
X107692431Y-106323470D01*
X107776529Y-106407568D01*
X107776533Y-106407571D01*
X107776535Y-106407573D01*
X107882518Y-106461574D01*
X107882520Y-106461574D01*
X107882522Y-106461575D01*
X107999997Y-106480181D01*
X108000000Y-106480181D01*
X108000003Y-106480181D01*
X108117477Y-106461575D01*
X108117478Y-106461575D01*
X108117479Y-106461574D01*
X108117482Y-106461574D01*
X108223465Y-106407573D01*
X108307573Y-106323465D01*
X108361574Y-106217482D01*
X108364883Y-106196588D01*
X108380181Y-106100003D01*
X108380181Y-106099996D01*
X108361575Y-105982522D01*
X108361575Y-105982521D01*
X108361574Y-105982519D01*
X108361574Y-105982518D01*
X108307573Y-105876535D01*
X108307571Y-105876533D01*
X108307568Y-105876529D01*
X108223470Y-105792431D01*
X108223466Y-105792428D01*
X108223465Y-105792427D01*
X108117482Y-105738426D01*
X108117480Y-105738425D01*
X108117477Y-105738424D01*
X108000003Y-105719819D01*
X107999997Y-105719819D01*
X107882522Y-105738424D01*
X107882521Y-105738424D01*
X107776533Y-105792428D01*
X107776529Y-105792431D01*
X107692431Y-105876529D01*
X107692428Y-105876533D01*
X107638424Y-105982521D01*
X107638424Y-105982522D01*
X107619819Y-106099996D01*
X107619819Y-106100003D01*
X107263999Y-106100003D01*
X107263999Y-105969552D01*
X107263999Y-105153422D01*
X107266381Y-105129248D01*
X107269171Y-105115222D01*
X107264000Y-105089223D01*
X107264000Y-105089220D01*
X107248683Y-105012214D01*
X107190333Y-104924889D01*
X107190332Y-104924888D01*
X107178439Y-104916941D01*
X107159651Y-104901521D01*
X106586818Y-104328688D01*
X106553333Y-104267365D01*
X106550499Y-104241007D01*
X106550499Y-99519006D01*
X106550499Y-94901683D01*
X106570184Y-94834648D01*
X106622988Y-94788893D01*
X106692146Y-94778949D01*
X106693874Y-94779210D01*
X106697213Y-94779739D01*
X106699999Y-94780181D01*
X106700000Y-94780181D01*
X106700002Y-94780181D01*
X106779102Y-94767653D01*
X106848396Y-94776608D01*
G37*
%TD.AperFunction*%
%TA.AperFunction,Conductor*%
G36*
X111032293Y-97669457D02*
G01*
X111068321Y-97675163D01*
X111131453Y-97705091D01*
X111136603Y-97709955D01*
X111913181Y-98486533D01*
X111946666Y-98547856D01*
X111949500Y-98574214D01*
X111949500Y-104676786D01*
X111929815Y-104743825D01*
X111877011Y-104789580D01*
X111807853Y-104799524D01*
X111744297Y-104770499D01*
X111737819Y-104764467D01*
X110925319Y-103951966D01*
X110891834Y-103890643D01*
X110889000Y-103864285D01*
X110889000Y-102314368D01*
X110908685Y-102247329D01*
X110961489Y-102201574D01*
X111030647Y-102191630D01*
X111069295Y-102203883D01*
X111076532Y-102207570D01*
X111076535Y-102207573D01*
X111182518Y-102261574D01*
X111182520Y-102261574D01*
X111182522Y-102261575D01*
X111299997Y-102280181D01*
X111300000Y-102280181D01*
X111300003Y-102280181D01*
X111417477Y-102261575D01*
X111417478Y-102261575D01*
X111417479Y-102261574D01*
X111417482Y-102261574D01*
X111523465Y-102207573D01*
X111607573Y-102123465D01*
X111661574Y-102017482D01*
X111661575Y-102017477D01*
X111680181Y-101900003D01*
X111680181Y-101899996D01*
X111661575Y-101782521D01*
X111661574Y-101782519D01*
X111661574Y-101782518D01*
X111607573Y-101676535D01*
X111607571Y-101676533D01*
X111607568Y-101676529D01*
X111523470Y-101592431D01*
X111523466Y-101592428D01*
X111523465Y-101592427D01*
X111417482Y-101538426D01*
X111417480Y-101538425D01*
X111417477Y-101538424D01*
X111300003Y-101519819D01*
X111299997Y-101519819D01*
X111182522Y-101538424D01*
X111182518Y-101538425D01*
X111069294Y-101596116D01*
X111000625Y-101609012D01*
X110935885Y-101582735D01*
X110895628Y-101525629D01*
X110889000Y-101485631D01*
X110889000Y-97791947D01*
X110908685Y-97724908D01*
X110961489Y-97679153D01*
X111030647Y-97669209D01*
X111032293Y-97669457D01*
G37*
%TD.AperFunction*%
%TD*%
M02*
