M48
; DRILL file {KiCad 7.0.5} date Sun 11 Jun 2023 19:33:44
; FORMAT={-:-/ absolute / metric / decimal}
; #@! TF.CreationDate,2023-06-11T19:33:44+08:00
; #@! TF.GenerationSoftware,Kicad,Pcbnew,7.0.5
; #@! TF.FileFunction,MixedPlating,1,4
FMAT,2
METRIC
; #@! TA.AperFunction,Plated,PTH,ViaDrill
T1C0.200
; #@! TA.AperFunction,Plated,PTH,ViaDrill
T2C0.350
; #@! TA.AperFunction,Plated,PTH,ComponentDrill
T3C0.500
%
G90
G05
T1
X100.975Y-97.6
X101.05Y-114.45
X102.1Y-97.3
X102.1Y-99.5
X102.2Y-103.5
X102.3Y-102.8
X102.6Y-94.6
X102.6Y-101.4
X102.7Y-108.2
X103.2Y-115.5
X103.6Y-113.0
X104.0Y-106.6
X104.5Y-93.9
X104.8Y-107.5
X105.1Y-100.6
X105.6Y-93.0
X106.3Y-93.1
X106.5Y-105.2
X106.7Y-93.7
X106.7Y-94.4
X106.9Y-104.2
X107.4Y-113.3
X107.4Y-114.3
X107.6Y-101.3
X107.9Y-115.575
X108.0Y-106.1
X108.1Y-103.3
X108.1Y-114.3
X108.2Y-94.2
X108.3Y-101.7
X108.3Y-104.1
X108.4Y-98.6
X108.4Y-109.0
X108.5Y-107.7
X108.6Y-110.3
X108.608Y-113.392
X109.0Y-99.3
X109.1Y-111.3
X109.15Y-115.35
X109.4Y-112.9
X109.587Y-108.286
X109.6Y-109.6
X109.6Y-110.3
X109.6Y-112.2
X110.0Y-94.6
X110.0Y-95.3
X110.0Y-96.0
X110.0Y-114.2
X110.1Y-104.7
X110.115Y-114.9
X110.2Y-96.9
X110.2Y-97.713
X110.2Y-103.7
X110.6Y-113.7
X110.8Y-115.85
X111.0Y-107.0
X111.1Y-96.4
X111.1Y-97.3
X111.1Y-107.7
X111.2Y-100.075
X111.2Y-110.3
X111.213Y-113.313
X111.3Y-101.9
X111.5Y-103.8
X111.7Y-93.2
X111.8Y-105.2
X111.8Y-112.2
X111.9Y-96.1
X111.9Y-110.3
X112.0Y-112.9
X112.0Y-114.2
X112.1Y-94.8
X112.8Y-94.8
X113.0Y-104.775
X113.5Y-94.8
X114.5Y-94.8
X114.55Y-96.65
X114.6Y-98.4
X114.6Y-100.6
X114.6Y-106.919
X114.6Y-111.6
X114.7Y-108.0
X115.05Y-103.5
X115.1Y-112.4
X115.6Y-94.7
X115.8Y-114.7
X116.3Y-113.4
X116.8Y-101.5
X116.8Y-112.0
X116.85Y-104.25
X117.1Y-103.2
X117.3Y-94.9
X117.7Y-104.55
X118.0Y-116.7
X118.1Y-107.0
X118.3Y-101.8
X118.3Y-102.6
X118.4Y-115.4
X118.5Y-93.1
X118.6Y-93.8
X118.7Y-113.6
X118.8Y-107.0
X118.9Y-107.7
X119.05Y-115.7
X119.2Y-98.6
X119.5Y-101.7
X119.7Y-108.6
X120.5Y-96.0
X120.5Y-115.6
X121.275Y-114.175
X121.45Y-104.25
X122.5Y-114.7
X122.8Y-111.9
X123.2Y-93.2
X123.2Y-115.7
X123.7Y-96.0
X124.1Y-115.2
X124.3Y-99.1
X124.3Y-109.6
X124.4Y-93.7
X124.4Y-114.5
X124.6Y-96.2
X125.4Y-93.2
X125.575Y-116.375
X126.25Y-103.5
T2
X117.9Y-114.8
T3
X101.1Y-93.26
X101.1Y-94.26
X101.1Y-95.26
X101.1Y-96.26
X101.167Y-100.125
X101.167Y-101.125
X101.167Y-102.125
X101.167Y-103.125
X101.27Y-106.925
X101.27Y-107.925
X101.27Y-108.925
X101.27Y-109.925
X107.9Y-93.3
X108.9Y-93.3
X113.655Y-93.3
X114.655Y-93.3
X115.75Y-107.5
X115.75Y-108.5
X115.75Y-109.5
X115.75Y-110.5
X115.75Y-111.5
X115.8Y-96.0
X115.8Y-97.0
X115.8Y-98.0
X115.8Y-99.0
X115.8Y-100.0
X119.4Y-93.3
X120.4Y-93.3
X121.6Y-102.9
X121.6Y-105.4
X122.6Y-102.9
X122.6Y-105.4
X124.8Y-102.6
X124.8Y-103.6
X124.8Y-104.6
X124.8Y-105.6
T0
M30
