%TF.GenerationSoftware,KiCad,Pcbnew,7.0.5*%
%TF.CreationDate,2023-06-11T19:33:25+08:00*%
%TF.ProjectId,DiveCAN Head,44697665-4341-44e2-9048-6561642e6b69,rev?*%
%TF.SameCoordinates,Original*%
%TF.FileFunction,Paste,Bot*%
%TF.FilePolarity,Positive*%
%FSLAX46Y46*%
G04 Gerber Fmt 4.6, Leading zero omitted, Abs format (unit mm)*
G04 Created by KiCad (PCBNEW 7.0.5) date 2023-06-11 19:33:25*
%MOMM*%
%LPD*%
G01*
G04 APERTURE LIST*
G04 Aperture macros list*
%AMRoundRect*
0 Rectangle with rounded corners*
0 $1 Rounding radius*
0 $2 $3 $4 $5 $6 $7 $8 $9 X,Y pos of 4 corners*
0 Add a 4 corners polygon primitive as box body*
4,1,4,$2,$3,$4,$5,$6,$7,$8,$9,$2,$3,0*
0 Add four circle primitives for the rounded corners*
1,1,$1+$1,$2,$3*
1,1,$1+$1,$4,$5*
1,1,$1+$1,$6,$7*
1,1,$1+$1,$8,$9*
0 Add four rect primitives between the rounded corners*
20,1,$1+$1,$2,$3,$4,$5,0*
20,1,$1+$1,$4,$5,$6,$7,0*
20,1,$1+$1,$6,$7,$8,$9,0*
20,1,$1+$1,$8,$9,$2,$3,0*%
G04 Aperture macros list end*
%ADD10R,1.750000X0.450000*%
%ADD11RoundRect,0.100000X-0.100000X0.637500X-0.100000X-0.637500X0.100000X-0.637500X0.100000X0.637500X0*%
G04 APERTURE END LIST*
D10*
%TO.C,U10*%
X113300000Y-106450000D03*
X113300000Y-107100000D03*
X113300000Y-107750000D03*
X113300000Y-108400000D03*
X113300000Y-109050000D03*
X113300000Y-109700000D03*
X113300000Y-110350000D03*
X113300000Y-111000000D03*
X113300000Y-111650000D03*
X113300000Y-112300000D03*
X113300000Y-112950000D03*
X113300000Y-113600000D03*
X113300000Y-114250000D03*
X113300000Y-114900000D03*
X106100000Y-114900000D03*
X106100000Y-114250000D03*
X106100000Y-113600000D03*
X106100000Y-112950000D03*
X106100000Y-112300000D03*
X106100000Y-111650000D03*
X106100000Y-111000000D03*
X106100000Y-110350000D03*
X106100000Y-109700000D03*
X106100000Y-109050000D03*
X106100000Y-108400000D03*
X106100000Y-107750000D03*
X106100000Y-107100000D03*
X106100000Y-106450000D03*
%TD*%
D11*
%TO.C,U8*%
X119450000Y-94875000D03*
X120100000Y-94875000D03*
X120750000Y-94875000D03*
X121400000Y-94875000D03*
X122050000Y-94875000D03*
X122700000Y-94875000D03*
X123350000Y-94875000D03*
X124000000Y-94875000D03*
X124650000Y-94875000D03*
X125300000Y-94875000D03*
X125300000Y-100600000D03*
X124650000Y-100600000D03*
X124000000Y-100600000D03*
X123350000Y-100600000D03*
X122700000Y-100600000D03*
X122050000Y-100600000D03*
X121400000Y-100600000D03*
X120750000Y-100600000D03*
X120100000Y-100600000D03*
X119450000Y-100600000D03*
%TD*%
%TO.C,U11*%
X119475000Y-107337500D03*
X120125000Y-107337500D03*
X120775000Y-107337500D03*
X121425000Y-107337500D03*
X122075000Y-107337500D03*
X122725000Y-107337500D03*
X123375000Y-107337500D03*
X124025000Y-107337500D03*
X124675000Y-107337500D03*
X125325000Y-107337500D03*
X125325000Y-113062500D03*
X124675000Y-113062500D03*
X124025000Y-113062500D03*
X123375000Y-113062500D03*
X122725000Y-113062500D03*
X122075000Y-113062500D03*
X121425000Y-113062500D03*
X120775000Y-113062500D03*
X120125000Y-113062500D03*
X119475000Y-113062500D03*
%TD*%
D10*
%TO.C,U7*%
X113300000Y-95375000D03*
X113300000Y-96025000D03*
X113300000Y-96675000D03*
X113300000Y-97325000D03*
X113300000Y-97975000D03*
X113300000Y-98625000D03*
X113300000Y-99275000D03*
X113300000Y-99925000D03*
X113300000Y-100575000D03*
X113300000Y-101225000D03*
X113300000Y-101875000D03*
X113300000Y-102525000D03*
X113300000Y-103175000D03*
X113300000Y-103825000D03*
X106100000Y-103825000D03*
X106100000Y-103175000D03*
X106100000Y-102525000D03*
X106100000Y-101875000D03*
X106100000Y-101225000D03*
X106100000Y-100575000D03*
X106100000Y-99925000D03*
X106100000Y-99275000D03*
X106100000Y-98625000D03*
X106100000Y-97975000D03*
X106100000Y-97325000D03*
X106100000Y-96675000D03*
X106100000Y-96025000D03*
X106100000Y-95375000D03*
%TD*%
M02*
