%TF.GenerationSoftware,KiCad,Pcbnew,7.0.5*%
%TF.CreationDate,2023-06-11T19:33:25+08:00*%
%TF.ProjectId,DiveCAN Head,44697665-4341-44e2-9048-6561642e6b69,rev?*%
%TF.SameCoordinates,Original*%
%TF.FileFunction,Soldermask,Top*%
%TF.FilePolarity,Negative*%
%FSLAX46Y46*%
G04 Gerber Fmt 4.6, Leading zero omitted, Abs format (unit mm)*
G04 Created by KiCad (PCBNEW 7.0.5) date 2023-06-11 19:33:25*
%MOMM*%
%LPD*%
G01*
G04 APERTURE LIST*
G04 Aperture macros list*
%AMRoundRect*
0 Rectangle with rounded corners*
0 $1 Rounding radius*
0 $2 $3 $4 $5 $6 $7 $8 $9 X,Y pos of 4 corners*
0 Add a 4 corners polygon primitive as box body*
4,1,4,$2,$3,$4,$5,$6,$7,$8,$9,$2,$3,0*
0 Add four circle primitives for the rounded corners*
1,1,$1+$1,$2,$3*
1,1,$1+$1,$4,$5*
1,1,$1+$1,$6,$7*
1,1,$1+$1,$8,$9*
0 Add four rect primitives between the rounded corners*
20,1,$1+$1,$2,$3,$4,$5,0*
20,1,$1+$1,$4,$5,$6,$7,0*
20,1,$1+$1,$6,$7,$8,$9,0*
20,1,$1+$1,$8,$9,$2,$3,0*%
%AMFreePoly0*
4,1,21,-0.125000,1.200000,0.125000,1.200000,0.125000,1.700000,0.375000,1.700000,0.375000,1.200000,0.825000,1.200000,0.825000,-1.200000,0.375000,-1.200000,0.375000,-1.700000,0.125000,-1.700000,0.125000,-1.200000,-0.125000,-1.200000,-0.125000,-1.700000,-0.375000,-1.700000,-0.375000,-1.200000,-0.825000,-1.200000,-0.825000,1.200000,-0.375000,1.200000,-0.375000,1.700000,-0.125000,1.700000,
-0.125000,1.200000,-0.125000,1.200000,$1*%
G04 Aperture macros list end*
%ADD10RoundRect,0.135000X-0.135000X-0.185000X0.135000X-0.185000X0.135000X0.185000X-0.135000X0.185000X0*%
%ADD11RoundRect,0.135000X0.135000X0.185000X-0.135000X0.185000X-0.135000X-0.185000X0.135000X-0.185000X0*%
%ADD12RoundRect,0.135000X0.185000X-0.135000X0.185000X0.135000X-0.185000X0.135000X-0.185000X-0.135000X0*%
%ADD13R,0.850000X0.850000*%
%ADD14O,0.850000X0.850000*%
%ADD15R,0.510000X0.400000*%
%ADD16RoundRect,0.225000X0.375000X-0.225000X0.375000X0.225000X-0.375000X0.225000X-0.375000X-0.225000X0*%
%ADD17R,0.600000X0.240000*%
%ADD18FreePoly0,180.000000*%
%ADD19FreePoly0,0.000000*%
%ADD20R,0.700000X0.510000*%
%ADD21RoundRect,0.225000X-0.225000X-0.250000X0.225000X-0.250000X0.225000X0.250000X-0.225000X0.250000X0*%
%ADD22R,2.900000X1.800000*%
%ADD23RoundRect,0.135000X-0.185000X0.135000X-0.185000X-0.135000X0.185000X-0.135000X0.185000X0.135000X0*%
%ADD24RoundRect,0.150000X-0.825000X-0.150000X0.825000X-0.150000X0.825000X0.150000X-0.825000X0.150000X0*%
%ADD25RoundRect,0.112500X-0.187500X-0.112500X0.187500X-0.112500X0.187500X0.112500X-0.187500X0.112500X0*%
%ADD26RoundRect,0.225000X-0.375000X0.225000X-0.375000X-0.225000X0.375000X-0.225000X0.375000X0.225000X0*%
%ADD27R,0.500000X0.630000*%
%ADD28R,2.400000X1.650000*%
%ADD29RoundRect,0.225000X0.225000X0.250000X-0.225000X0.250000X-0.225000X-0.250000X0.225000X-0.250000X0*%
%ADD30RoundRect,0.225000X-0.250000X0.225000X-0.250000X-0.225000X0.250000X-0.225000X0.250000X0.225000X0*%
%ADD31RoundRect,0.225000X0.250000X-0.225000X0.250000X0.225000X-0.250000X0.225000X-0.250000X-0.225000X0*%
G04 APERTURE END LIST*
D10*
%TO.C,R27*%
X111340000Y-115850000D03*
X112360000Y-115850000D03*
%TD*%
D11*
%TO.C,R24*%
X110160000Y-115850000D03*
X109140000Y-115850000D03*
%TD*%
D10*
%TO.C,R23*%
X113190000Y-95500000D03*
X114210000Y-95500000D03*
%TD*%
D12*
%TO.C,R22*%
X114150000Y-101360000D03*
X114150000Y-100340000D03*
%TD*%
D13*
%TO.C,J11*%
X120400000Y-93300000D03*
D14*
X119400000Y-93300000D03*
%TD*%
D13*
%TO.C,J2*%
X108900000Y-93300000D03*
D14*
X107900000Y-93300000D03*
%TD*%
D13*
%TO.C,J1*%
X114655000Y-93300000D03*
D14*
X113655000Y-93300000D03*
%TD*%
D15*
%TO.C,Q1*%
X114155000Y-102350000D03*
X114155000Y-103350000D03*
X115445000Y-102850000D03*
%TD*%
D13*
%TO.C,J3*%
X121600000Y-102900000D03*
D14*
X122600000Y-102900000D03*
%TD*%
D16*
%TO.C,D4*%
X119400000Y-105800000D03*
X119400000Y-102500000D03*
%TD*%
D17*
%TO.C,U16*%
X122025000Y-111200000D03*
X122025000Y-110700000D03*
X122025000Y-110200000D03*
X122025000Y-109700000D03*
X122025000Y-109200000D03*
X119225000Y-109200000D03*
X119225000Y-109700000D03*
X119225000Y-110200000D03*
X119225000Y-110700000D03*
X119225000Y-111200000D03*
D18*
X120625000Y-110200000D03*
%TD*%
D17*
%TO.C,U13*%
X121425000Y-96675000D03*
X121425000Y-97175000D03*
X121425000Y-97675000D03*
X121425000Y-98175000D03*
X121425000Y-98675000D03*
X124225000Y-98675000D03*
X124225000Y-98175000D03*
X124225000Y-97675000D03*
X124225000Y-97175000D03*
X124225000Y-96675000D03*
D19*
X122825000Y-97675000D03*
%TD*%
D20*
%TO.C,U15*%
X123380000Y-113300000D03*
X123380000Y-114250000D03*
X123380000Y-115200000D03*
X125700000Y-115200000D03*
X125700000Y-114250000D03*
X125700000Y-113300000D03*
%TD*%
D11*
%TO.C,R5*%
X112210000Y-93700000D03*
X111190000Y-93700000D03*
%TD*%
D21*
%TO.C,C17*%
X119625000Y-113200000D03*
X121175000Y-113200000D03*
%TD*%
%TO.C,C14*%
X120500000Y-107450000D03*
X122050000Y-107450000D03*
%TD*%
%TO.C,C2*%
X103042497Y-99800000D03*
X104592497Y-99800000D03*
%TD*%
D22*
%TO.C,L1*%
X118825000Y-97200000D03*
X118825000Y-100400000D03*
%TD*%
D23*
%TO.C,R48*%
X121800000Y-92590000D03*
X121800000Y-93610000D03*
%TD*%
D10*
%TO.C,R20*%
X112890000Y-113500000D03*
X113910000Y-113500000D03*
%TD*%
%TO.C,R40*%
X108990000Y-105500000D03*
X110010000Y-105500000D03*
%TD*%
D11*
%TO.C,R36*%
X105830000Y-112200000D03*
X104810000Y-112200000D03*
%TD*%
D24*
%TO.C,U12*%
X107450000Y-107095000D03*
X107450000Y-108365000D03*
X107450000Y-109635000D03*
X107450000Y-110905000D03*
X112400000Y-110905000D03*
X112400000Y-109635000D03*
X112400000Y-108365000D03*
X112400000Y-107095000D03*
%TD*%
D23*
%TO.C,R4*%
X110300000Y-92590000D03*
X110300000Y-93610000D03*
%TD*%
D10*
%TO.C,R11*%
X110890000Y-95500000D03*
X111910000Y-95500000D03*
%TD*%
D21*
%TO.C,C4*%
X107325000Y-95200000D03*
X108875000Y-95200000D03*
%TD*%
D12*
%TO.C,R10*%
X107500000Y-102910000D03*
X107500000Y-101890000D03*
%TD*%
D10*
%TO.C,R19*%
X112890000Y-112500000D03*
X113910000Y-112500000D03*
%TD*%
D25*
%TO.C,D3*%
X114950000Y-115700000D03*
X117050000Y-115700000D03*
%TD*%
D11*
%TO.C,R50*%
X123710000Y-92700000D03*
X122690000Y-92700000D03*
%TD*%
D10*
%TO.C,R21*%
X112890000Y-114500000D03*
X113910000Y-114500000D03*
%TD*%
D26*
%TO.C,D1*%
X117100000Y-102450000D03*
X117100000Y-105750000D03*
%TD*%
D23*
%TO.C,R39*%
X114100000Y-97890000D03*
X114100000Y-98910000D03*
%TD*%
D10*
%TO.C,R25*%
X102639999Y-98535000D03*
X103659999Y-98535000D03*
%TD*%
D23*
%TO.C,R1*%
X116055000Y-92590000D03*
X116055000Y-93610000D03*
%TD*%
D13*
%TO.C,J7*%
X101270001Y-106925000D03*
D14*
X101270001Y-107925000D03*
X101270001Y-108925000D03*
X101270001Y-109925000D03*
%TD*%
D23*
%TO.C,R38*%
X111000000Y-102690000D03*
X111000000Y-103710000D03*
%TD*%
%TO.C,R9*%
X101200000Y-111990000D03*
X101200000Y-113010000D03*
%TD*%
D27*
%TO.C,U6*%
X103350000Y-111000000D03*
X103990000Y-111000000D03*
X104650000Y-111000000D03*
X105290000Y-111000000D03*
D28*
X104320000Y-109600000D03*
D27*
X105295000Y-108200000D03*
X104640000Y-108200000D03*
X104000000Y-108200000D03*
X103350000Y-108200000D03*
%TD*%
D29*
%TO.C,C12*%
X123000000Y-100675000D03*
X121450000Y-100675000D03*
%TD*%
D22*
%TO.C,L2*%
X124775000Y-111300000D03*
X124775000Y-108100000D03*
%TD*%
D13*
%TO.C,J5*%
X101100000Y-93260000D03*
D14*
X101100000Y-94260000D03*
X101100000Y-95260000D03*
X101100000Y-96260000D03*
%TD*%
D10*
%TO.C,R14*%
X113210000Y-103000000D03*
X112190000Y-103000000D03*
%TD*%
D15*
%TO.C,Q2*%
X114150000Y-104500000D03*
X114150000Y-105500000D03*
X115440000Y-105000000D03*
%TD*%
D30*
%TO.C,C8*%
X104200000Y-113925000D03*
X104200000Y-115475000D03*
%TD*%
D10*
%TO.C,R15*%
X113210000Y-104100000D03*
X112190000Y-104100000D03*
%TD*%
D11*
%TO.C,R26*%
X105659999Y-98535000D03*
X104639999Y-98535000D03*
%TD*%
D13*
%TO.C,J6*%
X101167498Y-100125000D03*
D14*
X101167498Y-101125000D03*
X101167498Y-102125000D03*
X101167498Y-103125000D03*
%TD*%
D11*
%TO.C,R2*%
X117965000Y-93700000D03*
X116945000Y-93700000D03*
%TD*%
D12*
%TO.C,R46*%
X125650000Y-100685000D03*
X125650000Y-99665000D03*
%TD*%
D27*
%TO.C,U2*%
X103179999Y-97335000D03*
X103819999Y-97335000D03*
X104479999Y-97335000D03*
X105119999Y-97335000D03*
D28*
X104149999Y-95935000D03*
D27*
X105124999Y-94535000D03*
X104469999Y-94535000D03*
X103829999Y-94535000D03*
X103179999Y-94535000D03*
%TD*%
D25*
%TO.C,D2*%
X114950000Y-113700000D03*
X117050000Y-113700000D03*
%TD*%
D10*
%TO.C,R30*%
X102707497Y-105400000D03*
X103727497Y-105400000D03*
%TD*%
D21*
%TO.C,C13*%
X121300000Y-94950000D03*
X122850000Y-94950000D03*
%TD*%
D27*
%TO.C,U4*%
X103247497Y-104200000D03*
X103887497Y-104200000D03*
X104547497Y-104200000D03*
X105187497Y-104200000D03*
D28*
X104217497Y-102800000D03*
D27*
X105192497Y-101400000D03*
X104537497Y-101400000D03*
X103897497Y-101400000D03*
X103247497Y-101400000D03*
%TD*%
D29*
%TO.C,C16*%
X119775000Y-95200000D03*
X118225000Y-95200000D03*
%TD*%
D13*
%TO.C,J4*%
X124800000Y-102600000D03*
D14*
X124800000Y-103600000D03*
X124800000Y-104600000D03*
X124800000Y-105600000D03*
%TD*%
D10*
%TO.C,R18*%
X105390000Y-115700000D03*
X106410000Y-115700000D03*
%TD*%
D11*
%TO.C,R16*%
X108610000Y-112200000D03*
X107590000Y-112200000D03*
%TD*%
D23*
%TO.C,R42*%
X114100000Y-108490000D03*
X114100000Y-109510000D03*
%TD*%
D10*
%TO.C,R7*%
X100490000Y-98400000D03*
X101510000Y-98400000D03*
%TD*%
D21*
%TO.C,C1*%
X102974999Y-92935000D03*
X104524999Y-92935000D03*
%TD*%
D11*
%TO.C,R3*%
X117965000Y-92700000D03*
X116945000Y-92700000D03*
%TD*%
D10*
%TO.C,R37*%
X108990000Y-102800000D03*
X110010000Y-102800000D03*
%TD*%
D24*
%TO.C,U9*%
X107425000Y-96795000D03*
X107425000Y-98065000D03*
X107425000Y-99335000D03*
X107425000Y-100605000D03*
X112375000Y-100605000D03*
X112375000Y-99335000D03*
X112375000Y-98065000D03*
X112375000Y-96795000D03*
%TD*%
D10*
%TO.C,R13*%
X112190000Y-101900000D03*
X113210000Y-101900000D03*
%TD*%
%TO.C,R8*%
X100390000Y-105400000D03*
X101410000Y-105400000D03*
%TD*%
%TO.C,R35*%
X102810000Y-112200000D03*
X103830000Y-112200000D03*
%TD*%
D11*
%TO.C,R6*%
X112210000Y-92700000D03*
X111190000Y-92700000D03*
%TD*%
D31*
%TO.C,C15*%
X117775000Y-111975000D03*
X117775000Y-110425000D03*
%TD*%
D23*
%TO.C,R47*%
X117775000Y-107690000D03*
X117775000Y-108710000D03*
%TD*%
D30*
%TO.C,C18*%
X125575000Y-96400000D03*
X125575000Y-97950000D03*
%TD*%
D12*
%TO.C,R41*%
X111000000Y-105610000D03*
X111000000Y-104590000D03*
%TD*%
D10*
%TO.C,R17*%
X111890000Y-105800000D03*
X112910000Y-105800000D03*
%TD*%
D13*
%TO.C,J8*%
X115800000Y-96000000D03*
D14*
X115800000Y-97000000D03*
X115800000Y-98000000D03*
X115800000Y-99000000D03*
X115800000Y-100000000D03*
%TD*%
D13*
%TO.C,J9*%
X115750000Y-107500000D03*
D14*
X115750000Y-108500000D03*
X115750000Y-109500000D03*
X115750000Y-110500000D03*
X115750000Y-111500000D03*
%TD*%
%TO.C,J10*%
X122600000Y-105400000D03*
D13*
X121600000Y-105400000D03*
%TD*%
D21*
%TO.C,C3*%
X103145000Y-106600000D03*
X104695000Y-106600000D03*
%TD*%
%TO.C,C19*%
X119725000Y-115000000D03*
X121275000Y-115000000D03*
%TD*%
D11*
%TO.C,R49*%
X123710000Y-93700000D03*
X122690000Y-93700000D03*
%TD*%
D12*
%TO.C,R12*%
X107500000Y-104810000D03*
X107500000Y-103790000D03*
%TD*%
D11*
%TO.C,R31*%
X105727497Y-105400000D03*
X104707497Y-105400000D03*
%TD*%
M02*
