%TF.GenerationSoftware,KiCad,Pcbnew,7.0.5*%
%TF.CreationDate,2023-06-11T19:33:25+08:00*%
%TF.ProjectId,DiveCAN Head,44697665-4341-44e2-9048-6561642e6b69,rev?*%
%TF.SameCoordinates,Original*%
%TF.FileFunction,Legend,Top*%
%TF.FilePolarity,Positive*%
%FSLAX46Y46*%
G04 Gerber Fmt 4.6, Leading zero omitted, Abs format (unit mm)*
G04 Created by KiCad (PCBNEW 7.0.5) date 2023-06-11 19:33:25*
%MOMM*%
%LPD*%
G01*
G04 APERTURE LIST*
G04 Aperture macros list*
%AMRoundRect*
0 Rectangle with rounded corners*
0 $1 Rounding radius*
0 $2 $3 $4 $5 $6 $7 $8 $9 X,Y pos of 4 corners*
0 Add a 4 corners polygon primitive as box body*
4,1,4,$2,$3,$4,$5,$6,$7,$8,$9,$2,$3,0*
0 Add four circle primitives for the rounded corners*
1,1,$1+$1,$2,$3*
1,1,$1+$1,$4,$5*
1,1,$1+$1,$6,$7*
1,1,$1+$1,$8,$9*
0 Add four rect primitives between the rounded corners*
20,1,$1+$1,$2,$3,$4,$5,0*
20,1,$1+$1,$4,$5,$6,$7,0*
20,1,$1+$1,$6,$7,$8,$9,0*
20,1,$1+$1,$8,$9,$2,$3,0*%
%AMFreePoly0*
4,1,21,-0.125000,1.200000,0.125000,1.200000,0.125000,1.700000,0.375000,1.700000,0.375000,1.200000,0.825000,1.200000,0.825000,-1.200000,0.375000,-1.200000,0.375000,-1.700000,0.125000,-1.700000,0.125000,-1.200000,-0.125000,-1.200000,-0.125000,-1.700000,-0.375000,-1.700000,-0.375000,-1.200000,-0.825000,-1.200000,-0.825000,1.200000,-0.375000,1.200000,-0.375000,1.700000,-0.125000,1.700000,
-0.125000,1.200000,-0.125000,1.200000,$1*%
G04 Aperture macros list end*
%ADD10C,0.120000*%
%ADD11RoundRect,0.135000X-0.135000X-0.185000X0.135000X-0.185000X0.135000X0.185000X-0.135000X0.185000X0*%
%ADD12RoundRect,0.135000X0.135000X0.185000X-0.135000X0.185000X-0.135000X-0.185000X0.135000X-0.185000X0*%
%ADD13RoundRect,0.135000X0.185000X-0.135000X0.185000X0.135000X-0.185000X0.135000X-0.185000X-0.135000X0*%
%ADD14R,0.850000X0.850000*%
%ADD15O,0.850000X0.850000*%
%ADD16R,0.510000X0.400000*%
%ADD17RoundRect,0.225000X0.375000X-0.225000X0.375000X0.225000X-0.375000X0.225000X-0.375000X-0.225000X0*%
%ADD18R,0.600000X0.240000*%
%ADD19FreePoly0,180.000000*%
%ADD20FreePoly0,0.000000*%
%ADD21R,0.700000X0.510000*%
%ADD22RoundRect,0.225000X-0.225000X-0.250000X0.225000X-0.250000X0.225000X0.250000X-0.225000X0.250000X0*%
%ADD23R,2.900000X1.800000*%
%ADD24RoundRect,0.135000X-0.185000X0.135000X-0.185000X-0.135000X0.185000X-0.135000X0.185000X0.135000X0*%
%ADD25RoundRect,0.150000X-0.825000X-0.150000X0.825000X-0.150000X0.825000X0.150000X-0.825000X0.150000X0*%
%ADD26RoundRect,0.112500X-0.187500X-0.112500X0.187500X-0.112500X0.187500X0.112500X-0.187500X0.112500X0*%
%ADD27RoundRect,0.225000X-0.375000X0.225000X-0.375000X-0.225000X0.375000X-0.225000X0.375000X0.225000X0*%
%ADD28R,0.500000X0.630000*%
%ADD29R,2.400000X1.650000*%
%ADD30RoundRect,0.225000X0.225000X0.250000X-0.225000X0.250000X-0.225000X-0.250000X0.225000X-0.250000X0*%
%ADD31RoundRect,0.225000X-0.250000X0.225000X-0.250000X-0.225000X0.250000X-0.225000X0.250000X0.225000X0*%
%ADD32RoundRect,0.225000X0.250000X-0.225000X0.250000X0.225000X-0.250000X0.225000X-0.250000X-0.225000X0*%
G04 APERTURE END LIST*
D10*
%TO.C,R27*%
X111696359Y-115470000D02*
X112003641Y-115470000D01*
X111696359Y-116230000D02*
X112003641Y-116230000D01*
%TO.C,R24*%
X109803641Y-116230000D02*
X109496359Y-116230000D01*
X109803641Y-115470000D02*
X109496359Y-115470000D01*
%TO.C,R23*%
X113546359Y-95120000D02*
X113853641Y-95120000D01*
X113546359Y-95880000D02*
X113853641Y-95880000D01*
%TO.C,R22*%
X113770000Y-101003641D02*
X113770000Y-100696359D01*
X114530000Y-101003641D02*
X114530000Y-100696359D01*
%TO.C,J11*%
X121085000Y-92605000D02*
X121085000Y-93300000D01*
X120400000Y-92605000D02*
X121085000Y-92605000D01*
X119715000Y-92605000D02*
X118840000Y-92605000D01*
X119715000Y-92605000D02*
X119715000Y-92691724D01*
X118840000Y-92605000D02*
X118840000Y-92905507D01*
X118840000Y-93694493D02*
X118840000Y-93995000D01*
X119715000Y-93908276D02*
X119715000Y-93995000D01*
X119715000Y-93995000D02*
X118840000Y-93995000D01*
%TO.C,J2*%
X109585000Y-92605000D02*
X109585000Y-93300000D01*
X108900000Y-92605000D02*
X109585000Y-92605000D01*
X108215000Y-92605000D02*
X107340000Y-92605000D01*
X108215000Y-92605000D02*
X108215000Y-92691724D01*
X107340000Y-92605000D02*
X107340000Y-92905507D01*
X107340000Y-93694493D02*
X107340000Y-93995000D01*
X108215000Y-93908276D02*
X108215000Y-93995000D01*
X108215000Y-93995000D02*
X107340000Y-93995000D01*
%TO.C,J1*%
X115340000Y-92605000D02*
X115340000Y-93300000D01*
X114655000Y-92605000D02*
X115340000Y-92605000D01*
X113970000Y-92605000D02*
X113095000Y-92605000D01*
X113970000Y-92605000D02*
X113970000Y-92691724D01*
X113095000Y-92605000D02*
X113095000Y-92905507D01*
X113095000Y-93694493D02*
X113095000Y-93995000D01*
X113970000Y-93908276D02*
X113970000Y-93995000D01*
X113970000Y-93995000D02*
X113095000Y-93995000D01*
%TO.C,Q1*%
X113800000Y-101950000D02*
X115450000Y-101950000D01*
X115450000Y-103750000D02*
X114150000Y-103750000D01*
%TO.C,J3*%
X122285000Y-103595000D02*
X122285000Y-103508276D01*
X120915000Y-103595000D02*
X120915000Y-102900000D01*
X122285000Y-103595000D02*
X123160000Y-103595000D01*
X123160000Y-103595000D02*
X123160000Y-103294493D01*
X122285000Y-102291724D02*
X122285000Y-102205000D01*
X123160000Y-102505507D02*
X123160000Y-102205000D01*
X121600000Y-103595000D02*
X120915000Y-103595000D01*
X122285000Y-102205000D02*
X123160000Y-102205000D01*
%TO.C,D4*%
X120400000Y-106510000D02*
X120400000Y-102500000D01*
X118400000Y-106510000D02*
X118400000Y-102500000D01*
X118400000Y-106510000D02*
X120400000Y-106510000D01*
%TO.C,U16*%
X122235000Y-108820000D02*
X122235000Y-108590000D01*
X119990000Y-108590000D02*
X119015000Y-108590000D01*
X119990000Y-111810000D02*
X119015000Y-111810000D01*
X119015000Y-108820000D02*
X119015000Y-108590000D01*
X119015000Y-111810000D02*
X119015000Y-111580000D01*
X122235000Y-108590000D02*
X121260000Y-108590000D01*
X122265000Y-111810000D02*
X121260000Y-111810000D01*
%TO.C,U13*%
X121215000Y-99055000D02*
X121215000Y-99285000D01*
X123460000Y-99285000D02*
X124435000Y-99285000D01*
X123460000Y-96065000D02*
X124435000Y-96065000D01*
X124435000Y-99055000D02*
X124435000Y-99285000D01*
X124435000Y-96065000D02*
X124435000Y-96295000D01*
X121215000Y-99285000D02*
X122190000Y-99285000D01*
X121185000Y-96065000D02*
X122190000Y-96065000D01*
%TO.C,U15*%
X125340000Y-112650000D02*
X123040000Y-112650000D01*
X123740000Y-115850000D02*
X125340000Y-115850000D01*
%TO.C,R5*%
X111853641Y-94080000D02*
X111546359Y-94080000D01*
X111853641Y-93320000D02*
X111546359Y-93320000D01*
%TO.C,C17*%
X120259420Y-112690000D02*
X120540580Y-112690000D01*
X120259420Y-113710000D02*
X120540580Y-113710000D01*
%TO.C,C14*%
X121134420Y-106940000D02*
X121415580Y-106940000D01*
X121134420Y-107960000D02*
X121415580Y-107960000D01*
%TO.C,C2*%
X103676917Y-99290000D02*
X103958077Y-99290000D01*
X103676917Y-100310000D02*
X103958077Y-100310000D01*
%TO.C,L1*%
X120425000Y-96300000D02*
X120425000Y-101300000D01*
X117225000Y-96300000D02*
X117225000Y-101300000D01*
%TO.C,R48*%
X122180000Y-92946359D02*
X122180000Y-93253641D01*
X121420000Y-92946359D02*
X121420000Y-93253641D01*
%TO.C,R20*%
X113246359Y-113120000D02*
X113553641Y-113120000D01*
X113246359Y-113880000D02*
X113553641Y-113880000D01*
%TO.C,R40*%
X109346359Y-105120000D02*
X109653641Y-105120000D01*
X109346359Y-105880000D02*
X109653641Y-105880000D01*
%TO.C,R36*%
X105473641Y-112580000D02*
X105166359Y-112580000D01*
X105473641Y-111820000D02*
X105166359Y-111820000D01*
%TO.C,U12*%
X109925000Y-106440000D02*
X106475000Y-106440000D01*
X109925000Y-106440000D02*
X111875000Y-106440000D01*
X109925000Y-111560000D02*
X107975000Y-111560000D01*
X109925000Y-111560000D02*
X111875000Y-111560000D01*
%TO.C,R4*%
X110680000Y-92946359D02*
X110680000Y-93253641D01*
X109920000Y-92946359D02*
X109920000Y-93253641D01*
%TO.C,R11*%
X111246359Y-95120000D02*
X111553641Y-95120000D01*
X111246359Y-95880000D02*
X111553641Y-95880000D01*
%TO.C,C4*%
X107959420Y-94690000D02*
X108240580Y-94690000D01*
X107959420Y-95710000D02*
X108240580Y-95710000D01*
%TO.C,R10*%
X107120000Y-102553641D02*
X107120000Y-102246359D01*
X107880000Y-102553641D02*
X107880000Y-102246359D01*
%TO.C,R19*%
X113246359Y-112120000D02*
X113553641Y-112120000D01*
X113246359Y-112880000D02*
X113553641Y-112880000D01*
%TO.C,D3*%
X114390000Y-114850000D02*
X114390000Y-116550000D01*
X114390000Y-114850000D02*
X117050000Y-114850000D01*
X114390000Y-116550000D02*
X117050000Y-116550000D01*
%TO.C,R50*%
X123353641Y-93080000D02*
X123046359Y-93080000D01*
X123353641Y-92320000D02*
X123046359Y-92320000D01*
%TO.C,R21*%
X113246359Y-114120000D02*
X113553641Y-114120000D01*
X113246359Y-114880000D02*
X113553641Y-114880000D01*
%TO.C,D1*%
X118100000Y-101740000D02*
X116100000Y-101740000D01*
X118100000Y-101740000D02*
X118100000Y-105750000D01*
X116100000Y-101740000D02*
X116100000Y-105750000D01*
%TO.C,R39*%
X114480000Y-98246359D02*
X114480000Y-98553641D01*
X113720000Y-98246359D02*
X113720000Y-98553641D01*
%TO.C,R25*%
X102996358Y-98155000D02*
X103303640Y-98155000D01*
X102996358Y-98915000D02*
X103303640Y-98915000D01*
%TO.C,R1*%
X116435000Y-92946359D02*
X116435000Y-93253641D01*
X115675000Y-92946359D02*
X115675000Y-93253641D01*
%TO.C,J7*%
X100575001Y-106240000D02*
X101270001Y-106240000D01*
X100575001Y-106925000D02*
X100575001Y-106240000D01*
X100575001Y-107610000D02*
X100575001Y-110485000D01*
X100575001Y-107610000D02*
X100661725Y-107610000D01*
X100575001Y-110485000D02*
X100875508Y-110485000D01*
X101664494Y-110485000D02*
X101965001Y-110485000D01*
X101878277Y-107610000D02*
X101965001Y-107610000D01*
X101965001Y-107610000D02*
X101965001Y-110485000D01*
%TO.C,R38*%
X111380000Y-103046359D02*
X111380000Y-103353641D01*
X110620000Y-103046359D02*
X110620000Y-103353641D01*
%TO.C,R9*%
X101580000Y-112346359D02*
X101580000Y-112653641D01*
X100820000Y-112346359D02*
X100820000Y-112653641D01*
%TO.C,U6*%
X102520000Y-111500000D02*
X102520000Y-108370000D01*
X106120000Y-110830000D02*
X106120000Y-108370000D01*
%TO.C,C12*%
X122365580Y-101185000D02*
X122084420Y-101185000D01*
X122365580Y-100165000D02*
X122084420Y-100165000D01*
%TO.C,L2*%
X123175000Y-112200000D02*
X123175000Y-107200000D01*
X126375000Y-112200000D02*
X126375000Y-107200000D01*
%TO.C,J5*%
X100405000Y-92575000D02*
X101100000Y-92575000D01*
X100405000Y-93260000D02*
X100405000Y-92575000D01*
X100405000Y-93945000D02*
X100405000Y-96820000D01*
X100405000Y-93945000D02*
X100491724Y-93945000D01*
X100405000Y-96820000D02*
X100705507Y-96820000D01*
X101494493Y-96820000D02*
X101795000Y-96820000D01*
X101708276Y-93945000D02*
X101795000Y-93945000D01*
X101795000Y-93945000D02*
X101795000Y-96820000D01*
%TO.C,R14*%
X112546359Y-103380000D02*
X112853641Y-103380000D01*
X112546359Y-102620000D02*
X112853641Y-102620000D01*
%TO.C,Q2*%
X113795000Y-104100000D02*
X115445000Y-104100000D01*
X115445000Y-105900000D02*
X114145000Y-105900000D01*
%TO.C,C8*%
X104710000Y-114559420D02*
X104710000Y-114840580D01*
X103690000Y-114559420D02*
X103690000Y-114840580D01*
%TO.C,R15*%
X112546359Y-104480000D02*
X112853641Y-104480000D01*
X112546359Y-103720000D02*
X112853641Y-103720000D01*
%TO.C,R26*%
X105303640Y-98915000D02*
X104996358Y-98915000D01*
X105303640Y-98155000D02*
X104996358Y-98155000D01*
%TO.C,J6*%
X100472498Y-99440000D02*
X101167498Y-99440000D01*
X100472498Y-100125000D02*
X100472498Y-99440000D01*
X100472498Y-100810000D02*
X100472498Y-103685000D01*
X100472498Y-100810000D02*
X100559222Y-100810000D01*
X100472498Y-103685000D02*
X100773005Y-103685000D01*
X101561991Y-103685000D02*
X101862498Y-103685000D01*
X101775774Y-100810000D02*
X101862498Y-100810000D01*
X101862498Y-100810000D02*
X101862498Y-103685000D01*
%TO.C,R2*%
X117608641Y-94080000D02*
X117301359Y-94080000D01*
X117608641Y-93320000D02*
X117301359Y-93320000D01*
%TO.C,R46*%
X125270000Y-100328641D02*
X125270000Y-100021359D01*
X126030000Y-100328641D02*
X126030000Y-100021359D01*
%TO.C,U2*%
X102349999Y-97835000D02*
X102349999Y-94705000D01*
X105949999Y-97165000D02*
X105949999Y-94705000D01*
%TO.C,D2*%
X114390000Y-112850000D02*
X114390000Y-114550000D01*
X114390000Y-112850000D02*
X117050000Y-112850000D01*
X114390000Y-114550000D02*
X117050000Y-114550000D01*
%TO.C,R30*%
X103063856Y-105020000D02*
X103371138Y-105020000D01*
X103063856Y-105780000D02*
X103371138Y-105780000D01*
%TO.C,C13*%
X121934420Y-94440000D02*
X122215580Y-94440000D01*
X121934420Y-95460000D02*
X122215580Y-95460000D01*
%TO.C,U4*%
X102417497Y-104700000D02*
X102417497Y-101570000D01*
X106017497Y-104030000D02*
X106017497Y-101570000D01*
%TO.C,C16*%
X119140580Y-95710000D02*
X118859420Y-95710000D01*
X119140580Y-94690000D02*
X118859420Y-94690000D01*
%TO.C,J4*%
X124105000Y-101915000D02*
X124800000Y-101915000D01*
X124105000Y-102600000D02*
X124105000Y-101915000D01*
X124105000Y-103285000D02*
X124105000Y-106160000D01*
X124105000Y-103285000D02*
X124191724Y-103285000D01*
X124105000Y-106160000D02*
X124405507Y-106160000D01*
X125194493Y-106160000D02*
X125495000Y-106160000D01*
X125408276Y-103285000D02*
X125495000Y-103285000D01*
X125495000Y-103285000D02*
X125495000Y-106160000D01*
%TO.C,R18*%
X105746359Y-115320000D02*
X106053641Y-115320000D01*
X105746359Y-116080000D02*
X106053641Y-116080000D01*
%TO.C,R16*%
X108253641Y-112580000D02*
X107946359Y-112580000D01*
X108253641Y-111820000D02*
X107946359Y-111820000D01*
%TO.C,R42*%
X114480000Y-108846359D02*
X114480000Y-109153641D01*
X113720000Y-108846359D02*
X113720000Y-109153641D01*
%TO.C,R7*%
X100846359Y-98020000D02*
X101153641Y-98020000D01*
X100846359Y-98780000D02*
X101153641Y-98780000D01*
%TO.C,C1*%
X103609419Y-92425000D02*
X103890579Y-92425000D01*
X103609419Y-93445000D02*
X103890579Y-93445000D01*
%TO.C,R3*%
X117608641Y-93080000D02*
X117301359Y-93080000D01*
X117608641Y-92320000D02*
X117301359Y-92320000D01*
%TO.C,R37*%
X109346359Y-102420000D02*
X109653641Y-102420000D01*
X109346359Y-103180000D02*
X109653641Y-103180000D01*
%TO.C,U9*%
X109900000Y-96140000D02*
X106450000Y-96140000D01*
X109900000Y-96140000D02*
X111850000Y-96140000D01*
X109900000Y-101260000D02*
X107950000Y-101260000D01*
X109900000Y-101260000D02*
X111850000Y-101260000D01*
%TO.C,R13*%
X112546359Y-101520000D02*
X112853641Y-101520000D01*
X112546359Y-102280000D02*
X112853641Y-102280000D01*
%TO.C,R8*%
X100746359Y-105020000D02*
X101053641Y-105020000D01*
X100746359Y-105780000D02*
X101053641Y-105780000D01*
%TO.C,R35*%
X103166359Y-111820000D02*
X103473641Y-111820000D01*
X103166359Y-112580000D02*
X103473641Y-112580000D01*
%TO.C,R6*%
X111853641Y-93080000D02*
X111546359Y-93080000D01*
X111853641Y-92320000D02*
X111546359Y-92320000D01*
%TO.C,C15*%
X117265000Y-111340580D02*
X117265000Y-111059420D01*
X118285000Y-111340580D02*
X118285000Y-111059420D01*
%TO.C,R47*%
X118155000Y-108046359D02*
X118155000Y-108353641D01*
X117395000Y-108046359D02*
X117395000Y-108353641D01*
%TO.C,C18*%
X126085000Y-97034420D02*
X126085000Y-97315580D01*
X125065000Y-97034420D02*
X125065000Y-97315580D01*
%TO.C,R41*%
X110620000Y-105253641D02*
X110620000Y-104946359D01*
X111380000Y-105253641D02*
X111380000Y-104946359D01*
%TO.C,R17*%
X112246359Y-105420000D02*
X112553641Y-105420000D01*
X112246359Y-106180000D02*
X112553641Y-106180000D01*
%TO.C,J8*%
X115105000Y-95315000D02*
X115800000Y-95315000D01*
X115105000Y-96000000D02*
X115105000Y-95315000D01*
X115105000Y-96685000D02*
X115105000Y-100560000D01*
X115105000Y-96685000D02*
X115191724Y-96685000D01*
X115105000Y-100560000D02*
X115405507Y-100560000D01*
X116194493Y-100560000D02*
X116495000Y-100560000D01*
X116408276Y-96685000D02*
X116495000Y-96685000D01*
X116495000Y-96685000D02*
X116495000Y-100560000D01*
%TO.C,J9*%
X115055000Y-106815000D02*
X115750000Y-106815000D01*
X115055000Y-107500000D02*
X115055000Y-106815000D01*
X115055000Y-108185000D02*
X115055000Y-112060000D01*
X115055000Y-108185000D02*
X115141724Y-108185000D01*
X115055000Y-112060000D02*
X115355507Y-112060000D01*
X116144493Y-112060000D02*
X116445000Y-112060000D01*
X116358276Y-108185000D02*
X116445000Y-108185000D01*
X116445000Y-108185000D02*
X116445000Y-112060000D01*
%TO.C,J10*%
X122285000Y-104705000D02*
X123160000Y-104705000D01*
X122285000Y-104791724D02*
X122285000Y-104705000D01*
X123160000Y-105005507D02*
X123160000Y-104705000D01*
X123160000Y-106095000D02*
X123160000Y-105794493D01*
X122285000Y-106095000D02*
X122285000Y-106008276D01*
X122285000Y-106095000D02*
X123160000Y-106095000D01*
X121600000Y-106095000D02*
X120915000Y-106095000D01*
X120915000Y-106095000D02*
X120915000Y-105400000D01*
%TO.C,C3*%
X103779420Y-106090000D02*
X104060580Y-106090000D01*
X103779420Y-107110000D02*
X104060580Y-107110000D01*
%TO.C,C19*%
X120359420Y-114490000D02*
X120640580Y-114490000D01*
X120359420Y-115510000D02*
X120640580Y-115510000D01*
%TO.C,R49*%
X123353641Y-94080000D02*
X123046359Y-94080000D01*
X123353641Y-93320000D02*
X123046359Y-93320000D01*
%TO.C,R12*%
X107120000Y-104453641D02*
X107120000Y-104146359D01*
X107880000Y-104453641D02*
X107880000Y-104146359D01*
%TO.C,R31*%
X105371138Y-105780000D02*
X105063856Y-105780000D01*
X105371138Y-105020000D02*
X105063856Y-105020000D01*
%TD*%
%LPC*%
D11*
%TO.C,R27*%
X111340000Y-115850000D03*
X112360000Y-115850000D03*
%TD*%
D12*
%TO.C,R24*%
X110160000Y-115850000D03*
X109140000Y-115850000D03*
%TD*%
D11*
%TO.C,R23*%
X113190000Y-95500000D03*
X114210000Y-95500000D03*
%TD*%
D13*
%TO.C,R22*%
X114150000Y-101360000D03*
X114150000Y-100340000D03*
%TD*%
D14*
%TO.C,J11*%
X120400000Y-93300000D03*
D15*
X119400000Y-93300000D03*
%TD*%
D14*
%TO.C,J2*%
X108900000Y-93300000D03*
D15*
X107900000Y-93300000D03*
%TD*%
D14*
%TO.C,J1*%
X114655000Y-93300000D03*
D15*
X113655000Y-93300000D03*
%TD*%
D16*
%TO.C,Q1*%
X114155000Y-102350000D03*
X114155000Y-103350000D03*
X115445000Y-102850000D03*
%TD*%
D14*
%TO.C,J3*%
X121600000Y-102900000D03*
D15*
X122600000Y-102900000D03*
%TD*%
D17*
%TO.C,D4*%
X119400000Y-105800000D03*
X119400000Y-102500000D03*
%TD*%
D18*
%TO.C,U16*%
X122025000Y-111200000D03*
X122025000Y-110700000D03*
X122025000Y-110200000D03*
X122025000Y-109700000D03*
X122025000Y-109200000D03*
X119225000Y-109200000D03*
X119225000Y-109700000D03*
X119225000Y-110200000D03*
X119225000Y-110700000D03*
X119225000Y-111200000D03*
D19*
X120625000Y-110200000D03*
%TD*%
D18*
%TO.C,U13*%
X121425000Y-96675000D03*
X121425000Y-97175000D03*
X121425000Y-97675000D03*
X121425000Y-98175000D03*
X121425000Y-98675000D03*
X124225000Y-98675000D03*
X124225000Y-98175000D03*
X124225000Y-97675000D03*
X124225000Y-97175000D03*
X124225000Y-96675000D03*
D20*
X122825000Y-97675000D03*
%TD*%
D21*
%TO.C,U15*%
X123380000Y-113300000D03*
X123380000Y-114250000D03*
X123380000Y-115200000D03*
X125700000Y-115200000D03*
X125700000Y-114250000D03*
X125700000Y-113300000D03*
%TD*%
D12*
%TO.C,R5*%
X112210000Y-93700000D03*
X111190000Y-93700000D03*
%TD*%
D22*
%TO.C,C17*%
X119625000Y-113200000D03*
X121175000Y-113200000D03*
%TD*%
%TO.C,C14*%
X120500000Y-107450000D03*
X122050000Y-107450000D03*
%TD*%
%TO.C,C2*%
X103042497Y-99800000D03*
X104592497Y-99800000D03*
%TD*%
D23*
%TO.C,L1*%
X118825000Y-97200000D03*
X118825000Y-100400000D03*
%TD*%
D24*
%TO.C,R48*%
X121800000Y-92590000D03*
X121800000Y-93610000D03*
%TD*%
D11*
%TO.C,R20*%
X112890000Y-113500000D03*
X113910000Y-113500000D03*
%TD*%
%TO.C,R40*%
X108990000Y-105500000D03*
X110010000Y-105500000D03*
%TD*%
D12*
%TO.C,R36*%
X105830000Y-112200000D03*
X104810000Y-112200000D03*
%TD*%
D25*
%TO.C,U12*%
X107450000Y-107095000D03*
X107450000Y-108365000D03*
X107450000Y-109635000D03*
X107450000Y-110905000D03*
X112400000Y-110905000D03*
X112400000Y-109635000D03*
X112400000Y-108365000D03*
X112400000Y-107095000D03*
%TD*%
D24*
%TO.C,R4*%
X110300000Y-92590000D03*
X110300000Y-93610000D03*
%TD*%
D11*
%TO.C,R11*%
X110890000Y-95500000D03*
X111910000Y-95500000D03*
%TD*%
D22*
%TO.C,C4*%
X107325000Y-95200000D03*
X108875000Y-95200000D03*
%TD*%
D13*
%TO.C,R10*%
X107500000Y-102910000D03*
X107500000Y-101890000D03*
%TD*%
D11*
%TO.C,R19*%
X112890000Y-112500000D03*
X113910000Y-112500000D03*
%TD*%
D26*
%TO.C,D3*%
X114950000Y-115700000D03*
X117050000Y-115700000D03*
%TD*%
D12*
%TO.C,R50*%
X123710000Y-92700000D03*
X122690000Y-92700000D03*
%TD*%
D11*
%TO.C,R21*%
X112890000Y-114500000D03*
X113910000Y-114500000D03*
%TD*%
D27*
%TO.C,D1*%
X117100000Y-102450000D03*
X117100000Y-105750000D03*
%TD*%
D24*
%TO.C,R39*%
X114100000Y-97890000D03*
X114100000Y-98910000D03*
%TD*%
D11*
%TO.C,R25*%
X102639999Y-98535000D03*
X103659999Y-98535000D03*
%TD*%
D24*
%TO.C,R1*%
X116055000Y-92590000D03*
X116055000Y-93610000D03*
%TD*%
D14*
%TO.C,J7*%
X101270001Y-106925000D03*
D15*
X101270001Y-107925000D03*
X101270001Y-108925000D03*
X101270001Y-109925000D03*
%TD*%
D24*
%TO.C,R38*%
X111000000Y-102690000D03*
X111000000Y-103710000D03*
%TD*%
%TO.C,R9*%
X101200000Y-111990000D03*
X101200000Y-113010000D03*
%TD*%
D28*
%TO.C,U6*%
X103350000Y-111000000D03*
X103990000Y-111000000D03*
X104650000Y-111000000D03*
X105290000Y-111000000D03*
D29*
X104320000Y-109600000D03*
D28*
X105295000Y-108200000D03*
X104640000Y-108200000D03*
X104000000Y-108200000D03*
X103350000Y-108200000D03*
%TD*%
D30*
%TO.C,C12*%
X123000000Y-100675000D03*
X121450000Y-100675000D03*
%TD*%
D23*
%TO.C,L2*%
X124775000Y-111300000D03*
X124775000Y-108100000D03*
%TD*%
D14*
%TO.C,J5*%
X101100000Y-93260000D03*
D15*
X101100000Y-94260000D03*
X101100000Y-95260000D03*
X101100000Y-96260000D03*
%TD*%
D11*
%TO.C,R14*%
X113210000Y-103000000D03*
X112190000Y-103000000D03*
%TD*%
D16*
%TO.C,Q2*%
X114150000Y-104500000D03*
X114150000Y-105500000D03*
X115440000Y-105000000D03*
%TD*%
D31*
%TO.C,C8*%
X104200000Y-113925000D03*
X104200000Y-115475000D03*
%TD*%
D11*
%TO.C,R15*%
X113210000Y-104100000D03*
X112190000Y-104100000D03*
%TD*%
D12*
%TO.C,R26*%
X105659999Y-98535000D03*
X104639999Y-98535000D03*
%TD*%
D14*
%TO.C,J6*%
X101167498Y-100125000D03*
D15*
X101167498Y-101125000D03*
X101167498Y-102125000D03*
X101167498Y-103125000D03*
%TD*%
D12*
%TO.C,R2*%
X117965000Y-93700000D03*
X116945000Y-93700000D03*
%TD*%
D13*
%TO.C,R46*%
X125650000Y-100685000D03*
X125650000Y-99665000D03*
%TD*%
D28*
%TO.C,U2*%
X103179999Y-97335000D03*
X103819999Y-97335000D03*
X104479999Y-97335000D03*
X105119999Y-97335000D03*
D29*
X104149999Y-95935000D03*
D28*
X105124999Y-94535000D03*
X104469999Y-94535000D03*
X103829999Y-94535000D03*
X103179999Y-94535000D03*
%TD*%
D26*
%TO.C,D2*%
X114950000Y-113700000D03*
X117050000Y-113700000D03*
%TD*%
D11*
%TO.C,R30*%
X102707497Y-105400000D03*
X103727497Y-105400000D03*
%TD*%
D22*
%TO.C,C13*%
X121300000Y-94950000D03*
X122850000Y-94950000D03*
%TD*%
D28*
%TO.C,U4*%
X103247497Y-104200000D03*
X103887497Y-104200000D03*
X104547497Y-104200000D03*
X105187497Y-104200000D03*
D29*
X104217497Y-102800000D03*
D28*
X105192497Y-101400000D03*
X104537497Y-101400000D03*
X103897497Y-101400000D03*
X103247497Y-101400000D03*
%TD*%
D30*
%TO.C,C16*%
X119775000Y-95200000D03*
X118225000Y-95200000D03*
%TD*%
D14*
%TO.C,J4*%
X124800000Y-102600000D03*
D15*
X124800000Y-103600000D03*
X124800000Y-104600000D03*
X124800000Y-105600000D03*
%TD*%
D11*
%TO.C,R18*%
X105390000Y-115700000D03*
X106410000Y-115700000D03*
%TD*%
D12*
%TO.C,R16*%
X108610000Y-112200000D03*
X107590000Y-112200000D03*
%TD*%
D24*
%TO.C,R42*%
X114100000Y-108490000D03*
X114100000Y-109510000D03*
%TD*%
D11*
%TO.C,R7*%
X100490000Y-98400000D03*
X101510000Y-98400000D03*
%TD*%
D22*
%TO.C,C1*%
X102974999Y-92935000D03*
X104524999Y-92935000D03*
%TD*%
D12*
%TO.C,R3*%
X117965000Y-92700000D03*
X116945000Y-92700000D03*
%TD*%
D11*
%TO.C,R37*%
X108990000Y-102800000D03*
X110010000Y-102800000D03*
%TD*%
D25*
%TO.C,U9*%
X107425000Y-96795000D03*
X107425000Y-98065000D03*
X107425000Y-99335000D03*
X107425000Y-100605000D03*
X112375000Y-100605000D03*
X112375000Y-99335000D03*
X112375000Y-98065000D03*
X112375000Y-96795000D03*
%TD*%
D11*
%TO.C,R13*%
X112190000Y-101900000D03*
X113210000Y-101900000D03*
%TD*%
%TO.C,R8*%
X100390000Y-105400000D03*
X101410000Y-105400000D03*
%TD*%
%TO.C,R35*%
X102810000Y-112200000D03*
X103830000Y-112200000D03*
%TD*%
D12*
%TO.C,R6*%
X112210000Y-92700000D03*
X111190000Y-92700000D03*
%TD*%
D32*
%TO.C,C15*%
X117775000Y-111975000D03*
X117775000Y-110425000D03*
%TD*%
D24*
%TO.C,R47*%
X117775000Y-107690000D03*
X117775000Y-108710000D03*
%TD*%
D31*
%TO.C,C18*%
X125575000Y-96400000D03*
X125575000Y-97950000D03*
%TD*%
D13*
%TO.C,R41*%
X111000000Y-105610000D03*
X111000000Y-104590000D03*
%TD*%
D11*
%TO.C,R17*%
X111890000Y-105800000D03*
X112910000Y-105800000D03*
%TD*%
D14*
%TO.C,J8*%
X115800000Y-96000000D03*
D15*
X115800000Y-97000000D03*
X115800000Y-98000000D03*
X115800000Y-99000000D03*
X115800000Y-100000000D03*
%TD*%
D14*
%TO.C,J9*%
X115750000Y-107500000D03*
D15*
X115750000Y-108500000D03*
X115750000Y-109500000D03*
X115750000Y-110500000D03*
X115750000Y-111500000D03*
%TD*%
%TO.C,J10*%
X122600000Y-105400000D03*
D14*
X121600000Y-105400000D03*
%TD*%
D22*
%TO.C,C3*%
X103145000Y-106600000D03*
X104695000Y-106600000D03*
%TD*%
%TO.C,C19*%
X119725000Y-115000000D03*
X121275000Y-115000000D03*
%TD*%
D12*
%TO.C,R49*%
X123710000Y-93700000D03*
X122690000Y-93700000D03*
%TD*%
D13*
%TO.C,R12*%
X107500000Y-104810000D03*
X107500000Y-103790000D03*
%TD*%
D12*
%TO.C,R31*%
X105727497Y-105400000D03*
X104707497Y-105400000D03*
%TD*%
%LPD*%
M02*
