%TF.GenerationSoftware,KiCad,Pcbnew,7.0.5*%
%TF.CreationDate,2023-06-11T19:33:25+08:00*%
%TF.ProjectId,DiveCAN Head,44697665-4341-44e2-9048-6561642e6b69,rev?*%
%TF.SameCoordinates,Original*%
%TF.FileFunction,Copper,L4,Bot*%
%TF.FilePolarity,Positive*%
%FSLAX46Y46*%
G04 Gerber Fmt 4.6, Leading zero omitted, Abs format (unit mm)*
G04 Created by KiCad (PCBNEW 7.0.5) date 2023-06-11 19:33:25*
%MOMM*%
%LPD*%
G01*
G04 APERTURE LIST*
G04 Aperture macros list*
%AMRoundRect*
0 Rectangle with rounded corners*
0 $1 Rounding radius*
0 $2 $3 $4 $5 $6 $7 $8 $9 X,Y pos of 4 corners*
0 Add a 4 corners polygon primitive as box body*
4,1,4,$2,$3,$4,$5,$6,$7,$8,$9,$2,$3,0*
0 Add four circle primitives for the rounded corners*
1,1,$1+$1,$2,$3*
1,1,$1+$1,$4,$5*
1,1,$1+$1,$6,$7*
1,1,$1+$1,$8,$9*
0 Add four rect primitives between the rounded corners*
20,1,$1+$1,$2,$3,$4,$5,0*
20,1,$1+$1,$4,$5,$6,$7,0*
20,1,$1+$1,$6,$7,$8,$9,0*
20,1,$1+$1,$8,$9,$2,$3,0*%
G04 Aperture macros list end*
%TA.AperFunction,SMDPad,CuDef*%
%ADD10R,1.750000X0.450000*%
%TD*%
%TA.AperFunction,ComponentPad*%
%ADD11R,0.850000X0.850000*%
%TD*%
%TA.AperFunction,ComponentPad*%
%ADD12O,0.850000X0.850000*%
%TD*%
%TA.AperFunction,SMDPad,CuDef*%
%ADD13C,1.000000*%
%TD*%
%TA.AperFunction,SMDPad,CuDef*%
%ADD14R,1.500000X1.000000*%
%TD*%
%TA.AperFunction,SMDPad,CuDef*%
%ADD15RoundRect,0.100000X-0.100000X0.637500X-0.100000X-0.637500X0.100000X-0.637500X0.100000X0.637500X0*%
%TD*%
%TA.AperFunction,ViaPad*%
%ADD16C,0.350000*%
%TD*%
%TA.AperFunction,ViaPad*%
%ADD17C,0.500000*%
%TD*%
%TA.AperFunction,Conductor*%
%ADD18C,0.127000*%
%TD*%
%TA.AperFunction,Conductor*%
%ADD19C,0.254000*%
%TD*%
%TA.AperFunction,Conductor*%
%ADD20C,0.250000*%
%TD*%
G04 APERTURE END LIST*
D10*
%TO.P,U10,1,PA7*%
%TO.N,/Controller B/CLK*%
X113300000Y-106450000D03*
%TO.P,U10,2,PC0*%
%TO.N,/Controller B/SSC2_RX*%
X113300000Y-107100000D03*
%TO.P,U10,3,PC1*%
%TO.N,/SSC2_TX*%
X113300000Y-107750000D03*
%TO.P,U10,4,PC2*%
%TO.N,/Controller A/SDA*%
X113300000Y-108400000D03*
%TO.P,U10,5,PC3*%
%TO.N,/Controller A/SCL*%
X113300000Y-109050000D03*
%TO.P,U10,6,PD0*%
%TO.N,unconnected-(U10-PD0-Pad6)*%
X113300000Y-109700000D03*
%TO.P,U10,7,PD1*%
%TO.N,unconnected-(U10-PD1-Pad7)*%
X113300000Y-110350000D03*
%TO.P,U10,8,PD2*%
%TO.N,/Controller A/RST*%
X113300000Y-111000000D03*
%TO.P,U10,9,PD3*%
%TO.N,/Controller B/SOLENOID*%
X113300000Y-111650000D03*
%TO.P,U10,10,PD4*%
%TO.N,Net-(U10-PD4)*%
X113300000Y-112300000D03*
%TO.P,U10,11,PD5*%
%TO.N,Net-(U10-PD5)*%
X113300000Y-112950000D03*
%TO.P,U10,12,PD6*%
%TO.N,Net-(U10-PD6)*%
X113300000Y-113600000D03*
%TO.P,U10,13,PD7*%
%TO.N,Net-(U10-PD7)*%
X113300000Y-114250000D03*
%TO.P,U10,14,VDD*%
%TO.N,/BUS_B*%
X113300000Y-114900000D03*
%TO.P,U10,15,GND*%
%TO.N,GNDREF*%
X106100000Y-114900000D03*
%TO.P,U10,16,PF0_(XTAL32K1)*%
%TO.N,/Controller B/SSC3_RX*%
X106100000Y-114250000D03*
%TO.P,U10,17,PF1_(XTAP32K2)*%
%TO.N,/SSC3_TX*%
X106100000Y-113600000D03*
%TO.P,U10,18,PF6_(~{RESET})*%
%TO.N,/Controller B/RST*%
X106100000Y-112950000D03*
%TO.P,U10,19,PF7_(UPDI)*%
%TO.N,/Controller B/UPDI*%
X106100000Y-112300000D03*
%TO.P,U10,20,VDD*%
%TO.N,/BUS_B*%
X106100000Y-111650000D03*
%TO.P,U10,21,GND*%
%TO.N,GNDREF*%
X106100000Y-111000000D03*
%TO.P,U10,22,PA0_(XTALHF1)*%
%TO.N,/Controller B/SSC1_RX*%
X106100000Y-110350000D03*
%TO.P,U10,23,PA1_(XTALHF2)*%
%TO.N,/SSC1_TX*%
X106100000Y-109700000D03*
%TO.P,U10,24,PA2*%
%TO.N,/C1_B*%
X106100000Y-109050000D03*
%TO.P,U10,25,PA3*%
%TO.N,/C2_B*%
X106100000Y-108400000D03*
%TO.P,U10,26,PA4*%
%TO.N,/C3_B*%
X106100000Y-107750000D03*
%TO.P,U10,27,PA5*%
%TO.N,Net-(U10-PA5)*%
X106100000Y-107100000D03*
%TO.P,U10,28,PA6*%
%TO.N,/Controller B/SOLENOID_RET*%
X106100000Y-106450000D03*
%TD*%
D11*
%TO.P,J11,1,Pin_1*%
%TO.N,Net-(J11-Pin_1)*%
X120400000Y-93300000D03*
D12*
%TO.P,J11,2,Pin_2*%
%TO.N,GNDREF*%
X119400000Y-93300000D03*
%TD*%
D11*
%TO.P,J2,1,Pin_1*%
%TO.N,Net-(J2-Pin_1)*%
X108900000Y-93300000D03*
D12*
%TO.P,J2,2,Pin_2*%
%TO.N,GNDREF*%
X107900000Y-93300000D03*
%TD*%
D11*
%TO.P,J1,1,Pin_1*%
%TO.N,Net-(J1-Pin_1)*%
X114655000Y-93300000D03*
D12*
%TO.P,J1,2,Pin_2*%
%TO.N,GNDREF*%
X113655000Y-93300000D03*
%TD*%
D11*
%TO.P,J3,1,Pin_1*%
%TO.N,/Controller A/SOLENOID_RET*%
X121600000Y-102900000D03*
D12*
%TO.P,J3,2,Pin_2*%
%TO.N,/BUS_SOLENOID*%
X122600000Y-102900000D03*
%TD*%
D13*
%TO.P,TP1,1,1*%
%TO.N,GNDREF*%
X102800000Y-104800000D03*
%TD*%
D11*
%TO.P,J7,1,Pin_1*%
%TO.N,GNDREF*%
X101270001Y-106925000D03*
D12*
%TO.P,J7,2,Pin_2*%
%TO.N,/SSC3_TX*%
X101270001Y-107925000D03*
%TO.P,J7,3,Pin_3*%
%TO.N,/SSC3_RX*%
X101270001Y-108925000D03*
%TO.P,J7,4,Pin_4*%
%TO.N,Net-(J7-Pin_4)*%
X101270001Y-109925000D03*
%TD*%
D11*
%TO.P,J5,1,Pin_1*%
%TO.N,GNDREF*%
X101100000Y-93260000D03*
D12*
%TO.P,J5,2,Pin_2*%
%TO.N,/SSC1_TX*%
X101100000Y-94260000D03*
%TO.P,J5,3,Pin_3*%
%TO.N,/SSC1_RX*%
X101100000Y-95260000D03*
%TO.P,J5,4,Pin_4*%
%TO.N,Net-(J5-Pin_4)*%
X101100000Y-96260000D03*
%TD*%
D11*
%TO.P,J6,1,Pin_1*%
%TO.N,GNDREF*%
X101167498Y-100125000D03*
D12*
%TO.P,J6,2,Pin_2*%
%TO.N,/SSC2_TX*%
X101167498Y-101125000D03*
%TO.P,J6,3,Pin_3*%
%TO.N,/SSC2_RX*%
X101167498Y-102125000D03*
%TO.P,J6,4,Pin_4*%
%TO.N,Net-(J6-Pin_4)*%
X101167498Y-103125000D03*
%TD*%
D11*
%TO.P,J4,1,Pin_1*%
%TO.N,/IN_A*%
X124800000Y-102600000D03*
D12*
%TO.P,J4,2,Pin_2*%
%TO.N,/IN_B*%
X124800000Y-103600000D03*
%TO.P,J4,3,Pin_3*%
%TO.N,/BUS_SOLENOID*%
X124800000Y-104600000D03*
%TO.P,J4,4,Pin_4*%
%TO.N,GNDREF*%
X124800000Y-105600000D03*
%TD*%
D11*
%TO.P,J8,1,Pin_1*%
%TO.N,GNDREF*%
X115800000Y-96000000D03*
D12*
%TO.P,J8,2,Pin_2*%
%TO.N,Net-(J8-Pin_2)*%
X115800000Y-97000000D03*
%TO.P,J8,3,Pin_3*%
%TO.N,/CAN_A_PWR*%
X115800000Y-98000000D03*
%TO.P,J8,4,Pin_4*%
%TO.N,/~{EN_A}*%
X115800000Y-99000000D03*
%TO.P,J8,5,Pin_5*%
%TO.N,Net-(J8-Pin_5)*%
X115800000Y-100000000D03*
%TD*%
D11*
%TO.P,J9,1,Pin_1*%
%TO.N,GNDREF*%
X115750000Y-107500000D03*
D12*
%TO.P,J9,2,Pin_2*%
%TO.N,Net-(J9-Pin_2)*%
X115750000Y-108500000D03*
%TO.P,J9,3,Pin_3*%
%TO.N,/CAN_B_PWR*%
X115750000Y-109500000D03*
%TO.P,J9,4,Pin_4*%
%TO.N,/~{EN_B}*%
X115750000Y-110500000D03*
%TO.P,J9,5,Pin_5*%
%TO.N,Net-(J9-Pin_5)*%
X115750000Y-111500000D03*
%TD*%
%TO.P,J10,2,Pin_2*%
%TO.N,/BUS_SOLENOID*%
X122600000Y-105400000D03*
D11*
%TO.P,J10,1,Pin_1*%
%TO.N,/Controller B/SOLENOID_RET*%
X121600000Y-105400000D03*
%TD*%
D13*
%TO.P,TP13,1,1*%
%TO.N,/Controller B/RST*%
X103900000Y-111000000D03*
%TD*%
D14*
%TO.P,JP5,1,A*%
%TO.N,/IN_A*%
X119400000Y-104250000D03*
%TO.P,JP5,2,B*%
%TO.N,/CAN_A_PWR*%
X119400000Y-102950000D03*
%TD*%
%TO.P,JP2,1,A*%
%TO.N,/BUS_B*%
X117600000Y-110350000D03*
%TO.P,JP2,2,B*%
%TO.N,/CAN_B_PWR*%
X117600000Y-109050000D03*
%TD*%
D13*
%TO.P,TP11,1,1*%
%TO.N,/Controller A/UPDI*%
X103900000Y-100000000D03*
%TD*%
D14*
%TO.P,JP6,1,A*%
%TO.N,/IN_B*%
X115700000Y-104450000D03*
%TO.P,JP6,2,B*%
%TO.N,/CAN_B_PWR*%
X115700000Y-105750000D03*
%TD*%
D13*
%TO.P,TP10,1,1*%
%TO.N,/Controller A/RST*%
X103900000Y-102000000D03*
%TD*%
D15*
%TO.P,U8,1,TXCAN*%
%TO.N,Net-(U8-TXCAN)*%
X119450000Y-94875000D03*
%TO.P,U8,2,RXCAN*%
%TO.N,Net-(U8-RXCAN)*%
X120100000Y-94875000D03*
%TO.P,U8,3,CLKOUT/SOF*%
%TO.N,unconnected-(U8-CLKOUT{slash}SOF-Pad3)*%
X120750000Y-94875000D03*
%TO.P,U8,4,~{TX0RTS}*%
%TO.N,/Controller A/SSC1_PWR*%
X121400000Y-94875000D03*
%TO.P,U8,5,~{TX1RTS}*%
%TO.N,/Controller A/SSC2_PWR*%
X122050000Y-94875000D03*
%TO.P,U8,6*%
%TO.N,N/C*%
X122700000Y-94875000D03*
%TO.P,U8,7,~{TX2RTS}*%
%TO.N,/Controller A/SSC3_PWR*%
X123350000Y-94875000D03*
%TO.P,U8,8,OSC2*%
%TO.N,unconnected-(U8-OSC2-Pad8)*%
X124000000Y-94875000D03*
%TO.P,U8,9,OSC1*%
%TO.N,/Controller A/CLK*%
X124650000Y-94875000D03*
%TO.P,U8,10,VSS*%
%TO.N,GNDREF*%
X125300000Y-94875000D03*
%TO.P,U8,11,~{RX1BF}*%
%TO.N,unconnected-(U8-~{RX1BF}-Pad11)*%
X125300000Y-100600000D03*
%TO.P,U8,12,~{RX0BF}*%
%TO.N,unconnected-(U8-~{RX0BF}-Pad12)*%
X124650000Y-100600000D03*
%TO.P,U8,13,~{INT}*%
%TO.N,unconnected-(U8-~{INT}-Pad13)*%
X124000000Y-100600000D03*
%TO.P,U8,14,SCK*%
%TO.N,Net-(U7-PD6)*%
X123350000Y-100600000D03*
%TO.P,U8,15*%
%TO.N,N/C*%
X122700000Y-100600000D03*
%TO.P,U8,16,SI*%
%TO.N,Net-(U7-PD4)*%
X122050000Y-100600000D03*
%TO.P,U8,17,SO*%
%TO.N,Net-(U7-PD5)*%
X121400000Y-100600000D03*
%TO.P,U8,18,~{CS}*%
%TO.N,Net-(U7-PD7)*%
X120750000Y-100600000D03*
%TO.P,U8,19,~{RESET}*%
%TO.N,/BUS_A*%
X120100000Y-100600000D03*
%TO.P,U8,20,VDD*%
X119450000Y-100600000D03*
%TD*%
D14*
%TO.P,JP1,1,A*%
%TO.N,/BUS_A*%
X117500000Y-98050000D03*
%TO.P,JP1,2,B*%
%TO.N,/CAN_A_PWR*%
X117500000Y-96750000D03*
%TD*%
D15*
%TO.P,U11,1,TXCAN*%
%TO.N,Net-(U11-TXCAN)*%
X119475000Y-107337500D03*
%TO.P,U11,2,RXCAN*%
%TO.N,Net-(U11-RXCAN)*%
X120125000Y-107337500D03*
%TO.P,U11,3,CLKOUT/SOF*%
%TO.N,unconnected-(U11-CLKOUT{slash}SOF-Pad3)*%
X120775000Y-107337500D03*
%TO.P,U11,4,~{TX0RTS}*%
%TO.N,/Controller B/SSC1_PWR*%
X121425000Y-107337500D03*
%TO.P,U11,5,~{TX1RTS}*%
%TO.N,/Controller B/SSC2_PWR*%
X122075000Y-107337500D03*
%TO.P,U11,6*%
%TO.N,N/C*%
X122725000Y-107337500D03*
%TO.P,U11,7,~{TX2RTS}*%
%TO.N,/Controller B/SSC3_PWR*%
X123375000Y-107337500D03*
%TO.P,U11,8,OSC2*%
%TO.N,unconnected-(U11-OSC2-Pad8)*%
X124025000Y-107337500D03*
%TO.P,U11,9,OSC1*%
%TO.N,/Controller B/CLK*%
X124675000Y-107337500D03*
%TO.P,U11,10,VSS*%
%TO.N,GNDREF*%
X125325000Y-107337500D03*
%TO.P,U11,11,~{RX1BF}*%
%TO.N,unconnected-(U11-~{RX1BF}-Pad11)*%
X125325000Y-113062500D03*
%TO.P,U11,12,~{RX0BF}*%
%TO.N,unconnected-(U11-~{RX0BF}-Pad12)*%
X124675000Y-113062500D03*
%TO.P,U11,13,~{INT}*%
%TO.N,unconnected-(U11-~{INT}-Pad13)*%
X124025000Y-113062500D03*
%TO.P,U11,14,SCK*%
%TO.N,Net-(U10-PD6)*%
X123375000Y-113062500D03*
%TO.P,U11,15*%
%TO.N,N/C*%
X122725000Y-113062500D03*
%TO.P,U11,16,SI*%
%TO.N,Net-(U10-PD4)*%
X122075000Y-113062500D03*
%TO.P,U11,17,SO*%
%TO.N,Net-(U10-PD5)*%
X121425000Y-113062500D03*
%TO.P,U11,18,~{CS}*%
%TO.N,Net-(U10-PD7)*%
X120775000Y-113062500D03*
%TO.P,U11,19,~{RESET}*%
%TO.N,/BUS_B*%
X120125000Y-113062500D03*
%TO.P,U11,20,VDD*%
X119475000Y-113062500D03*
%TD*%
D10*
%TO.P,U7,1,PA7*%
%TO.N,/Controller A/CLK*%
X113300000Y-95375000D03*
%TO.P,U7,2,PC0*%
%TO.N,/Controller A/SSC2_RX*%
X113300000Y-96025000D03*
%TO.P,U7,3,PC1*%
%TO.N,/SSC2_TX*%
X113300000Y-96675000D03*
%TO.P,U7,4,PC2*%
%TO.N,/Controller A/SDA*%
X113300000Y-97325000D03*
%TO.P,U7,5,PC3*%
%TO.N,/Controller A/SCL*%
X113300000Y-97975000D03*
%TO.P,U7,6,PD0*%
%TO.N,unconnected-(U7-PD0-Pad6)*%
X113300000Y-98625000D03*
%TO.P,U7,7,PD1*%
%TO.N,unconnected-(U7-PD1-Pad7)*%
X113300000Y-99275000D03*
%TO.P,U7,8,PD2*%
%TO.N,/Controller B/RST*%
X113300000Y-99925000D03*
%TO.P,U7,9,PD3*%
%TO.N,/Controller A/SOLENOID*%
X113300000Y-100575000D03*
%TO.P,U7,10,PD4*%
%TO.N,Net-(U7-PD4)*%
X113300000Y-101225000D03*
%TO.P,U7,11,PD5*%
%TO.N,Net-(U7-PD5)*%
X113300000Y-101875000D03*
%TO.P,U7,12,PD6*%
%TO.N,Net-(U7-PD6)*%
X113300000Y-102525000D03*
%TO.P,U7,13,PD7*%
%TO.N,Net-(U7-PD7)*%
X113300000Y-103175000D03*
%TO.P,U7,14,VDD*%
%TO.N,/BUS_A*%
X113300000Y-103825000D03*
%TO.P,U7,15,GND*%
%TO.N,GNDREF*%
X106100000Y-103825000D03*
%TO.P,U7,16,PF0_(XTAL32K1)*%
%TO.N,/Controller A/SSC3_RX*%
X106100000Y-103175000D03*
%TO.P,U7,17,PF1_(XTAP32K2)*%
%TO.N,/SSC3_TX*%
X106100000Y-102525000D03*
%TO.P,U7,18,PF6_(~{RESET})*%
%TO.N,/Controller A/RST*%
X106100000Y-101875000D03*
%TO.P,U7,19,PF7_(UPDI)*%
%TO.N,/Controller A/UPDI*%
X106100000Y-101225000D03*
%TO.P,U7,20,VDD*%
%TO.N,/BUS_A*%
X106100000Y-100575000D03*
%TO.P,U7,21,GND*%
%TO.N,GNDREF*%
X106100000Y-99925000D03*
%TO.P,U7,22,PA0_(XTALHF1)*%
%TO.N,/Controller A/SSC1_RX*%
X106100000Y-99275000D03*
%TO.P,U7,23,PA1_(XTALHF2)*%
%TO.N,/SSC1_TX*%
X106100000Y-98625000D03*
%TO.P,U7,24,PA2*%
%TO.N,/C1_A*%
X106100000Y-97975000D03*
%TO.P,U7,25,PA3*%
%TO.N,/C2_A*%
X106100000Y-97325000D03*
%TO.P,U7,26,PA4*%
%TO.N,/C3_A*%
X106100000Y-96675000D03*
%TO.P,U7,27,PA5*%
%TO.N,Net-(U7-PA5)*%
X106100000Y-96025000D03*
%TO.P,U7,28,PA6*%
%TO.N,/Controller A/SOLENOID_RET*%
X106100000Y-95375000D03*
%TD*%
D13*
%TO.P,TP14,1,1*%
%TO.N,/Controller B/UPDI*%
X103900000Y-109000000D03*
%TD*%
D16*
%TO.N,/BUS_A*%
X124600000Y-96200000D03*
%TO.N,GNDREF*%
X100975000Y-97600000D03*
X126250000Y-103500000D03*
X125575000Y-116375000D03*
X107900000Y-115575000D03*
X101050000Y-114450000D03*
X111200000Y-100075000D03*
%TO.N,Net-(U10-PD5)*%
X121275000Y-114175000D03*
%TO.N,Net-(U10-PD7)*%
X119050000Y-115700000D03*
%TO.N,/BUS_A*%
X113000000Y-104775000D03*
%TO.N,/Controller A/SSC1_PWR*%
X114550000Y-96650000D03*
%TO.N,/Controller B/RST*%
X114600000Y-98400000D03*
%TO.N,Net-(Q1-G)*%
X111100000Y-96400000D03*
X113500000Y-94800000D03*
%TO.N,/Controller B/SOLENOID_RET*%
X117700000Y-104550000D03*
%TO.N,/Controller A/SOLENOID_RET*%
X116850000Y-104250000D03*
%TO.N,/BUS_SOLENOID*%
X117100000Y-103200000D03*
%TO.N,/Controller B/SOLENOID*%
X109150000Y-115350000D03*
%TO.N,Net-(Q2-G)*%
X110800000Y-115850000D03*
%TO.N,/Controller A/SSC3_PWR*%
X115050000Y-103500000D03*
%TO.N,GNDREF*%
X111900000Y-110300000D03*
%TO.N,/Controller B/RST*%
X112800000Y-94800000D03*
X105600000Y-93000000D03*
X108100000Y-114300000D03*
%TO.N,/SSC1_PWR*%
X109600000Y-112200000D03*
%TO.N,/Controller A/SOLENOID_RET*%
X108500000Y-107700000D03*
%TO.N,/C1_B*%
X108400000Y-109000000D03*
%TO.N,/Controller A/RST*%
X109600000Y-110300000D03*
X108300000Y-101700000D03*
%TO.N,GNDREF*%
X124100000Y-115200000D03*
%TO.N,/BUS_B*%
X116800000Y-112000000D03*
X122500000Y-114700000D03*
%TO.N,Net-(Q2-G)*%
X114700000Y-108000000D03*
%TO.N,/Controller B/CLK*%
X114600000Y-106919000D03*
%TO.N,Net-(U11-TXCAN)*%
X118800000Y-107000000D03*
X111200000Y-110300000D03*
%TO.N,Net-(U11-RXCAN)*%
X119700000Y-108600000D03*
X111800000Y-112200000D03*
%TO.N,/SSC2_TX*%
X111100000Y-107700000D03*
%TO.N,/BUS_B*%
X118700000Y-113600000D03*
X110115222Y-114900000D03*
%TO.N,Net-(U10-PD4)*%
X120500000Y-115600000D03*
X114600000Y-111600000D03*
%TO.N,/Controller A/SSC2_PWR*%
X117300000Y-94900000D03*
%TO.N,/BUS_A*%
X119500000Y-101700000D03*
X119200000Y-98600000D03*
%TO.N,/IN_B*%
X118100000Y-107000000D03*
%TO.N,/IN_A*%
X121450000Y-104250000D03*
%TO.N,/CAN_A_PWR*%
X118300000Y-102600000D03*
%TO.N,/IN_B*%
X118400000Y-115400000D03*
%TO.N,/~{EN_A}*%
X122800000Y-111900000D03*
%TO.N,/Controller A/SOLENOID*%
X114600000Y-100600000D03*
%TO.N,/Controller A/SOLENOID_RET*%
X106700000Y-93700000D03*
%TO.N,/Controller B/SOLENOID_RET*%
X106500000Y-105200000D03*
%TO.N,Net-(U7-PD6)*%
X118300000Y-101800000D03*
X116800000Y-101500000D03*
%TO.N,GNDREF*%
X111500000Y-103800000D03*
%TO.N,/SSC2_RX*%
X111800000Y-105200000D03*
%TO.N,Net-(U7-PA5)*%
X110200000Y-96900000D03*
%TO.N,Net-(U8-TXCAN)*%
X114500000Y-94800000D03*
%TO.N,Net-(U8-RXCAN)*%
X120500000Y-96000000D03*
X109000000Y-99300000D03*
%TO.N,GNDREF*%
X125400000Y-93200000D03*
%TO.N,/Controller B/CLK*%
X124300000Y-109600000D03*
%TO.N,GNDREF*%
X109400000Y-112900000D03*
X108400000Y-98600000D03*
X102100000Y-99500000D03*
%TO.N,/C2_B*%
X108200000Y-94200000D03*
%TO.N,/~{EN_B}*%
X123200000Y-115700000D03*
%TO.N,Net-(U10-PA5)*%
X108000000Y-106100000D03*
%TO.N,Net-(U13-EN)*%
X124400000Y-114500000D03*
X124300000Y-99100000D03*
%TO.N,Net-(U16-EN)*%
X118900000Y-107700000D03*
X118000000Y-116700000D03*
D17*
%TO.N,/IN_A*%
X117900000Y-114800000D03*
D16*
%TO.N,GNDREF*%
X106900000Y-104200000D03*
%TO.N,/BUS_B*%
X109600000Y-109600000D03*
X108607611Y-113392389D03*
%TO.N,GNDREF*%
X103600000Y-113000000D03*
X107400000Y-113300000D03*
%TO.N,/C1_B*%
X106300000Y-93100000D03*
%TO.N,/C2_B*%
X109586500Y-108286500D03*
%TO.N,/SSC1_PWR*%
X110200000Y-97713500D03*
X102100000Y-97300000D03*
%TO.N,/SSC2_PWR*%
X102200000Y-103500000D03*
%TO.N,/SSC1_PWR*%
X111300000Y-101900000D03*
%TO.N,/SSC2_PWR*%
X110200000Y-103700000D03*
%TO.N,/SSC3_PWR*%
X110100000Y-104700000D03*
X110000000Y-114200000D03*
%TO.N,/SSC2_PWR*%
X110600000Y-113700000D03*
%TO.N,/SSC1_PWR*%
X111213500Y-113313500D03*
%TO.N,/SSC1_RX*%
X106700000Y-94400000D03*
X108300000Y-104100000D03*
X109100000Y-111300000D03*
%TO.N,/SSC2_TX*%
X111100000Y-97300000D03*
%TO.N,/C1_B*%
X123200000Y-93200000D03*
%TO.N,/C3_B*%
X111700000Y-93200000D03*
%TO.N,/C2_A*%
X118600000Y-93800000D03*
%TO.N,/C2_B*%
X118500000Y-93100000D03*
%TO.N,/SSC2_RX*%
X112100000Y-94800000D03*
%TO.N,/C1_A*%
X124400000Y-93700000D03*
%TO.N,/C3_A*%
X110000000Y-94600000D03*
%TO.N,/C2_A*%
X110000000Y-95300000D03*
%TO.N,/C1_A*%
X110000000Y-96000000D03*
%TO.N,/BUS_A*%
X105100000Y-100600000D03*
X104800000Y-107500000D03*
X104500000Y-93900000D03*
%TO.N,/BUS_B*%
X103200000Y-115500000D03*
X102600000Y-94600000D03*
X102600000Y-101400000D03*
X102700000Y-108200000D03*
%TO.N,GNDREF*%
X102300000Y-102800000D03*
X104000000Y-106600000D03*
%TO.N,/Controller A/SSC3_PWR*%
X115600000Y-94700000D03*
X123700000Y-96000000D03*
%TO.N,/Controller A/SSC2_RX*%
X111900000Y-96100000D03*
%TO.N,/Controller A/SSC3_RX*%
X108100000Y-103300000D03*
%TO.N,/Controller B/SSC3_PWR*%
X115800000Y-114700000D03*
%TO.N,/Controller B/SSC1_PWR*%
X115100000Y-112400000D03*
%TO.N,/Controller B/SSC2_PWR*%
X116300000Y-113400000D03*
%TO.N,Net-(U10-PD5)*%
X112000000Y-112900000D03*
%TO.N,Net-(U10-PD7)*%
X112000000Y-114200000D03*
%TO.N,/Controller A/SSC1_RX*%
X107600000Y-101300000D03*
%TO.N,/Controller B/SSC2_RX*%
X111000000Y-107000000D03*
%TO.N,/Controller B/SSC1_RX*%
X108600000Y-110300000D03*
%TO.N,/Controller B/SSC3_RX*%
X107400000Y-114300000D03*
%TD*%
D18*
%TO.N,Net-(U10-PD5)*%
X121275000Y-114175000D02*
X121275000Y-113212500D01*
X121275000Y-113212500D02*
X121425000Y-113062500D01*
%TO.N,Net-(U10-PD7)*%
X119050000Y-115700000D02*
X120775000Y-113975000D01*
X120775000Y-113975000D02*
X120775000Y-113062500D01*
%TO.N,/BUS_A*%
X113000000Y-104125000D02*
X113300000Y-103825000D01*
X113000000Y-104775000D02*
X113000000Y-104125000D01*
%TO.N,/Controller A/SSC1_PWR*%
X114550000Y-95992222D02*
X114550000Y-96650000D01*
X115428722Y-95113500D02*
X114550000Y-95992222D01*
%TO.N,/Controller B/RST*%
X114951000Y-98776000D02*
X114575000Y-98400000D01*
X114951000Y-99276000D02*
X114951000Y-98776000D01*
X114302000Y-99925000D02*
X114951000Y-99276000D01*
X113300000Y-99925000D02*
X114302000Y-99925000D01*
%TO.N,/Controller A/CLK*%
X114086500Y-94913500D02*
X114086500Y-94588500D01*
X113625000Y-95375000D02*
X114086500Y-94913500D01*
X114086500Y-94588500D02*
X114696500Y-93978500D01*
D19*
%TO.N,/BUS_SOLENOID*%
X117100000Y-103200000D02*
X117100000Y-103708000D01*
X117100000Y-103708000D02*
X117532580Y-103708000D01*
X122522040Y-106079000D02*
X122600000Y-106001040D01*
X117532580Y-103708000D02*
X118350000Y-104525420D01*
X118350000Y-104525420D02*
X118350000Y-104958000D01*
X118350000Y-104958000D02*
X119471000Y-106079000D01*
X119471000Y-106079000D02*
X122522040Y-106079000D01*
X122600000Y-106001040D02*
X122600000Y-105400000D01*
D18*
%TO.N,/Controller B/SOLENOID*%
X111765222Y-111650000D02*
X113300000Y-111650000D01*
X109150000Y-115350000D02*
X109150000Y-114265222D01*
X109150000Y-114265222D02*
X111765222Y-111650000D01*
%TO.N,/Controller A/SSC1_PWR*%
X117128722Y-94486500D02*
X117840500Y-94486500D01*
X121400000Y-95664119D02*
X121400000Y-94875000D01*
X115428722Y-95113500D02*
X116501722Y-95113500D01*
X116501722Y-95113500D02*
X117128722Y-94486500D01*
X120869329Y-96215449D02*
X120869329Y-96194790D01*
X117840500Y-94486500D02*
X119767500Y-96413500D01*
X119767500Y-96413500D02*
X120671278Y-96413500D01*
X120671278Y-96413500D02*
X120869329Y-96215449D01*
X120869329Y-96194790D02*
X121400000Y-95664119D01*
%TO.N,/Controller B/RST*%
X105915500Y-92684500D02*
X105600000Y-93000000D01*
X112800000Y-94800000D02*
X112800000Y-93715222D01*
X112800000Y-93715222D02*
X111769278Y-92684500D01*
X111769278Y-92684500D02*
X105915500Y-92684500D01*
X108100000Y-113415222D02*
X108100000Y-114300000D01*
X107571278Y-112886500D02*
X108100000Y-113415222D01*
X106163500Y-112886500D02*
X107571278Y-112886500D01*
%TO.N,/Controller A/RST*%
X109600000Y-110300000D02*
X110300000Y-111000000D01*
X110300000Y-111000000D02*
X113300000Y-111000000D01*
%TO.N,/SSC1_PWR*%
X109600000Y-110884778D02*
X109100000Y-110384778D01*
X109100000Y-109357778D02*
X110000000Y-108457778D01*
X110000000Y-108457778D02*
X110000000Y-108115222D01*
X109600000Y-112200000D02*
X109600000Y-110884778D01*
X109100000Y-110384778D02*
X109100000Y-109357778D01*
X110000000Y-108115222D02*
X109686500Y-107801722D01*
%TO.N,/C1_B*%
X108350000Y-109050000D02*
X106100000Y-109050000D01*
X108400000Y-109000000D02*
X108350000Y-109050000D01*
%TO.N,/Controller A/RST*%
X106100000Y-101875000D02*
X108125000Y-101875000D01*
X108125000Y-101875000D02*
X108300000Y-101700000D01*
D19*
%TO.N,/BUS_B*%
X117600000Y-110350000D02*
X117600000Y-111200000D01*
X117600000Y-111200000D02*
X116800000Y-112000000D01*
D18*
%TO.N,/Controller A/SCL*%
X113300000Y-109050000D02*
X114302000Y-109050000D01*
X114302000Y-109050000D02*
X115113500Y-108238500D01*
X115113500Y-108238500D02*
X115113500Y-106782500D01*
X114365500Y-106034500D02*
X113334500Y-106034500D01*
X115113500Y-106782500D02*
X114365500Y-106034500D01*
X113334500Y-106034500D02*
X112200000Y-104900000D01*
X112200000Y-104900000D02*
X112200000Y-98073000D01*
X112298000Y-97975000D02*
X113300000Y-97975000D01*
X112200000Y-98073000D02*
X112298000Y-97975000D01*
%TO.N,Net-(U11-TXCAN)*%
X119475000Y-107337500D02*
X119137500Y-107337500D01*
X119137500Y-107337500D02*
X118800000Y-107000000D01*
%TO.N,Net-(U11-RXCAN)*%
X119700000Y-108600000D02*
X120125000Y-108175000D01*
X120125000Y-108175000D02*
X120125000Y-107337500D01*
%TO.N,/SSC2_TX*%
X111150000Y-107750000D02*
X111100000Y-107700000D01*
X113300000Y-107750000D02*
X111150000Y-107750000D01*
D19*
%TO.N,/BUS_B*%
X113300000Y-114900000D02*
X110300000Y-114900000D01*
X119475000Y-113062500D02*
X119237500Y-113062500D01*
X110300000Y-114900000D02*
X110115222Y-114900000D01*
X119237500Y-113062500D02*
X118700000Y-113600000D01*
X120125000Y-113062500D02*
X119475000Y-113062500D01*
D18*
%TO.N,Net-(U10-PD4)*%
X120500000Y-115600000D02*
X122075000Y-114025000D01*
X122075000Y-114025000D02*
X122075000Y-113062500D01*
X114600000Y-112002000D02*
X114600000Y-111600000D01*
X114302000Y-112300000D02*
X114600000Y-112002000D01*
X113300000Y-112300000D02*
X114302000Y-112300000D01*
%TO.N,/Controller A/CLK*%
X123584500Y-93915500D02*
X124300000Y-93200000D01*
X114696500Y-93978500D02*
X118193722Y-93978500D01*
X118193722Y-93978500D02*
X118428722Y-94213500D01*
X124813500Y-93528722D02*
X124813500Y-94711500D01*
X118428722Y-94213500D02*
X118963171Y-94213500D01*
X118963171Y-94213500D02*
X119261171Y-93915500D01*
X124300000Y-93200000D02*
X124484778Y-93200000D01*
X119261171Y-93915500D02*
X123584500Y-93915500D01*
X124484778Y-93200000D02*
X124813500Y-93528722D01*
X124813500Y-94711500D02*
X124650000Y-94875000D01*
%TO.N,Net-(U8-TXCAN)*%
X115067500Y-94232500D02*
X118088512Y-94232500D01*
X114500000Y-94800000D02*
X115067500Y-94232500D01*
X118088512Y-94232500D02*
X118731012Y-94875000D01*
%TO.N,/Controller A/SSC2_PWR*%
X119067500Y-96667500D02*
X117300000Y-94900000D01*
%TO.N,Net-(U8-TXCAN)*%
X118731012Y-94875000D02*
X119450000Y-94875000D01*
%TO.N,/Controller A/SSC2_PWR*%
X119067500Y-96667500D02*
X120776488Y-96667500D01*
X120776488Y-96667500D02*
X122050000Y-95393988D01*
D19*
%TO.N,/BUS_A*%
X119200000Y-98600000D02*
X118050000Y-98600000D01*
X118050000Y-98600000D02*
X117500000Y-98050000D01*
D18*
%TO.N,Net-(U7-PD6)*%
X123350000Y-101098329D02*
X122334829Y-102113500D01*
X122334829Y-102113500D02*
X118613500Y-102113500D01*
X118613500Y-102113500D02*
X118300000Y-101800000D01*
%TO.N,/BUS_A*%
X119500000Y-101700000D02*
X119500000Y-100650000D01*
D19*
%TO.N,/IN_B*%
X118100000Y-106180646D02*
X118100000Y-107000000D01*
X115700000Y-104450000D02*
X116369354Y-104450000D01*
X116369354Y-104450000D02*
X118100000Y-106180646D01*
%TO.N,/IN_A*%
X119400000Y-103950000D02*
X121150000Y-103950000D01*
X121150000Y-103950000D02*
X121450000Y-104250000D01*
%TO.N,/CAN_A_PWR*%
X118300000Y-102600000D02*
X119350000Y-102600000D01*
X115800000Y-98000000D02*
X117050000Y-96750000D01*
%TO.N,/CAN_B_PWR*%
X117600000Y-109050000D02*
X117600000Y-107650000D01*
X117600000Y-107650000D02*
X115700000Y-105750000D01*
X115750000Y-109500000D02*
X117150000Y-109500000D01*
X117150000Y-109500000D02*
X117600000Y-109050000D01*
%TO.N,/BUS_SOLENOID*%
X122600000Y-105400000D02*
X123400000Y-104600000D01*
X123400000Y-104600000D02*
X124800000Y-104600000D01*
X122600000Y-105400000D02*
X122600000Y-102800000D01*
D18*
%TO.N,/Controller A/SOLENOID*%
X114600000Y-100600000D02*
X114575000Y-100575000D01*
X114575000Y-100575000D02*
X113300000Y-100575000D01*
%TO.N,/Controller A/SOLENOID_RET*%
X106100000Y-95375000D02*
X106100000Y-94415222D01*
X106100000Y-94415222D02*
X106700000Y-93815222D01*
X106700000Y-93815222D02*
X106700000Y-93700000D01*
%TO.N,/Controller B/SOLENOID_RET*%
X106100000Y-105600000D02*
X106500000Y-105200000D01*
X106100000Y-106450000D02*
X106100000Y-105600000D01*
%TO.N,Net-(U7-PD4)*%
X113300000Y-101225000D02*
X116066012Y-101225000D01*
X116066012Y-101225000D02*
X118127012Y-99164000D01*
X118127012Y-99164000D02*
X121112330Y-99164000D01*
X121112330Y-99164000D02*
X122050000Y-100101671D01*
%TO.N,Net-(U7-PD5)*%
X119107568Y-99418000D02*
X117612784Y-100912784D01*
X121400000Y-99810880D02*
X121007120Y-99418000D01*
X116737438Y-100912784D02*
X115775222Y-101875000D01*
X121007120Y-99418000D02*
X119107568Y-99418000D01*
X117612784Y-100912784D02*
X116737438Y-100912784D01*
%TO.N,Net-(U7-PD7)*%
X113300000Y-103175000D02*
X113488500Y-102986500D01*
X113488500Y-102986500D02*
X115898278Y-102986500D01*
X115898278Y-102986500D02*
X119212778Y-99672000D01*
X119212778Y-99672000D02*
X120672000Y-99672000D01*
%TO.N,Net-(U7-PD6)*%
X113300000Y-102525000D02*
X115775000Y-102525000D01*
X115775000Y-102525000D02*
X116800000Y-101500000D01*
%TO.N,Net-(U7-PD7)*%
X120750000Y-100600000D02*
X120750000Y-99750000D01*
X120750000Y-99750000D02*
X120672000Y-99672000D01*
%TO.N,Net-(U7-PD5)*%
X113300000Y-101875000D02*
X115775222Y-101875000D01*
X121400000Y-99810880D02*
X121400000Y-100600000D01*
%TO.N,Net-(U7-PA5)*%
X110200000Y-96900000D02*
X110413500Y-96686500D01*
X110413500Y-96686500D02*
X110413500Y-94413500D01*
X110413500Y-94413500D02*
X110100000Y-94100000D01*
X110100000Y-94100000D02*
X109027000Y-94100000D01*
X109027000Y-94100000D02*
X107102000Y-96025000D01*
X107102000Y-96025000D02*
X106100000Y-96025000D01*
%TO.N,Net-(U8-RXCAN)*%
X120500000Y-96000000D02*
X120100000Y-95600000D01*
X120100000Y-95600000D02*
X120100000Y-94875000D01*
D20*
%TO.N,GNDREF*%
X125400000Y-94775000D02*
X125300000Y-94875000D01*
X125400000Y-93200000D02*
X125400000Y-94775000D01*
D18*
%TO.N,/Controller B/CLK*%
X124300000Y-109600000D02*
X124675000Y-109225000D01*
X124675000Y-109225000D02*
X124675000Y-107337500D01*
X114302000Y-106450000D02*
X114600000Y-106748000D01*
X113300000Y-106450000D02*
X114302000Y-106450000D01*
%TO.N,/Controller A/SDA*%
X113300000Y-108400000D02*
X111215222Y-108400000D01*
X111215222Y-108400000D02*
X110586500Y-107771278D01*
X110586500Y-107771278D02*
X110586500Y-103913500D01*
X110586500Y-103913500D02*
X111900000Y-102600000D01*
X111900000Y-102600000D02*
X111900000Y-97723000D01*
X111900000Y-97723000D02*
X112298000Y-97325000D01*
X112298000Y-97325000D02*
X113300000Y-97325000D01*
%TO.N,/C3_B*%
X106100000Y-107750000D02*
X107102000Y-107750000D01*
X107102000Y-107750000D02*
X109432500Y-105419500D01*
X109432500Y-105419500D02*
X109432500Y-102732722D01*
X109432500Y-102732722D02*
X110686500Y-101478722D01*
X110686500Y-101478722D02*
X110686500Y-94213500D01*
X110686500Y-94213500D02*
X111700000Y-93200000D01*
%TO.N,/SSC1_PWR*%
X111061500Y-102538500D02*
X111300000Y-102300000D01*
X109686500Y-107801722D02*
X109686500Y-103628722D01*
X109686500Y-103628722D02*
X110776722Y-102538500D01*
X110776722Y-102538500D02*
X111061500Y-102538500D01*
X111300000Y-102300000D02*
X111300000Y-101900000D01*
%TO.N,GNDREF*%
X107500000Y-111000000D02*
X109400000Y-112900000D01*
X106100000Y-111000000D02*
X107500000Y-111000000D01*
X106100000Y-99925000D02*
X104801515Y-99925000D01*
X104801515Y-99925000D02*
X104176515Y-99300000D01*
X104176515Y-99300000D02*
X102300000Y-99300000D01*
X102300000Y-99300000D02*
X102100000Y-99500000D01*
%TO.N,Net-(U10-PA5)*%
X107000000Y-107100000D02*
X106100000Y-107100000D01*
X108000000Y-106100000D02*
X107000000Y-107100000D01*
%TO.N,GNDREF*%
X106525000Y-103825000D02*
X106900000Y-104200000D01*
%TO.N,/BUS_B*%
X106865222Y-111650000D02*
X108607611Y-113392389D01*
%TO.N,/C2_B*%
X109586500Y-108286500D02*
X109473000Y-108400000D01*
X109473000Y-108400000D02*
X106100000Y-108400000D01*
%TO.N,Net-(U10-PD6)*%
X114100000Y-113600000D02*
X116700000Y-116200000D01*
X123375000Y-114925000D02*
X123375000Y-113062500D01*
X116700000Y-116200000D02*
X122100000Y-116200000D01*
X122100000Y-116200000D02*
X123375000Y-114925000D01*
%TO.N,/SSC1_TX*%
X104386500Y-107686500D02*
X104386500Y-107213500D01*
X104628722Y-107928722D02*
X104386500Y-107686500D01*
X108800000Y-104700000D02*
X108800000Y-100323000D01*
X104628722Y-109230722D02*
X104628722Y-107928722D01*
X105098000Y-109700000D02*
X104628722Y-109230722D01*
X104413500Y-106686500D02*
X106400000Y-104700000D01*
X106100000Y-109700000D02*
X105098000Y-109700000D01*
X104386500Y-107213500D02*
X104413500Y-107186500D01*
X104413500Y-107186500D02*
X104413500Y-106686500D01*
X106400000Y-104700000D02*
X108800000Y-104700000D01*
%TO.N,/SSC2_TX*%
X111725000Y-96675000D02*
X111100000Y-97300000D01*
X113300000Y-96675000D02*
X111725000Y-96675000D01*
%TO.N,/C3_A*%
X107925000Y-96675000D02*
X110000000Y-94600000D01*
X106100000Y-96675000D02*
X107925000Y-96675000D01*
%TO.N,/C2_A*%
X107975000Y-97325000D02*
X110000000Y-95300000D01*
X106100000Y-97325000D02*
X107975000Y-97325000D01*
%TO.N,/C1_A*%
X108025000Y-97975000D02*
X110000000Y-96000000D01*
X106100000Y-97975000D02*
X108025000Y-97975000D01*
%TO.N,/BUS_A*%
X106100000Y-100575000D02*
X105125000Y-100575000D01*
X105125000Y-100575000D02*
X105100000Y-100600000D01*
%TO.N,/Controller A/UPDI*%
X106100000Y-101225000D02*
X105125000Y-101225000D01*
X105125000Y-101225000D02*
X103900000Y-100000000D01*
%TO.N,/Controller A/RST*%
X103900000Y-102000000D02*
X105975000Y-102000000D01*
%TO.N,/Controller B/UPDI*%
X103900000Y-109000000D02*
X105034500Y-110134500D01*
X105034500Y-110134500D02*
X105034500Y-112236500D01*
X105034500Y-112236500D02*
X105098000Y-112300000D01*
X105098000Y-112300000D02*
X106100000Y-112300000D01*
%TO.N,/Controller B/RST*%
X106100000Y-112950000D02*
X105098000Y-112950000D01*
X105098000Y-112950000D02*
X103900000Y-111752000D01*
X103900000Y-111752000D02*
X103900000Y-111000000D01*
%TO.N,/Controller A/SSC3_PWR*%
X123350000Y-95650000D02*
X123350000Y-94875000D01*
X123700000Y-96000000D02*
X123350000Y-95650000D01*
%TO.N,/Controller A/SSC2_RX*%
X111900000Y-96100000D02*
X111975000Y-96025000D01*
X111975000Y-96025000D02*
X113300000Y-96025000D01*
%TO.N,/SSC3_TX*%
X101270001Y-107925000D02*
X101871041Y-107925000D01*
X101871041Y-107925000D02*
X105034500Y-104761541D01*
X105034500Y-104761541D02*
X105034500Y-102588500D01*
X105034500Y-102588500D02*
X105098000Y-102525000D01*
X105098000Y-102525000D02*
X106100000Y-102525000D01*
%TO.N,/Controller A/SSC3_RX*%
X108100000Y-103300000D02*
X107975000Y-103175000D01*
X107975000Y-103175000D02*
X106100000Y-103175000D01*
%TO.N,/Controller B/SSC3_PWR*%
X115900000Y-114600000D02*
X115800000Y-114700000D01*
X116610829Y-114600000D02*
X115900000Y-114600000D01*
X123375000Y-107835829D02*
X116610829Y-114600000D01*
%TO.N,/Controller B/SSC1_PWR*%
X115200000Y-112500000D02*
X115100000Y-112400000D01*
X117600000Y-112500000D02*
X115200000Y-112500000D01*
%TO.N,/Controller B/SSC2_PWR*%
X117400000Y-113400000D02*
X116300000Y-113400000D01*
X117400000Y-113400000D02*
X122075000Y-108725000D01*
%TO.N,Net-(U10-PD5)*%
X112050000Y-112950000D02*
X112000000Y-112900000D01*
X113300000Y-112950000D02*
X112050000Y-112950000D01*
%TO.N,Net-(U10-PD7)*%
X112050000Y-114250000D02*
X112000000Y-114200000D01*
X113300000Y-114250000D02*
X112050000Y-114250000D01*
%TO.N,/Controller B/SSC1_PWR*%
X121425000Y-107337500D02*
X121425000Y-108675000D01*
X121425000Y-108675000D02*
X117600000Y-112500000D01*
%TO.N,/Controller B/SSC3_PWR*%
X123375000Y-108014171D02*
X123375000Y-107337500D01*
%TO.N,/Controller B/SSC2_PWR*%
X122075000Y-108725000D02*
X122075000Y-107337500D01*
%TO.N,/Controller A/SSC1_RX*%
X107102000Y-99275000D02*
X106100000Y-99275000D01*
X107600000Y-99773000D02*
X107102000Y-99275000D01*
X107600000Y-101300000D02*
X107600000Y-99773000D01*
%TO.N,/Controller B/SSC2_RX*%
X111000000Y-107000000D02*
X111100000Y-107100000D01*
X111100000Y-107100000D02*
X113300000Y-107100000D01*
%TO.N,/Controller B/SSC1_RX*%
X108550000Y-110350000D02*
X106100000Y-110350000D01*
X108600000Y-110300000D02*
X108550000Y-110350000D01*
%TO.N,/Controller B/SSC3_RX*%
X107400000Y-114300000D02*
X107350000Y-114250000D01*
X107350000Y-114250000D02*
X106100000Y-114250000D01*
%TO.N,/SSC1_TX*%
X106100000Y-98625000D02*
X104825551Y-98625000D01*
X104825551Y-98625000D02*
X104825551Y-97985551D01*
X104825551Y-97985551D02*
X101100000Y-94260000D01*
X107102000Y-98625000D02*
X106100000Y-98625000D01*
X108800000Y-100323000D02*
X107102000Y-98625000D01*
%TO.N,/SSC3_TX*%
X106100000Y-113600000D02*
X105098000Y-113600000D01*
X105098000Y-113600000D02*
X101885501Y-110387501D01*
X101885501Y-110387501D02*
X101885501Y-108540500D01*
X101885501Y-108540500D02*
X101270001Y-107925000D01*
%TO.N,/BUS_A*%
X120100000Y-100600000D02*
X119450000Y-100600000D01*
%TD*%
%TA.AperFunction,Conductor*%
%TO.N,GNDREF*%
G36*
X105860687Y-92208657D02*
G01*
X105906540Y-92261375D01*
X105916613Y-92330515D01*
X105887706Y-92394125D01*
X105828999Y-92432009D01*
X105818035Y-92434714D01*
X105812493Y-92435816D01*
X105812490Y-92435817D01*
X105725167Y-92494166D01*
X105725165Y-92494168D01*
X105717218Y-92506061D01*
X105701802Y-92524844D01*
X105636602Y-92590044D01*
X105575279Y-92623529D01*
X105568319Y-92624836D01*
X105482521Y-92638424D01*
X105376533Y-92692428D01*
X105376529Y-92692431D01*
X105292431Y-92776529D01*
X105292428Y-92776533D01*
X105238424Y-92882521D01*
X105238424Y-92882522D01*
X105219819Y-92999996D01*
X105219819Y-93000003D01*
X105238424Y-93117477D01*
X105238424Y-93117478D01*
X105238425Y-93117481D01*
X105238426Y-93117482D01*
X105289376Y-93217478D01*
X105292428Y-93223466D01*
X105292431Y-93223470D01*
X105376529Y-93307568D01*
X105376533Y-93307571D01*
X105376535Y-93307573D01*
X105482518Y-93361574D01*
X105482520Y-93361574D01*
X105482522Y-93361575D01*
X105599997Y-93380181D01*
X105600000Y-93380181D01*
X105600003Y-93380181D01*
X105717477Y-93361575D01*
X105717478Y-93361575D01*
X105717479Y-93361574D01*
X105717482Y-93361574D01*
X105823465Y-93307573D01*
X105823471Y-93307566D01*
X105826441Y-93305410D01*
X105830670Y-93303900D01*
X105832160Y-93303142D01*
X105832258Y-93303334D01*
X105892248Y-93281930D01*
X105960302Y-93297755D01*
X105987008Y-93318047D01*
X106076529Y-93407568D01*
X106076533Y-93407571D01*
X106076535Y-93407573D01*
X106182518Y-93461574D01*
X106182520Y-93461574D01*
X106182522Y-93461575D01*
X106230823Y-93469225D01*
X106293958Y-93499154D01*
X106330890Y-93558465D01*
X106333899Y-93611095D01*
X106319819Y-93699996D01*
X106319819Y-93699997D01*
X106319819Y-93700000D01*
X106322230Y-93715222D01*
X106326623Y-93742961D01*
X106317667Y-93812254D01*
X106291830Y-93850038D01*
X105940345Y-94201523D01*
X105921560Y-94216941D01*
X105909666Y-94224888D01*
X105886882Y-94258986D01*
X105886880Y-94258990D01*
X105851317Y-94312212D01*
X105838523Y-94376535D01*
X105831232Y-94413194D01*
X105830828Y-94415223D01*
X105833617Y-94429243D01*
X105836000Y-94453435D01*
X105836000Y-94825500D01*
X105816315Y-94892539D01*
X105763511Y-94938294D01*
X105712000Y-94949500D01*
X105205247Y-94949500D01*
X105146770Y-94961131D01*
X105146769Y-94961132D01*
X105080447Y-95005447D01*
X105036132Y-95071769D01*
X105036131Y-95071770D01*
X105024500Y-95130247D01*
X105024500Y-95130249D01*
X105024499Y-95619747D01*
X105035651Y-95675810D01*
X105035651Y-95724190D01*
X105024499Y-95780252D01*
X105024500Y-96269750D01*
X105024500Y-96269752D01*
X105035650Y-96325808D01*
X105035651Y-96374189D01*
X105024499Y-96430252D01*
X105024499Y-96919747D01*
X105035651Y-96975810D01*
X105035651Y-97024190D01*
X105024499Y-97080252D01*
X105024499Y-97511785D01*
X105004814Y-97578825D01*
X104952010Y-97624579D01*
X104882852Y-97634523D01*
X104819296Y-97605498D01*
X104812831Y-97599478D01*
X103343168Y-96129815D01*
X102386895Y-95173542D01*
X102353410Y-95112219D01*
X102358394Y-95042527D01*
X102400266Y-94986594D01*
X102465730Y-94962177D01*
X102493970Y-94963387D01*
X102554467Y-94972969D01*
X102599998Y-94980181D01*
X102600000Y-94980181D01*
X102600003Y-94980181D01*
X102717477Y-94961575D01*
X102717478Y-94961575D01*
X102717479Y-94961574D01*
X102717482Y-94961574D01*
X102823465Y-94907573D01*
X102907573Y-94823465D01*
X102961574Y-94717482D01*
X102961965Y-94715015D01*
X102980181Y-94600003D01*
X102980181Y-94599996D01*
X102961575Y-94482522D01*
X102961575Y-94482521D01*
X102961574Y-94482519D01*
X102961574Y-94482518D01*
X102907573Y-94376535D01*
X102907571Y-94376533D01*
X102907568Y-94376529D01*
X102823470Y-94292431D01*
X102823466Y-94292428D01*
X102823465Y-94292427D01*
X102717482Y-94238426D01*
X102717480Y-94238425D01*
X102717477Y-94238424D01*
X102600003Y-94219819D01*
X102599997Y-94219819D01*
X102482522Y-94238424D01*
X102482521Y-94238424D01*
X102376533Y-94292428D01*
X102376529Y-94292431D01*
X102292431Y-94376529D01*
X102292428Y-94376533D01*
X102238424Y-94482521D01*
X102238424Y-94482522D01*
X102219819Y-94599996D01*
X102219819Y-94600003D01*
X102236611Y-94706027D01*
X102227656Y-94775320D01*
X102182660Y-94828772D01*
X102115908Y-94849411D01*
X102048594Y-94830686D01*
X102026457Y-94813105D01*
X101743907Y-94530555D01*
X101710422Y-94469232D01*
X101711122Y-94418266D01*
X101710881Y-94418237D01*
X101711153Y-94415992D01*
X101711192Y-94413194D01*
X101711780Y-94410802D01*
X101711785Y-94410791D01*
X101730094Y-94260000D01*
X101711785Y-94109209D01*
X101657921Y-93967181D01*
X101611551Y-93900003D01*
X104119819Y-93900003D01*
X104138424Y-94017477D01*
X104138424Y-94017478D01*
X104138425Y-94017481D01*
X104138426Y-94017482D01*
X104185163Y-94109209D01*
X104192428Y-94123466D01*
X104192431Y-94123470D01*
X104276529Y-94207568D01*
X104276533Y-94207571D01*
X104276535Y-94207573D01*
X104382518Y-94261574D01*
X104382520Y-94261574D01*
X104382522Y-94261575D01*
X104499997Y-94280181D01*
X104500000Y-94280181D01*
X104500003Y-94280181D01*
X104617477Y-94261575D01*
X104617478Y-94261575D01*
X104617479Y-94261574D01*
X104617482Y-94261574D01*
X104723465Y-94207573D01*
X104807573Y-94123465D01*
X104861574Y-94017482D01*
X104861575Y-94017477D01*
X104880181Y-93900003D01*
X104880181Y-93899996D01*
X104861575Y-93782522D01*
X104861575Y-93782521D01*
X104861574Y-93782519D01*
X104861574Y-93782518D01*
X104807573Y-93676535D01*
X104807571Y-93676533D01*
X104807568Y-93676529D01*
X104723470Y-93592431D01*
X104723466Y-93592428D01*
X104723465Y-93592427D01*
X104617482Y-93538426D01*
X104617480Y-93538425D01*
X104617477Y-93538424D01*
X104500003Y-93519819D01*
X104499997Y-93519819D01*
X104382522Y-93538424D01*
X104382521Y-93538424D01*
X104276533Y-93592428D01*
X104276529Y-93592431D01*
X104192431Y-93676529D01*
X104192428Y-93676533D01*
X104138424Y-93782521D01*
X104138424Y-93782522D01*
X104119819Y-93899996D01*
X104119819Y-93900003D01*
X101611551Y-93900003D01*
X101571632Y-93842170D01*
X101457934Y-93741443D01*
X101323434Y-93670852D01*
X101323433Y-93670851D01*
X101323432Y-93670851D01*
X101175950Y-93634500D01*
X101175949Y-93634500D01*
X101024051Y-93634500D01*
X101024050Y-93634500D01*
X100876567Y-93670851D01*
X100742067Y-93741442D01*
X100738335Y-93744748D01*
X100632597Y-93838424D01*
X100628367Y-93842171D01*
X100542080Y-93967179D01*
X100542079Y-93967180D01*
X100488215Y-94109208D01*
X100471493Y-94246931D01*
X100469906Y-94260000D01*
X100488215Y-94410791D01*
X100542079Y-94552819D01*
X100615588Y-94659315D01*
X100632629Y-94684003D01*
X100631584Y-94684723D01*
X100658039Y-94741007D01*
X100648855Y-94810270D01*
X100632416Y-94835850D01*
X100632629Y-94835997D01*
X100542080Y-94967179D01*
X100542079Y-94967180D01*
X100488215Y-95109208D01*
X100485660Y-95130249D01*
X100469906Y-95260000D01*
X100488215Y-95410791D01*
X100542079Y-95552819D01*
X100626974Y-95675810D01*
X100632629Y-95684003D01*
X100631584Y-95684723D01*
X100658039Y-95741007D01*
X100648855Y-95810270D01*
X100632416Y-95835850D01*
X100632629Y-95835997D01*
X100542080Y-95967179D01*
X100542079Y-95967180D01*
X100488215Y-96109208D01*
X100474992Y-96218113D01*
X100469906Y-96260000D01*
X100488215Y-96410791D01*
X100542079Y-96552819D01*
X100628368Y-96677830D01*
X100742066Y-96778557D01*
X100876566Y-96849148D01*
X100941947Y-96865263D01*
X101024050Y-96885500D01*
X101024051Y-96885500D01*
X101175950Y-96885500D01*
X101258053Y-96865263D01*
X101323434Y-96849148D01*
X101457934Y-96778557D01*
X101571632Y-96677830D01*
X101657921Y-96552819D01*
X101711785Y-96410791D01*
X101730094Y-96260000D01*
X101711785Y-96109209D01*
X101657921Y-95967181D01*
X101571632Y-95842170D01*
X101571631Y-95842169D01*
X101567371Y-95835997D01*
X101568416Y-95835275D01*
X101541962Y-95779006D01*
X101551139Y-95709741D01*
X101567584Y-95684150D01*
X101567371Y-95684003D01*
X101573026Y-95675810D01*
X101657921Y-95552819D01*
X101689325Y-95470010D01*
X101731502Y-95414309D01*
X101797100Y-95390251D01*
X101865290Y-95405477D01*
X101892948Y-95426301D01*
X104525231Y-98058584D01*
X104558716Y-98119907D01*
X104561550Y-98146265D01*
X104561551Y-98586783D01*
X104559169Y-98610971D01*
X104556379Y-98624999D01*
X104561551Y-98651002D01*
X104561551Y-98651011D01*
X104576866Y-98728005D01*
X104576867Y-98728006D01*
X104576867Y-98728007D01*
X104576868Y-98728008D01*
X104635218Y-98815333D01*
X104722543Y-98873683D01*
X104825551Y-98894172D01*
X104839573Y-98891382D01*
X104863764Y-98889000D01*
X104901599Y-98889000D01*
X104968638Y-98908685D01*
X105014393Y-98961489D01*
X105025002Y-99025152D01*
X105024500Y-99030249D01*
X105024500Y-99519752D01*
X105036131Y-99578229D01*
X105036132Y-99578230D01*
X105080447Y-99644552D01*
X105146769Y-99688867D01*
X105146770Y-99688868D01*
X105205247Y-99700499D01*
X105205250Y-99700500D01*
X105205252Y-99700500D01*
X106994749Y-99700500D01*
X107009936Y-99697478D01*
X107053231Y-99688867D01*
X107053232Y-99688866D01*
X107062694Y-99686984D01*
X107132286Y-99693211D01*
X107174568Y-99720920D01*
X107299680Y-99846032D01*
X107333165Y-99907355D01*
X107335999Y-99933713D01*
X107335999Y-100122532D01*
X107316314Y-100189571D01*
X107263510Y-100235326D01*
X107194352Y-100245270D01*
X107130796Y-100216245D01*
X107124318Y-100210213D01*
X107119553Y-100205448D01*
X107053230Y-100161132D01*
X107053229Y-100161131D01*
X106994752Y-100149500D01*
X106994748Y-100149500D01*
X105205252Y-100149500D01*
X105205247Y-100149500D01*
X105146770Y-100161131D01*
X105146768Y-100161132D01*
X105070295Y-100212232D01*
X105067975Y-100208761D01*
X105026725Y-100231226D01*
X105019901Y-100232504D01*
X104982521Y-100238424D01*
X104876533Y-100292428D01*
X104876529Y-100292431D01*
X104808838Y-100360123D01*
X104747515Y-100393608D01*
X104677823Y-100388624D01*
X104633476Y-100360123D01*
X104602533Y-100329180D01*
X104569048Y-100267857D01*
X104574032Y-100198165D01*
X104574273Y-100197526D01*
X104577290Y-100189571D01*
X104585140Y-100168872D01*
X104605645Y-100000000D01*
X104585140Y-99831128D01*
X104524818Y-99672070D01*
X104519879Y-99664915D01*
X104460044Y-99578230D01*
X104428183Y-99532071D01*
X104310711Y-99428000D01*
X104300849Y-99419263D01*
X104150226Y-99340210D01*
X103985056Y-99299500D01*
X103814944Y-99299500D01*
X103649773Y-99340210D01*
X103499150Y-99419263D01*
X103371816Y-99532072D01*
X103275182Y-99672068D01*
X103214860Y-99831125D01*
X103214859Y-99831130D01*
X103194355Y-100000000D01*
X103214859Y-100168869D01*
X103214860Y-100168874D01*
X103275182Y-100327931D01*
X103322190Y-100396033D01*
X103371817Y-100467929D01*
X103448487Y-100535852D01*
X103499150Y-100580736D01*
X103623405Y-100645950D01*
X103649775Y-100659790D01*
X103814944Y-100700500D01*
X103985056Y-100700500D01*
X104111373Y-100669366D01*
X104181175Y-100672435D01*
X104228729Y-100702082D01*
X104911301Y-101384654D01*
X104926720Y-101403441D01*
X104934664Y-101415330D01*
X104934666Y-101415332D01*
X104934667Y-101415333D01*
X104954372Y-101428500D01*
X104954393Y-101428515D01*
X104982804Y-101447499D01*
X105027609Y-101501112D01*
X105036316Y-101570437D01*
X105035531Y-101574790D01*
X105023319Y-101636189D01*
X104990935Y-101698101D01*
X104930220Y-101732676D01*
X104901701Y-101736000D01*
X104633332Y-101736000D01*
X104566293Y-101716315D01*
X104530516Y-101677250D01*
X104529079Y-101678243D01*
X104507524Y-101647015D01*
X104428183Y-101532071D01*
X104314796Y-101431619D01*
X104300849Y-101419263D01*
X104150226Y-101340210D01*
X103985056Y-101299500D01*
X103814944Y-101299500D01*
X103649773Y-101340210D01*
X103499150Y-101419263D01*
X103396999Y-101509762D01*
X103376152Y-101528231D01*
X103371816Y-101532072D01*
X103275182Y-101672068D01*
X103214860Y-101831125D01*
X103214859Y-101831130D01*
X103194355Y-101999999D01*
X103214859Y-102168869D01*
X103214860Y-102168874D01*
X103275182Y-102327931D01*
X103337228Y-102417819D01*
X103371817Y-102467929D01*
X103463331Y-102549003D01*
X103499150Y-102580736D01*
X103619701Y-102644006D01*
X103649775Y-102659790D01*
X103814944Y-102700500D01*
X103985056Y-102700500D01*
X104150225Y-102659790D01*
X104259337Y-102602523D01*
X104300849Y-102580736D01*
X104300850Y-102580734D01*
X104300852Y-102580734D01*
X104428183Y-102467929D01*
X104524818Y-102327930D01*
X104524818Y-102327929D01*
X104529079Y-102321757D01*
X104530753Y-102322912D01*
X104572125Y-102280159D01*
X104633332Y-102264000D01*
X104701826Y-102264000D01*
X104768865Y-102283685D01*
X104814620Y-102336489D01*
X104824564Y-102405647D01*
X104804927Y-102456892D01*
X104785817Y-102485490D01*
X104785815Y-102485494D01*
X104765328Y-102588496D01*
X104765328Y-102588499D01*
X104768117Y-102602523D01*
X104770499Y-102626710D01*
X104770499Y-104600826D01*
X104750814Y-104667865D01*
X104734180Y-104688507D01*
X101916372Y-107506315D01*
X101855049Y-107539800D01*
X101785357Y-107534816D01*
X101746464Y-107511450D01*
X101739468Y-107505252D01*
X101627935Y-107406443D01*
X101493435Y-107335852D01*
X101493434Y-107335851D01*
X101493433Y-107335851D01*
X101345951Y-107299500D01*
X101345950Y-107299500D01*
X101194052Y-107299500D01*
X101194051Y-107299500D01*
X101046568Y-107335851D01*
X100912068Y-107406442D01*
X100798368Y-107507171D01*
X100712081Y-107632179D01*
X100712080Y-107632180D01*
X100658216Y-107774208D01*
X100642136Y-107906646D01*
X100639907Y-107925000D01*
X100658216Y-108075791D01*
X100712080Y-108217819D01*
X100792325Y-108334074D01*
X100802630Y-108349003D01*
X100801585Y-108349723D01*
X100828040Y-108406007D01*
X100818856Y-108475270D01*
X100802417Y-108500850D01*
X100802630Y-108500997D01*
X100712081Y-108632179D01*
X100712080Y-108632180D01*
X100658216Y-108774208D01*
X100639941Y-108924724D01*
X100639907Y-108925000D01*
X100658216Y-109075791D01*
X100712080Y-109217819D01*
X100788138Y-109328008D01*
X100802630Y-109349003D01*
X100801585Y-109349723D01*
X100828040Y-109406007D01*
X100818856Y-109475270D01*
X100802417Y-109500850D01*
X100802630Y-109500997D01*
X100712081Y-109632179D01*
X100712080Y-109632180D01*
X100659142Y-109771768D01*
X100658216Y-109774209D01*
X100639907Y-109925000D01*
X100658216Y-110075791D01*
X100712080Y-110217819D01*
X100798369Y-110342830D01*
X100912067Y-110443557D01*
X101046567Y-110514148D01*
X101093050Y-110525605D01*
X101194051Y-110550500D01*
X101194052Y-110550500D01*
X101345951Y-110550500D01*
X101446952Y-110525605D01*
X101493435Y-110514148D01*
X101512521Y-110504130D01*
X101581027Y-110490403D01*
X101646081Y-110515893D01*
X101673249Y-110545031D01*
X101695168Y-110577834D01*
X101706853Y-110585642D01*
X101707056Y-110585777D01*
X101725846Y-110601198D01*
X104884304Y-113759657D01*
X104899721Y-113778441D01*
X104907667Y-113790333D01*
X104927372Y-113803500D01*
X104927393Y-113803515D01*
X104979637Y-113838424D01*
X105024442Y-113892037D01*
X105033149Y-113961362D01*
X105032364Y-113965716D01*
X105024500Y-114005252D01*
X105024500Y-114494752D01*
X105036131Y-114553229D01*
X105036132Y-114553230D01*
X105080447Y-114619552D01*
X105146769Y-114663867D01*
X105146770Y-114663868D01*
X105205247Y-114675499D01*
X105205250Y-114675500D01*
X105205252Y-114675500D01*
X106994750Y-114675500D01*
X106994751Y-114675499D01*
X107014418Y-114671587D01*
X107053228Y-114663868D01*
X107053228Y-114663867D01*
X107053231Y-114663867D01*
X107093948Y-114636659D01*
X107160622Y-114615782D01*
X107219130Y-114629276D01*
X107282518Y-114661574D01*
X107282520Y-114661574D01*
X107282522Y-114661575D01*
X107399997Y-114680181D01*
X107400000Y-114680181D01*
X107400003Y-114680181D01*
X107517477Y-114661575D01*
X107517478Y-114661575D01*
X107517479Y-114661574D01*
X107517482Y-114661574D01*
X107623465Y-114607573D01*
X107662316Y-114568721D01*
X107723640Y-114535235D01*
X107793331Y-114540219D01*
X107837679Y-114568719D01*
X107876529Y-114607568D01*
X107876533Y-114607571D01*
X107876535Y-114607573D01*
X107982518Y-114661574D01*
X107982520Y-114661574D01*
X107982522Y-114661575D01*
X108099997Y-114680181D01*
X108100000Y-114680181D01*
X108100003Y-114680181D01*
X108217477Y-114661575D01*
X108217478Y-114661575D01*
X108217479Y-114661574D01*
X108217482Y-114661574D01*
X108323465Y-114607573D01*
X108407573Y-114523465D01*
X108461574Y-114417482D01*
X108465542Y-114392428D01*
X108480181Y-114300003D01*
X108480181Y-114299996D01*
X108461575Y-114182521D01*
X108461574Y-114182519D01*
X108461574Y-114182518D01*
X108407573Y-114076535D01*
X108407571Y-114076533D01*
X108407568Y-114076529D01*
X108400319Y-114069280D01*
X108366834Y-114007957D01*
X108364000Y-113981599D01*
X108364000Y-113879171D01*
X108383685Y-113812132D01*
X108436489Y-113766377D01*
X108505647Y-113756433D01*
X108507384Y-113756695D01*
X108526080Y-113759657D01*
X108607609Y-113772570D01*
X108607611Y-113772570D01*
X108607614Y-113772570D01*
X108725088Y-113753964D01*
X108725089Y-113753964D01*
X108725090Y-113753963D01*
X108725093Y-113753963D01*
X108831076Y-113699962D01*
X108915184Y-113615854D01*
X108969185Y-113509871D01*
X108973517Y-113482518D01*
X108987792Y-113392392D01*
X108987792Y-113392385D01*
X108969186Y-113274911D01*
X108969186Y-113274910D01*
X108969185Y-113274908D01*
X108969185Y-113274907D01*
X108915184Y-113168924D01*
X108915182Y-113168922D01*
X108915179Y-113168918D01*
X108831081Y-113084820D01*
X108831077Y-113084817D01*
X108831076Y-113084816D01*
X108725093Y-113030815D01*
X108725091Y-113030814D01*
X108725088Y-113030813D01*
X108639291Y-113017225D01*
X108576156Y-112987296D01*
X108571007Y-112982433D01*
X107211818Y-111623244D01*
X107178333Y-111561921D01*
X107175499Y-111535562D01*
X107175499Y-111499999D01*
X107175500Y-111405252D01*
X107165856Y-111356766D01*
X107163868Y-111346770D01*
X107163867Y-111346769D01*
X107119552Y-111280447D01*
X107053230Y-111236132D01*
X107053229Y-111236131D01*
X106994752Y-111224500D01*
X106994748Y-111224500D01*
X105422500Y-111224500D01*
X105355461Y-111204815D01*
X105309706Y-111152011D01*
X105298500Y-111100500D01*
X105298500Y-110899500D01*
X105318185Y-110832461D01*
X105370989Y-110786706D01*
X105422500Y-110775500D01*
X106994750Y-110775500D01*
X106994751Y-110775499D01*
X107009568Y-110772552D01*
X107053229Y-110763868D01*
X107053229Y-110763867D01*
X107053231Y-110763867D01*
X107097545Y-110734256D01*
X107119551Y-110719553D01*
X107132830Y-110699681D01*
X107153258Y-110669107D01*
X107206871Y-110624304D01*
X107256360Y-110614000D01*
X108359379Y-110614000D01*
X108415673Y-110627515D01*
X108418105Y-110628754D01*
X108482518Y-110661574D01*
X108482519Y-110661574D01*
X108482521Y-110661575D01*
X108482520Y-110661575D01*
X108599997Y-110680181D01*
X108600000Y-110680181D01*
X108600003Y-110680181D01*
X108717477Y-110661575D01*
X108717478Y-110661575D01*
X108717479Y-110661574D01*
X108717482Y-110661574D01*
X108823465Y-110607573D01*
X108823467Y-110607570D01*
X108826648Y-110605950D01*
X108895317Y-110593054D01*
X108960058Y-110619330D01*
X108970614Y-110628744D01*
X109022051Y-110680181D01*
X109067497Y-110725627D01*
X109100981Y-110786951D01*
X109095997Y-110856642D01*
X109054125Y-110912575D01*
X108999214Y-110935781D01*
X108982521Y-110938424D01*
X108876533Y-110992428D01*
X108876529Y-110992431D01*
X108792431Y-111076529D01*
X108792428Y-111076533D01*
X108738424Y-111182521D01*
X108738424Y-111182522D01*
X108719819Y-111299996D01*
X108719819Y-111300003D01*
X108738424Y-111417477D01*
X108738424Y-111417478D01*
X108738425Y-111417481D01*
X108738426Y-111417482D01*
X108790569Y-111519819D01*
X108792428Y-111523466D01*
X108792431Y-111523470D01*
X108876529Y-111607568D01*
X108876533Y-111607571D01*
X108876535Y-111607573D01*
X108982518Y-111661574D01*
X108982520Y-111661574D01*
X108982522Y-111661575D01*
X109099997Y-111680181D01*
X109100000Y-111680181D01*
X109100001Y-111680181D01*
X109123058Y-111676529D01*
X109192603Y-111665514D01*
X109261895Y-111674468D01*
X109315347Y-111719464D01*
X109335987Y-111786216D01*
X109336000Y-111787987D01*
X109336000Y-111881599D01*
X109316315Y-111948638D01*
X109299681Y-111969280D01*
X109292431Y-111976529D01*
X109292428Y-111976533D01*
X109238424Y-112082521D01*
X109238424Y-112082522D01*
X109219819Y-112199996D01*
X109219819Y-112200003D01*
X109238424Y-112317477D01*
X109238424Y-112317478D01*
X109238425Y-112317481D01*
X109238426Y-112317482D01*
X109290144Y-112418985D01*
X109292428Y-112423466D01*
X109292431Y-112423470D01*
X109376529Y-112507568D01*
X109376533Y-112507571D01*
X109376535Y-112507573D01*
X109482518Y-112561574D01*
X109482520Y-112561574D01*
X109482522Y-112561575D01*
X109599997Y-112580181D01*
X109600000Y-112580181D01*
X109600003Y-112580181D01*
X109717477Y-112561575D01*
X109717478Y-112561575D01*
X109717479Y-112561574D01*
X109717482Y-112561574D01*
X109823465Y-112507573D01*
X109907573Y-112423465D01*
X109961574Y-112317482D01*
X109974400Y-112236500D01*
X109980181Y-112200003D01*
X109980181Y-112199996D01*
X109961575Y-112082522D01*
X109961575Y-112082521D01*
X109961574Y-112082519D01*
X109961574Y-112082518D01*
X109907573Y-111976535D01*
X109907571Y-111976533D01*
X109907568Y-111976529D01*
X109900319Y-111969280D01*
X109866834Y-111907957D01*
X109864000Y-111881599D01*
X109864000Y-111236713D01*
X109883685Y-111169674D01*
X109936489Y-111123919D01*
X110005647Y-111113975D01*
X110069203Y-111143000D01*
X110075670Y-111149022D01*
X110086303Y-111159655D01*
X110101719Y-111178439D01*
X110108376Y-111188401D01*
X110109667Y-111190333D01*
X110196992Y-111248683D01*
X110273998Y-111264000D01*
X110274000Y-111264000D01*
X110279968Y-111265187D01*
X110279971Y-111265187D01*
X110300000Y-111269171D01*
X110314022Y-111266381D01*
X110338211Y-111264000D01*
X111473642Y-111264000D01*
X111540681Y-111283685D01*
X111586436Y-111336489D01*
X111596380Y-111405647D01*
X111576739Y-111456898D01*
X111566940Y-111471561D01*
X111551524Y-111490344D01*
X108990345Y-114051523D01*
X108971560Y-114066941D01*
X108959666Y-114074888D01*
X108936882Y-114108986D01*
X108936880Y-114108990D01*
X108901317Y-114162212D01*
X108880828Y-114265223D01*
X108883617Y-114279243D01*
X108886000Y-114303435D01*
X108886000Y-115031599D01*
X108866315Y-115098638D01*
X108849681Y-115119280D01*
X108842431Y-115126529D01*
X108842428Y-115126533D01*
X108788424Y-115232521D01*
X108788424Y-115232522D01*
X108769819Y-115349996D01*
X108769819Y-115350003D01*
X108788424Y-115467477D01*
X108788424Y-115467478D01*
X108788425Y-115467481D01*
X108788426Y-115467482D01*
X108839919Y-115568543D01*
X108842428Y-115573466D01*
X108842431Y-115573470D01*
X108926529Y-115657568D01*
X108926533Y-115657571D01*
X108926535Y-115657573D01*
X109032518Y-115711574D01*
X109032520Y-115711574D01*
X109032522Y-115711575D01*
X109149997Y-115730181D01*
X109150000Y-115730181D01*
X109150003Y-115730181D01*
X109267477Y-115711575D01*
X109267478Y-115711575D01*
X109267479Y-115711574D01*
X109267482Y-115711574D01*
X109373465Y-115657573D01*
X109457573Y-115573465D01*
X109511574Y-115467482D01*
X109520862Y-115408838D01*
X109530181Y-115350003D01*
X109530181Y-115349996D01*
X109511575Y-115232522D01*
X109511575Y-115232521D01*
X109511574Y-115232519D01*
X109511574Y-115232518D01*
X109457573Y-115126535D01*
X109457571Y-115126533D01*
X109457570Y-115126531D01*
X109450319Y-115119280D01*
X109416834Y-115057957D01*
X109414000Y-115031599D01*
X109414000Y-114425935D01*
X109433685Y-114358896D01*
X109450315Y-114338258D01*
X109461262Y-114327311D01*
X109522584Y-114293827D01*
X109592276Y-114298811D01*
X109648209Y-114340683D01*
X109659424Y-114358694D01*
X109692427Y-114423465D01*
X109692429Y-114423467D01*
X109692431Y-114423470D01*
X109776531Y-114507570D01*
X109776923Y-114507855D01*
X109777283Y-114508322D01*
X109783435Y-114514474D01*
X109782640Y-114515268D01*
X109819591Y-114563183D01*
X109825573Y-114632796D01*
X109810522Y-114667046D01*
X109812080Y-114667840D01*
X109807650Y-114676533D01*
X109807649Y-114676535D01*
X109753648Y-114782518D01*
X109753647Y-114782519D01*
X109753647Y-114782521D01*
X109735041Y-114899996D01*
X109735041Y-114900003D01*
X109753646Y-115017477D01*
X109753646Y-115017478D01*
X109753647Y-115017481D01*
X109753648Y-115017482D01*
X109807552Y-115123275D01*
X109807650Y-115123466D01*
X109807653Y-115123470D01*
X109891751Y-115207568D01*
X109891755Y-115207571D01*
X109891757Y-115207573D01*
X109997740Y-115261574D01*
X109997742Y-115261574D01*
X109997744Y-115261575D01*
X110115219Y-115280181D01*
X110115222Y-115280181D01*
X110115225Y-115280181D01*
X110232699Y-115261575D01*
X110232699Y-115261574D01*
X110232704Y-115261574D01*
X110265478Y-115244874D01*
X110273054Y-115241015D01*
X110329348Y-115227500D01*
X110754372Y-115227500D01*
X110800947Y-115241176D01*
X110829735Y-115228523D01*
X110845628Y-115227500D01*
X112187034Y-115227500D01*
X112254073Y-115247185D01*
X112274718Y-115263822D01*
X112280448Y-115269552D01*
X112346769Y-115313867D01*
X112346770Y-115313868D01*
X112405247Y-115325499D01*
X112405250Y-115325500D01*
X112405252Y-115325500D01*
X114194750Y-115325500D01*
X114194751Y-115325499D01*
X114218618Y-115320752D01*
X114253229Y-115313868D01*
X114253229Y-115313867D01*
X114253231Y-115313867D01*
X114319552Y-115269552D01*
X114363867Y-115203231D01*
X114363867Y-115203229D01*
X114363868Y-115203229D01*
X114375499Y-115144752D01*
X114375500Y-115144750D01*
X114375500Y-114655249D01*
X114364349Y-114599191D01*
X114364348Y-114550812D01*
X114371038Y-114517175D01*
X114403422Y-114455268D01*
X114464137Y-114420693D01*
X114533907Y-114424432D01*
X114580336Y-114453688D01*
X116486299Y-116359651D01*
X116501719Y-116378439D01*
X116509666Y-116390332D01*
X116509667Y-116390333D01*
X116596992Y-116448683D01*
X116673998Y-116464000D01*
X116674000Y-116464000D01*
X116679968Y-116465187D01*
X116679971Y-116465187D01*
X116700000Y-116469171D01*
X116714022Y-116466381D01*
X116738211Y-116464000D01*
X117512012Y-116464000D01*
X117579051Y-116483685D01*
X117624806Y-116536489D01*
X117634750Y-116605647D01*
X117634485Y-116607397D01*
X117619819Y-116699996D01*
X117619819Y-116700003D01*
X117638424Y-116817477D01*
X117638425Y-116817480D01*
X117639561Y-116819709D01*
X117640123Y-116822706D01*
X117641441Y-116826760D01*
X117640916Y-116826930D01*
X117652455Y-116888379D01*
X117626176Y-116953118D01*
X117569068Y-116993373D01*
X117529074Y-117000000D01*
X100174500Y-117000000D01*
X100107461Y-116980315D01*
X100061706Y-116927511D01*
X100050500Y-116876000D01*
X100050500Y-115500003D01*
X102819819Y-115500003D01*
X102838424Y-115617477D01*
X102838424Y-115617478D01*
X102838425Y-115617481D01*
X102838426Y-115617482D01*
X102886368Y-115711574D01*
X102892428Y-115723466D01*
X102892431Y-115723470D01*
X102976529Y-115807568D01*
X102976533Y-115807571D01*
X102976535Y-115807573D01*
X103082518Y-115861574D01*
X103082520Y-115861574D01*
X103082522Y-115861575D01*
X103199997Y-115880181D01*
X103200000Y-115880181D01*
X103200003Y-115880181D01*
X103317477Y-115861575D01*
X103317478Y-115861575D01*
X103317479Y-115861574D01*
X103317482Y-115861574D01*
X103340191Y-115850003D01*
X110419819Y-115850003D01*
X110438424Y-115967477D01*
X110438424Y-115967478D01*
X110438425Y-115967481D01*
X110438426Y-115967482D01*
X110486368Y-116061574D01*
X110492428Y-116073466D01*
X110492431Y-116073470D01*
X110576529Y-116157568D01*
X110576533Y-116157571D01*
X110576535Y-116157573D01*
X110682518Y-116211574D01*
X110682520Y-116211574D01*
X110682522Y-116211575D01*
X110799997Y-116230181D01*
X110800000Y-116230181D01*
X110800003Y-116230181D01*
X110917477Y-116211575D01*
X110917478Y-116211575D01*
X110917479Y-116211574D01*
X110917482Y-116211574D01*
X111023465Y-116157573D01*
X111107573Y-116073465D01*
X111161574Y-115967482D01*
X111161575Y-115967477D01*
X111180181Y-115850003D01*
X111180181Y-115849996D01*
X111161575Y-115732522D01*
X111161575Y-115732521D01*
X111161574Y-115732519D01*
X111161574Y-115732518D01*
X111107573Y-115626535D01*
X111107571Y-115626533D01*
X111107568Y-115626529D01*
X111023470Y-115542431D01*
X111023466Y-115542428D01*
X111023465Y-115542427D01*
X110917482Y-115488426D01*
X110917480Y-115488425D01*
X110917477Y-115488424D01*
X110826231Y-115473973D01*
X110801850Y-115462415D01*
X110789307Y-115470477D01*
X110773769Y-115473973D01*
X110682522Y-115488424D01*
X110682521Y-115488424D01*
X110576533Y-115542428D01*
X110576529Y-115542431D01*
X110492431Y-115626529D01*
X110492428Y-115626533D01*
X110438424Y-115732521D01*
X110438424Y-115732522D01*
X110419819Y-115849996D01*
X110419819Y-115850003D01*
X103340191Y-115850003D01*
X103423465Y-115807573D01*
X103507573Y-115723465D01*
X103561574Y-115617482D01*
X103561575Y-115617477D01*
X103580181Y-115500003D01*
X103580181Y-115499996D01*
X103561575Y-115382521D01*
X103561574Y-115382519D01*
X103561574Y-115382518D01*
X103507573Y-115276535D01*
X103507571Y-115276533D01*
X103507568Y-115276529D01*
X103423470Y-115192431D01*
X103423466Y-115192428D01*
X103423465Y-115192427D01*
X103317482Y-115138426D01*
X103317480Y-115138425D01*
X103317477Y-115138424D01*
X103200003Y-115119819D01*
X103199997Y-115119819D01*
X103082522Y-115138424D01*
X103082521Y-115138424D01*
X102976533Y-115192428D01*
X102976529Y-115192431D01*
X102892431Y-115276529D01*
X102892428Y-115276533D01*
X102892426Y-115276535D01*
X102892427Y-115276535D01*
X102838426Y-115382518D01*
X102838425Y-115382519D01*
X102838425Y-115382521D01*
X102819819Y-115499996D01*
X102819819Y-115500003D01*
X100050500Y-115500003D01*
X100050500Y-103125000D01*
X100537404Y-103125000D01*
X100555713Y-103275791D01*
X100609577Y-103417819D01*
X100695866Y-103542830D01*
X100809564Y-103643557D01*
X100944064Y-103714148D01*
X101002438Y-103728536D01*
X101091548Y-103750500D01*
X101091549Y-103750500D01*
X101243448Y-103750500D01*
X101297484Y-103737181D01*
X101390932Y-103714148D01*
X101525432Y-103643557D01*
X101634220Y-103547179D01*
X101697452Y-103517459D01*
X101766716Y-103526643D01*
X101820019Y-103571815D01*
X101834259Y-103608570D01*
X101835409Y-103608197D01*
X101838424Y-103617478D01*
X101838425Y-103617481D01*
X101838426Y-103617482D01*
X101890569Y-103719819D01*
X101892428Y-103723466D01*
X101892431Y-103723470D01*
X101976529Y-103807568D01*
X101976533Y-103807571D01*
X101976535Y-103807573D01*
X102082518Y-103861574D01*
X102082520Y-103861574D01*
X102082522Y-103861575D01*
X102199997Y-103880181D01*
X102200000Y-103880181D01*
X102200003Y-103880181D01*
X102317477Y-103861575D01*
X102317478Y-103861575D01*
X102317479Y-103861574D01*
X102317482Y-103861574D01*
X102423465Y-103807573D01*
X102507573Y-103723465D01*
X102561574Y-103617482D01*
X102562489Y-103611706D01*
X102580181Y-103500003D01*
X102580181Y-103499996D01*
X102561575Y-103382522D01*
X102561575Y-103382521D01*
X102561574Y-103382519D01*
X102561574Y-103382518D01*
X102507573Y-103276535D01*
X102507571Y-103276533D01*
X102507568Y-103276529D01*
X102423470Y-103192431D01*
X102423466Y-103192428D01*
X102423465Y-103192427D01*
X102317482Y-103138426D01*
X102317480Y-103138425D01*
X102317477Y-103138424D01*
X102200003Y-103119819D01*
X102199997Y-103119819D01*
X102082522Y-103138424D01*
X102082518Y-103138425D01*
X101973741Y-103193850D01*
X101905072Y-103206746D01*
X101840332Y-103180469D01*
X101800075Y-103123362D01*
X101794351Y-103098311D01*
X101792434Y-103082521D01*
X101779283Y-102974209D01*
X101725419Y-102832181D01*
X101639130Y-102707170D01*
X101639129Y-102707169D01*
X101634869Y-102700997D01*
X101635914Y-102700275D01*
X101609460Y-102644006D01*
X101618637Y-102574741D01*
X101635082Y-102549150D01*
X101634869Y-102549003D01*
X101649601Y-102527660D01*
X101725419Y-102417819D01*
X101779283Y-102275791D01*
X101797592Y-102125000D01*
X101779283Y-101974209D01*
X101725419Y-101832181D01*
X101639130Y-101707170D01*
X101639129Y-101707169D01*
X101634869Y-101700997D01*
X101635914Y-101700275D01*
X101609460Y-101644006D01*
X101618637Y-101574741D01*
X101635082Y-101549150D01*
X101634869Y-101549003D01*
X101642170Y-101538426D01*
X101725419Y-101417819D01*
X101732176Y-101400003D01*
X102219819Y-101400003D01*
X102238424Y-101517477D01*
X102238424Y-101517478D01*
X102238425Y-101517481D01*
X102238426Y-101517482D01*
X102276988Y-101593165D01*
X102292428Y-101623466D01*
X102292431Y-101623470D01*
X102376529Y-101707568D01*
X102376533Y-101707571D01*
X102376535Y-101707573D01*
X102482518Y-101761574D01*
X102482520Y-101761574D01*
X102482522Y-101761575D01*
X102599997Y-101780181D01*
X102600000Y-101780181D01*
X102600003Y-101780181D01*
X102717477Y-101761575D01*
X102717478Y-101761575D01*
X102717479Y-101761574D01*
X102717482Y-101761574D01*
X102823465Y-101707573D01*
X102907573Y-101623465D01*
X102961574Y-101517482D01*
X102964167Y-101501112D01*
X102980181Y-101400003D01*
X102980181Y-101399996D01*
X102961575Y-101282522D01*
X102961575Y-101282521D01*
X102961574Y-101282519D01*
X102961574Y-101282518D01*
X102907573Y-101176535D01*
X102907571Y-101176533D01*
X102907568Y-101176529D01*
X102823470Y-101092431D01*
X102823466Y-101092428D01*
X102823465Y-101092427D01*
X102717482Y-101038426D01*
X102717480Y-101038425D01*
X102717477Y-101038424D01*
X102600003Y-101019819D01*
X102599997Y-101019819D01*
X102482522Y-101038424D01*
X102482521Y-101038424D01*
X102376533Y-101092428D01*
X102376529Y-101092431D01*
X102292431Y-101176529D01*
X102292428Y-101176533D01*
X102238424Y-101282521D01*
X102238424Y-101282522D01*
X102219819Y-101399996D01*
X102219819Y-101400003D01*
X101732176Y-101400003D01*
X101779283Y-101275791D01*
X101797592Y-101125000D01*
X101779283Y-100974209D01*
X101725419Y-100832181D01*
X101639130Y-100707170D01*
X101525432Y-100606443D01*
X101390932Y-100535852D01*
X101390931Y-100535851D01*
X101390930Y-100535851D01*
X101243448Y-100499500D01*
X101243447Y-100499500D01*
X101091549Y-100499500D01*
X101091548Y-100499500D01*
X100944065Y-100535851D01*
X100809565Y-100606442D01*
X100695865Y-100707171D01*
X100609578Y-100832179D01*
X100609577Y-100832180D01*
X100555713Y-100974208D01*
X100537404Y-101125000D01*
X100555713Y-101275791D01*
X100609577Y-101417819D01*
X100692826Y-101538426D01*
X100700127Y-101549003D01*
X100699082Y-101549723D01*
X100725537Y-101606007D01*
X100716353Y-101675270D01*
X100699914Y-101700850D01*
X100700127Y-101700997D01*
X100609578Y-101832179D01*
X100609577Y-101832180D01*
X100555713Y-101974208D01*
X100548885Y-102030447D01*
X100537404Y-102125000D01*
X100555713Y-102275791D01*
X100609577Y-102417819D01*
X100656290Y-102485494D01*
X100700127Y-102549003D01*
X100699082Y-102549723D01*
X100725537Y-102606007D01*
X100716353Y-102675270D01*
X100699914Y-102700850D01*
X100700127Y-102700997D01*
X100609578Y-102832179D01*
X100609577Y-102832180D01*
X100555713Y-102974208D01*
X100537947Y-103120532D01*
X100537404Y-103125000D01*
X100050500Y-103125000D01*
X100050500Y-97300003D01*
X101719819Y-97300003D01*
X101738424Y-97417477D01*
X101738424Y-97417478D01*
X101738425Y-97417481D01*
X101738426Y-97417482D01*
X101785210Y-97509301D01*
X101792428Y-97523466D01*
X101792431Y-97523470D01*
X101876529Y-97607568D01*
X101876533Y-97607571D01*
X101876535Y-97607573D01*
X101982518Y-97661574D01*
X101982520Y-97661574D01*
X101982522Y-97661575D01*
X102099997Y-97680181D01*
X102100000Y-97680181D01*
X102100003Y-97680181D01*
X102217477Y-97661575D01*
X102217478Y-97661575D01*
X102217479Y-97661574D01*
X102217482Y-97661574D01*
X102323465Y-97607573D01*
X102407573Y-97523465D01*
X102461574Y-97417482D01*
X102480181Y-97300000D01*
X102480181Y-97299996D01*
X102461575Y-97182522D01*
X102461575Y-97182521D01*
X102461574Y-97182519D01*
X102461574Y-97182518D01*
X102407573Y-97076535D01*
X102407571Y-97076533D01*
X102407568Y-97076529D01*
X102323470Y-96992431D01*
X102323466Y-96992428D01*
X102323465Y-96992427D01*
X102217482Y-96938426D01*
X102217480Y-96938425D01*
X102217477Y-96938424D01*
X102100003Y-96919819D01*
X102099997Y-96919819D01*
X101982522Y-96938424D01*
X101982521Y-96938424D01*
X101876533Y-96992428D01*
X101876529Y-96992431D01*
X101792431Y-97076529D01*
X101792428Y-97076533D01*
X101738424Y-97182521D01*
X101738424Y-97182522D01*
X101719819Y-97299996D01*
X101719819Y-97300003D01*
X100050500Y-97300003D01*
X100050500Y-92323581D01*
X100070185Y-92256542D01*
X100122989Y-92210787D01*
X100174268Y-92199581D01*
X105793612Y-92189097D01*
X105860687Y-92208657D01*
G37*
%TD.AperFunction*%
%TA.AperFunction,Conductor*%
G36*
X126692539Y-92170185D02*
G01*
X126738294Y-92222989D01*
X126749500Y-92274500D01*
X126749500Y-116876000D01*
X126729815Y-116943039D01*
X126677011Y-116988794D01*
X126625500Y-117000000D01*
X118470926Y-117000000D01*
X118403887Y-116980315D01*
X118358132Y-116927511D01*
X118348188Y-116858353D01*
X118360439Y-116819709D01*
X118361574Y-116817482D01*
X118380181Y-116700000D01*
X118380181Y-116699996D01*
X118365515Y-116607397D01*
X118374470Y-116538104D01*
X118419466Y-116484652D01*
X118486218Y-116464013D01*
X118487988Y-116464000D01*
X122061787Y-116464000D01*
X122085977Y-116466382D01*
X122100000Y-116469172D01*
X122203008Y-116448683D01*
X122268290Y-116405062D01*
X122268290Y-116405061D01*
X122279273Y-116397722D01*
X122290333Y-116390333D01*
X122298275Y-116378445D01*
X122313694Y-116359656D01*
X122733477Y-115939873D01*
X122794798Y-115906390D01*
X122864490Y-115911374D01*
X122908835Y-115939873D01*
X122976535Y-116007573D01*
X123082518Y-116061574D01*
X123082520Y-116061574D01*
X123082522Y-116061575D01*
X123199997Y-116080181D01*
X123200000Y-116080181D01*
X123200003Y-116080181D01*
X123317477Y-116061575D01*
X123317478Y-116061575D01*
X123317479Y-116061574D01*
X123317482Y-116061574D01*
X123423465Y-116007573D01*
X123507573Y-115923465D01*
X123561574Y-115817482D01*
X123561575Y-115817477D01*
X123580181Y-115700003D01*
X123580181Y-115699996D01*
X123561575Y-115582522D01*
X123561575Y-115582521D01*
X123561574Y-115582519D01*
X123561574Y-115582518D01*
X123507573Y-115476535D01*
X123439873Y-115408835D01*
X123406390Y-115347515D01*
X123411374Y-115277823D01*
X123439873Y-115233477D01*
X123534655Y-115138695D01*
X123553446Y-115123275D01*
X123565333Y-115115333D01*
X123623683Y-115028008D01*
X123639000Y-114951002D01*
X123639000Y-114950998D01*
X123641613Y-114937859D01*
X123644171Y-114925001D01*
X123644171Y-114924998D01*
X123641382Y-114910975D01*
X123639000Y-114886788D01*
X123639000Y-114092508D01*
X123658685Y-114025469D01*
X123711489Y-113979714D01*
X123780647Y-113969770D01*
X123813080Y-113979071D01*
X123855009Y-113997585D01*
X123880135Y-114000500D01*
X124069099Y-114000499D01*
X124136138Y-114020183D01*
X124181893Y-114072987D01*
X124191837Y-114142145D01*
X124162812Y-114205701D01*
X124156781Y-114212180D01*
X124092428Y-114276532D01*
X124092428Y-114276533D01*
X124038424Y-114382521D01*
X124038424Y-114382522D01*
X124019819Y-114499996D01*
X124019819Y-114500003D01*
X124038424Y-114617477D01*
X124038424Y-114617478D01*
X124038425Y-114617481D01*
X124038426Y-114617482D01*
X124082763Y-114704499D01*
X124092428Y-114723466D01*
X124092431Y-114723470D01*
X124176529Y-114807568D01*
X124176533Y-114807571D01*
X124176535Y-114807573D01*
X124282518Y-114861574D01*
X124282520Y-114861574D01*
X124282522Y-114861575D01*
X124399997Y-114880181D01*
X124400000Y-114880181D01*
X124400003Y-114880181D01*
X124517477Y-114861575D01*
X124517478Y-114861575D01*
X124517479Y-114861574D01*
X124517482Y-114861574D01*
X124623465Y-114807573D01*
X124707573Y-114723465D01*
X124761574Y-114617482D01*
X124761575Y-114617477D01*
X124780181Y-114500003D01*
X124780181Y-114499996D01*
X124761575Y-114382522D01*
X124761575Y-114382521D01*
X124761574Y-114382519D01*
X124761574Y-114382518D01*
X124707573Y-114276535D01*
X124707570Y-114276532D01*
X124707568Y-114276529D01*
X124643219Y-114212180D01*
X124609734Y-114150857D01*
X124614718Y-114081165D01*
X124656590Y-114025232D01*
X124722054Y-114000815D01*
X124730891Y-114000499D01*
X124819864Y-114000499D01*
X124819879Y-114000497D01*
X124819882Y-114000497D01*
X124844987Y-113997586D01*
X124844987Y-113997585D01*
X124844991Y-113997585D01*
X124947765Y-113952206D01*
X124947766Y-113952204D01*
X124949912Y-113951257D01*
X125019190Y-113942185D01*
X125050085Y-113951257D01*
X125155004Y-113997583D01*
X125155009Y-113997585D01*
X125180135Y-114000500D01*
X125469864Y-114000499D01*
X125469879Y-114000497D01*
X125469882Y-114000497D01*
X125494987Y-113997586D01*
X125494988Y-113997585D01*
X125494991Y-113997585D01*
X125597765Y-113952206D01*
X125677206Y-113872765D01*
X125722585Y-113769991D01*
X125725500Y-113744865D01*
X125725499Y-112380136D01*
X125725497Y-112380117D01*
X125722586Y-112355012D01*
X125722585Y-112355010D01*
X125722585Y-112355009D01*
X125677206Y-112252235D01*
X125597765Y-112172794D01*
X125548472Y-112151029D01*
X125494992Y-112127415D01*
X125469865Y-112124500D01*
X125180143Y-112124500D01*
X125180117Y-112124502D01*
X125155013Y-112127413D01*
X125050086Y-112173743D01*
X124980807Y-112182814D01*
X124949914Y-112173743D01*
X124947765Y-112172794D01*
X124844991Y-112127415D01*
X124819865Y-112124500D01*
X124530143Y-112124500D01*
X124530117Y-112124502D01*
X124505013Y-112127413D01*
X124400086Y-112173743D01*
X124330807Y-112182814D01*
X124299914Y-112173743D01*
X124297765Y-112172794D01*
X124194991Y-112127415D01*
X124169865Y-112124500D01*
X123880143Y-112124500D01*
X123880117Y-112124502D01*
X123855013Y-112127413D01*
X123750086Y-112173743D01*
X123680807Y-112182814D01*
X123649914Y-112173743D01*
X123647765Y-112172794D01*
X123544991Y-112127415D01*
X123538709Y-112126686D01*
X123519868Y-112124500D01*
X123289809Y-112124500D01*
X123222770Y-112104815D01*
X123177015Y-112052011D01*
X123167071Y-111982853D01*
X123167336Y-111981102D01*
X123180181Y-111900002D01*
X123180181Y-111899996D01*
X123161575Y-111782521D01*
X123161574Y-111782519D01*
X123161574Y-111782518D01*
X123107573Y-111676535D01*
X123107571Y-111676533D01*
X123107568Y-111676529D01*
X123023470Y-111592431D01*
X123023466Y-111592428D01*
X123023465Y-111592427D01*
X122917482Y-111538426D01*
X122917480Y-111538425D01*
X122917477Y-111538424D01*
X122800003Y-111519819D01*
X122799997Y-111519819D01*
X122682522Y-111538424D01*
X122682521Y-111538424D01*
X122576533Y-111592428D01*
X122576529Y-111592431D01*
X122492431Y-111676529D01*
X122492428Y-111676533D01*
X122492426Y-111676535D01*
X122492427Y-111676535D01*
X122438426Y-111782518D01*
X122438425Y-111782519D01*
X122438425Y-111782521D01*
X122419819Y-111899996D01*
X122419819Y-111899997D01*
X122419819Y-111900000D01*
X122427704Y-111949785D01*
X122436096Y-112002772D01*
X122427140Y-112072066D01*
X122382143Y-112125517D01*
X122315392Y-112146156D01*
X122263535Y-112135603D01*
X122244992Y-112127415D01*
X122219865Y-112124500D01*
X121930143Y-112124500D01*
X121930117Y-112124502D01*
X121905013Y-112127413D01*
X121800086Y-112173743D01*
X121730807Y-112182814D01*
X121699914Y-112173743D01*
X121697765Y-112172794D01*
X121594991Y-112127415D01*
X121569865Y-112124500D01*
X121280143Y-112124500D01*
X121280117Y-112124502D01*
X121255013Y-112127413D01*
X121150086Y-112173743D01*
X121080807Y-112182814D01*
X121049914Y-112173743D01*
X121047765Y-112172794D01*
X120944991Y-112127415D01*
X120919865Y-112124500D01*
X120630143Y-112124500D01*
X120630117Y-112124502D01*
X120605013Y-112127413D01*
X120500086Y-112173743D01*
X120430807Y-112182814D01*
X120399914Y-112173743D01*
X120397765Y-112172794D01*
X120294991Y-112127415D01*
X120269865Y-112124500D01*
X119980143Y-112124500D01*
X119980117Y-112124502D01*
X119955013Y-112127413D01*
X119850086Y-112173743D01*
X119780807Y-112182814D01*
X119749913Y-112173742D01*
X119680011Y-112142877D01*
X119626635Y-112097791D01*
X119606108Y-112031005D01*
X119624946Y-111963723D01*
X119642413Y-111941766D01*
X123266276Y-108317903D01*
X123327597Y-108284420D01*
X123362787Y-108284106D01*
X123362787Y-108283343D01*
X123374999Y-108283343D01*
X123374999Y-108283342D01*
X123375000Y-108283343D01*
X123402454Y-108277881D01*
X123426645Y-108275499D01*
X123519856Y-108275499D01*
X123519864Y-108275499D01*
X123519879Y-108275497D01*
X123519882Y-108275497D01*
X123544987Y-108272586D01*
X123544987Y-108272585D01*
X123544991Y-108272585D01*
X123647765Y-108227206D01*
X123647766Y-108227204D01*
X123649912Y-108226257D01*
X123719190Y-108217185D01*
X123750085Y-108226257D01*
X123855004Y-108272583D01*
X123855009Y-108272585D01*
X123880135Y-108275500D01*
X124169864Y-108275499D01*
X124169879Y-108275497D01*
X124169882Y-108275497D01*
X124194986Y-108272586D01*
X124194987Y-108272585D01*
X124194991Y-108272585D01*
X124236916Y-108254073D01*
X124306189Y-108245002D01*
X124369375Y-108274824D01*
X124406406Y-108334073D01*
X124410999Y-108367508D01*
X124411000Y-109064284D01*
X124391316Y-109131323D01*
X124374681Y-109151965D01*
X124336602Y-109190044D01*
X124275279Y-109223529D01*
X124268319Y-109224836D01*
X124182521Y-109238424D01*
X124076533Y-109292428D01*
X124076529Y-109292431D01*
X123992431Y-109376529D01*
X123992428Y-109376533D01*
X123992426Y-109376535D01*
X123992427Y-109376535D01*
X123938426Y-109482518D01*
X123938425Y-109482519D01*
X123938425Y-109482521D01*
X123919819Y-109599996D01*
X123919819Y-109600003D01*
X123938424Y-109717477D01*
X123938424Y-109717478D01*
X123938425Y-109717481D01*
X123938426Y-109717482D01*
X123986591Y-109812012D01*
X123992428Y-109823466D01*
X123992431Y-109823470D01*
X124076529Y-109907568D01*
X124076533Y-109907571D01*
X124076535Y-109907573D01*
X124182518Y-109961574D01*
X124182520Y-109961574D01*
X124182522Y-109961575D01*
X124299997Y-109980181D01*
X124300000Y-109980181D01*
X124300003Y-109980181D01*
X124417477Y-109961575D01*
X124417478Y-109961575D01*
X124417479Y-109961574D01*
X124417482Y-109961574D01*
X124523465Y-109907573D01*
X124607573Y-109823465D01*
X124661574Y-109717482D01*
X124669195Y-109669366D01*
X124675164Y-109631678D01*
X124705093Y-109568543D01*
X124709938Y-109563412D01*
X124834655Y-109438695D01*
X124853446Y-109423275D01*
X124865333Y-109415333D01*
X124923683Y-109328008D01*
X124939000Y-109251002D01*
X124939000Y-109250998D01*
X124944171Y-109225000D01*
X124941381Y-109210974D01*
X124939000Y-109186798D01*
X124939000Y-108287333D01*
X124958685Y-108220293D01*
X124975319Y-108199652D01*
X125000001Y-108174970D01*
X125027206Y-108147765D01*
X125072585Y-108044991D01*
X125075500Y-108019865D01*
X125075499Y-106655136D01*
X125074137Y-106643390D01*
X125072586Y-106630012D01*
X125072585Y-106630010D01*
X125072585Y-106630009D01*
X125027206Y-106527235D01*
X124947765Y-106447794D01*
X124947764Y-106447793D01*
X124844992Y-106402415D01*
X124819865Y-106399500D01*
X124530143Y-106399500D01*
X124530117Y-106399502D01*
X124505013Y-106402413D01*
X124400086Y-106448743D01*
X124330807Y-106457814D01*
X124299914Y-106448743D01*
X124297765Y-106447794D01*
X124194991Y-106402415D01*
X124169865Y-106399500D01*
X123880143Y-106399500D01*
X123880117Y-106399502D01*
X123855013Y-106402413D01*
X123750086Y-106448743D01*
X123680807Y-106457814D01*
X123649914Y-106448743D01*
X123647765Y-106447794D01*
X123544991Y-106402415D01*
X123519865Y-106399500D01*
X123230143Y-106399500D01*
X123230117Y-106399502D01*
X123205013Y-106402413D01*
X123100086Y-106448743D01*
X123030807Y-106457814D01*
X122999914Y-106448743D01*
X122997765Y-106447794D01*
X122901775Y-106405410D01*
X122848400Y-106360325D01*
X122827872Y-106293539D01*
X122846710Y-106226256D01*
X122853650Y-106216704D01*
X122854748Y-106214801D01*
X122854750Y-106214800D01*
X122875125Y-106179506D01*
X122878026Y-106174953D01*
X122901394Y-106141583D01*
X122901395Y-106141577D01*
X122903549Y-106136959D01*
X122910752Y-106119571D01*
X122912493Y-106114784D01*
X122912497Y-106114779D01*
X122919576Y-106074626D01*
X122920732Y-106069408D01*
X122931287Y-106030024D01*
X122929595Y-106010697D01*
X122943362Y-105942197D01*
X122970894Y-105907074D01*
X123071632Y-105817830D01*
X123157921Y-105692819D01*
X123211785Y-105550791D01*
X123230094Y-105400000D01*
X123219295Y-105311068D01*
X123230755Y-105242148D01*
X123254706Y-105208446D01*
X123499336Y-104963818D01*
X123560661Y-104930334D01*
X123587018Y-104927500D01*
X124200938Y-104927500D01*
X124267977Y-104947185D01*
X124302988Y-104981061D01*
X124328365Y-105017827D01*
X124328367Y-105017829D01*
X124328368Y-105017830D01*
X124442066Y-105118557D01*
X124576566Y-105189148D01*
X124650308Y-105207324D01*
X124724050Y-105225500D01*
X124724051Y-105225500D01*
X124875950Y-105225500D01*
X124925110Y-105213382D01*
X125023434Y-105189148D01*
X125157934Y-105118557D01*
X125271632Y-105017830D01*
X125357921Y-104892819D01*
X125411785Y-104750791D01*
X125430094Y-104600000D01*
X125411785Y-104449209D01*
X125357921Y-104307181D01*
X125271632Y-104182170D01*
X125271631Y-104182169D01*
X125267371Y-104175997D01*
X125268416Y-104175275D01*
X125241962Y-104119006D01*
X125251139Y-104049741D01*
X125267584Y-104024150D01*
X125267371Y-104024003D01*
X125278712Y-104007573D01*
X125357921Y-103892819D01*
X125411785Y-103750791D01*
X125430094Y-103600000D01*
X125411785Y-103449209D01*
X125357921Y-103307181D01*
X125357916Y-103307174D01*
X125356826Y-103305097D01*
X125356485Y-103303395D01*
X125355261Y-103300168D01*
X125355797Y-103299964D01*
X125343100Y-103236588D01*
X125363521Y-103178577D01*
X125369551Y-103169552D01*
X125369552Y-103169552D01*
X125413867Y-103103231D01*
X125413868Y-103103229D01*
X125425499Y-103044752D01*
X125425500Y-103044750D01*
X125425500Y-102155249D01*
X125425499Y-102155247D01*
X125413868Y-102096770D01*
X125413867Y-102096769D01*
X125369552Y-102030447D01*
X125303230Y-101986132D01*
X125303229Y-101986131D01*
X125244752Y-101974500D01*
X125244748Y-101974500D01*
X124355252Y-101974500D01*
X124355247Y-101974500D01*
X124296770Y-101986131D01*
X124296769Y-101986132D01*
X124230447Y-102030447D01*
X124186132Y-102096769D01*
X124186131Y-102096770D01*
X124174500Y-102155247D01*
X124174500Y-103044752D01*
X124186131Y-103103228D01*
X124186132Y-103103230D01*
X124186133Y-103103231D01*
X124230448Y-103169552D01*
X124236479Y-103178577D01*
X124257357Y-103245255D01*
X124244376Y-103300030D01*
X124244739Y-103300168D01*
X124243685Y-103302946D01*
X124243178Y-103305087D01*
X124242079Y-103307180D01*
X124188215Y-103449208D01*
X124174318Y-103563667D01*
X124169906Y-103600000D01*
X124188215Y-103750791D01*
X124242079Y-103892819D01*
X124306765Y-103986533D01*
X124332629Y-104024003D01*
X124331583Y-104024724D01*
X124358037Y-104080995D01*
X124348860Y-104150259D01*
X124332416Y-104175849D01*
X124332629Y-104175996D01*
X124302988Y-104218939D01*
X124248706Y-104262930D01*
X124200938Y-104272500D01*
X123417005Y-104272500D01*
X123411601Y-104272264D01*
X123406089Y-104271781D01*
X123371016Y-104268712D01*
X123331662Y-104279256D01*
X123326383Y-104280427D01*
X123286264Y-104287502D01*
X123281529Y-104289225D01*
X123264021Y-104296476D01*
X123259457Y-104298605D01*
X123226080Y-104321974D01*
X123221520Y-104324879D01*
X123186240Y-104345249D01*
X123186238Y-104345250D01*
X123160054Y-104376455D01*
X123156400Y-104380443D01*
X123139184Y-104397660D01*
X123077862Y-104431147D01*
X123008170Y-104426165D01*
X122952235Y-104384296D01*
X122927816Y-104318832D01*
X122927500Y-104309982D01*
X122927500Y-103501327D01*
X122947185Y-103434288D01*
X122969270Y-103408513D01*
X123071632Y-103317830D01*
X123157921Y-103192819D01*
X123211785Y-103050791D01*
X123230094Y-102900000D01*
X123211785Y-102749209D01*
X123157921Y-102607181D01*
X123071632Y-102482170D01*
X122957934Y-102381443D01*
X122823434Y-102310852D01*
X122823431Y-102310851D01*
X122823429Y-102310850D01*
X122786110Y-102301651D01*
X122725730Y-102266494D01*
X122693942Y-102204274D01*
X122700840Y-102134746D01*
X122728104Y-102093576D01*
X123247363Y-101574318D01*
X123308686Y-101540833D01*
X123335044Y-101537999D01*
X123494856Y-101537999D01*
X123494864Y-101537999D01*
X123494879Y-101537997D01*
X123494882Y-101537997D01*
X123519987Y-101535086D01*
X123519987Y-101535085D01*
X123519991Y-101535085D01*
X123622765Y-101489706D01*
X123622766Y-101489704D01*
X123624912Y-101488757D01*
X123694190Y-101479685D01*
X123725085Y-101488757D01*
X123823185Y-101532072D01*
X123830009Y-101535085D01*
X123855135Y-101538000D01*
X124144864Y-101537999D01*
X124144879Y-101537997D01*
X124144882Y-101537997D01*
X124169987Y-101535086D01*
X124169987Y-101535085D01*
X124169991Y-101535085D01*
X124272765Y-101489706D01*
X124272766Y-101489704D01*
X124274912Y-101488757D01*
X124344190Y-101479685D01*
X124375085Y-101488757D01*
X124473185Y-101532072D01*
X124480009Y-101535085D01*
X124505135Y-101538000D01*
X124794864Y-101537999D01*
X124794879Y-101537997D01*
X124794882Y-101537997D01*
X124819987Y-101535086D01*
X124819987Y-101535085D01*
X124819991Y-101535085D01*
X124922765Y-101489706D01*
X124922766Y-101489704D01*
X124924912Y-101488757D01*
X124994190Y-101479685D01*
X125025085Y-101488757D01*
X125123185Y-101532072D01*
X125130009Y-101535085D01*
X125155135Y-101538000D01*
X125444864Y-101537999D01*
X125444879Y-101537997D01*
X125444882Y-101537997D01*
X125469987Y-101535086D01*
X125469988Y-101535085D01*
X125469991Y-101535085D01*
X125572765Y-101489706D01*
X125652206Y-101410265D01*
X125697585Y-101307491D01*
X125700500Y-101282365D01*
X125700499Y-99917636D01*
X125699307Y-99907355D01*
X125697586Y-99892512D01*
X125697585Y-99892510D01*
X125697585Y-99892509D01*
X125652206Y-99789735D01*
X125572765Y-99710294D01*
X125565715Y-99707181D01*
X125469992Y-99664915D01*
X125444865Y-99662000D01*
X125155143Y-99662000D01*
X125155117Y-99662002D01*
X125130013Y-99664913D01*
X125080027Y-99686984D01*
X125034286Y-99707181D01*
X125025086Y-99711243D01*
X124955807Y-99720314D01*
X124924914Y-99711243D01*
X124922765Y-99710294D01*
X124819991Y-99664915D01*
X124813709Y-99664186D01*
X124794868Y-99662000D01*
X124540618Y-99662000D01*
X124473579Y-99642315D01*
X124427824Y-99589511D01*
X124417880Y-99520353D01*
X124446905Y-99456797D01*
X124484318Y-99427519D01*
X124523465Y-99407573D01*
X124607573Y-99323465D01*
X124661574Y-99217482D01*
X124667703Y-99178784D01*
X124680181Y-99100003D01*
X124680181Y-99099996D01*
X124661575Y-98982522D01*
X124661575Y-98982521D01*
X124661574Y-98982519D01*
X124661574Y-98982518D01*
X124607573Y-98876535D01*
X124607571Y-98876533D01*
X124607568Y-98876529D01*
X124523470Y-98792431D01*
X124523466Y-98792428D01*
X124523465Y-98792427D01*
X124417482Y-98738426D01*
X124417480Y-98738425D01*
X124417477Y-98738424D01*
X124300003Y-98719819D01*
X124299997Y-98719819D01*
X124182522Y-98738424D01*
X124182521Y-98738424D01*
X124076533Y-98792428D01*
X124076529Y-98792431D01*
X123992431Y-98876529D01*
X123992428Y-98876533D01*
X123938424Y-98982521D01*
X123938424Y-98982522D01*
X123919819Y-99099996D01*
X123919819Y-99100003D01*
X123938424Y-99217477D01*
X123938424Y-99217478D01*
X123938425Y-99217481D01*
X123938426Y-99217482D01*
X123980216Y-99299500D01*
X123992428Y-99323466D01*
X123992431Y-99323470D01*
X124076529Y-99407568D01*
X124076533Y-99407571D01*
X124076535Y-99407573D01*
X124115676Y-99427516D01*
X124166471Y-99475489D01*
X124183266Y-99543310D01*
X124160729Y-99609445D01*
X124106014Y-99652897D01*
X124059381Y-99662000D01*
X123855143Y-99662000D01*
X123855117Y-99662002D01*
X123830013Y-99664913D01*
X123780027Y-99686984D01*
X123734286Y-99707181D01*
X123725086Y-99711243D01*
X123655807Y-99720314D01*
X123624914Y-99711243D01*
X123622765Y-99710294D01*
X123519991Y-99664915D01*
X123494865Y-99662000D01*
X123205143Y-99662000D01*
X123205117Y-99662002D01*
X123180013Y-99664913D01*
X123130027Y-99686984D01*
X123084286Y-99707181D01*
X123075086Y-99711243D01*
X123005807Y-99720314D01*
X122974914Y-99711243D01*
X122972765Y-99710294D01*
X122869991Y-99664915D01*
X122844865Y-99662000D01*
X122555143Y-99662000D01*
X122555117Y-99662002D01*
X122530013Y-99664913D01*
X122480027Y-99686984D01*
X122434286Y-99707181D01*
X122425086Y-99711243D01*
X122355807Y-99720314D01*
X122324914Y-99711243D01*
X122322765Y-99710294D01*
X122219991Y-99664915D01*
X122213709Y-99664186D01*
X122194868Y-99662000D01*
X122194865Y-99662000D01*
X122035044Y-99662000D01*
X121968005Y-99642315D01*
X121947363Y-99625681D01*
X121326030Y-99004348D01*
X121310609Y-98985559D01*
X121308577Y-98982518D01*
X121302663Y-98973667D01*
X121302661Y-98973666D01*
X121302661Y-98973665D01*
X121230630Y-98925534D01*
X121220485Y-98916339D01*
X121126352Y-98897617D01*
X121112330Y-98894828D01*
X121112329Y-98894828D01*
X121103418Y-98896600D01*
X121098307Y-98897617D01*
X121074117Y-98900000D01*
X119670926Y-98900000D01*
X119603887Y-98880315D01*
X119558132Y-98827511D01*
X119548188Y-98758353D01*
X119560439Y-98719709D01*
X119561574Y-98717482D01*
X119562691Y-98710431D01*
X119580181Y-98600003D01*
X119580181Y-98599996D01*
X119561575Y-98482522D01*
X119561575Y-98482521D01*
X119561574Y-98482519D01*
X119561574Y-98482518D01*
X119507573Y-98376535D01*
X119507571Y-98376533D01*
X119507568Y-98376529D01*
X119423470Y-98292431D01*
X119423466Y-98292428D01*
X119423465Y-98292427D01*
X119317482Y-98238426D01*
X119317480Y-98238425D01*
X119317477Y-98238424D01*
X119200003Y-98219819D01*
X119199997Y-98219819D01*
X119082522Y-98238424D01*
X119082518Y-98238426D01*
X119042168Y-98258985D01*
X118985874Y-98272500D01*
X118574500Y-98272500D01*
X118507461Y-98252815D01*
X118461706Y-98200011D01*
X118450500Y-98148500D01*
X118450500Y-97530249D01*
X118450499Y-97530247D01*
X118438868Y-97471770D01*
X118438867Y-97471768D01*
X118436945Y-97468892D01*
X118434681Y-97461664D01*
X118434194Y-97460487D01*
X118434299Y-97460443D01*
X118416066Y-97402215D01*
X118434550Y-97334835D01*
X118436945Y-97331108D01*
X118438867Y-97328231D01*
X118438868Y-97328229D01*
X118450499Y-97269752D01*
X118450500Y-97269748D01*
X118450499Y-96723211D01*
X118470183Y-96656174D01*
X118522987Y-96610419D01*
X118592146Y-96600475D01*
X118655702Y-96629500D01*
X118662180Y-96635532D01*
X118853799Y-96827151D01*
X118869219Y-96845939D01*
X118871404Y-96849209D01*
X118877167Y-96857833D01*
X118964492Y-96916183D01*
X119041498Y-96931500D01*
X119041500Y-96931500D01*
X119047468Y-96932687D01*
X119047471Y-96932687D01*
X119067500Y-96936671D01*
X119081522Y-96933881D01*
X119105711Y-96931500D01*
X120738275Y-96931500D01*
X120762465Y-96933882D01*
X120776488Y-96936672D01*
X120879496Y-96916183D01*
X120944778Y-96872562D01*
X120944778Y-96872561D01*
X120955761Y-96865222D01*
X120966821Y-96857833D01*
X120974763Y-96845945D01*
X120990182Y-96827156D01*
X121968020Y-95849318D01*
X122029344Y-95815833D01*
X122055702Y-95812999D01*
X122194856Y-95812999D01*
X122194864Y-95812999D01*
X122194879Y-95812997D01*
X122194882Y-95812997D01*
X122219987Y-95810086D01*
X122219987Y-95810085D01*
X122219991Y-95810085D01*
X122322765Y-95764706D01*
X122322766Y-95764704D01*
X122324912Y-95763757D01*
X122394190Y-95754685D01*
X122425085Y-95763757D01*
X122490026Y-95792431D01*
X122530009Y-95810085D01*
X122555135Y-95813000D01*
X122844864Y-95812999D01*
X122844879Y-95812997D01*
X122844882Y-95812997D01*
X122869987Y-95810086D01*
X122869987Y-95810085D01*
X122869991Y-95810085D01*
X122972765Y-95764706D01*
X122972766Y-95764704D01*
X122974912Y-95763757D01*
X123044190Y-95754685D01*
X123075083Y-95763755D01*
X123077233Y-95764704D01*
X123077235Y-95764706D01*
X123089500Y-95770121D01*
X123142513Y-95814661D01*
X123159667Y-95840333D01*
X123169932Y-95847192D01*
X123171552Y-95848274D01*
X123190343Y-95863695D01*
X123290045Y-95963398D01*
X123323529Y-96024722D01*
X123324836Y-96031681D01*
X123338424Y-96117478D01*
X123338425Y-96117481D01*
X123338426Y-96117482D01*
X123391485Y-96221617D01*
X123392428Y-96223466D01*
X123392431Y-96223470D01*
X123476529Y-96307568D01*
X123476533Y-96307571D01*
X123476535Y-96307573D01*
X123582518Y-96361574D01*
X123582520Y-96361574D01*
X123582522Y-96361575D01*
X123699997Y-96380181D01*
X123700000Y-96380181D01*
X123700003Y-96380181D01*
X123817477Y-96361575D01*
X123817478Y-96361575D01*
X123817479Y-96361574D01*
X123817482Y-96361574D01*
X123923465Y-96307573D01*
X124007573Y-96223465D01*
X124007576Y-96223458D01*
X124008915Y-96221617D01*
X124011131Y-96219907D01*
X124014474Y-96216565D01*
X124014905Y-96216996D01*
X124064241Y-96178947D01*
X124133854Y-96172962D01*
X124195652Y-96205562D01*
X124230014Y-96266398D01*
X124231712Y-96275096D01*
X124238424Y-96317477D01*
X124238424Y-96317478D01*
X124238425Y-96317481D01*
X124238426Y-96317482D01*
X124286000Y-96410852D01*
X124292428Y-96423466D01*
X124292431Y-96423470D01*
X124376529Y-96507568D01*
X124376533Y-96507571D01*
X124376535Y-96507573D01*
X124482518Y-96561574D01*
X124482520Y-96561574D01*
X124482522Y-96561575D01*
X124599997Y-96580181D01*
X124600000Y-96580181D01*
X124600003Y-96580181D01*
X124717477Y-96561575D01*
X124717478Y-96561575D01*
X124717479Y-96561574D01*
X124717482Y-96561574D01*
X124823465Y-96507573D01*
X124907573Y-96423465D01*
X124961574Y-96317482D01*
X124961575Y-96317477D01*
X124980181Y-96200003D01*
X124980181Y-96199996D01*
X124961575Y-96082522D01*
X124961575Y-96082521D01*
X124961574Y-96082519D01*
X124961574Y-96082518D01*
X124907573Y-95976535D01*
X124907571Y-95976533D01*
X124907568Y-95976529D01*
X124893279Y-95962240D01*
X124859794Y-95900917D01*
X124864778Y-95831225D01*
X124906650Y-95775292D01*
X124913390Y-95771350D01*
X124913286Y-95771199D01*
X124922760Y-95764707D01*
X124922765Y-95764706D01*
X125002206Y-95685265D01*
X125047585Y-95582491D01*
X125050500Y-95557365D01*
X125050499Y-94867379D01*
X125059940Y-94819923D01*
X125062182Y-94814509D01*
X125062181Y-94814509D01*
X125062183Y-94814508D01*
X125077500Y-94737502D01*
X125077500Y-94737500D01*
X125082672Y-94711500D01*
X125079882Y-94697474D01*
X125077499Y-94673281D01*
X125077499Y-94123465D01*
X125077499Y-93566922D01*
X125079881Y-93542748D01*
X125082671Y-93528722D01*
X125077500Y-93502723D01*
X125077500Y-93502720D01*
X125062183Y-93425714D01*
X125003833Y-93338389D01*
X124992437Y-93330774D01*
X124991939Y-93330441D01*
X124973151Y-93315021D01*
X124698475Y-93040345D01*
X124683054Y-93021555D01*
X124675110Y-93009666D01*
X124653065Y-92994936D01*
X124587787Y-92951317D01*
X124587788Y-92951317D01*
X124536281Y-92941072D01*
X124484778Y-92930828D01*
X124484777Y-92930828D01*
X124484776Y-92930828D01*
X124473880Y-92932995D01*
X124470755Y-92933617D01*
X124446565Y-92936000D01*
X124338213Y-92936000D01*
X124314022Y-92933617D01*
X124308911Y-92932600D01*
X124300001Y-92930828D01*
X124300000Y-92930828D01*
X124273998Y-92936000D01*
X124196991Y-92951317D01*
X124131704Y-92994940D01*
X124131705Y-92994941D01*
X124109666Y-93009667D01*
X124101722Y-93021556D01*
X124086304Y-93040341D01*
X123784834Y-93341812D01*
X123723511Y-93375297D01*
X123653820Y-93370313D01*
X123597886Y-93328442D01*
X123573469Y-93262977D01*
X123574680Y-93234733D01*
X123580181Y-93200001D01*
X123580181Y-93199996D01*
X123561575Y-93082522D01*
X123561575Y-93082521D01*
X123561574Y-93082519D01*
X123561574Y-93082518D01*
X123507573Y-92976535D01*
X123507571Y-92976533D01*
X123507568Y-92976529D01*
X123423470Y-92892431D01*
X123423466Y-92892428D01*
X123423465Y-92892427D01*
X123317482Y-92838426D01*
X123317480Y-92838425D01*
X123317477Y-92838424D01*
X123200003Y-92819819D01*
X123199997Y-92819819D01*
X123082522Y-92838424D01*
X123082521Y-92838424D01*
X122976533Y-92892428D01*
X122976529Y-92892431D01*
X122892431Y-92976529D01*
X122892428Y-92976533D01*
X122838424Y-93082521D01*
X122838424Y-93082522D01*
X122819819Y-93199996D01*
X122819819Y-93200003D01*
X122838424Y-93317477D01*
X122838424Y-93317478D01*
X122838425Y-93317481D01*
X122838426Y-93317482D01*
X122887605Y-93414002D01*
X122892428Y-93423466D01*
X122892431Y-93423470D01*
X122908780Y-93439819D01*
X122942265Y-93501142D01*
X122937281Y-93570834D01*
X122895409Y-93626767D01*
X122829945Y-93651184D01*
X122821099Y-93651500D01*
X121149500Y-93651500D01*
X121082461Y-93631815D01*
X121036706Y-93579011D01*
X121025500Y-93527500D01*
X121025500Y-92855249D01*
X121025499Y-92855247D01*
X121013868Y-92796770D01*
X121013867Y-92796769D01*
X120969552Y-92730447D01*
X120903230Y-92686132D01*
X120903229Y-92686131D01*
X120844752Y-92674500D01*
X120844748Y-92674500D01*
X119955252Y-92674500D01*
X119955247Y-92674500D01*
X119896770Y-92686131D01*
X119896769Y-92686132D01*
X119830447Y-92730447D01*
X119786132Y-92796769D01*
X119786131Y-92796770D01*
X119774500Y-92855247D01*
X119774500Y-93527500D01*
X119754815Y-93594539D01*
X119702011Y-93640294D01*
X119650500Y-93651500D01*
X119299384Y-93651500D01*
X119275193Y-93649117D01*
X119270082Y-93648100D01*
X119261172Y-93646328D01*
X119261171Y-93646328D01*
X119236758Y-93651184D01*
X119158161Y-93666817D01*
X119121559Y-93691274D01*
X119054881Y-93712151D01*
X118987502Y-93693665D01*
X118942186Y-93644467D01*
X118907573Y-93576535D01*
X118907569Y-93576531D01*
X118907568Y-93576529D01*
X118818047Y-93487008D01*
X118784562Y-93425685D01*
X118789546Y-93355993D01*
X118805410Y-93326441D01*
X118807568Y-93323470D01*
X118807573Y-93323465D01*
X118861574Y-93217482D01*
X118863409Y-93205895D01*
X118880181Y-93100003D01*
X118880181Y-93099996D01*
X118861575Y-92982522D01*
X118861575Y-92982521D01*
X118861574Y-92982519D01*
X118861574Y-92982518D01*
X118807573Y-92876535D01*
X118807571Y-92876533D01*
X118807568Y-92876529D01*
X118723470Y-92792431D01*
X118723466Y-92792428D01*
X118723465Y-92792427D01*
X118617482Y-92738426D01*
X118617480Y-92738425D01*
X118617477Y-92738424D01*
X118500003Y-92719819D01*
X118499997Y-92719819D01*
X118382522Y-92738424D01*
X118382521Y-92738424D01*
X118276533Y-92792428D01*
X118276529Y-92792431D01*
X118192431Y-92876529D01*
X118192428Y-92876533D01*
X118138424Y-92982521D01*
X118138424Y-92982522D01*
X118119819Y-93099996D01*
X118119819Y-93100003D01*
X118138424Y-93217477D01*
X118138424Y-93217478D01*
X118138425Y-93217481D01*
X118138426Y-93217482D01*
X118192426Y-93323464D01*
X118192428Y-93323466D01*
X118192431Y-93323470D01*
X118281952Y-93412991D01*
X118315437Y-93474314D01*
X118310453Y-93544006D01*
X118294597Y-93573547D01*
X118292430Y-93576530D01*
X118292427Y-93576534D01*
X118292427Y-93576535D01*
X118256866Y-93646328D01*
X118256628Y-93646795D01*
X118208653Y-93697591D01*
X118146143Y-93714500D01*
X115404500Y-93714500D01*
X115337461Y-93694815D01*
X115291706Y-93642011D01*
X115280500Y-93590500D01*
X115280500Y-92855249D01*
X115280499Y-92855247D01*
X115268868Y-92796770D01*
X115268867Y-92796769D01*
X115224552Y-92730447D01*
X115158230Y-92686132D01*
X115158229Y-92686131D01*
X115099752Y-92674500D01*
X115099748Y-92674500D01*
X114210252Y-92674500D01*
X114210247Y-92674500D01*
X114151770Y-92686131D01*
X114151769Y-92686132D01*
X114085447Y-92730447D01*
X114041132Y-92796769D01*
X114041131Y-92796770D01*
X114029500Y-92855247D01*
X114029500Y-93744752D01*
X114041131Y-93803229D01*
X114041132Y-93803230D01*
X114085447Y-93869552D01*
X114161923Y-93920652D01*
X114160539Y-93922723D01*
X114201603Y-93955812D01*
X114223670Y-94022106D01*
X114206393Y-94089806D01*
X114187430Y-94114217D01*
X113926845Y-94374801D01*
X113908060Y-94390219D01*
X113896166Y-94398166D01*
X113873378Y-94432270D01*
X113873376Y-94432274D01*
X113866528Y-94442521D01*
X113812913Y-94487322D01*
X113743587Y-94496025D01*
X113707141Y-94484109D01*
X113617482Y-94438426D01*
X113617480Y-94438425D01*
X113617477Y-94438424D01*
X113500003Y-94419819D01*
X113499997Y-94419819D01*
X113382522Y-94438424D01*
X113382521Y-94438424D01*
X113276533Y-94492428D01*
X113276529Y-94492431D01*
X113275681Y-94493280D01*
X113274394Y-94493982D01*
X113268636Y-94498166D01*
X113268095Y-94497422D01*
X113214358Y-94526765D01*
X113144666Y-94521781D01*
X113088733Y-94479909D01*
X113064316Y-94414445D01*
X113064000Y-94405599D01*
X113064000Y-93753433D01*
X113066382Y-93729244D01*
X113067193Y-93725167D01*
X113069171Y-93715222D01*
X113064883Y-93693665D01*
X113064000Y-93689220D01*
X113048683Y-93612214D01*
X112990333Y-93524889D01*
X112990332Y-93524888D01*
X112978439Y-93516941D01*
X112959651Y-93501521D01*
X111982975Y-92524845D01*
X111967554Y-92506055D01*
X111959611Y-92494167D01*
X111959610Y-92494166D01*
X111872287Y-92435817D01*
X111872284Y-92435816D01*
X111810088Y-92423444D01*
X111748178Y-92391058D01*
X111713604Y-92330342D01*
X111717345Y-92260573D01*
X111758212Y-92203901D01*
X111823230Y-92178320D01*
X111834026Y-92177828D01*
X123936875Y-92155248D01*
X126482113Y-92150500D01*
X126625500Y-92150500D01*
X126692539Y-92170185D01*
G37*
%TD.AperFunction*%
%TA.AperFunction,Conductor*%
G36*
X107477603Y-113170185D02*
G01*
X107498245Y-113186819D01*
X107799681Y-113488255D01*
X107833166Y-113549578D01*
X107836000Y-113575936D01*
X107836000Y-113905598D01*
X107816315Y-113972637D01*
X107763511Y-114018392D01*
X107694353Y-114028336D01*
X107630797Y-113999311D01*
X107624324Y-113993285D01*
X107623469Y-113992431D01*
X107623466Y-113992428D01*
X107623465Y-113992427D01*
X107517482Y-113938426D01*
X107517480Y-113938425D01*
X107517477Y-113938424D01*
X107400003Y-113919819D01*
X107400001Y-113919819D01*
X107400000Y-113919819D01*
X107345489Y-113928452D01*
X107318897Y-113932664D01*
X107249603Y-113923708D01*
X107196152Y-113878711D01*
X107175513Y-113811959D01*
X107175500Y-113810190D01*
X107175500Y-113355249D01*
X107164349Y-113299192D01*
X107164374Y-113250682D01*
X107164474Y-113250182D01*
X107196924Y-113188304D01*
X107257676Y-113153794D01*
X107286066Y-113150500D01*
X107410564Y-113150500D01*
X107477603Y-113170185D01*
G37*
%TD.AperFunction*%
%TA.AperFunction,Conductor*%
G36*
X107740442Y-103458685D02*
G01*
X107783886Y-103506703D01*
X107792427Y-103523465D01*
X107792429Y-103523467D01*
X107792431Y-103523470D01*
X107876529Y-103607568D01*
X107876532Y-103607570D01*
X107876535Y-103607573D01*
X107979417Y-103659994D01*
X108030211Y-103707966D01*
X108047007Y-103775787D01*
X108024470Y-103841922D01*
X108010804Y-103858157D01*
X107992428Y-103876533D01*
X107992426Y-103876535D01*
X107992427Y-103876535D01*
X107938426Y-103982518D01*
X107938425Y-103982519D01*
X107938425Y-103982521D01*
X107919819Y-104099996D01*
X107919819Y-104100003D01*
X107938424Y-104217477D01*
X107938425Y-104217481D01*
X107957902Y-104255706D01*
X107970798Y-104324375D01*
X107944521Y-104389116D01*
X107887414Y-104429372D01*
X107847417Y-104436000D01*
X106438211Y-104436000D01*
X106414022Y-104433618D01*
X106400000Y-104430829D01*
X106399999Y-104430829D01*
X106399998Y-104430829D01*
X106379972Y-104434811D01*
X106379973Y-104434812D01*
X106374000Y-104436000D01*
X106373998Y-104436000D01*
X106343549Y-104442056D01*
X106296989Y-104451317D01*
X106209667Y-104509666D01*
X106209665Y-104509668D01*
X106201718Y-104521561D01*
X106186302Y-104540344D01*
X104253845Y-106472801D01*
X104235060Y-106488219D01*
X104223166Y-106496166D01*
X104200382Y-106530264D01*
X104200380Y-106530268D01*
X104164817Y-106583490D01*
X104164815Y-106583494D01*
X104144328Y-106686496D01*
X104144328Y-106686499D01*
X104144328Y-106686500D01*
X104145968Y-106694748D01*
X104147117Y-106700523D01*
X104149499Y-106724710D01*
X104149499Y-107057620D01*
X104140064Y-107105063D01*
X104137819Y-107110483D01*
X104137817Y-107110491D01*
X104137817Y-107110492D01*
X104121520Y-107192427D01*
X104117328Y-107213501D01*
X104120117Y-107227521D01*
X104122500Y-107251713D01*
X104122499Y-107648283D01*
X104120118Y-107672466D01*
X104117328Y-107686496D01*
X104117328Y-107686498D01*
X104117328Y-107686500D01*
X104120013Y-107700000D01*
X104122500Y-107712502D01*
X104122500Y-107712511D01*
X104137815Y-107789505D01*
X104137817Y-107789509D01*
X104196166Y-107876832D01*
X104208055Y-107884776D01*
X104226845Y-107900197D01*
X104328403Y-108001755D01*
X104361888Y-108063078D01*
X104364722Y-108089436D01*
X104364722Y-108247665D01*
X104345037Y-108314704D01*
X104292233Y-108360459D01*
X104223075Y-108370403D01*
X104183097Y-108357462D01*
X104150225Y-108340209D01*
X103985056Y-108299500D01*
X103814944Y-108299500D01*
X103649773Y-108340210D01*
X103499150Y-108419263D01*
X103371816Y-108532072D01*
X103275182Y-108672068D01*
X103214860Y-108831125D01*
X103214859Y-108831130D01*
X103194355Y-109000000D01*
X103214859Y-109168869D01*
X103214860Y-109168874D01*
X103275182Y-109327931D01*
X103329075Y-109406007D01*
X103371817Y-109467929D01*
X103477505Y-109561560D01*
X103499150Y-109580736D01*
X103626025Y-109647325D01*
X103649775Y-109659790D01*
X103814944Y-109700500D01*
X103985056Y-109700500D01*
X104111374Y-109669366D01*
X104181177Y-109672435D01*
X104228730Y-109702082D01*
X104734180Y-110207532D01*
X104767665Y-110268855D01*
X104770499Y-110295213D01*
X104770499Y-110643234D01*
X104750814Y-110710273D01*
X104698010Y-110756028D01*
X104628852Y-110765972D01*
X104565296Y-110736947D01*
X104530557Y-110687204D01*
X104524818Y-110672070D01*
X104522773Y-110669108D01*
X104469937Y-110592562D01*
X104428183Y-110532071D01*
X104300852Y-110419266D01*
X104300849Y-110419263D01*
X104150226Y-110340210D01*
X103985056Y-110299500D01*
X103814944Y-110299500D01*
X103649773Y-110340210D01*
X103499150Y-110419263D01*
X103371816Y-110532072D01*
X103275182Y-110672068D01*
X103214860Y-110831125D01*
X103214859Y-110831130D01*
X103194355Y-111000000D01*
X103194355Y-111000003D01*
X103195681Y-111010926D01*
X103184219Y-111079849D01*
X103137314Y-111131634D01*
X103069858Y-111149840D01*
X103003268Y-111128686D01*
X102984904Y-111113551D01*
X102185820Y-110314467D01*
X102152335Y-110253144D01*
X102149501Y-110226786D01*
X102149501Y-108578711D01*
X102151883Y-108554522D01*
X102154672Y-108540500D01*
X102150688Y-108520469D01*
X102150687Y-108520460D01*
X102143140Y-108482518D01*
X102139128Y-108462348D01*
X102141710Y-108433489D01*
X102112807Y-108405500D01*
X102075834Y-108350166D01*
X102063940Y-108342219D01*
X102045152Y-108326799D01*
X102031724Y-108313371D01*
X101998239Y-108252048D01*
X102003223Y-108182356D01*
X102045095Y-108126423D01*
X102050492Y-108122603D01*
X102061374Y-108115333D01*
X102069316Y-108103445D01*
X102084735Y-108084656D01*
X102115913Y-108053478D01*
X102177234Y-108019995D01*
X102246926Y-108024979D01*
X102302859Y-108066851D01*
X102327276Y-108132315D01*
X102326066Y-108160558D01*
X102319820Y-108199996D01*
X102319819Y-108200000D01*
X102327256Y-108246959D01*
X102338383Y-108317212D01*
X102334956Y-108343722D01*
X102370620Y-108380682D01*
X102371229Y-108381862D01*
X102392426Y-108423463D01*
X102392431Y-108423470D01*
X102476529Y-108507568D01*
X102476533Y-108507571D01*
X102476535Y-108507573D01*
X102582518Y-108561574D01*
X102582520Y-108561574D01*
X102582522Y-108561575D01*
X102699997Y-108580181D01*
X102700000Y-108580181D01*
X102700003Y-108580181D01*
X102817477Y-108561575D01*
X102817478Y-108561575D01*
X102817479Y-108561574D01*
X102817482Y-108561574D01*
X102923465Y-108507573D01*
X103007573Y-108423465D01*
X103061574Y-108317482D01*
X103062225Y-108313371D01*
X103080181Y-108200003D01*
X103080181Y-108199996D01*
X103061575Y-108082522D01*
X103061575Y-108082521D01*
X103061574Y-108082519D01*
X103061574Y-108082518D01*
X103007573Y-107976535D01*
X103007571Y-107976533D01*
X103007568Y-107976529D01*
X102923470Y-107892431D01*
X102923466Y-107892428D01*
X102923465Y-107892427D01*
X102817482Y-107838426D01*
X102817480Y-107838425D01*
X102817477Y-107838424D01*
X102700003Y-107819819D01*
X102700001Y-107819819D01*
X102700000Y-107819819D01*
X102660557Y-107826065D01*
X102591264Y-107817110D01*
X102537813Y-107772113D01*
X102517174Y-107705361D01*
X102535900Y-107638048D01*
X102553475Y-107615916D01*
X105194159Y-104975233D01*
X105212948Y-104959815D01*
X105219777Y-104955252D01*
X105224833Y-104951874D01*
X105233720Y-104938572D01*
X105233725Y-104938567D01*
X105239561Y-104929832D01*
X105239563Y-104929831D01*
X105283183Y-104864549D01*
X105303672Y-104761541D01*
X105300882Y-104747512D01*
X105298500Y-104723324D01*
X105298500Y-103724500D01*
X105318185Y-103657461D01*
X105370989Y-103611706D01*
X105422500Y-103600500D01*
X106994750Y-103600500D01*
X106994751Y-103600499D01*
X107009568Y-103597552D01*
X107053229Y-103588868D01*
X107053229Y-103588867D01*
X107053231Y-103588867D01*
X107119552Y-103544552D01*
X107153258Y-103494107D01*
X107206871Y-103449304D01*
X107256360Y-103439000D01*
X107673403Y-103439000D01*
X107740442Y-103458685D01*
G37*
%TD.AperFunction*%
%TA.AperFunction,Conductor*%
G36*
X110474375Y-108032951D02*
G01*
X110480853Y-108038983D01*
X111001521Y-108559651D01*
X111016941Y-108578439D01*
X111017123Y-108578711D01*
X111024889Y-108590333D01*
X111112214Y-108648683D01*
X111189220Y-108664000D01*
X111189222Y-108664000D01*
X111195190Y-108665187D01*
X111195193Y-108665187D01*
X111215222Y-108669171D01*
X111229244Y-108666381D01*
X111253433Y-108664000D01*
X112101599Y-108664000D01*
X112168638Y-108683685D01*
X112214393Y-108736489D01*
X112225002Y-108800152D01*
X112224500Y-108805249D01*
X112224499Y-109294747D01*
X112235651Y-109350810D01*
X112235651Y-109399190D01*
X112224499Y-109455252D01*
X112224499Y-109944747D01*
X112235651Y-110000810D01*
X112235651Y-110049190D01*
X112224499Y-110105252D01*
X112224500Y-110594750D01*
X112225002Y-110599848D01*
X112211982Y-110668494D01*
X112163917Y-110719203D01*
X112101599Y-110736000D01*
X111594401Y-110736000D01*
X111527362Y-110716315D01*
X111481607Y-110663511D01*
X111471663Y-110594353D01*
X111500688Y-110530797D01*
X111506720Y-110524319D01*
X111507568Y-110523470D01*
X111507573Y-110523465D01*
X111561574Y-110417482D01*
X111561575Y-110417477D01*
X111580181Y-110300003D01*
X111580181Y-110299996D01*
X111561575Y-110182522D01*
X111561575Y-110182521D01*
X111561574Y-110182519D01*
X111561574Y-110182518D01*
X111507573Y-110076535D01*
X111507571Y-110076533D01*
X111507568Y-110076529D01*
X111423470Y-109992431D01*
X111423466Y-109992428D01*
X111423465Y-109992427D01*
X111317482Y-109938426D01*
X111317480Y-109938425D01*
X111317477Y-109938424D01*
X111200003Y-109919819D01*
X111199997Y-109919819D01*
X111082522Y-109938424D01*
X111082521Y-109938424D01*
X110976533Y-109992428D01*
X110976529Y-109992431D01*
X110892431Y-110076529D01*
X110892428Y-110076533D01*
X110838424Y-110182521D01*
X110838424Y-110182522D01*
X110819819Y-110299996D01*
X110819819Y-110300003D01*
X110838424Y-110417477D01*
X110838424Y-110417478D01*
X110838425Y-110417481D01*
X110838426Y-110417482D01*
X110839333Y-110419263D01*
X110892428Y-110523466D01*
X110892431Y-110523470D01*
X110893280Y-110524319D01*
X110893982Y-110525605D01*
X110898166Y-110531364D01*
X110897422Y-110531904D01*
X110926765Y-110585642D01*
X110921781Y-110655334D01*
X110879909Y-110711267D01*
X110814445Y-110735684D01*
X110805599Y-110736000D01*
X110460714Y-110736000D01*
X110393675Y-110716315D01*
X110373033Y-110699681D01*
X110009955Y-110336603D01*
X109976470Y-110275280D01*
X109975169Y-110268357D01*
X109961574Y-110182518D01*
X109907573Y-110076535D01*
X109907571Y-110076533D01*
X109907568Y-110076529D01*
X109868720Y-110037681D01*
X109835235Y-109976358D01*
X109840219Y-109906666D01*
X109868720Y-109862319D01*
X109907568Y-109823470D01*
X109907573Y-109823465D01*
X109961574Y-109717482D01*
X109969195Y-109669366D01*
X109980181Y-109600003D01*
X109980181Y-109599996D01*
X109961575Y-109482521D01*
X109961574Y-109482519D01*
X109961574Y-109482518D01*
X109907573Y-109376535D01*
X109907571Y-109376533D01*
X109907568Y-109376529D01*
X109823470Y-109292431D01*
X109823467Y-109292429D01*
X109823465Y-109292427D01*
X109786888Y-109273790D01*
X109736093Y-109225816D01*
X109719298Y-109157995D01*
X109741836Y-109091860D01*
X109755497Y-109075631D01*
X110159655Y-108671473D01*
X110178446Y-108656053D01*
X110190333Y-108648111D01*
X110248683Y-108560786D01*
X110264000Y-108483780D01*
X110264000Y-108483776D01*
X110265188Y-108477805D01*
X110265189Y-108477798D01*
X110269171Y-108457779D01*
X110269171Y-108457777D01*
X110266382Y-108443754D01*
X110264000Y-108419566D01*
X110264000Y-108153435D01*
X110266383Y-108129243D01*
X110271555Y-108103243D01*
X110275801Y-108104087D01*
X110288857Y-108059625D01*
X110341661Y-108013870D01*
X110410819Y-108003926D01*
X110474375Y-108032951D01*
G37*
%TD.AperFunction*%
%TA.AperFunction,Conductor*%
G36*
X115953023Y-106470185D02*
G01*
X115973665Y-106486819D01*
X117236182Y-107749336D01*
X117269666Y-107810657D01*
X117272500Y-107837015D01*
X117272500Y-108225500D01*
X117252815Y-108292539D01*
X117200011Y-108338294D01*
X117148500Y-108349500D01*
X116830247Y-108349500D01*
X116771770Y-108361131D01*
X116771769Y-108361132D01*
X116705447Y-108405447D01*
X116661132Y-108471769D01*
X116661131Y-108471770D01*
X116649500Y-108530247D01*
X116649500Y-109048500D01*
X116629815Y-109115539D01*
X116577011Y-109161294D01*
X116525500Y-109172500D01*
X116349062Y-109172500D01*
X116282023Y-109152815D01*
X116247012Y-109118939D01*
X116217371Y-109075996D01*
X116218416Y-109075274D01*
X116191962Y-109019006D01*
X116201139Y-108949741D01*
X116217584Y-108924150D01*
X116217371Y-108924003D01*
X116250725Y-108875681D01*
X116307921Y-108792819D01*
X116361785Y-108650791D01*
X116380094Y-108500000D01*
X116361785Y-108349209D01*
X116307921Y-108207181D01*
X116221632Y-108082170D01*
X116107934Y-107981443D01*
X115973434Y-107910852D01*
X115973433Y-107910851D01*
X115973432Y-107910851D01*
X115825950Y-107874500D01*
X115825949Y-107874500D01*
X115674051Y-107874500D01*
X115674050Y-107874500D01*
X115531175Y-107909715D01*
X115461372Y-107906646D01*
X115404310Y-107866326D01*
X115378105Y-107801556D01*
X115377500Y-107789318D01*
X115377500Y-106820713D01*
X115379883Y-106796521D01*
X115380016Y-106795852D01*
X115382672Y-106782500D01*
X115362183Y-106679492D01*
X115338059Y-106643388D01*
X115317183Y-106576713D01*
X115335668Y-106509333D01*
X115387647Y-106462643D01*
X115441163Y-106450500D01*
X115885984Y-106450500D01*
X115953023Y-106470185D01*
G37*
%TD.AperFunction*%
%TA.AperFunction,Conductor*%
G36*
X111855334Y-103120532D02*
G01*
X111911267Y-103162404D01*
X111935684Y-103227868D01*
X111936000Y-103236714D01*
X111936000Y-104696173D01*
X111916315Y-104763212D01*
X111863511Y-104808967D01*
X111809759Y-104816695D01*
X111809759Y-104819819D01*
X111799997Y-104819819D01*
X111682522Y-104838424D01*
X111682521Y-104838424D01*
X111576533Y-104892428D01*
X111576529Y-104892431D01*
X111492431Y-104976529D01*
X111492428Y-104976533D01*
X111438424Y-105082521D01*
X111438424Y-105082522D01*
X111419819Y-105199996D01*
X111419819Y-105200003D01*
X111438424Y-105317477D01*
X111438424Y-105317478D01*
X111438425Y-105317481D01*
X111438426Y-105317482D01*
X111483518Y-105405981D01*
X111492428Y-105423466D01*
X111492431Y-105423470D01*
X111576529Y-105507568D01*
X111576533Y-105507571D01*
X111576535Y-105507573D01*
X111682518Y-105561574D01*
X111682520Y-105561574D01*
X111682522Y-105561575D01*
X111799997Y-105580181D01*
X111800000Y-105580181D01*
X111800003Y-105580181D01*
X111917477Y-105561575D01*
X111917478Y-105561575D01*
X111917479Y-105561574D01*
X111917482Y-105561574D01*
X112023465Y-105507573D01*
X112107573Y-105423465D01*
X112111957Y-105414860D01*
X112159927Y-105364066D01*
X112227747Y-105347269D01*
X112293883Y-105369804D01*
X112310122Y-105383474D01*
X112739467Y-105812819D01*
X112772952Y-105874142D01*
X112767968Y-105943834D01*
X112726096Y-105999767D01*
X112660632Y-106024184D01*
X112651786Y-106024500D01*
X112405247Y-106024500D01*
X112346770Y-106036131D01*
X112346769Y-106036132D01*
X112280447Y-106080447D01*
X112236132Y-106146769D01*
X112236131Y-106146770D01*
X112224500Y-106205247D01*
X112224500Y-106694750D01*
X112225002Y-106699848D01*
X112211982Y-106768494D01*
X112163917Y-106819203D01*
X112101599Y-106836000D01*
X111413859Y-106836000D01*
X111346820Y-106816315D01*
X111316114Y-106782386D01*
X111313306Y-106784427D01*
X111307574Y-106776537D01*
X111307573Y-106776535D01*
X111307570Y-106776532D01*
X111307568Y-106776529D01*
X111223470Y-106692431D01*
X111223466Y-106692428D01*
X111223465Y-106692427D01*
X111117482Y-106638426D01*
X111117480Y-106638425D01*
X111117477Y-106638424D01*
X111000003Y-106619819D01*
X111000001Y-106619819D01*
X111000000Y-106619819D01*
X110993894Y-106620785D01*
X110924601Y-106611830D01*
X110871150Y-106566832D01*
X110850512Y-106500080D01*
X110850500Y-106498448D01*
X110850500Y-104074210D01*
X110870184Y-104007175D01*
X110886813Y-103986538D01*
X111724318Y-103149033D01*
X111785642Y-103115548D01*
X111855334Y-103120532D01*
G37*
%TD.AperFunction*%
%TA.AperFunction,Conductor*%
G36*
X109746181Y-96729684D02*
G01*
X109802114Y-96771556D01*
X109826531Y-96837020D01*
X109825320Y-96865263D01*
X109819819Y-96899996D01*
X109819819Y-96900003D01*
X109838424Y-97017477D01*
X109838424Y-97017478D01*
X109838425Y-97017481D01*
X109838426Y-97017482D01*
X109844896Y-97030181D01*
X109892428Y-97123466D01*
X109892431Y-97123470D01*
X109983435Y-97214474D01*
X109982154Y-97215754D01*
X110017631Y-97261766D01*
X110023607Y-97331380D01*
X109990999Y-97393173D01*
X109978174Y-97404286D01*
X109892431Y-97490029D01*
X109892428Y-97490033D01*
X109838424Y-97596021D01*
X109838424Y-97596022D01*
X109819819Y-97713496D01*
X109819819Y-97713503D01*
X109838424Y-97830977D01*
X109838424Y-97830978D01*
X109838425Y-97830981D01*
X109838426Y-97830982D01*
X109848694Y-97851135D01*
X109892428Y-97936966D01*
X109892431Y-97936970D01*
X109976529Y-98021068D01*
X109976533Y-98021071D01*
X109976535Y-98021073D01*
X110082518Y-98075074D01*
X110082520Y-98075074D01*
X110082522Y-98075075D01*
X110199997Y-98093681D01*
X110200000Y-98093681D01*
X110200002Y-98093681D01*
X110279101Y-98081153D01*
X110348395Y-98090108D01*
X110401847Y-98135104D01*
X110422486Y-98201855D01*
X110422499Y-98203626D01*
X110422500Y-101318007D01*
X110402815Y-101385046D01*
X110386181Y-101405688D01*
X109275681Y-102516188D01*
X109214358Y-102549673D01*
X109144666Y-102544689D01*
X109088733Y-102502817D01*
X109064316Y-102437353D01*
X109064000Y-102428507D01*
X109064000Y-100361213D01*
X109066383Y-100337021D01*
X109069172Y-100323000D01*
X109048683Y-100219992D01*
X109005063Y-100154710D01*
X109005062Y-100154709D01*
X109003349Y-100152145D01*
X109003335Y-100152126D01*
X109001580Y-100149500D01*
X108990333Y-100132667D01*
X108986434Y-100130062D01*
X108978444Y-100124723D01*
X108959653Y-100109301D01*
X108680535Y-99830183D01*
X108647050Y-99768860D01*
X108652034Y-99699168D01*
X108693906Y-99643235D01*
X108759370Y-99618818D01*
X108824507Y-99632016D01*
X108882518Y-99661574D01*
X108882520Y-99661574D01*
X108882522Y-99661575D01*
X108999997Y-99680181D01*
X109000000Y-99680181D01*
X109000003Y-99680181D01*
X109117477Y-99661575D01*
X109117478Y-99661575D01*
X109117479Y-99661574D01*
X109117482Y-99661574D01*
X109223465Y-99607573D01*
X109307573Y-99523465D01*
X109361574Y-99417482D01*
X109361575Y-99417477D01*
X109380181Y-99300003D01*
X109380181Y-99299996D01*
X109361575Y-99182522D01*
X109361575Y-99182521D01*
X109361574Y-99182519D01*
X109361574Y-99182518D01*
X109307573Y-99076535D01*
X109307571Y-99076533D01*
X109307568Y-99076529D01*
X109223470Y-98992431D01*
X109223466Y-98992428D01*
X109223465Y-98992427D01*
X109117482Y-98938426D01*
X109117480Y-98938425D01*
X109117477Y-98938424D01*
X109000003Y-98919819D01*
X108999997Y-98919819D01*
X108882522Y-98938424D01*
X108882521Y-98938424D01*
X108776533Y-98992428D01*
X108776529Y-98992431D01*
X108692431Y-99076529D01*
X108692428Y-99076533D01*
X108638424Y-99182521D01*
X108638424Y-99182522D01*
X108619819Y-99299996D01*
X108619819Y-99300003D01*
X108638424Y-99417477D01*
X108638425Y-99417481D01*
X108667982Y-99475489D01*
X108680878Y-99544158D01*
X108654601Y-99608898D01*
X108597495Y-99649155D01*
X108527689Y-99652147D01*
X108469816Y-99619464D01*
X107315697Y-98465345D01*
X107300278Y-98446558D01*
X107292333Y-98434667D01*
X107292332Y-98434666D01*
X107290477Y-98431890D01*
X107269600Y-98365212D01*
X107288085Y-98297832D01*
X107340064Y-98251143D01*
X107393580Y-98239000D01*
X107986787Y-98239000D01*
X108010977Y-98241382D01*
X108025000Y-98244172D01*
X108128008Y-98223683D01*
X108193290Y-98180062D01*
X108193290Y-98180061D01*
X108204273Y-98172722D01*
X108215333Y-98165333D01*
X108223275Y-98153445D01*
X108238694Y-98134656D01*
X109615167Y-96758184D01*
X109676489Y-96724700D01*
X109746181Y-96729684D01*
G37*
%TD.AperFunction*%
%TA.AperFunction,Conductor*%
G36*
X112073459Y-96958685D02*
G01*
X112119214Y-97011489D01*
X112129158Y-97080647D01*
X112109517Y-97131898D01*
X112099718Y-97146561D01*
X112084302Y-97165344D01*
X111740345Y-97509301D01*
X111721560Y-97524719D01*
X111709666Y-97532666D01*
X111686882Y-97566764D01*
X111686880Y-97566768D01*
X111651317Y-97619990D01*
X111646291Y-97645260D01*
X111632719Y-97713496D01*
X111630828Y-97723001D01*
X111633617Y-97737021D01*
X111636000Y-97761213D01*
X111636000Y-101447417D01*
X111616315Y-101514456D01*
X111563511Y-101560211D01*
X111494353Y-101570155D01*
X111455706Y-101557902D01*
X111417481Y-101538425D01*
X111417477Y-101538424D01*
X111300003Y-101519819D01*
X111299997Y-101519819D01*
X111182522Y-101538424D01*
X111182518Y-101538425D01*
X111133284Y-101563512D01*
X111064615Y-101576408D01*
X110999875Y-101550131D01*
X110959618Y-101493025D01*
X110955371Y-101477211D01*
X110954669Y-101473683D01*
X110952881Y-101464689D01*
X110950500Y-101440505D01*
X110950500Y-97801687D01*
X110970185Y-97734648D01*
X111022989Y-97688893D01*
X111092147Y-97678949D01*
X111093831Y-97679204D01*
X111100000Y-97680181D01*
X111100000Y-97680180D01*
X111100001Y-97680181D01*
X111100003Y-97680181D01*
X111217477Y-97661575D01*
X111217478Y-97661575D01*
X111217479Y-97661574D01*
X111217482Y-97661574D01*
X111323465Y-97607573D01*
X111407573Y-97523465D01*
X111461574Y-97417482D01*
X111475164Y-97331679D01*
X111505093Y-97268544D01*
X111509956Y-97263395D01*
X111798033Y-96975319D01*
X111859356Y-96941834D01*
X111885714Y-96939000D01*
X112006420Y-96939000D01*
X112073459Y-96958685D01*
G37*
%TD.AperFunction*%
%TA.AperFunction,Conductor*%
G36*
X116972101Y-95118985D02*
G01*
X117016446Y-95147484D01*
X117076535Y-95207573D01*
X117182518Y-95261574D01*
X117268321Y-95275163D01*
X117331453Y-95305091D01*
X117336603Y-95309955D01*
X117864467Y-95837819D01*
X117897952Y-95899142D01*
X117892968Y-95968834D01*
X117851096Y-96024767D01*
X117785632Y-96049184D01*
X117776786Y-96049500D01*
X116730247Y-96049500D01*
X116671770Y-96061131D01*
X116671769Y-96061132D01*
X116605447Y-96105447D01*
X116561132Y-96171769D01*
X116561131Y-96171770D01*
X116549500Y-96230247D01*
X116549500Y-96586801D01*
X116529815Y-96653840D01*
X116477011Y-96699595D01*
X116407853Y-96709539D01*
X116344297Y-96680514D01*
X116323450Y-96657241D01*
X116308465Y-96635532D01*
X116271632Y-96582170D01*
X116157934Y-96481443D01*
X116023434Y-96410852D01*
X116023433Y-96410851D01*
X116023432Y-96410851D01*
X115875950Y-96374500D01*
X115875949Y-96374500D01*
X115724051Y-96374500D01*
X115724050Y-96374500D01*
X115576567Y-96410851D01*
X115442067Y-96481442D01*
X115328367Y-96582171D01*
X115242080Y-96707179D01*
X115242079Y-96707180D01*
X115188215Y-96849208D01*
X115177382Y-96938426D01*
X115169906Y-97000000D01*
X115188215Y-97150791D01*
X115242079Y-97292819D01*
X115312300Y-97394552D01*
X115332629Y-97424003D01*
X115331584Y-97424723D01*
X115358039Y-97481007D01*
X115348855Y-97550270D01*
X115332416Y-97575850D01*
X115332629Y-97575997D01*
X115242080Y-97707179D01*
X115242079Y-97707180D01*
X115195128Y-97830982D01*
X115188215Y-97849209D01*
X115169906Y-98000000D01*
X115188215Y-98150791D01*
X115242079Y-98292819D01*
X115295383Y-98370043D01*
X115332629Y-98424003D01*
X115331584Y-98424723D01*
X115358039Y-98481007D01*
X115348855Y-98550270D01*
X115328289Y-98582260D01*
X115326187Y-98584631D01*
X115266984Y-98621736D01*
X115197119Y-98620945D01*
X115145719Y-98590052D01*
X115141335Y-98585668D01*
X115129439Y-98577719D01*
X115110651Y-98562299D01*
X115014660Y-98466308D01*
X114981175Y-98404985D01*
X114979873Y-98398059D01*
X114961574Y-98282518D01*
X114907573Y-98176535D01*
X114907571Y-98176533D01*
X114907568Y-98176529D01*
X114823470Y-98092431D01*
X114823466Y-98092428D01*
X114823465Y-98092427D01*
X114717482Y-98038426D01*
X114717480Y-98038425D01*
X114717477Y-98038424D01*
X114600003Y-98019819D01*
X114600001Y-98019819D01*
X114600000Y-98019819D01*
X114581829Y-98022696D01*
X114518895Y-98032664D01*
X114449602Y-98023708D01*
X114396151Y-97978711D01*
X114375512Y-97911959D01*
X114375499Y-97910257D01*
X114375500Y-97730252D01*
X114374057Y-97723000D01*
X114364349Y-97674192D01*
X114364349Y-97625808D01*
X114375500Y-97569750D01*
X114375500Y-97147728D01*
X114395185Y-97080689D01*
X114447989Y-97034934D01*
X114517147Y-97024990D01*
X114518875Y-97025251D01*
X114535019Y-97027808D01*
X114549999Y-97030181D01*
X114550000Y-97030181D01*
X114550003Y-97030181D01*
X114667477Y-97011575D01*
X114667478Y-97011575D01*
X114667479Y-97011574D01*
X114667482Y-97011574D01*
X114773465Y-96957573D01*
X114857573Y-96873465D01*
X114911574Y-96767482D01*
X114912510Y-96761574D01*
X114930181Y-96650003D01*
X114930181Y-96649996D01*
X114911575Y-96532522D01*
X114911575Y-96532521D01*
X114911574Y-96532519D01*
X114911574Y-96532518D01*
X114857573Y-96426535D01*
X114857571Y-96426533D01*
X114857570Y-96426531D01*
X114850319Y-96419280D01*
X114816834Y-96357957D01*
X114814000Y-96331599D01*
X114814000Y-96152936D01*
X114833685Y-96085897D01*
X114850319Y-96065255D01*
X115501756Y-95413819D01*
X115563079Y-95380334D01*
X115589437Y-95377500D01*
X116463509Y-95377500D01*
X116487699Y-95379882D01*
X116501722Y-95382672D01*
X116604730Y-95362183D01*
X116670012Y-95318562D01*
X116670012Y-95318561D01*
X116682892Y-95309955D01*
X116692055Y-95303833D01*
X116699997Y-95291945D01*
X116715416Y-95273156D01*
X116841088Y-95147484D01*
X116902409Y-95114001D01*
X116972101Y-95118985D01*
G37*
%TD.AperFunction*%
%TA.AperFunction,Conductor*%
G36*
X108217539Y-92968185D02*
G01*
X108263294Y-93020989D01*
X108274500Y-93072500D01*
X108274499Y-93702113D01*
X108254814Y-93769153D01*
X108202010Y-93814907D01*
X108169897Y-93824586D01*
X108082521Y-93838424D01*
X107976533Y-93892428D01*
X107976529Y-93892431D01*
X107892431Y-93976529D01*
X107892428Y-93976533D01*
X107838424Y-94082521D01*
X107838424Y-94082522D01*
X107819819Y-94199996D01*
X107819819Y-94200003D01*
X107838424Y-94317477D01*
X107838424Y-94317478D01*
X107838425Y-94317481D01*
X107838426Y-94317482D01*
X107890768Y-94420210D01*
X107892428Y-94423466D01*
X107892431Y-94423470D01*
X107976529Y-94507568D01*
X107976533Y-94507571D01*
X107976535Y-94507573D01*
X108003025Y-94521070D01*
X108053820Y-94569042D01*
X108070616Y-94636863D01*
X108048080Y-94702998D01*
X108034411Y-94719235D01*
X107387181Y-95366466D01*
X107325858Y-95399951D01*
X107256167Y-95394967D01*
X107200233Y-95353096D01*
X107175816Y-95287631D01*
X107175500Y-95278785D01*
X107175500Y-95130249D01*
X107175499Y-95130247D01*
X107163868Y-95071770D01*
X107163867Y-95071769D01*
X107119552Y-95005447D01*
X107053230Y-94961132D01*
X107053229Y-94961131D01*
X106994752Y-94949500D01*
X106994748Y-94949500D01*
X106965153Y-94949500D01*
X106898114Y-94929815D01*
X106852359Y-94877011D01*
X106842415Y-94807853D01*
X106871440Y-94744297D01*
X106908855Y-94715016D01*
X106923465Y-94707573D01*
X107007573Y-94623465D01*
X107061574Y-94517482D01*
X107061626Y-94517153D01*
X107080181Y-94400003D01*
X107080181Y-94399996D01*
X107061575Y-94282522D01*
X107061575Y-94282521D01*
X107061574Y-94282519D01*
X107061574Y-94282518D01*
X107007573Y-94176535D01*
X107007571Y-94176533D01*
X107007568Y-94176529D01*
X106968719Y-94137679D01*
X106935235Y-94076356D01*
X106940220Y-94006664D01*
X106968721Y-93962317D01*
X107007569Y-93923469D01*
X107007573Y-93923465D01*
X107061574Y-93817482D01*
X107062402Y-93812254D01*
X107080181Y-93700003D01*
X107080181Y-93699996D01*
X107061575Y-93582521D01*
X107061574Y-93582519D01*
X107061574Y-93582518D01*
X107007573Y-93476535D01*
X107007571Y-93476533D01*
X107007568Y-93476529D01*
X106923470Y-93392431D01*
X106923466Y-93392428D01*
X106923465Y-93392427D01*
X106817482Y-93338426D01*
X106817479Y-93338425D01*
X106817478Y-93338425D01*
X106769174Y-93330774D01*
X106706040Y-93300844D01*
X106669109Y-93241533D01*
X106666100Y-93188903D01*
X106669361Y-93168319D01*
X106680181Y-93100000D01*
X106680180Y-93099996D01*
X106678898Y-93091899D01*
X106687852Y-93022605D01*
X106732848Y-92969153D01*
X106799600Y-92948513D01*
X106801371Y-92948500D01*
X108150500Y-92948500D01*
X108217539Y-92968185D01*
G37*
%TD.AperFunction*%
%TD*%
M02*
